<svg width="25" height="25" viewBox="0 0 25 25" fill="none" xmlns="http://www.w3.org/2000/svg">
<path d="M14.4574 8.26153C14.4574 8.9396 14.3239 9.61103 14.0644 10.2375C13.8049 10.8639 13.4246 11.4331 12.9451 11.9126C12.4656 12.3921 11.8964 12.7724 11.27 13.0319C10.6435 13.2914 9.9721 13.4249 9.29403 13.4249C7.92461 13.4249 6.61127 12.8809 5.64294 11.9126C4.67462 10.9443 4.13062 9.63095 4.13062 8.26153C4.13062 6.89211 4.67462 5.57877 5.64294 4.61044C6.61127 3.64211 7.92461 3.09811 9.29403 3.09811C9.9721 3.09811 10.6435 3.23167 11.27 3.49115C11.8964 3.75064 12.4656 4.13097 12.9451 4.61044C13.4246 5.08991 13.8049 5.65912 14.0644 6.28557C14.3239 6.91203 14.4574 7.58346 14.4574 8.26153ZM10.8017 16.0583L13.4248 18.6193L11.3594 18.64L7.74501 22.2854L6.19598 20.7467L10.8017 16.0583ZM17.5555 2.06543C18.6708 2.06543 19.6209 2.97419 19.6209 4.1308C19.6209 5.24609 18.7121 6.19616 17.5555 6.19616C16.4402 6.19616 15.4901 5.2874 15.4901 4.1308C15.4901 3.0155 16.4092 2.06543 17.5555 2.06543ZM14.8808 15.4903H11.9687L17.855 21.3869L19.3214 19.9205L14.8808 15.4903ZM15.6141 14.7571L20.0443 19.1976L20.2715 19.4145C20.509 19.0221 20.6535 18.5884 20.6535 18.072V9.81055C20.6535 9.12584 20.3815 8.46917 19.8974 7.98501C19.4132 7.50085 18.7565 7.22885 18.0718 7.22885C17.3871 7.22885 16.7305 7.50085 16.2463 7.98501C15.7621 8.46917 15.4901 9.12584 15.4901 9.81055V14.6332L15.6141 14.7571Z" fill="#B80028"/>
</svg>
