<svg width="29" height="29" viewBox="0 0 29 29" fill="none" xmlns="http://www.w3.org/2000/svg">
<rect x="0.439024" y="0.439024" width="28.122" height="28.122" rx="5.56098" fill="black"/>
<rect x="0.439024" y="0.439024" width="28.122" height="28.122" rx="5.56098" stroke="black" stroke-width="0.878049"/>
<path d="M11.75 4.87329C10.8966 4.87284 10.0641 5.13709 9.36716 5.62962C8.67023 6.12215 8.14322 6.8187 7.85875 7.62329H3.5V10.3733H7.85875C8.14283 11.1784 8.66965 11.8756 9.36658 12.3687C10.0635 12.8619 10.8963 13.1267 11.75 13.1267C12.6038 13.1267 13.4365 12.8619 14.1334 12.3687C14.8304 11.8756 15.3572 11.1784 15.6413 10.3733H25.5V7.62329H15.6413C15.3568 6.8187 14.8298 6.12215 14.1329 5.62962C13.4359 5.13709 12.6034 4.87284 11.75 4.87329ZM10.375 8.9983C10.375 8.63362 10.5199 8.28389 10.7777 8.02602C11.0356 7.76816 11.3853 7.62329 11.75 7.62329C12.1147 7.62329 12.4644 7.76816 12.7223 8.02602C12.9801 8.28389 13.125 8.63362 13.125 8.9983C13.125 9.36297 12.9801 9.71271 12.7223 9.97057C12.4644 10.2284 12.1147 10.3733 11.75 10.3733C11.3853 10.3733 11.0356 10.2284 10.7777 9.97057C10.5199 9.71271 10.375 9.36297 10.375 8.9983ZM17.25 15.8733C16.3966 15.8729 15.5641 16.1371 14.8672 16.6296C14.1702 17.1222 13.6432 17.8187 13.3588 18.6233H3.5V21.3733H13.3588C13.6428 22.1784 14.1697 22.8756 14.8666 23.3687C15.5635 23.8619 16.3963 24.1267 17.25 24.1267C18.1038 24.1267 18.9365 23.8619 19.6334 23.3687C20.3304 22.8756 20.8572 22.1784 21.1413 21.3733H25.5V18.6233H21.1413C20.8568 17.8187 20.3298 17.1222 19.6329 16.6296C18.9359 16.1371 18.1034 15.8729 17.25 15.8733ZM15.875 19.9983C15.875 19.6336 16.0199 19.2839 16.2777 19.026C16.5356 18.7682 16.8853 18.6233 17.25 18.6233C17.6147 18.6233 17.9644 18.7682 18.2223 19.026C18.4801 19.2839 18.625 19.6336 18.625 19.9983C18.625 20.363 18.4801 20.7127 18.2223 20.9706C17.9644 21.2284 17.6147 21.3733 17.25 21.3733C16.8853 21.3733 16.5356 21.2284 16.2777 20.9706C16.0199 20.7127 15.875 20.363 15.875 19.9983Z" fill="white"/>
</svg>
