<svg width="26" height="25" viewBox="0 0 26 25" fill="none" xmlns="http://www.w3.org/2000/svg">
<g clip-path="url(#clip0_412_580)">
<path d="M21.0168 7.46639L21.0275 7.45607L17.0729 3.61449L15.9461 4.70913L18.1891 6.88809C17.1898 7.25986 16.4776 8.18927 16.4776 9.29424C16.4776 10.7193 17.6682 11.876 19.1352 11.876C19.5179 11.876 19.8687 11.7933 20.1983 11.6591V19.1047C20.1983 19.6727 19.7199 20.1374 19.1352 20.1374C18.5505 20.1374 18.0722 19.6727 18.0722 19.1047V14.4577C18.0722 13.3217 17.1154 12.3923 15.9461 12.3923H14.883V5.16351C14.883 4.02756 13.9263 3.09814 12.7569 3.09814H6.37855C5.20919 3.09814 4.25244 4.02756 4.25244 5.16351V21.6864H14.883V13.9413H16.4776V19.1047C16.4776 20.5298 17.6682 21.6864 19.1352 21.6864C20.6022 21.6864 21.7929 20.5298 21.7929 19.1047V9.29424C21.7929 8.58169 21.4952 7.9311 21.0168 7.46639ZM12.7569 10.3269H6.37855V5.16351H12.7569V10.3269ZM19.1352 10.3269C18.5505 10.3269 18.0722 9.86222 18.0722 9.29424C18.0722 8.72627 18.5505 8.26156 19.1352 8.26156C19.7199 8.26156 20.1983 8.72627 20.1983 9.29424C20.1983 9.86222 19.7199 10.3269 19.1352 10.3269Z" fill="#B80028"/>
</g>
<defs>
<clipPath id="clip0_412_580">
<rect width="25.5133" height="24.7844" fill="white"/>
</clipPath>
</defs>
</svg>
