<svg width="30" height="35" viewBox="0 0 30 35" fill="none" xmlns="http://www.w3.org/2000/svg">
<g clip-path="url(#clip0_412_574)">
<path d="M26.54 7.15196C25.913 6.43064 25.1687 5.85844 24.3494 5.46804C23.5301 5.07765 22.6519 4.87671 21.7651 4.87671C20.8783 4.87671 20.0001 5.07765 19.1808 5.46804C18.3615 5.85844 17.6171 6.43064 16.9902 7.15196L15.6891 8.64826L14.3879 7.15196C13.1216 5.69562 11.404 4.87746 9.61306 4.87746C7.82213 4.87746 6.10455 5.69562 4.83817 7.15196C3.5718 8.6083 2.86035 10.5835 2.86035 12.6431C2.86035 14.7026 3.5718 16.6779 4.83817 18.1342L6.1393 19.6305L15.6891 30.6127L25.2388 19.6305L26.54 18.1342C27.1672 17.4132 27.6648 16.5572 28.0043 15.615C28.3437 14.6728 28.5185 13.6629 28.5185 12.6431C28.5185 11.6232 28.3437 10.6133 28.0043 9.67116C27.6648 8.72898 27.1672 7.87294 26.54 7.15196Z" stroke="#B80028" stroke-width="2.94595" stroke-linecap="round" stroke-linejoin="round"/>
</g>
<defs>
<clipPath id="clip0_412_574">
<rect width="29.4595" height="33.8784" fill="white" transform="translate(0.405518 0.641846)"/>
</clipPath>
</defs>
</svg>
