<svg width="30" height="27" viewBox="0 0 30 27" fill="none" xmlns="http://www.w3.org/2000/svg">
<g clip-path="url(#clip0_412_575)">
<g filter="url(#filter0_d_412_575)">
<path d="M25.9422 2.34399C25.2944 1.60087 24.5252 1.01139 23.6786 0.609197C22.832 0.207008 21.9245 0 21.0081 0C20.0917 0 19.1843 0.207008 18.3377 0.609197C17.4911 1.01139 16.7219 1.60087 16.0741 2.34399L14.7296 3.88549L13.3851 2.34399C12.0765 0.843655 10.3016 0.000777674 8.45098 0.00077769C6.60034 0.000777706 4.8255 0.843655 3.51691 2.34399C2.20831 3.84432 1.47314 5.8792 1.47314 8.00099C1.47314 10.1228 2.20831 12.1577 3.51691 13.658L4.86141 15.1995L14.7296 26.5135L24.5977 15.1995L25.9422 13.658C26.5904 12.9152 27.1045 12.0333 27.4553 11.0627C27.8061 10.092 27.9867 9.05167 27.9867 8.00099C27.9867 6.95032 27.8061 5.90994 27.4553 4.9393C27.1045 3.96865 26.5904 3.08675 25.9422 2.34399Z" fill="#B80028"/>
</g>
</g>
<defs>
<filter id="filter0_d_412_575" x="-0.999828" y="-2.47297" width="34.4053" height="34.4053" filterUnits="userSpaceOnUse" color-interpolation-filters="sRGB">
<feFlood flood-opacity="0" result="BackgroundImageFix"/>
<feColorMatrix in="SourceAlpha" type="matrix" values="0 0 0 0 0 0 0 0 0 0 0 0 0 0 0 0 0 0 127 0" result="hardAlpha"/>
<feMorphology radius="1" operator="dilate" in="SourceAlpha" result="effect1_dropShadow_412_575"/>
<feOffset dx="1.47297" dy="1.47297"/>
<feGaussianBlur stdDeviation="1.47297"/>
<feComposite in2="hardAlpha" operator="out"/>
<feColorMatrix type="matrix" values="0 0 0 0 0.721569 0 0 0 0 0 0 0 0 0 0.156863 0 0 0 0.56 0"/>
<feBlend mode="normal" in2="BackgroundImageFix" result="effect1_dropShadow_412_575"/>
<feBlend mode="normal" in="SourceGraphic" in2="effect1_dropShadow_412_575" result="shape"/>
</filter>
<clipPath id="clip0_412_575">
<rect width="29.46" height="26.5135" fill="white"/>
</clipPath>
</defs>
</svg>
