<svg width="29" height="29" viewBox="0 0 29 29" fill="none" xmlns="http://www.w3.org/2000/svg">
<path fill-rule="evenodd" clip-rule="evenodd" d="M0 6.5V13H6.5H13V6.5V0H6.5H0V6.5ZM16 6.5V13H22.5H29V6.5V0H22.5H16V6.5ZM10 6.5C10 9.833 9.833 10 6.5 10C3.167 10 3 9.833 3 6.5C3 3.167 3.167 3 6.5 3C9.833 3 10 3.167 10 6.5ZM26 6.5C26 9.833 25.833 10 22.5 10C19.167 10 19 9.833 19 6.5C19 3.167 19.167 3 22.5 3C25.833 3 26 3.167 26 6.5ZM0 22.5V29H6.5H13V22.5V16H6.5H0V22.5ZM16 22.5V29H22.5H29V22.5V16H22.5H16V22.5ZM10 22.5C10 25.833 9.833 26 6.5 26C3.167 26 3 25.833 3 22.5C3 19.167 3.167 19 6.5 19C9.833 19 10 19.167 10 22.5ZM26 22.5C26 25.833 25.833 26 22.5 26C19.167 26 19 25.833 19 22.5C19 19.167 19.167 19 22.5 19C25.833 19 26 19.167 26 22.5Z" fill="#A4A4A4"/>
</svg>
