<svg width="23" height="23" viewBox="0 0 23 23" fill="none" xmlns="http://www.w3.org/2000/svg">
<path d="M3.7661 19.7729C2.98146 19.7729 2.31452 19.4982 1.76527 18.949C1.21603 18.3997 0.941406 17.7328 0.941406 16.9482C0.941406 16.3362 1.11795 15.7869 1.47104 15.3004C1.82412 14.814 2.27529 14.4766 2.82453 14.2882V8.30932C2.27529 8.121 1.82412 7.78361 1.47104 7.29714C1.11795 6.81066 0.941406 6.26142 0.941406 5.6494C0.941406 4.86476 1.21603 4.19782 1.76527 3.64858C2.31452 3.09933 2.98146 2.82471 3.7661 2.82471C4.55073 2.82471 5.21768 3.09933 5.76692 3.64858C6.31617 4.19782 6.59079 4.86476 6.59079 5.6494C6.59079 6.26142 6.41425 6.81066 6.06116 7.29714C5.70807 7.78361 5.25691 8.121 4.70766 8.30932V10.3572H10.357V8.30932C9.8078 8.121 9.35663 7.78361 9.00355 7.29714C8.65046 6.81066 8.47392 6.26142 8.47392 5.6494C8.47392 4.86476 8.74854 4.19782 9.29779 3.64858C9.84703 3.09933 10.514 2.82471 11.2986 2.82471C12.0832 2.82471 12.7502 3.09933 13.2994 3.64858C13.8487 4.19782 14.1233 4.86476 14.1233 5.6494C14.1233 6.26142 13.9468 6.81066 13.5937 7.29714C13.2406 7.78361 12.7894 8.121 12.2402 8.30932V10.3572H16.948C17.2148 10.3572 17.4384 10.267 17.6189 10.0865C17.7993 9.90605 17.8896 9.68243 17.8896 9.41565V8.30932C17.3403 8.121 16.8891 7.78361 16.5361 7.29714C16.183 6.81066 16.0064 6.26142 16.0064 5.6494C16.0064 4.86476 16.2811 4.19782 16.8303 3.64858C17.3795 3.09933 18.0465 2.82471 18.8311 2.82471C19.6158 2.82471 20.2827 3.09933 20.8319 3.64858C21.3812 4.19782 21.6558 4.86476 21.6558 5.6494C21.6558 6.26142 21.4793 6.81066 21.1262 7.29714C20.7731 7.78361 20.3219 8.121 19.7727 8.30932V9.41565C19.7727 10.2003 19.4981 10.8672 18.9488 11.4165C18.3996 11.9657 17.7326 12.2403 16.948 12.2403H12.2402V14.2882C12.7894 14.4766 13.2406 14.814 13.5937 15.3004C13.9468 15.7869 14.1233 16.3362 14.1233 16.9482C14.1233 17.7328 13.8487 18.3997 13.2994 18.949C12.7502 19.4982 12.0832 19.7729 11.2986 19.7729C10.514 19.7729 9.84703 19.4982 9.29779 18.949C8.74854 18.3997 8.47392 17.7328 8.47392 16.9482C8.47392 16.3362 8.65046 15.7869 9.00355 15.3004C9.35663 14.814 9.8078 14.4766 10.357 14.2882V12.2403H4.70766V14.2882C5.25691 14.4766 5.70807 14.814 6.06116 15.3004C6.41425 15.7869 6.59079 16.3362 6.59079 16.9482C6.59079 17.7328 6.31617 18.3997 5.76692 18.949C5.21768 19.4982 4.55073 19.7729 3.7661 19.7729Z" fill="#B80028"/>
</svg>
