<svg width="69" height="32" viewBox="0 0 69 32" fill="none" xmlns="http://www.w3.org/2000/svg">
<rect x="0.5" y="0.5" width="67.5216" height="30.7474" rx="2.5" fill="white"/>
<rect x="0.5" y="0.5" width="67.5216" height="30.7474" rx="2.5" stroke="#D4D4D4"/>
<path d="M4.89014 8.37378H20.6401C20.8722 8.37378 21.0948 8.46158 21.2589 8.61786C21.423 8.77414 21.5151 8.9861 21.5151 9.20711V22.5404C21.5151 22.7615 21.423 22.9734 21.2589 23.1297C21.0948 23.286 20.8722 23.3738 20.6401 23.3738H4.89014C4.65807 23.3738 4.43551 23.286 4.27142 23.1297C4.10732 22.9734 4.01514 22.7615 4.01514 22.5404V9.20711C4.01514 8.9861 4.10732 8.77414 4.27142 8.61786C4.43551 8.46158 4.65807 8.37378 4.89014 8.37378ZM11.8901 12.9571V18.7904H13.6401V12.9571H11.8901ZM11.6408 12.9571H9.79101L8.48114 16.3846L7.17126 12.9571H5.32151L7.60614 18.7604H9.35614L11.6408 12.9571ZM16.2651 17.1238H17.5776C18.1578 17.1238 18.7142 16.9043 19.1244 16.5136C19.5347 16.1229 19.7651 15.593 19.7651 15.0404C19.7651 14.4879 19.5347 13.958 19.1244 13.5673C18.7142 13.1766 18.1578 12.9571 17.5776 12.9571H14.5151V18.7904H16.2651V17.1238ZM16.2651 15.4571V14.6238H17.5776C17.6937 14.6238 17.8049 14.6677 17.887 14.7458C17.969 14.824 18.0151 14.9299 18.0151 15.0404C18.0151 15.151 17.969 15.2569 17.887 15.3351C17.8049 15.4132 17.6937 15.4571 17.5776 15.4571H16.2651Z" fill="#B80028"/>
<path d="M44.0026 11.1071H42.4106V10.1274H46.7493V11.1071H45.3147L41.2559 22.3738H39.314L34.7653 11.1071H33.2607V10.1274H38.6317V11.1071H36.9522L40.1012 19.2772L40.6086 20.9392H40.6786L41.2034 19.2422L44.0026 11.1071ZM52.811 22.3738H47.6675V21.3941H49.2595V11.1071H47.6675V10.1274H52.811V11.1071H51.2189V21.3941H52.811V22.3738ZM54.2882 11.1071V10.1274H56.1077C56.6325 10.1274 57.1982 10.104 57.8047 10.0574C58.4228 10.0107 59.0176 9.98741 59.5891 9.98741C60.2306 9.98741 60.8604 10.0516 61.4786 10.1799C62.0967 10.2965 62.6449 10.5006 63.1231 10.7922C63.6013 11.0838 63.9862 11.4745 64.2778 11.9643C64.581 12.4425 64.7326 13.0432 64.7326 13.7663C64.7326 14.4544 64.581 15.0493 64.2778 15.5508C63.9745 16.0406 63.5721 16.443 63.0706 16.7579C62.5808 17.0728 62.0093 17.3061 61.3561 17.4577C60.7147 17.6093 60.0498 17.6852 59.3617 17.6852C59.2917 17.6852 59.1868 17.6852 59.0468 17.6852C58.9068 17.6852 58.7552 17.6852 58.5919 17.6852C58.4403 17.6735 58.2945 17.6618 58.1546 17.6502C58.0146 17.6385 57.9096 17.6268 57.8397 17.6152V21.3941H59.5891V22.3738H54.2882V21.3941H55.8802V11.1071H54.2882ZM57.8397 16.618C57.898 16.6413 57.9855 16.6588 58.1021 16.6705C58.2304 16.6705 58.3645 16.6763 58.5045 16.6879C58.6444 16.6996 58.7786 16.7054 58.9068 16.7054C59.0468 16.7054 59.1518 16.7054 59.2218 16.7054C59.6766 16.7054 60.1023 16.653 60.4989 16.548C60.9071 16.4314 61.2628 16.2564 61.5661 16.0231C61.8693 15.7899 62.1084 15.4866 62.2834 15.1134C62.4583 14.7402 62.5458 14.2912 62.5458 13.7663C62.5458 12.8099 62.2425 12.1043 61.636 11.6494C61.0412 11.1946 60.2248 10.9671 59.1868 10.9671C58.8719 10.9671 58.6094 10.9788 58.3995 11.0021C58.1896 11.0138 58.0029 11.0371 57.8397 11.0721V16.618Z" fill="black"/>
</svg>
