<svg width="94" height="34" viewBox="0 0 94 34" fill="none" xmlns="http://www.w3.org/2000/svg">
<rect x="0.5" y="0.5" width="93" height="32.5318" rx="2.5" fill="white"/>
<rect x="0.5" y="0.5" width="93" height="32.5318" rx="2.5" stroke="#D4D4D4"/>
<g clip-path="url(#clip0_411_419)">
<path d="M14.1191 10.3936H29.9738C30.2074 10.3936 30.4315 10.477 30.5967 10.6254C30.7618 10.7739 30.8546 10.9753 30.8546 11.1852V23.8519C30.8546 24.0619 30.7618 24.2632 30.5967 24.4117C30.4315 24.5601 30.2074 24.6436 29.9738 24.6436H14.1191C13.8855 24.6436 13.6615 24.5601 13.4963 24.4117C13.3311 24.2632 13.2383 24.0619 13.2383 23.8519V11.1852C13.2383 10.9753 13.3311 10.7739 13.4963 10.6254C13.6615 10.477 13.8855 10.3936 14.1191 10.3936ZM21.1656 14.7477V20.2894H22.9273V14.7477H21.1656ZM20.9146 14.7477H19.0526L17.734 18.0038L16.4154 14.7477H14.5533L16.8532 20.2609H18.6148L20.9146 14.7477ZM25.5697 18.7061H26.891C27.475 18.7061 28.0351 18.4975 28.448 18.1264C28.861 17.7552 29.093 17.2518 29.093 16.7269C29.093 16.202 28.861 15.6986 28.448 15.3274C28.0351 14.9562 27.475 14.7477 26.891 14.7477H23.8081V20.2894H25.5697V18.7061ZM25.5697 17.1227V16.3311H26.891C27.0078 16.3311 27.1198 16.3728 27.2024 16.447C27.285 16.5212 27.3314 16.6219 27.3314 16.7269C27.3314 16.8319 27.285 16.9326 27.2024 17.0068C27.1198 17.081 27.0078 17.1227 26.891 17.1227H25.5697Z" fill="#B80028"/>
<mask id="path-3-inside-1_411_419" fill="white">
<path d="M37.1072 8.50456H34.5558V11.0559H33.7054V8.50456H31.1541V7.65412H33.7054V5.10278H34.5558V7.65412H37.1072V8.50456Z"/>
</mask>
<path d="M37.1072 8.50456H34.5558V11.0559H33.7054V8.50456H31.1541V7.65412H33.7054V5.10278H34.5558V7.65412H37.1072V8.50456Z" fill="#B80028"/>
<path d="M37.1072 8.50456V13.5046H42.1072V8.50456H37.1072ZM34.5558 8.50456V3.50456H29.5558V8.50456H34.5558ZM34.5558 11.0559V16.0559H39.5558V11.0559H34.5558ZM33.7054 11.0559H28.7054V16.0559H33.7054V11.0559ZM33.7054 8.50456H38.7054V3.50456H33.7054V8.50456ZM31.1541 8.50456H26.1541V13.5046H31.1541V8.50456ZM31.1541 7.65412V2.65412H26.1541V7.65412H31.1541ZM33.7054 7.65412V12.6541H38.7054V7.65412H33.7054ZM33.7054 5.10278V0.102783H28.7054V5.10278H33.7054ZM34.5558 5.10278H39.5558V0.102783H34.5558V5.10278ZM34.5558 7.65412H29.5558V12.6541H34.5558V7.65412ZM37.1072 7.65412H42.1072V2.65412H37.1072V7.65412ZM37.1072 3.50456H34.5558V13.5046H37.1072V3.50456ZM29.5558 8.50456V11.0559H39.5558V8.50456H29.5558ZM34.5558 6.0559H33.7054V16.0559H34.5558V6.0559ZM38.7054 11.0559V8.50456H28.7054V11.0559H38.7054ZM33.7054 3.50456H31.1541V13.5046H33.7054V3.50456ZM36.1541 8.50456V7.65412H26.1541V8.50456H36.1541ZM31.1541 12.6541H33.7054V2.65412H31.1541V12.6541ZM38.7054 7.65412V5.10278H28.7054V7.65412H38.7054ZM33.7054 10.1028H34.5558V0.102783H33.7054V10.1028ZM29.5558 5.10278V7.65412H39.5558V5.10278H29.5558ZM34.5558 12.6541H37.1072V2.65412H34.5558V12.6541ZM32.1072 7.65412V8.50456H42.1072V7.65412H32.1072Z" fill="#B80028" mask="url(#path-3-inside-1_411_419)"/>
</g>
<path d="M49.4564 11.9992H47.8644V11.0195H52.2031V11.9992H50.7686L46.7098 23.2659H44.7678L40.2192 11.9992H38.7146V11.0195H44.0855V11.9992H42.406L45.5551 20.1693L46.0624 21.8313H46.1324L46.6573 20.1343L49.4564 11.9992ZM62.9535 11.9992H61.3614V11.0195H65.7002V11.9992H64.2656L60.2068 23.2659H58.2648L53.7162 11.9992H52.2116V11.0195H57.5825V11.9992H55.903L59.0521 20.1693L59.5595 21.8313H59.6294L60.1543 20.1343L62.9535 11.9992ZM71.7619 23.2659H66.6184V22.2862H68.2104V11.9992H66.6184V11.0195H71.7619V11.9992H70.1698V22.2862H71.7619V23.2659ZM73.2391 11.9992V11.0195H75.0585C75.5834 11.0195 76.1491 10.9961 76.7555 10.9495C77.3737 10.9028 77.9685 10.8795 78.54 10.8795C79.1815 10.8795 79.8113 10.9437 80.4295 11.0719C81.0476 11.1886 81.5958 11.3927 82.074 11.6843C82.5522 11.9758 82.9371 12.3666 83.2286 12.8564C83.5319 13.3346 83.6835 13.9353 83.6835 14.6584C83.6835 15.3465 83.5319 15.9414 83.2286 16.4429C82.9254 16.9327 82.523 17.3351 82.0215 17.65C81.5316 17.9649 80.9601 18.1982 80.307 18.3498C79.6655 18.5014 79.0007 18.5772 78.3126 18.5772C78.2426 18.5772 78.1376 18.5772 77.9977 18.5772C77.8577 18.5772 77.7061 18.5772 77.5428 18.5772C77.3912 18.5656 77.2454 18.5539 77.1054 18.5423C76.9655 18.5306 76.8605 18.5189 76.7905 18.5073V22.2862H78.54V23.2659H73.2391V22.2862H74.8311V11.9992H73.2391ZM76.7905 17.5101C76.8489 17.5334 76.9363 17.5509 77.053 17.5625C77.1813 17.5625 77.3154 17.5684 77.4553 17.58C77.5953 17.5917 77.7294 17.5975 77.8577 17.5975C77.9977 17.5975 78.1026 17.5975 78.1726 17.5975C78.6275 17.5975 79.0532 17.545 79.4498 17.4401C79.858 17.3234 80.2137 17.1485 80.5169 16.9152C80.8202 16.682 81.0593 16.3787 81.2342 16.0055C81.4092 15.6323 81.4967 15.1832 81.4967 14.6584C81.4967 13.702 81.1934 12.9964 80.5869 12.5415C79.9921 12.0866 79.1757 11.8592 78.1376 11.8592C77.8227 11.8592 77.5603 11.8709 77.3504 11.8942C77.1404 11.9059 76.9538 11.9292 76.7905 11.9642V17.5101Z" fill="black"/>
<defs>
<clipPath id="clip0_411_419">
<rect width="28.4292" height="24.7844" fill="white" transform="translate(9.2854 4.37378)"/>
</clipPath>
</defs>
</svg>
