<svg width="48" height="48" viewBox="0 0 48 48" fill="none" xmlns="http://www.w3.org/2000/svg">
<path fill-rule="evenodd" clip-rule="evenodd" d="M37.5383 24C37.5383 25.7779 37.1882 27.5384 36.5078 29.181C35.8274 30.8235 34.8302 32.316 33.573 33.5731C32.3159 34.8303 30.8234 35.8275 29.1808 36.5079C27.5383 37.1883 25.7778 37.5385 23.9999 37.5385C22.222 37.5385 20.4615 37.1883 18.8189 36.5079C17.1764 35.8275 15.6839 34.8303 14.4267 33.5731C13.1696 32.316 12.1724 30.8235 11.492 29.181C10.8116 27.5384 10.4614 25.7779 10.4614 24C10.4614 22.2221 10.8116 20.4616 11.492 18.8191C12.1724 17.1765 13.1696 15.684 14.4267 14.4269C15.6839 13.1697 17.1764 12.1725 18.8189 11.4921C20.4615 10.8117 22.222 10.4615 23.9999 10.4615C25.7778 10.4615 27.5383 10.8117 29.1808 11.4921C30.8234 12.1725 32.3159 13.1697 33.573 14.4269C34.8302 15.684 35.8274 17.1765 36.5078 18.8191C37.1882 20.4616 37.5383 22.2221 37.5383 24Z" fill="#1E1D51"/>
<path fill-rule="evenodd" clip-rule="evenodd" d="M23.9476 14.4977C22.7913 14.5194 21.682 14.7252 20.6508 15.0851V22.5174H23.9476V14.4977ZM17.9508 16.7126C16.2316 18.1718 15.0193 20.1842 14.607 22.4643H17.9508V16.7126ZM20.5341 25.1543V32.9243C21.5924 33.2836 22.7308 33.4891 23.9175 33.5108V25.1543H20.5341ZM14.5962 25.1754C14.9389 27.6035 16.177 29.7512 17.972 31.2865V25.1754H14.5962Z" fill="url(#paint0_linear_1_74802)"/>
<path fill-rule="evenodd" clip-rule="evenodd" d="M24.187 14.5934C29.2954 14.6932 33.4067 18.8679 33.4067 24.0002C33.4067 29.1325 29.2954 33.3049 24.187 33.4047V14.5934Z" fill="url(#paint1_linear_1_74802)"/>
<path fill-rule="evenodd" clip-rule="evenodd" d="M20.4051 15.2032V22.7281H23.896V24.9494H20.4051V32.8166C19.5981 32.4835 18.8464 32.0446 18.1683 31.5167V24.9494H14.5314C14.501 24.6406 14.4854 24.3276 14.4854 24.0108C14.4854 23.5758 14.5149 23.1477 14.5718 22.7281C14.5761 22.6961 14.5806 22.6642 14.5852 22.6323C14.5806 22.6642 14.5761 22.6961 14.5718 22.7281H18.1683V16.5035C18.8464 15.9755 19.5981 15.5364 20.4051 15.2032Z" fill="url(#paint2_linear_1_74802)"/>
<path fill-rule="evenodd" clip-rule="evenodd" d="M17.9993 16.7542C17.9714 16.7774 17.9436 16.8009 17.916 16.8243C17.9437 16.8008 17.9713 16.7775 17.9993 16.7542Z" fill="#FFF38D"/>
<path fill-rule="evenodd" clip-rule="evenodd" d="M14.6465 25.0209C14.6495 25.0492 14.6526 25.0774 14.6559 25.1056C14.6526 25.0775 14.6495 25.0492 14.6465 25.0209Z" fill="#FFF38D"/>
<path fill-rule="evenodd" clip-rule="evenodd" d="M17.916 31.1747C17.9436 31.1982 17.9714 31.2217 17.9993 31.2448C17.9713 31.2216 17.9437 31.1983 17.916 31.1747Z" fill="#FFF38D"/>
<path d="M29.8045 17.7613H26.5684V18.2128H29.8045V17.7613Z" fill="#9D0D16"/>
<path fill-rule="evenodd" clip-rule="evenodd" d="M24.0396 9.77562C19.1146 9.76779 14.3193 12.3195 11.6817 16.888C7.7559 23.6877 10.0885 32.3926 16.8882 36.3184C23.6879 40.2442 32.3928 37.9116 36.3186 31.1119C40.2444 24.3123 37.9118 15.6073 31.1121 11.6815C28.8809 10.3934 26.4449 9.77945 24.0396 9.77562ZM24.0001 10.4614C31.4734 10.4614 37.5387 16.5268 37.5387 24C37.5387 31.4732 31.4734 37.5386 24.0001 37.5386C16.5269 37.5386 10.4616 31.4732 10.4616 24C10.4616 16.5268 16.5269 10.4614 24.0001 10.4614ZM23.185 10.9355V13.7418H24.0401V12.7963L24.7306 13.7418L25.8557 13.9064L24.8807 12.6463C25.0946 12.6018 25.4959 12.3746 25.4959 11.896C25.4959 11.1795 24.8507 10.9506 24.4456 10.9506L23.185 10.9355ZM24.2654 11.5508C24.498 11.5508 24.6629 11.7084 24.6704 11.881C24.6779 12.0535 24.5585 12.2408 24.2955 12.2408H24.0251L24.0105 11.5658L24.2654 11.5508ZM28.2965 11.7102C28.2813 11.7101 28.2659 11.7104 28.2508 11.7107C27.5131 11.7257 26.8893 12.173 26.74 12.9036C26.5913 13.6311 27.2521 14.4921 28.0599 14.6754C28.9362 14.8743 29.7541 14.4582 29.9385 13.5136C30.0964 12.7048 29.5019 11.9106 28.6191 11.7422C28.5105 11.7215 28.4027 11.7109 28.2965 11.7102ZM17.9484 12.4511L17.1831 12.8561L17.5429 16.0221L18.3534 15.4219L18.2485 14.9421L19.1337 14.4167L19.5387 14.7168L20.4691 14.3419L17.9484 12.4511ZM28.3162 12.4859C28.3682 12.486 28.421 12.4908 28.4743 12.5009C28.9002 12.5821 29.1706 12.9504 29.0961 13.341C29.0216 13.7316 28.6302 13.9975 28.2043 13.9163C27.7783 13.835 27.5682 13.4226 27.6427 13.032C27.7078 12.6902 27.9521 12.4849 28.3162 12.4859ZM17.9785 13.4562L18.6234 13.9515L18.1582 14.2215L17.9785 13.4562ZM32.248 13.8617L29.8473 15.5273L30.5523 16.0823L31.708 15.182L31.1224 16.6373L31.4225 16.9224L32.8934 16.3222L32.0081 17.5226L32.5481 18.2879L34.2438 15.857L33.7033 15.2121L32.3228 15.7672L32.8783 14.3716L32.248 13.8617ZM24.0001 14.2164C18.6016 14.2164 14.216 18.6019 14.216 24.0005C14.216 29.399 18.6016 33.7841 24.0001 33.7841C29.3986 33.7841 33.7842 29.399 33.7842 24.0005C33.7842 18.6019 29.3986 14.2164 24.0001 14.2164ZM15.0373 14.5367L13.867 15.8871L15.9075 17.7027L16.478 17.0428L15.6977 16.3523L16.2678 15.7371L15.7725 15.2869L15.2024 15.9172L14.9173 15.6472L15.5326 14.9718L15.0373 14.5367ZM23.811 14.5936V22.3584H20.7673V15.1623C21.7194 14.8137 22.7435 14.6146 23.811 14.5936ZM24.1873 14.5936C27.77 14.6636 30.8621 16.738 32.3896 19.7413C32.3698 19.7149 32.3498 19.6891 32.3294 19.6637C31.9551 19.1988 31.4836 18.8904 31.082 18.6322C31.05 18.6117 31.0127 18.6014 30.9747 18.6025C30.9162 18.6042 30.8618 18.6331 30.8275 18.6806C30.734 18.81 30.5576 18.9177 30.3275 18.9177H28.5942C28.5072 18.9177 28.4246 18.9414 28.3534 18.9929C28.2821 19.0445 28.2189 19.1368 28.2189 19.246V19.4435C28.218 19.4447 28.2164 19.4477 28.209 19.4534C28.192 19.4664 28.1587 19.4802 28.1215 19.4802H26.6281L26.6295 19.3556V19.3542V19.3532C26.6295 19.1259 26.5135 18.9193 26.3346 18.7888L26.3317 18.7864L26.3294 18.785L25.6765 18.3424L25.6756 18.3415L25.6746 18.341C25.5707 18.2724 25.4545 18.2399 25.3449 18.2422C25.3084 18.243 25.2726 18.2479 25.2381 18.2563C25.1004 18.2901 24.9883 18.3771 24.9159 18.4882C24.7711 18.7105 24.8044 19.0619 25.0829 19.261L25.3891 19.4953L25.3915 19.4972L25.3938 19.4986C25.4583 19.5447 25.494 19.6004 25.494 19.6157L25.4865 20.1119V20.1133V20.1148C25.4865 20.1208 25.4856 20.1223 25.4851 20.1246C25.4765 20.1246 25.46 20.1227 25.4258 20.1115C25.3534 20.0877 25.2984 20.0571 25.2132 20.0249C25.128 19.9927 25.0184 19.9671 24.8774 19.9671C24.6291 19.9671 24.4252 20.0791 24.2974 20.2281C24.2526 20.2803 24.2162 20.3363 24.1873 20.3942V14.5936ZM20.391 15.3095V22.7347H23.811V24.9266H20.391V32.6895C19.6003 32.3609 18.864 31.9277 18.1996 31.4069V24.9266H14.6365C14.6067 24.6219 14.5914 24.313 14.5914 24.0005C14.5914 23.5712 14.6203 23.1488 14.6761 22.7347H18.1996V16.5926C18.864 16.0716 19.6004 15.6383 20.391 15.3095ZM26.7687 16.7559C26.615 16.7559 26.4903 16.8806 26.4903 17.0343C26.4903 17.188 26.615 17.3128 26.7687 17.3128C26.9224 17.3128 27.0472 17.188 27.0472 17.0343C27.0472 16.8806 26.9224 16.7559 26.7687 16.7559ZM27.478 16.7559C27.3243 16.7559 27.1996 16.8806 27.1996 17.0343C27.1996 17.188 27.3243 17.3128 27.478 17.3128C27.6317 17.3128 27.7565 17.188 27.7565 17.0343C27.7565 16.8806 27.6317 16.7559 27.478 16.7559ZM28.1869 16.7559C28.0332 16.7559 27.9084 16.8806 27.9084 17.0343C27.9084 17.188 28.0332 17.3128 28.1869 17.3128C28.3406 17.3128 28.4653 17.188 28.4653 17.0343C28.4653 16.8806 28.3406 16.7559 28.1869 16.7559ZM28.8957 16.7559C28.742 16.7559 28.6173 16.8806 28.6173 17.0343C28.6173 17.188 28.742 17.3128 28.8957 17.3128C29.0494 17.3128 29.1742 17.188 29.1742 17.0343C29.1742 16.8806 29.0494 16.7559 28.8957 16.7559ZM29.605 16.7559C29.4513 16.7559 29.3266 16.8806 29.3266 17.0343C29.3266 17.188 29.4513 17.3128 29.605 17.3128C29.7587 17.3128 29.8835 17.188 29.8835 17.0343C29.8835 16.8806 29.7587 16.7559 29.605 16.7559ZM17.8233 16.904V22.3584H14.7344C15.1152 20.1962 16.235 18.2878 17.8233 16.904ZM26.5688 17.4835V17.9351H29.8049V17.4835H26.5688ZM26.5688 18.0912V18.5428H29.8049V18.0912H26.5688ZM35.5792 18.0931L33.0284 19.1284L33.7485 20.809L34.4235 20.524L34.0486 19.6684L34.3637 19.5183L34.724 20.3438L35.3388 20.0884L34.994 19.2935L35.2941 19.1585L35.6539 20.0136L36.2842 19.7587L35.5792 18.0931ZM12.2762 18.4083L11.9164 19.2032L14.407 20.3589L15.2024 18.738L14.5872 18.4228L14.1069 19.2634L12.2762 18.4083ZM25.3557 18.6176C25.3854 18.6159 25.42 18.6236 25.4672 18.6547L26.1182 19.0964C26.1993 19.1556 26.2532 19.265 26.2532 19.3532L26.2457 19.9633V19.9642V19.9657C26.2457 20.2059 26.3672 20.4107 26.5241 20.5536C26.6166 20.6379 26.7226 20.7044 26.836 20.745C26.7226 20.7857 26.6166 20.8522 26.5241 20.9365C26.3672 21.0794 26.2457 21.2842 26.2457 21.5244V21.5259V21.5268L26.2532 22.1392C26.2532 22.2275 26.1937 22.3383 26.1126 22.3974L25.4653 22.8363C25.4025 22.8778 25.3639 22.8772 25.3275 22.8683C25.2911 22.8594 25.2553 22.8335 25.2311 22.7963C25.1827 22.722 25.1616 22.6354 25.3016 22.5353L25.304 22.5334L25.3063 22.5315L25.6177 22.294C25.723 22.2186 25.8703 22.092 25.8703 21.8744V21.873V21.8716L25.8628 21.3725C25.8628 21.266 25.8245 21.1458 25.717 21.0644C25.6094 20.983 25.4557 20.9729 25.3087 21.0212C25.2037 21.0556 25.1351 21.0926 25.0801 21.1133C25.0251 21.1341 24.9786 21.1467 24.8774 21.1467C24.7356 21.1467 24.6485 21.0934 24.5829 21.0169C24.5173 20.9404 24.4837 20.8339 24.4837 20.7639V20.7262C24.4837 20.6562 24.5173 20.5497 24.5829 20.4732C24.6485 20.3967 24.7356 20.3434 24.8774 20.3434C24.9785 20.3434 25.0251 20.356 25.0801 20.3768C25.1351 20.3975 25.2037 20.4345 25.3087 20.4689C25.4557 20.5171 25.6094 20.5071 25.717 20.4257C25.8245 20.3443 25.8628 20.2212 25.8628 20.1148L25.8703 19.6185V19.6171V19.6157C25.8703 19.3981 25.7183 19.2682 25.613 19.1928L25.3063 18.9586L25.304 18.9567L25.3016 18.9548C25.1616 18.8547 25.1827 18.7681 25.2311 18.6938C25.2553 18.6566 25.2911 18.6307 25.3275 18.6218C25.3366 18.6196 25.3458 18.6182 25.3557 18.6176ZM31.0105 19.0357C31.3706 19.2711 31.7442 19.5369 32.0364 19.8998C32.3643 20.3072 32.5966 20.8313 32.5966 21.6039C32.5966 23.0556 31.241 24.2215 29.9371 24.2215H26.7861C26.6966 24.2215 26.605 24.2625 26.5495 24.326C26.4941 24.3894 26.4718 24.4659 26.4724 24.539C26.473 24.6122 26.4965 24.687 26.5514 24.7493C26.6063 24.8116 26.6964 24.8532 26.7861 24.8532H29.8623C30.9683 24.8532 31.558 25.5651 31.558 26.4054C31.558 27.2244 30.9455 27.9943 29.8698 27.9943H26.7C26.6232 27.9943 26.5416 28.0292 26.4912 28.0851C26.4408 28.1411 26.4198 28.2091 26.4202 28.2742C26.4206 28.3393 26.4418 28.4062 26.4917 28.4614C26.5416 28.5166 26.6229 28.5517 26.7 28.5517H29.0594C29.5672 28.5517 29.9992 29.0466 29.9992 29.5193C29.9992 29.759 29.9311 29.9802 29.7805 30.1411C29.6299 30.302 29.3893 30.4186 28.9846 30.4186H27.5697C27.5134 30.4186 27.454 30.4309 27.3995 30.4704C27.3449 30.5098 27.3003 30.585 27.3026 30.6632C27.3049 30.7414 27.3499 30.8084 27.4023 30.8457C27.4547 30.883 27.5132 30.8965 27.5697 30.8965H28.5081C28.6405 30.8965 28.7384 30.9544 28.8157 31.0484C28.8931 31.1425 28.938 31.2742 28.938 31.3796C28.938 31.5107 28.8896 31.632 28.804 31.7079C28.7485 31.7571 28.6717 31.7913 28.5665 31.7996C28.5716 31.7454 28.5725 31.684 28.5364 31.6105C28.4934 31.5233 28.3737 31.4539 28.272 31.4539H27.709C27.5129 31.4539 27.2965 31.3799 27.1365 31.2403C26.9766 31.1007 26.867 30.9029 26.867 30.618C26.867 30.3561 26.9765 30.1694 27.1318 30.0353C27.2872 29.9011 27.4935 29.8311 27.6455 29.8311H29.0293C29.0918 29.8311 29.1526 29.8203 29.2109 29.785C29.2691 29.7497 29.329 29.6753 29.3289 29.5828C29.3288 29.4902 29.2685 29.4158 29.2104 29.3805C29.1522 29.3452 29.0918 29.3349 29.0293 29.3349H26.8614C26.0272 29.3349 25.5627 28.7446 25.5627 28.1082C25.5627 27.5404 26.049 26.8673 26.7861 26.8673H30.0124C30.1002 26.8673 30.1905 26.8264 30.2443 26.7639C30.298 26.7014 30.3191 26.627 30.3186 26.556C30.3181 26.485 30.296 26.4119 30.2428 26.3504C30.1897 26.2889 30.1004 26.2474 30.0124 26.2474H26.7264C25.8078 26.2474 25.081 25.5662 25.081 24.5376C25.081 23.6784 25.7841 22.7973 26.8237 22.7973H29.8021C29.9645 22.7973 30.1102 22.7242 30.1996 22.6176C30.2889 22.511 30.3287 22.3796 30.3294 22.2502C30.3301 22.1209 30.2915 21.9883 30.2019 21.881C30.1123 21.7736 29.9656 21.7008 29.8021 21.7008H26.6243L26.622 21.5226C26.622 21.4125 26.6817 21.3018 26.7776 21.2145C26.8736 21.1271 27.0026 21.0771 27.0815 21.0771H28.8623C28.9312 21.0771 28.9994 21.0612 29.0665 21.015C29.1335 20.9689 29.1958 20.8693 29.1958 20.745C29.1958 20.617 29.1577 20.5523 29.0665 20.4751C28.9994 20.4289 28.9312 20.413 28.8623 20.413H27.0815C27.0026 20.413 26.8736 20.363 26.7776 20.2756C26.6817 20.1883 26.622 20.0757 26.622 19.9657L26.6234 19.8565H28.7969C28.9172 19.8565 29.027 19.8179 29.1135 19.7516C29.1999 19.6853 29.2706 19.5836 29.2706 19.4553V19.294H30.3275C30.6017 19.294 30.8399 19.1918 31.0105 19.0357ZM32.9282 21.0292C33.2388 21.9631 33.407 22.9623 33.407 24.0005C33.407 27.2867 31.7218 30.1792 29.1681 31.8612C29.2678 31.7194 29.3143 31.5484 29.3143 31.3796C29.3143 31.1784 29.2421 30.9745 29.1064 30.8095C29.1011 30.803 29.0946 30.7971 29.089 30.7907C29.517 30.77 29.8429 30.6252 30.0552 30.3984C30.2846 30.1533 30.3755 29.8311 30.3755 29.5193C30.3755 29.0585 30.1175 28.6152 29.7268 28.3706H29.8698C31.1304 28.3706 31.9343 27.4184 31.9343 26.4054C31.9343 25.5466 31.3757 24.7773 30.4465 24.548C31.7806 24.2974 32.9729 23.0969 32.9729 21.6039C32.9729 21.3996 32.957 21.2084 32.9282 21.0292ZM24.1873 21.0959C24.2162 21.1538 24.2526 21.2098 24.2974 21.262C24.4252 21.411 24.6291 21.523 24.8774 21.523C25.0184 21.523 25.128 21.4974 25.2132 21.4652C25.2984 21.433 25.3534 21.4024 25.4258 21.3786C25.46 21.3674 25.4765 21.3655 25.4851 21.3655C25.4856 21.3678 25.4865 21.3695 25.4865 21.3753V21.3768V21.3782L25.494 21.8772C25.494 21.8926 25.4583 21.9454 25.3938 21.9915L25.3915 21.9929L25.3891 21.9948L25.0782 22.2328C24.7997 22.432 24.7711 22.7796 24.9159 23.0019C24.9775 23.0964 25.068 23.1733 25.1784 23.2149C24.877 23.5923 24.7047 24.0637 24.7047 24.5376C24.7047 25.5828 25.3825 26.3751 26.2814 26.5738C25.6082 26.8039 25.1864 27.4764 25.1864 28.1082C25.1864 28.9365 25.8425 29.7112 26.8614 29.7112H26.9352C26.9187 29.7241 26.9019 29.7364 26.8858 29.7502C26.6601 29.9452 26.4907 30.2458 26.4907 30.618C26.4907 31.005 26.6543 31.3194 26.8887 31.524C27.123 31.7285 27.4215 31.8302 27.709 31.8302H28.1803C28.1706 31.8645 28.1596 31.8965 28.1596 31.8965C28.1365 31.9488 28.1384 32.0086 28.1648 32.0593C28.1911 32.1099 28.239 32.146 28.2951 32.1571C28.4297 32.1838 28.557 32.1856 28.6723 32.166C27.3463 32.9263 25.8176 33.3731 24.1873 33.405V21.0959ZM14.0472 21.4238L11.121 22.3843L11.0161 23.2545L13.7922 24.7549L13.7772 23.7498L13.3576 23.5555L13.4206 22.5221L13.9122 22.3993L14.0472 21.4238ZM35.5641 21.5141C34.5847 21.5141 34.0937 22.3167 34.0937 23.1195C34.0937 23.9222 34.6746 24.7253 35.5641 24.7253C36.4533 24.7253 37.0495 23.9972 37.0495 23.1195C37.0495 22.2567 36.5285 21.5141 35.5641 21.5141ZM26.6285 22.0771H29.8021C29.8664 22.0771 29.89 22.0946 29.9131 22.1223C29.9362 22.15 29.9534 22.1976 29.9531 22.2483C29.9528 22.299 29.9351 22.3474 29.9112 22.3758C29.8874 22.4042 29.8637 22.421 29.8021 22.421H26.8237C26.733 22.421 26.6445 22.4268 26.558 22.4374C26.6036 22.3456 26.6295 22.2436 26.6295 22.1369V22.1359V22.1345L26.6285 22.0771ZM35.5829 22.3843C36.0146 22.3843 36.2664 22.7874 36.2664 23.1195C36.2664 23.444 36.0053 23.8546 35.5829 23.8546C35.1603 23.8546 34.9145 23.4983 34.9145 23.1195C34.9145 22.7406 35.1512 22.3843 35.5829 22.3843ZM12.7621 22.6867L12.7264 23.2625L11.9315 22.8942L12.7621 22.6867ZM14.6808 25.3029H17.8233V31.0955C16.1524 29.6402 14.9998 27.6045 14.6808 25.3029ZM20.7673 25.3029H23.811V33.405C22.7435 33.3839 21.7194 33.1847 20.7673 32.8363V25.3029Z" fill="url(#paint3_linear_1_74802)"/>
<path fill-rule="evenodd" clip-rule="evenodd" d="M25.3555 18.6176C25.3851 18.6159 25.4198 18.6236 25.4669 18.6548L26.1179 19.0964C26.1991 19.1556 26.2529 19.265 26.2529 19.3532L26.2454 19.9633V19.9643V19.9657C26.2454 20.2059 26.3669 20.4107 26.5238 20.5536C26.6164 20.6379 26.7223 20.7044 26.8357 20.7451C26.7223 20.7857 26.6164 20.8522 26.5238 20.9365C26.3669 21.0795 26.2454 21.2842 26.2454 21.5245V21.5259V21.5268L26.2529 22.1392C26.2529 22.2275 26.1934 22.3383 26.1123 22.3975L25.4651 22.8363C25.4022 22.8778 25.3637 22.8772 25.3272 22.8683C25.2908 22.8594 25.255 22.8335 25.2308 22.7963C25.1824 22.722 25.1613 22.6354 25.3014 22.5353L25.3037 22.5334L25.3061 22.5315L25.6175 22.294C25.7228 22.2186 25.87 22.092 25.87 21.8744V21.873V21.8716L25.8625 21.3725C25.8625 21.2661 25.8243 21.1459 25.7167 21.0644C25.6091 20.983 25.4555 20.973 25.3084 21.0212C25.2034 21.0556 25.1348 21.0926 25.0798 21.1134C25.0248 21.1341 24.9783 21.1468 24.8771 21.1468C24.7353 21.1468 24.6482 21.0934 24.5826 21.0169C24.5171 20.9404 24.4834 20.8339 24.4834 20.7639V20.7263C24.4834 20.6563 24.5171 20.5497 24.5826 20.4732C24.6482 20.3967 24.7353 20.3434 24.8771 20.3434C24.9783 20.3434 25.0248 20.356 25.0798 20.3768C25.1348 20.3975 25.2034 20.4345 25.3084 20.469C25.4555 20.5172 25.6091 20.5071 25.7167 20.4257C25.8243 20.3443 25.8625 20.2212 25.8625 20.1148L25.87 19.6185V19.6171V19.6157C25.87 19.3981 25.7181 19.2682 25.6127 19.1929L25.3061 18.9586L25.3037 18.9567L25.3014 18.9548C25.1613 18.8547 25.1824 18.7681 25.2308 18.6938C25.255 18.6566 25.2908 18.6308 25.3272 18.6218C25.3363 18.6196 25.3456 18.6182 25.3555 18.6176Z" fill="#9D0D16"/>
<path fill-rule="evenodd" clip-rule="evenodd" d="M31.0105 19.0357C31.3706 19.2711 31.7442 19.5369 32.0364 19.8998C32.3643 20.3072 32.5966 20.8313 32.5966 21.6039C32.5966 23.0556 31.241 24.2215 29.9371 24.2215H26.7861C26.6966 24.2215 26.605 24.2625 26.5495 24.326C26.4941 24.3894 26.4718 24.4659 26.4724 24.539C26.473 24.6122 26.4966 24.687 26.5514 24.7493C26.6063 24.8116 26.6964 24.8532 26.7861 24.8532H29.8623C30.9683 24.8532 31.558 25.5651 31.558 26.4054C31.558 27.2244 30.9455 27.9943 29.8699 27.9943H26.7001C26.6232 27.9943 26.5416 28.0292 26.4912 28.0851C26.4408 28.1411 26.4198 28.2091 26.4202 28.2742C26.4206 28.3393 26.4418 28.4062 26.4917 28.4614C26.5416 28.5166 26.623 28.5517 26.7001 28.5517H29.0594C29.5672 28.5517 29.9992 29.0466 29.9992 29.5193C29.9992 29.759 29.9311 29.9802 29.7805 30.1411C29.6299 30.302 29.3893 30.4186 28.9846 30.4186H27.5698C27.5134 30.4186 27.4541 30.4309 27.3995 30.4704C27.3449 30.5098 27.3003 30.585 27.3026 30.6632C27.3049 30.7414 27.3499 30.8084 27.4023 30.8457C27.4547 30.883 27.5132 30.8965 27.5698 30.8965H28.5081C28.6405 30.8965 28.7384 30.9544 28.8158 31.0484C28.8931 31.1425 28.9381 31.2742 28.9381 31.3796C28.9381 31.5107 28.8896 31.632 28.804 31.7079C28.7485 31.7571 28.6717 31.7913 28.5665 31.7996C28.5716 31.7454 28.5725 31.684 28.5364 31.6105C28.4935 31.5233 28.3738 31.4539 28.272 31.4539H27.709C27.5129 31.4539 27.2965 31.3799 27.1366 31.2403C26.9766 31.1007 26.867 30.9029 26.867 30.6181C26.867 30.3561 26.9765 30.1694 27.1319 30.0353C27.2872 29.9011 27.4935 29.8311 27.6455 29.8311H29.0293C29.0918 29.8311 29.1527 29.8203 29.2109 29.785C29.2691 29.7497 29.329 29.6753 29.3289 29.5828C29.3288 29.4902 29.2686 29.4158 29.2104 29.3805C29.1523 29.3452 29.0918 29.3349 29.0293 29.3349H26.8614C26.0273 29.3349 25.5627 28.7446 25.5627 28.1082C25.5627 27.5404 26.049 26.8673 26.7861 26.8673H30.0124C30.1002 26.8673 30.1906 26.8264 30.2443 26.7639C30.298 26.7014 30.3191 26.627 30.3186 26.556C30.3181 26.485 30.296 26.4119 30.2429 26.3504C30.1897 26.2889 30.1004 26.2474 30.0124 26.2474H26.7264C25.8078 26.2474 25.0811 25.5662 25.0811 24.5376C25.0811 23.6784 25.7841 22.7973 26.8238 22.7973H29.8021C29.9645 22.7973 30.1103 22.7242 30.1996 22.6176C30.2889 22.511 30.3287 22.3796 30.3294 22.2502C30.3301 22.1209 30.2915 21.9883 30.2019 21.881C30.1124 21.7736 29.9656 21.7008 29.8021 21.7008H26.6243L26.622 21.5226C26.622 21.4125 26.6818 21.3018 26.7777 21.2145C26.8736 21.1271 27.0026 21.0771 27.0815 21.0771H28.8623C28.9312 21.0771 28.9994 21.0612 29.0665 21.015C29.1335 20.9689 29.1958 20.8693 29.1958 20.745C29.1958 20.617 29.1577 20.5523 29.0665 20.4751C28.9994 20.4289 28.9312 20.413 28.8623 20.413H27.0815C27.0026 20.413 26.8736 20.363 26.7777 20.2756C26.6818 20.1883 26.622 20.0757 26.622 19.9657L26.6234 19.8565H28.797C28.9173 19.8565 29.0271 19.8179 29.1135 19.7516C29.2 19.6853 29.2706 19.5836 29.2706 19.4553V19.294H30.3275C30.6017 19.294 30.8399 19.1918 31.0105 19.0357Z" fill="url(#paint4_linear_1_74802)"/>
<defs>
<linearGradient id="paint0_linear_1_74802" x1="17.8914" y1="17.8222" x2="23.9476" y2="34.2676" gradientUnits="userSpaceOnUse">
<stop stop-color="white"/>
<stop offset="1" stop-color="#53EEEF"/>
</linearGradient>
<linearGradient id="paint1_linear_1_74802" x1="23.6468" y1="15.2362" x2="29.9856" y2="33.4047" gradientUnits="userSpaceOnUse">
<stop stop-color="#2F7FBE"/>
<stop offset="1" stop-color="#225D8B"/>
</linearGradient>
<linearGradient id="paint2_linear_1_74802" x1="16.3232" y1="17.2582" x2="24.6587" y2="33.5473" gradientUnits="userSpaceOnUse">
<stop stop-color="#D50D16"/>
<stop offset="0.5" stop-color="#880D16"/>
<stop offset="1" stop-color="#520D16"/>
</linearGradient>
<linearGradient id="paint3_linear_1_74802" x1="14.6774" y1="15.1573" x2="33.0883" y2="30.8825" gradientUnits="userSpaceOnUse">
<stop stop-color="#F8FFBF"/>
<stop offset="0.508929" stop-color="#F8E45E"/>
<stop offset="0.75" stop-color="#F8D35E"/>
<stop offset="1" stop-color="#EE8E0A"/>
</linearGradient>
<linearGradient id="paint4_linear_1_74802" x1="26.4615" y1="20.376" x2="30.1958" y2="31.4797" gradientUnits="userSpaceOnUse">
<stop stop-color="#157031"/>
<stop offset="1" stop-color="#0F5324"/>
</linearGradient>
</defs>
</svg>
