<svg width="48" height="48" viewBox="0 0 48 48" fill="none" xmlns="http://www.w3.org/2000/svg">
<g clip-path="url(#clip0_1_74817)">
<path fill-rule="evenodd" clip-rule="evenodd" d="M23.9999 22.8884C23.9414 22.8884 23.8984 22.9323 23.898 22.9332C23.8954 22.9352 22.8599 23.9233 22.8599 23.9233C22.4781 24.2919 21.9712 24.1376 21.917 24.1196C21.917 24.1196 17.4909 22.9122 17.4903 22.9118C16.6456 22.657 16.4778 22.3822 16.3486 22.0484C16.3486 22.0484 16.2735 21.8407 16.0896 21.7864C16.0896 21.7864 10.6791 20.1981 10.6787 20.1981C10.4579 20.1299 10.3364 20.0676 10.2496 19.8995C10.2496 19.8995 9.95262 19.3765 9.95164 19.3751C9.88571 19.2498 9.76641 19.2365 9.7595 19.2355C9.35031 19.1802 9.23032 18.9521 9.17957 18.8549L8.93822 18.4311C8.86273 18.2998 8.75478 18.2887 8.75146 18.2883C8.5188 18.2735 8.40806 18.2149 8.31187 18.0568C8.31187 18.0568 8.07589 17.6644 8.07492 17.6624C7.95894 17.4482 7.99904 17.2947 8.05254 17.2038C8.1652 17.0171 8.37147 17.0029 8.45426 17H21.3919C21.7582 17 22.0542 17.111 22.2731 17.3305C22.4303 17.4872 22.5385 17.6915 22.5945 17.9377C22.5955 17.9435 22.6107 17.9949 22.7214 17.9949H25.2786C25.3893 17.9949 25.4045 17.9435 25.4055 17.9377C25.4615 17.6915 25.5697 17.4871 25.7269 17.3305C25.9457 17.111 26.2417 17 26.6081 17H39.5457C39.6285 17.0029 39.8348 17.0171 39.9474 17.2038C40.0009 17.2947 40.041 17.4482 39.925 17.6624C39.9241 17.6644 39.6881 18.0568 39.6881 18.0568C39.5919 18.2148 39.4812 18.2735 39.2485 18.2883C39.2452 18.2887 39.1372 18.2998 39.0617 18.4311L38.8204 18.8549C38.7696 18.9521 38.6496 19.1802 38.2405 19.2355C38.2335 19.2365 38.1142 19.2498 38.0483 19.3751C38.0473 19.3765 37.7504 19.8995 37.7504 19.8995C37.6636 20.0676 37.5421 20.13 37.3213 20.1981C37.3209 20.1981 31.9103 21.7864 31.9103 21.7864C31.7265 21.8407 31.6514 22.0484 31.6514 22.0484C31.5222 22.3822 31.3543 22.657 30.5097 22.9118C30.5091 22.9122 26.083 24.1196 26.083 24.1196C26.0288 24.1376 25.5218 24.2919 25.14 23.9233C25.14 23.9233 24.1046 22.9352 24.102 22.9332C24.1015 22.9323 24.0585 22.8884 24.0001 22.8884H23.9999H23.9999Z" fill="black"/>
<path fill-rule="evenodd" clip-rule="evenodd" d="M25.6407 17.9901C25.6859 17.7896 25.7724 17.6253 25.8967 17.501C26.0688 17.3286 26.3084 17.241 26.6077 17.241C26.6077 17.241 29.5017 17.241 32.5512 17.241C32.3468 17.3939 32.2396 17.5873 32.2324 17.6001C32.1635 17.7291 32.0775 17.8801 31.9752 18.0491H25.6197C25.6328 18.0259 25.6407 17.9901 25.6407 17.9901L25.6407 17.9901L25.6407 17.9901ZM39.7134 17.5472C39.71 17.5524 39.4813 17.933 39.4813 17.933C39.4378 18.0045 39.411 18.0368 39.2327 18.0482C39.2317 18.0482 32.1942 18.0491 32.1942 18.0491C32.2729 17.9159 32.3405 17.7949 32.3972 17.6896C32.3991 17.6858 32.6484 17.2415 33.091 17.2415L39.5389 17.241C39.6065 17.2439 39.6944 17.2515 39.7409 17.3282C39.7466 17.3386 39.7598 17.36 39.7598 17.3986C39.7598 17.4328 39.7489 17.4815 39.7134 17.5472H39.7134L39.7134 17.5472ZM38.8525 18.3121L38.6068 18.7435C38.5733 18.8074 38.5215 18.906 38.3573 18.9626C38.2201 18.9969 37.947 18.9751 37.8525 18.9636L31.8656 18.5659C31.943 18.4512 32.0148 18.3407 32.0801 18.2359H38.9042C38.8864 18.2587 38.8688 18.2834 38.8525 18.312V18.3121L38.8525 18.3121ZM37.8348 19.2626C37.8363 19.2608 37.5994 19.678 37.55 19.7647C37.5378 19.7809 37.4705 19.8542 37.2511 19.8251L31.5144 19.0555C31.593 18.9527 31.6675 18.8507 31.7373 18.7521L37.8315 19.1565C37.8404 19.1575 37.8661 19.1604 37.9027 19.1637C37.8777 19.1923 37.8549 19.2246 37.8348 19.2627L37.8348 19.2626L37.8348 19.2626ZM35.8617 20.3761C35.6457 20.4334 35.2233 20.3685 35.0766 20.3381C35.0766 20.3381 32.3781 19.7836 31.1346 19.5279C31.2208 19.4265 31.3036 19.326 31.3822 19.2265L37.1433 19.9998L35.8616 20.3761H35.8616L35.8617 20.3761ZM33.9076 20.9496C33.6304 21.0238 33.2686 20.9038 33.2652 20.9028L33.2609 20.9015C33.2609 20.9015 33.2603 20.901 33.2599 20.901L30.6214 20.0871C30.7522 19.9542 30.8764 19.8222 30.9935 19.6899L35.0389 20.5214C35.0478 20.5228 35.1306 20.54 35.247 20.5561L33.9075 20.9496H33.9076L33.9076 20.9496ZM31.8465 21.555C31.6592 21.6058 31.3831 21.4977 31.2915 21.4515C31.2915 21.4515 30.5855 21.121 29.8605 20.7819C30.0783 20.6033 30.2816 20.421 30.4711 20.2367L33.2073 21.0811C33.2125 21.083 33.2623 21.0992 33.3385 21.1163L31.8465 21.555L31.8465 21.555ZM31.4242 21.9679C31.3445 22.1722 31.2612 22.3826 30.6999 22.5936C30.4682 22.6656 30.1927 22.4607 30.1904 22.4584C30.1894 22.4574 29.5645 22.0102 28.853 21.501C29.1421 21.3225 29.4241 21.1263 29.6977 20.912L31.2096 21.6197C31.2179 21.624 31.3738 21.7026 31.5627 21.7378C31.4724 21.8407 31.4315 21.9469 31.4242 21.9679H31.4242L31.4242 21.9679ZM29.3095 22.9899L29.0988 23.047C28.9214 23.0895 28.7049 22.9137 28.6357 22.8407C28.6357 22.8407 28.2956 22.487 27.8586 22.0306C28.1382 21.904 28.4113 21.7626 28.678 21.6064L30.0792 22.6089C30.0849 22.6136 30.1649 22.6736 30.2825 22.7246C29.9712 22.8093 29.3095 22.9899 29.3095 22.9899V22.9899L29.3095 22.9899ZM27.4569 23.4952C27.309 23.5185 27.1373 23.2757 27.0875 23.1851L26.6649 22.4698C27.0101 22.3703 27.3475 22.2511 27.6757 22.1107L28.4999 22.9708C28.5073 22.978 28.5985 23.0727 28.7307 23.1475L27.4569 23.4952L27.4569 23.4952L27.4569 23.4952ZM26.0539 23.8776C25.9543 23.9005 25.8703 23.8904 25.7981 23.8468C25.643 23.7519 25.5915 23.5338 25.5885 23.5209L25.373 22.7432C25.75 22.6908 26.1181 22.6169 26.478 22.5217L26.925 23.2786C26.9404 23.3057 27.0311 23.4638 27.1671 23.5743L26.0539 23.8776L26.0539 23.8776L26.0539 23.8776ZM25.1447 23.5953C25.1447 23.5953 24.5452 23.0232 24.3419 22.8298C24.6272 22.8199 24.9087 22.7989 25.1851 22.7665L25.4057 23.5618C25.4119 23.5895 25.4558 23.7638 25.5783 23.9025C25.4094 23.8544 25.3582 23.8043 25.1447 23.5953V23.5953V23.5953ZM24.0937 22.6479V20.2248H24.4805L25.1344 22.5842C24.7941 22.6232 24.4472 22.6446 24.0937 22.6479V22.6479ZM22.8653 22.5842L23.5196 20.2248H23.9064V22.6475C23.5522 22.6446 23.2055 22.6228 22.8653 22.5842V22.5842L22.8653 22.5842ZM22.6936 23.749C22.6089 23.8314 22.5136 23.8776 22.4214 23.9024C22.5447 23.7633 22.5876 23.5885 22.5941 23.5614L22.8146 22.7675C23.0911 22.7994 23.3725 22.8203 23.6577 22.8298C23.4294 23.047 22.6936 23.749 22.6936 23.749L22.6936 23.749ZM22.4112 23.5195C22.4112 23.5219 22.3605 23.7496 22.2013 23.8468C22.1292 23.8904 22.0454 23.9005 21.9459 23.8776L20.8326 23.5743C20.9686 23.4633 21.0603 23.3051 21.076 23.2761C21.0755 23.2766 21.2646 22.957 21.521 22.5223C21.881 22.6175 22.2497 22.6913 22.6267 22.7432L22.4112 23.5195H22.4112V23.5195ZM20.5428 23.4952L19.2691 23.1475C19.4012 23.0723 19.4929 22.9775 19.4998 22.9704C19.4998 22.9704 19.8639 22.5902 20.324 22.1107C20.6526 22.2507 20.9891 22.3707 21.3344 22.4702L20.9136 23.1833C20.8623 23.2756 20.6906 23.5185 20.5429 23.4952L20.5428 23.4952L20.5428 23.4952ZM18.9007 23.047L17.7172 22.7246C17.8352 22.6732 17.9158 22.6127 17.9225 22.6074C17.9215 22.6084 18.5837 22.1345 19.3217 21.6064C19.5884 21.7621 19.8616 21.904 20.1415 22.0307L19.364 22.8408C19.2948 22.9138 19.0783 23.0895 18.9007 23.047V23.047L18.9007 23.047ZM17.2983 22.5936C16.7394 22.3826 16.6556 22.1726 16.5761 21.9689C16.5696 21.9507 16.5287 21.8421 16.4371 21.7378C16.6263 21.702 16.7828 21.6235 16.793 21.6183C16.7915 21.6187 17.5491 21.2649 18.3025 20.912C18.5754 21.1263 18.8574 21.323 19.1466 21.501L17.8112 22.4564C17.8069 22.4607 17.53 22.6666 17.2983 22.5936L17.2983 22.5936ZM16.1536 21.555C16.0972 21.5382 15.4699 21.3539 14.6613 21.1163C14.7384 21.0992 14.7892 21.082 14.7948 21.0801C14.7925 21.0811 17.0121 20.3962 17.529 20.2367C17.7185 20.4205 17.9219 20.6033 18.1396 20.7815L16.711 21.4502C16.6164 21.4977 16.3409 21.6058 16.1536 21.555H16.1536L16.1536 21.555ZM14.0936 20.95C13.6537 20.821 13.1899 20.6848 12.7525 20.5561C12.8691 20.54 12.9525 20.5228 12.9612 20.5209C12.9608 20.5214 15.8172 19.9342 17.0066 19.6899C17.1242 19.8218 17.2475 19.9542 17.3783 20.0871L14.7369 20.902C14.7309 20.9038 14.3707 21.0234 14.0935 20.95H14.0935L14.0936 20.95ZM12.1399 20.3767C11.5456 20.2014 11.0626 20.06 10.8564 19.9999L16.6184 19.2265C16.6971 19.3255 16.7795 19.426 16.8656 19.5275L12.9232 20.3382C12.7769 20.3686 12.3564 20.4334 12.1399 20.3767L12.1399 20.3767L12.1399 20.3767ZM10.749 19.8251C10.5312 19.8541 10.4627 19.7823 10.4502 19.7651L10.1635 19.2603C10.144 19.2227 10.1209 19.1913 10.097 19.1636C10.1337 19.1603 16.2634 18.7521 16.2634 18.7521C16.3333 18.8506 16.4072 18.9521 16.4859 19.0555L10.7491 19.8251L10.749 19.8251L10.749 19.8251ZM9.64297 18.9626C9.47859 18.9059 9.42648 18.8074 9.3929 18.7435C9.29238 18.5726 9.16021 18.3173 9.09525 18.2359H15.9204C15.9859 18.3407 16.0571 18.4511 16.135 18.5659L10.1473 18.9636C10.0533 18.9751 9.78009 18.9969 9.64295 18.9626V18.9626L9.64297 18.9626ZM8.76899 18.0491C8.60461 18.0368 8.56964 18.0173 8.51794 17.9324C8.5185 17.933 8.3034 17.5753 8.28626 17.5471C8.25059 17.4815 8.23883 17.4328 8.24036 17.3985C8.24438 17.3109 8.30396 17.2433 8.46087 17.2409L14.9092 17.2415C15.3456 17.2415 15.603 17.6895 15.603 17.6895C15.6597 17.7948 15.7273 17.9158 15.8064 18.0491H8.76904L8.76899 18.0491L8.76899 18.0491ZM21.3919 17.2409C21.6917 17.2409 21.9308 17.3286 22.103 17.501C22.2273 17.6252 22.3136 17.7896 22.3595 17.9901C22.3595 17.9901 22.3687 18.0243 22.3805 18.0491H16.0251C15.9279 17.8896 15.7678 17.6001 15.7678 17.6001C15.7607 17.5872 15.6533 17.3938 15.449 17.2409C18.4985 17.2409 21.3919 17.2409 21.3919 17.2409L21.3919 17.2409L21.3919 17.2409ZM30.5952 18.4821V18.2359H31.8587C31.7944 18.3368 31.7242 18.4425 31.649 18.5516L30.5952 18.4821L30.5952 18.4821ZM30.5952 18.9326V18.6764L31.5178 18.7374C31.4497 18.8321 31.3768 18.9287 31.3008 19.0274L30.5952 18.9326H30.5952ZM30.5952 19.4174V19.1212L31.1658 19.1979C31.0891 19.2928 31.0087 19.3884 30.9248 19.4851C30.7777 19.4546 30.6643 19.4317 30.5952 19.4174L30.5952 19.4174ZM30.5952 19.6085L30.7814 19.6465C30.7214 19.7127 30.6591 19.7799 30.5952 19.8461V19.6085ZM28.6701 20.2248H30.2124C30.0552 20.381 29.6842 20.6833 29.672 20.6934C29.2969 20.5176 28.9312 20.3471 28.6702 20.2248H28.6701ZM27.0694 20.2248H28.2285L29.5069 20.823C29.2412 21.0263 28.968 21.2129 28.6873 21.383C28.0703 20.941 27.4203 20.4757 27.0694 20.2248V20.2248L27.0694 20.2248ZM26.1265 20.2248H26.7483L28.5106 21.4868C28.2538 21.634 27.9899 21.7679 27.7208 21.8869C27.1405 21.2821 26.4415 20.5528 26.1265 20.2248V20.2248ZM25.3388 20.2248H25.8668L27.5367 21.9659C27.2213 22.0974 26.8976 22.2092 26.5663 22.3031L25.3387 20.2248H25.3388ZM25.1213 20.2248L26.3792 22.3536C26.0348 22.4432 25.6821 22.5117 25.3223 22.5608L24.6746 20.2248H25.1213V20.2248ZM22.8785 20.2248H23.3251L22.6775 22.5608C22.3171 22.5117 21.9649 22.4431 21.6206 22.3541C22.0919 21.5569 22.7207 20.4918 22.8785 20.2248V20.2248ZM22.1328 20.2248H22.661L21.4334 22.3031C21.1022 22.2098 20.7788 22.0974 20.4628 21.9654C21.1325 21.2677 21.9383 20.4276 22.1328 20.2248L22.1328 20.2248V20.2248ZM21.2515 20.2248H21.8733L20.2795 21.8869C20.0099 21.7679 19.7466 21.634 19.4889 21.4868C20.2538 20.9391 21.0511 20.3681 21.2515 20.2248V20.2248ZM18.3278 20.6934C18.3137 20.6819 17.9443 20.3714 17.7874 20.2248H19.3295L18.3278 20.6934ZM19.7713 20.2248H20.9301L19.3124 21.3825C19.0314 21.2129 18.7583 21.0263 18.493 20.8229C19.1003 20.5386 19.6627 20.2756 19.7713 20.2247V20.2248V20.2248ZM17.4031 19.6085V19.8442C17.3398 19.7785 17.2783 19.7123 17.2188 19.6465C17.2928 19.6309 17.3547 19.6184 17.4031 19.6085ZM17.4031 19.1212V19.4174L17.0749 19.485C16.9912 19.388 16.9111 19.2927 16.8345 19.1979L17.4031 19.1212L17.4031 19.1212ZM17.4031 18.6764V18.9326L16.6994 19.0274C16.6233 18.9287 16.5511 18.8321 16.483 18.7374L17.4031 18.6764H17.4031H17.4031ZM17.4031 18.4821L16.3518 18.5516C16.276 18.4425 16.2062 18.3368 16.1419 18.2359H17.4031V18.4821H17.4031L17.4031 18.4821Z" fill="white"/>
<path fill-rule="evenodd" clip-rule="evenodd" d="M17.5931 20.0376C17.5921 20.0366 17.5913 20.0356 17.5903 20.0347V18.2368H30.4081V20.0357C30.4077 20.0366 30.4071 20.0366 30.4067 20.0371L17.5931 20.0376L17.5931 20.0376L17.5931 20.0376Z" fill="url(#paint0_linear_1_74817)"/>
<path fill-rule="evenodd" clip-rule="evenodd" d="M18.442 18.524H18.3885L17.8408 19.7493H17.9892L17.9915 19.7423C18.0359 19.5931 18.093 19.4503 18.1484 19.3132C18.1484 19.3132 18.1563 19.2935 18.1599 19.2841C18.1734 19.2841 18.5699 19.2841 18.5835 19.2841C18.6407 19.4145 18.6993 19.5641 18.7621 19.7427L18.7646 19.7493H18.9693L18.442 18.5239V18.524L18.442 18.524ZM18.2014 19.1907C18.2126 19.1636 18.3563 18.8269 18.3735 18.7869C18.3903 18.8269 18.5369 19.1636 18.5485 19.1907C18.5197 19.1907 18.2294 19.1907 18.2013 19.1907H18.2014Z" fill="white"/>
<path fill-rule="evenodd" clip-rule="evenodd" d="M19.0283 19.6622L19.0329 19.6669C19.0976 19.7374 19.2434 19.7703 19.322 19.7703C19.579 19.7703 19.7589 19.6046 19.7589 19.3666C19.7589 19.1693 19.6096 19.1112 19.4653 19.0541C19.3371 19.0031 19.2152 18.956 19.2152 18.8103C19.2152 18.6997 19.3024 18.6198 19.4219 18.6198C19.5174 18.6198 19.5896 18.6702 19.6262 18.7626L19.6287 18.7692H19.6613L19.7124 18.6145L19.7068 18.6093C19.637 18.5464 19.5296 18.524 19.4531 18.524C19.2136 18.524 19.059 18.6578 19.059 18.8654C19.059 19.0769 19.2167 19.1383 19.3555 19.1936C19.4811 19.2421 19.5988 19.2889 19.5988 19.4342C19.5988 19.569 19.4983 19.6751 19.3703 19.6751C19.2531 19.6751 19.1753 19.6247 19.0995 19.5008L19.0966 19.4961H19.064L19.0283 19.6622V19.6622L19.0283 19.6622Z" fill="white"/>
<path fill-rule="evenodd" clip-rule="evenodd" d="M20.7258 18.5493H19.8247V18.6755L19.8363 18.6745C19.9397 18.6636 20.0397 18.654 20.2027 18.6535C20.2027 18.6749 20.2027 19.7532 20.2027 19.7532H20.3757C20.3757 19.7532 20.3757 18.6755 20.3757 18.654C20.4981 18.654 20.615 18.6611 20.7244 18.6745L20.7366 18.6759V18.5493H20.7258V18.5493Z" fill="white"/>
<path fill-rule="evenodd" clip-rule="evenodd" d="M21.3469 18.524C20.9646 18.524 20.6973 18.7816 20.6973 19.1498C20.6973 19.5212 20.9573 19.7703 21.3435 19.7703C21.7428 19.7703 22.0117 19.5103 22.0117 19.1236C22.0117 18.7092 21.6776 18.524 21.3469 18.524V18.524ZM21.6669 19.5565C21.5819 19.6465 21.4751 19.6923 21.3482 19.6923C21.0684 19.6923 20.8875 19.4875 20.8875 19.1708C20.8875 18.8198 21.0703 18.6021 21.364 18.6021C21.5025 18.6021 21.6333 18.6631 21.714 18.7649C21.8028 18.8783 21.8209 18.9965 21.8209 19.1379C21.8214 19.1455 21.8218 19.1541 21.8218 19.1623C21.8218 19.2774 21.775 19.4408 21.6669 19.5565L21.6669 19.5565L21.6669 19.5565Z" fill="white"/>
<path fill-rule="evenodd" clip-rule="evenodd" d="M23.2118 18.5493H23.1044C23.1044 18.5493 23.1044 19.4165 23.1044 19.4375C23.1034 19.4375 23.103 19.4375 23.1024 19.4375C23.0962 19.4303 22.2825 18.5493 22.2825 18.5493H22.1997V19.7494H22.3178C22.3178 19.7494 22.3178 18.842 22.3178 18.8206C22.3188 18.8206 22.3193 18.8206 22.3203 18.8206C22.3266 18.8278 23.0619 19.6418 23.0619 19.6418L23.1541 19.7494H23.1597H23.2224V18.5493H23.2118H23.2118L23.2118 18.5493Z" fill="white"/>
<path fill-rule="evenodd" clip-rule="evenodd" d="M25.1509 18.5492H25.1085L24.8178 19.0763C24.8178 19.0763 24.6339 19.4117 24.6172 19.4417C24.4379 19.1426 24.2764 18.8278 24.1389 18.5549L24.136 18.5492H24.075L24.0741 18.5592C24.0569 18.7364 23.9537 19.4588 23.9086 19.7374L23.9062 19.7493H24.0517V19.7389C24.0517 19.5699 24.0817 19.3178 24.1136 19.0506C24.1136 19.0506 24.1271 18.9326 24.1327 18.8854C24.1531 18.9244 24.3789 19.3531 24.4652 19.5298L24.5628 19.7308H24.5954L24.5981 19.7241C24.6986 19.4935 24.8402 19.2302 25.0342 18.8835C25.0617 19.0901 25.098 19.5031 25.1181 19.7398L25.1192 19.7493H25.3031L25.3014 19.7374C25.26 19.4464 25.2147 19.0611 25.1616 18.5592L25.1607 18.5492H25.151H25.1509V18.5492Z" fill="white"/>
<path fill-rule="evenodd" clip-rule="evenodd" d="M25.9738 18.524H25.9201L25.3721 19.7493H25.5212L25.5232 19.7423C25.5677 19.5917 25.625 19.4484 25.6808 19.3103C25.6808 19.3103 25.6877 19.2931 25.691 19.2841C25.7045 19.2841 26.101 19.2841 26.1149 19.2841C26.1732 19.4174 26.2332 19.5707 26.2932 19.7427L26.2957 19.7493H26.5007L25.9738 18.5239V18.524V18.524ZM25.7329 19.1907C25.7441 19.1636 25.888 18.8269 25.9051 18.7869C25.9223 18.8269 26.0684 19.1636 26.0802 19.1907C26.0513 19.1907 25.7612 19.1907 25.7329 19.1907Z" fill="white"/>
<path fill-rule="evenodd" clip-rule="evenodd" d="M27.0277 19.1564C27.2443 19.1126 27.3739 18.9893 27.3739 18.8226C27.3739 18.6393 27.2453 18.5493 26.98 18.5493H26.604V19.7494H26.7767C26.7767 19.7494 26.7767 19.195 26.7767 19.1741C26.7902 19.1741 26.8195 19.1741 26.827 19.1741C26.8326 19.1812 26.9615 19.3327 26.9615 19.3327C26.9609 19.3321 27.1649 19.596 27.1649 19.596L27.2766 19.7494H27.2825H27.5027C27.5027 19.7494 27.0482 19.1817 27.0277 19.1564H27.0277L27.0277 19.1564ZM26.7766 19.0879C26.7766 19.0688 26.7766 18.6535 26.7766 18.6344C26.8478 18.6311 26.9582 18.6264 27.0182 18.6359C27.1379 18.6554 27.1988 18.7254 27.1988 18.843C27.1988 18.9636 27.1196 19.0516 26.9862 19.0783C26.9111 19.0935 26.8205 19.0908 26.7766 19.0879V19.0879Z" fill="white"/>
<path fill-rule="evenodd" clip-rule="evenodd" d="M28.373 18.5493H27.4717V18.6755L27.4834 18.6745C27.587 18.6636 27.6868 18.654 27.8492 18.6535C27.8492 18.6749 27.8492 19.7532 27.8492 19.7532H28.0233C28.0233 19.7532 28.0233 18.6755 28.0233 18.654C28.1452 18.654 28.2623 18.6611 28.3717 18.6745L28.3839 18.6759V18.5493H28.3731H28.373L28.373 18.5493Z" fill="white"/>
<path fill-rule="evenodd" clip-rule="evenodd" d="M28.5264 19.7494H28.6897V18.5493H28.5264V19.7494Z" fill="white"/>
<path fill-rule="evenodd" clip-rule="evenodd" d="M29.8486 18.5493C29.8486 18.5493 29.8486 19.4165 29.8486 19.4375C29.848 19.4375 29.8476 19.4375 29.8472 19.4375C29.8407 19.4303 29.0273 18.5493 29.0273 18.5493H28.9443V19.7494H29.0625C29.0625 19.7494 29.0625 18.842 29.0625 18.8206C29.0635 18.8206 29.0639 18.8206 29.0645 18.8206C29.0708 18.8278 29.8071 19.6418 29.8071 19.6418L29.8993 19.7494H29.9667V18.5493H29.8486V18.5493Z" fill="white"/>
<path fill-rule="evenodd" clip-rule="evenodd" d="M14.1648 31.2674C14.1001 31.2635 14.0451 31.2569 13.9864 31.2569C13.9215 31.2569 13.8631 31.2635 13.8045 31.2674C13.7054 30.9825 13.5817 30.6538 13.4443 30.342H12.5732C12.453 30.6434 12.3293 30.9448 12.2335 31.2674C12.1854 31.2635 12.1478 31.2569 12.1063 31.2569C12.0618 31.2569 12.0239 31.2635 11.9863 31.2674L13.0567 28.8727H13.1358L14.1648 31.2674H14.1648ZM35.893 31.2674H35.7896C35.752 31.2197 35.6831 31.1373 35.6115 31.0582L34.1288 29.4199H34.0952V31.2673C34.0608 31.2635 34.03 31.2568 33.9986 31.2568C33.9646 31.2568 33.9333 31.2635 33.9027 31.2673V28.9236H34.0367L35.6662 30.6881H35.7008V28.9236C35.7315 28.9265 35.7622 28.9337 35.797 28.9337C35.8281 28.9337 35.8589 28.9265 35.8929 28.9236V31.2673L35.893 31.2674ZM33.1151 28.9236C33.1633 28.9265 33.2149 28.9337 33.2661 28.9337C33.3141 28.9337 33.3623 28.9265 33.4169 28.9236V31.2674C33.3623 31.2635 33.314 31.2569 33.2661 31.2569C33.2149 31.2569 33.1632 31.2635 33.1151 31.2674V28.9236ZM32.0157 31.274C31.9606 31.2707 31.9124 31.2635 31.864 31.2635C31.8129 31.2635 31.7616 31.2707 31.7135 31.274V29.088C31.3673 29.088 31.158 29.1084 30.9616 29.1289C30.9659 29.0946 30.9722 29.0603 30.9722 29.0265C30.9722 28.9918 30.9659 28.9612 30.9616 28.9236H32.7324C32.7289 28.9612 32.7225 28.9918 32.7225 29.0265C32.7225 29.0603 32.7289 29.0946 32.7324 29.1289C32.5611 29.1084 32.3205 29.088 32.0157 29.088V31.274H32.0157H32.0157ZM29.2361 28.9236H29.9635C30.4923 28.9236 30.7253 29.0979 30.7253 29.4442C30.7253 29.8414 30.3688 30.0338 30.0221 30.0952L30.7289 30.9896L30.8937 31.1815L30.9584 31.2674C30.8868 31.2635 30.8249 31.2569 30.7596 31.2569C30.6946 31.2569 30.6261 31.2635 30.5634 31.2674C30.4884 31.1611 30.4201 31.0644 30.3474 30.9686L29.943 30.4448L29.6685 30.1233H29.5385V31.2674C29.4832 31.2635 29.4354 31.2569 29.3873 31.2569C29.3356 31.2569 29.2842 31.2635 29.2361 31.2674V28.9236L29.2361 28.9236ZM29.5385 29.9923C29.5861 29.9957 29.8056 30.0095 29.9808 29.9752C30.232 29.9242 30.4201 29.7523 30.4201 29.4855C30.4201 29.2489 30.2996 29.0946 30.0426 29.0531C29.916 29.0332 29.6819 29.0432 29.5386 29.0504V29.9924L29.5385 29.9923H29.5385ZM28.9984 31.2674C28.9328 31.2635 28.8787 31.2569 28.8195 31.2569C28.7546 31.2569 28.6962 31.2635 28.6386 31.2674C28.5386 30.9825 28.4148 30.6538 28.2776 30.342H27.4067C27.2863 30.6434 27.1624 30.9448 27.0667 31.2674C27.0186 31.2635 26.981 31.2569 26.94 31.2569C26.8955 31.2569 26.8572 31.2635 26.82 31.2674L27.89 28.8727H27.9689L28.9984 31.2674ZM27.8456 29.3213L27.4715 30.198H28.2264L27.8456 29.3213H27.8456ZM26.3845 28.9236C26.4739 29.7695 26.5702 30.6129 26.6624 31.2674C26.6004 31.2635 26.5523 31.2569 26.5012 31.2569C26.4459 31.2569 26.3914 31.2635 26.3402 31.2674C26.2821 30.5782 26.2123 29.8385 26.1645 29.4994C25.7666 30.2086 25.4715 30.7563 25.2658 31.2296H25.2282L25.0396 30.842C24.8195 30.3905 24.5795 29.9448 24.3463 29.4994C24.2708 30.1671 24.1782 30.8453 24.1782 31.2674C24.134 31.2635 24.0958 31.2569 24.0586 31.2569C24.014 31.2569 23.9758 31.2635 23.9349 31.2674C24.0237 30.7158 24.2295 29.2832 24.2639 28.9236H24.3532C24.6278 29.469 24.9572 30.1123 25.3238 30.7191C25.6506 30.1324 25.9661 29.5371 26.3124 28.9236H26.3846H26.3845ZM22.5181 31.2674H22.4146C22.3773 31.2197 22.3084 31.1373 22.2367 31.0582L20.7542 29.4199H20.72V31.2673C20.6858 31.2635 20.6546 31.2568 20.6238 31.2568C20.5898 31.2568 20.5591 31.2635 20.5279 31.2673V28.9236H20.662L22.2913 30.6881H22.326V28.9236C22.3567 28.9265 22.3875 28.9337 22.4215 28.9337C22.4522 28.9337 22.4835 28.9265 22.5181 28.9236V31.2673V31.2674H22.5181ZM17.5973 30.0952C17.5973 29.3447 18.1562 28.8727 18.8668 28.8727C19.5121 28.8727 20.1669 29.2212 20.1669 30.0437C20.1669 30.8077 19.6252 31.3087 18.8606 31.3087C18.1022 31.3087 17.5973 30.8287 17.5973 30.0952L17.5973 30.0952L17.5973 30.0952ZM19.6149 29.3174C19.4437 29.1018 19.176 28.9851 18.9008 28.9851C18.2976 28.9851 17.9338 29.4409 17.9338 30.1361C17.9338 30.8324 18.359 31.1949 18.8704 31.1949C19.5945 31.1949 19.8552 30.4481 19.8309 30.0714C19.8309 29.7876 19.7933 29.547 19.6149 29.3174V29.3174L19.6149 29.3174ZM16.9204 31.274C16.8653 31.2707 16.8176 31.2635 16.7693 31.2635C16.7176 31.2635 16.6659 31.2707 16.6185 31.274V29.088C16.2718 29.088 16.0621 29.1084 15.867 29.1289C15.8703 29.0946 15.8773 29.0603 15.8773 29.0265C15.8773 28.9918 15.8703 28.9612 15.867 28.9236H17.6372C17.6335 28.9612 17.627 28.9918 17.627 29.0265C17.627 29.0603 17.6335 29.0946 17.6372 29.1289C17.4655 29.1084 17.2258 29.088 16.9204 29.088V31.274ZM14.4054 30.8044C14.5389 31.0239 14.6931 31.1611 14.9614 31.1611C15.2389 31.1611 15.4379 30.931 15.4379 30.6606C15.4379 30.0233 14.3639 30.3048 14.3639 29.5299C14.3639 29.088 14.714 28.8727 15.1258 28.8727C15.29 28.8727 15.4897 28.9236 15.6159 29.0365C15.5748 29.1256 15.551 29.2212 15.5237 29.3175H15.4897C15.4175 29.1322 15.2667 29.0194 15.0643 29.0194C14.8273 29.0194 14.6321 29.1774 14.6321 29.4199C14.6321 30.051 15.7125 29.7972 15.7125 30.5272C15.7125 31.0173 15.3309 31.3087 14.8648 31.3087C14.6971 31.3087 14.4225 31.2368 14.3059 31.1096C14.3396 31.0101 14.357 30.9072 14.3708 30.8044H14.4054L14.4054 30.8044ZM13.012 29.3213L12.6385 30.198H13.3929L13.0121 29.3213H13.012H13.012Z" fill="black"/>
</g>
<defs>
<linearGradient id="paint0_linear_1_74817" x1="21.2947" y1="16.4328" x2="26.7036" y2="21.8417" gradientUnits="userSpaceOnUse">
<stop stop-color="#339966"/>
<stop offset="1" stop-color="#004F32"/>
</linearGradient>
<clipPath id="clip0_1_74817">
<rect width="32" height="14.3087" fill="white" transform="translate(8 17)"/>
</clipPath>
</defs>
</svg>
