<svg width="48" height="48" viewBox="0 0 48 48" fill="none" xmlns="http://www.w3.org/2000/svg">
<path d="M13.5511 18.6531C12.2669 18.6959 11.051 19.2416 10.1655 20.1726C9.27993 21.1036 8.79567 22.3453 8.81709 23.63C8.83851 24.9147 9.36389 26.1395 10.28 27.0404C11.1961 27.9414 12.4295 28.4463 13.7144 28.4463C14.9992 28.4463 16.2327 27.9414 17.1488 27.0404C18.0648 26.1395 18.5902 24.9147 18.6116 23.63C18.6331 22.3453 18.1488 21.1036 17.2633 20.1726C16.3777 19.2416 15.1618 18.6959 13.8776 18.6531H13.5511ZM20.4082 18.6531C19.1241 18.6959 17.9082 19.2416 17.0226 20.1726C16.1371 21.1036 15.6528 22.3453 15.6742 23.63C15.6956 24.9147 16.221 26.1395 17.1371 27.0404C18.0532 27.9414 19.2866 28.4463 20.5715 28.4463C21.8564 28.4463 23.0898 27.9414 24.0059 27.0404C24.922 26.1395 25.4474 24.9147 25.4688 23.63C25.4902 22.3453 25.0059 21.1036 24.1204 20.1726C23.2349 19.2416 22.0189 18.6959 20.7348 18.6531H20.4082ZM27.2654 18.6531C25.9812 18.6959 24.7653 19.2416 23.8798 20.1726C22.9942 21.1036 22.51 22.3453 22.5314 23.63C22.5528 24.9147 23.0782 26.1395 23.9943 27.0404C24.9103 27.9414 26.1438 28.4463 27.4287 28.4463C28.7135 28.4463 29.947 27.9414 30.863 27.0404C31.7791 26.1395 32.3045 24.9147 32.3259 23.63C32.3473 22.3453 31.8631 21.1036 30.9775 20.1726C30.092 19.2416 28.8761 18.6959 27.5919 18.6531H27.2654ZM34.1225 18.6531C32.8384 18.6959 31.6225 19.2416 30.7369 20.1726C29.8514 21.1036 29.3671 22.3453 29.3885 23.63C29.4099 24.9147 29.9353 26.1395 30.8514 27.0404C31.7675 27.9414 33.0009 28.4463 34.2858 28.4463C35.5707 28.4463 36.8041 27.9414 37.7202 27.0404C38.6363 26.1395 39.1617 24.9147 39.1831 23.63C39.2045 22.3453 38.7202 21.1036 37.8347 20.1726C36.9491 19.2416 35.7332 18.6959 34.4491 18.6531H34.1225Z" stroke="black"/>
</svg>
