<svg width="48" height="48" viewBox="0 0 48 48" fill="none" xmlns="http://www.w3.org/2000/svg">
<g clip-path="url(#clip0_1_74840)">
<path fill-rule="evenodd" clip-rule="evenodd" d="M26.7724 19.9139C25.8257 19.4535 24.9647 19.3036 23.9431 19.3036C23.0172 19.3036 22.0491 19.5 21.1704 19.8796C20.2558 19.5613 18.065 19.7503 17.5861 19.761C17.0378 19.7736 14.7694 19.6366 14.2337 19.6366C13.698 19.6366 12.5903 19.654 11.7548 19.7112C10.4829 19.7987 9.04485 19.6746 8.87133 19.6314C8.78715 19.6108 8.72474 19.6617 8.72474 19.6617C8.68746 19.7112 8.30127 20.1472 8.30127 20.1472L8.33893 20.2724L9.24827 20.7332L9.12386 21.3316L10.0092 21.7308C10.0092 21.7308 10.0092 22.2285 10.0583 22.2909C10.1082 22.354 10.9935 22.5777 10.9935 22.5777C10.9935 22.5777 11.0818 23.1596 11.143 23.2131C11.2468 23.3054 12.178 23.4007 12.178 23.4007C12.178 23.4007 12.4641 23.9239 12.5885 23.9737C12.7133 24.0235 13.7105 24.1734 13.897 24.1232C13.897 24.1232 13.9797 24.5589 14.1562 24.6375C14.3448 24.721 15.4299 24.6848 15.4299 24.6848C15.4299 24.6848 15.5647 25.1142 15.7807 25.1814C15.9826 25.2438 16.9256 24.9957 16.9256 24.9957C16.9256 24.9957 17.0633 25.3139 17.2003 25.3697C17.4092 25.455 18.1709 25.1847 18.1709 25.1847C18.5626 26.7985 19.8674 27.9405 21.4041 28.5375L21.619 28.9695L22.124 28.7782L22.388 29.1832L22.8492 28.9325L23.1634 29.3136L23.5776 29.0138L23.9427 29.3527L24.3064 29.0038L24.7218 29.3076L25.0345 28.9274L25.4964 29.1788L25.7611 28.7771L26.2684 28.9717L26.4774 28.5393C27.9018 27.9866 29.2206 26.8358 29.6492 25.3767C29.7825 25.4361 30.0354 25.5225 30.2444 25.5314C30.2444 25.5314 30.4825 25.4454 30.5793 25.1441C30.5793 25.1441 31.4059 25.4022 31.5569 25.356C31.5569 25.356 31.6958 25.3486 31.8239 24.9259C31.9084 24.9647 31.9786 24.944 32.1045 24.9713C32.748 25.1112 33.0286 25.0355 33.0286 25.0355C33.0286 25.0355 33.1726 25.0112 33.2867 24.4692C33.3439 24.4777 33.3849 24.4847 33.4281 24.4821C33.4281 24.4821 34.3836 24.5094 34.549 24.4267C34.549 24.4267 34.7 24.3887 34.7543 23.8456C35.1482 23.9047 35.5026 23.9305 35.7895 23.8976C35.7895 23.8976 36.1107 23.7872 36.2344 23.1555C36.4512 23.1419 37.0902 23.0994 37.1696 23.0053C37.1696 23.0053 37.3269 22.9329 37.3269 22.3654C37.5769 22.3492 37.9834 22.2968 38.1299 22.141C38.1299 22.141 38.285 21.9615 38.2178 21.5292C38.8082 21.4055 39.0131 21.2131 39.0131 21.2131C39.009 21.0042 38.8252 20.6198 38.8252 20.6198C38.8252 20.6198 39.4857 20.3651 39.6463 20.2358L39.6983 20.1402C39.6983 20.1402 39.2985 19.661 39.2365 19.6481C39.0943 19.6185 37.8165 19.8035 36.9906 19.8035C36.1639 19.8035 34.6741 19.678 34.0609 19.678C33.4473 19.678 31.5314 19.816 30.6302 19.816C29.7286 19.816 29.379 19.678 28.7155 19.678C28.3031 19.678 27.3561 19.7042 26.7724 19.9139Z" fill="black"/>
<path d="M37.6103 20.8047C37.3962 20.8051 37.1828 20.8058 36.9694 20.8058C36.6046 20.8228 36.2132 20.8125 35.8366 20.8184C35.3408 20.8262 34.1992 20.8354 34.1412 20.8398C33.9045 20.8398 33.6675 20.8398 33.4312 20.8398C33.0284 20.8398 32.6729 20.8383 32.2704 20.8383C32.2021 20.8413 31.7942 20.8524 31.6653 20.8516C31.6077 20.8502 31.5036 20.8431 31.4464 20.8516C31.3511 20.8664 31.1957 21.0669 31.3829 21.0669C31.391 21.065 31.3998 21.0636 31.4087 21.0624C31.4275 21.0599 31.4464 21.0569 31.4656 21.0536C31.518 21.0373 31.5863 21.0569 31.6398 21.061C31.7395 21.068 31.8403 21.0757 31.9404 21.0828C32.2036 21.1008 32.4665 21.1186 32.729 21.137C32.9177 21.1522 33.1071 21.168 33.2957 21.1828C34.6777 21.2699 36.043 21.3936 37.4752 21.3936C37.8063 21.3936 38.1021 21.2485 38.2062 21.2153C38.2505 21.2009 38.3435 21.1906 38.3786 21.1592C38.4525 21.0946 38.3675 20.8601 38.2966 20.8173C38.2483 20.7878 37.6638 20.8018 37.6103 20.8047Z" fill="white"/>
<path d="M9.81086 20.9098C9.73849 20.9371 9.70674 20.9733 9.69714 21.0534C9.68937 21.1118 9.73368 21.2462 9.87545 21.3196C9.97662 21.3658 10.361 21.5452 10.4599 21.5663C10.5515 21.5858 16.3377 21.2476 16.3469 21.2462C16.4252 21.2104 16.6375 21.1517 16.6191 21.028C16.6139 20.9925 16.5581 20.9574 16.5271 20.9449C16.4618 20.9202 15.7488 20.9851 15.6956 20.9855C15.2042 20.9855 9.94377 20.9098 9.81086 20.9098Z" fill="white"/>
<path d="M30.091 20.9971C30.0272 20.9956 29.9625 21.034 29.9374 21.103C29.9164 21.1599 29.9094 21.2374 29.9585 21.2769C30.0094 21.3175 30.0885 21.329 30.1523 21.3456C30.2553 21.3722 30.3587 21.3987 30.461 21.4253C30.5799 21.4545 30.6788 21.4711 30.8165 21.4848C30.9229 21.4947 31.0152 21.4711 31.0428 21.3858C31.0735 21.2869 31.0624 21.2208 30.9852 21.1769C30.9491 21.1565 30.8003 21.1145 30.5832 21.0746C30.3713 21.0358 30.1542 21.0011 30.091 20.9971Z" fill="white"/>
<path d="M17.6832 20.9925C17.4812 21.0549 17.2727 21.0855 17.0622 21.1246C16.9799 21.139 16.8713 21.1435 16.8045 21.19C16.7738 21.2114 16.7569 21.2439 16.7484 21.2782C16.741 21.3126 16.7458 21.3532 16.7665 21.3775C16.7971 21.4141 16.9917 21.4986 17.1179 21.4769C17.3181 21.4285 17.4923 21.3646 17.6784 21.3044C17.743 21.2856 17.8272 21.2749 17.8737 21.2236C17.9247 21.1671 17.8911 21.1047 17.8508 21.0563C17.8091 21.0076 17.7441 20.9781 17.6832 20.9925Z" fill="white"/>
<path d="M31.3567 21.3137C31.3327 21.3244 31.3087 21.3314 31.2895 21.3513C31.2241 21.4178 31.2082 21.5274 31.3349 21.5274C31.3862 21.5119 31.525 21.533 31.5745 21.5407C31.6664 21.5544 31.758 21.5688 31.8492 21.5832C32.2195 21.6415 32.5902 21.6999 32.9605 21.7582C33.4076 21.8313 33.8566 21.9059 34.3111 21.9561C34.6301 21.9915 34.9476 22.0476 35.2699 22.0783C35.7669 22.1255 36.2572 22.1953 36.7825 22.1953C36.8143 22.1942 36.8464 22.1924 36.8782 22.1913C36.8966 22.1891 36.9158 22.1879 36.9346 22.1872C36.9476 22.185 36.9616 22.1839 36.9745 22.1824C36.9886 22.1809 37.003 22.1795 37.0177 22.1776C37.0332 22.1765 37.0495 22.175 37.0653 22.1739C37.079 22.1717 37.0916 22.171 37.1049 22.1695C37.1152 22.1673 37.1252 22.1662 37.1348 22.1647C37.144 22.1636 37.1525 22.1617 37.1617 22.1606C37.1706 22.1591 37.1787 22.1577 37.1872 22.1562C37.196 22.1547 37.2053 22.1536 37.2138 22.1518C37.2614 22.1396 37.309 22.127 37.3559 22.1145C37.5224 22.0635 37.6073 21.9937 37.6653 21.8287C37.6779 21.7914 37.6937 21.739 37.6646 21.7054C37.6384 21.6759 37.5977 21.6707 37.5579 21.6688C37.3489 21.6688 37.1396 21.6681 36.9306 21.6681C36.6456 21.6578 36.3616 21.6471 36.0759 21.6367C35.0199 21.5872 33.9714 21.5027 32.9254 21.4355C32.571 21.4082 32.2166 21.3809 31.8617 21.3532C31.7152 21.3417 31.5099 21.3137 31.3567 21.3137Z" fill="white"/>
<path d="M17.9334 21.4592C17.7395 21.4969 17.5671 21.5799 17.3847 21.6412C17.3094 21.666 17.2127 21.6837 17.1569 21.745C17.123 21.7823 17.1141 21.8299 17.1263 21.8819C17.134 21.9166 17.1496 21.9687 17.1739 21.996C17.2227 22.0514 17.3515 22.1031 17.4383 22.1031C17.4866 22.1016 17.5612 22.0865 17.5926 22.0739C17.7351 21.9971 17.8769 21.9207 18.0194 21.8439C18.0681 21.8177 18.1309 21.8099 18.1708 21.7686C18.3067 21.6287 18.0489 21.4396 17.9334 21.4592Z" fill="white"/>
<path d="M29.8245 21.5298C29.7433 21.5564 29.5587 21.6568 29.6381 21.7465C29.6694 21.7827 29.7702 21.8167 29.8134 21.8314C29.867 21.8547 29.8633 21.8613 29.9164 21.8846C29.9766 21.9123 30.0357 21.9403 30.0955 21.9677C30.207 22.0219 30.2664 22.081 30.4067 22.081C30.5722 22.0773 30.6464 22.1028 30.7283 21.9463C30.7505 21.9056 30.7357 21.8602 30.7121 21.8296C30.6733 21.779 30.454 21.6993 30.3588 21.6668C30.1719 21.6033 29.8769 21.5158 29.8245 21.5298Z" fill="white"/>
<path d="M16.4956 21.4852C16.3649 21.4985 15.4098 21.5905 15.062 21.6126C14.8759 21.6277 11.6277 21.8297 11.3445 21.8338C11.292 21.8378 10.6053 21.8304 10.5341 21.891C10.4971 21.9224 10.5381 22.1081 10.5735 22.1421C10.6397 22.2059 10.7604 22.2248 10.8471 22.2488C11.0993 22.3196 11.326 22.4001 11.6188 22.4001C11.638 22.3986 16.7168 21.7511 16.8091 21.7511C16.8224 21.7381 16.8353 21.7289 16.8331 21.7082C16.8291 21.6621 16.6514 21.521 16.6071 21.5007C16.5743 21.486 16.5363 21.4852 16.4956 21.4852Z" fill="white"/>
<path d="M31.0564 21.6939C31.0066 21.7128 30.9472 21.7386 30.9597 21.8077C30.9682 21.8571 30.9896 21.9358 31.0306 21.9672C31.1007 22.0211 31.258 22.0421 31.3477 22.0654C31.597 22.13 31.8473 22.1942 32.0969 22.2581C32.4657 22.353 32.8375 22.4312 33.2126 22.5199C33.6664 22.6277 34.1356 22.7222 34.6031 22.7979C34.8604 22.8389 35.1185 22.8854 35.3836 22.9197C35.5202 22.9371 35.6531 22.9622 35.7971 22.9622C35.8107 22.9611 35.8233 22.9596 35.8369 22.9577C35.8609 22.9566 35.8868 22.9552 35.9111 22.9537C35.9285 22.9522 35.9455 22.9511 35.9636 22.9492C35.9761 22.9478 35.9891 22.9467 36.0023 22.9448C36.0215 22.9437 36.0407 22.9422 36.0588 22.9408C36.0784 22.9389 36.0969 22.9374 36.1157 22.9367C36.1349 22.9345 36.1533 22.9334 36.1725 22.9319C36.1873 22.9304 36.2013 22.9289 36.2158 22.9275C36.229 22.926 36.2419 22.9245 36.2552 22.9234C36.2682 22.9216 36.2815 22.9204 36.2944 22.919C36.3073 22.9171 36.3202 22.916 36.3339 22.9142C36.345 22.9131 36.3568 22.9116 36.3679 22.9101C36.3771 22.909 36.3856 22.9072 36.3948 22.9057C36.4033 22.9042 36.4122 22.9031 36.421 22.9012C36.4299 22.8998 36.4384 22.8987 36.4465 22.8968C36.4557 22.8957 36.4642 22.8939 36.4735 22.8924C36.5248 22.8688 36.5798 22.8699 36.6278 22.8377C36.6928 22.7938 36.8493 22.5771 36.7662 22.5084C36.7005 22.4534 36.3439 22.4645 36.2331 22.4556C35.8956 22.429 35.56 22.3881 35.227 22.3559C34.7485 22.3109 34.273 22.2263 33.8019 22.1658C33.2425 22.0938 32.6916 22.0026 32.1415 21.9107C31.886 21.8667 31.6298 21.8235 31.3751 21.7792C31.2639 21.7526 31.1812 21.6939 31.0564 21.6939Z" fill="white"/>
<path d="M16.4259 22.0223C16.1423 22.0722 15.8595 22.1213 15.576 22.1707C15.1278 22.2527 13.3648 22.5163 12.9302 22.5647C12.6489 22.5961 12.3683 22.6286 12.0803 22.6515C11.5535 22.626 11.4604 22.7127 11.5272 22.8534C11.556 22.914 11.5845 22.9941 11.6421 23.0376C11.7126 23.0904 12.2993 23.2093 12.5263 23.2093C12.7995 23.2186 14.0109 23.0258 14.2114 22.9764C14.5234 22.8999 16.8992 22.2605 16.9602 22.2202C17.007 22.1888 16.9686 22.046 16.9103 21.9732C16.8593 21.9101 16.5566 21.9987 16.4259 22.0223Z" fill="white"/>
<path d="M18.3429 21.9599C18.258 21.964 17.6787 22.3243 17.6374 22.3786C17.609 22.4155 17.6097 22.4602 17.6237 22.5049C17.6348 22.5403 17.6448 22.5773 17.6721 22.6046C17.7356 22.6684 17.8774 22.6703 17.973 22.6703C17.9988 22.6603 18.025 22.65 18.0513 22.6396C18.1022 22.6112 18.1432 22.568 18.1908 22.5311C18.2887 22.4517 18.3632 22.3956 18.4611 22.3166C18.5109 22.2815 18.6254 22.2527 18.6575 22.1977C18.7398 22.0552 18.4408 21.9577 18.3429 21.9599Z" fill="white"/>
<path d="M29.4481 21.96C29.3517 21.9651 29.1749 22.0246 29.1586 22.1519C29.1542 22.1844 29.1597 22.2177 29.1837 22.2372C29.2269 22.2734 29.5684 22.4455 29.6773 22.5152C29.76 22.5677 29.8239 22.6308 29.9336 22.6308C30.0813 22.626 30.1337 22.5898 30.1699 22.568C30.2338 22.5285 30.3106 22.4311 30.2552 22.355C30.2064 22.2871 30.1027 22.2579 30.0318 22.2254C29.9535 22.1885 29.8756 22.1516 29.797 22.1147C29.7445 22.0884 29.5334 21.96 29.4481 21.96Z" fill="white"/>
<path d="M30.8642 22.2127C30.8129 22.2353 30.7619 22.2582 30.7106 22.2807C30.6404 22.3087 30.4643 22.3464 30.5064 22.4531C30.5407 22.5406 31.3711 22.7861 31.6255 22.8769C32.2878 23.1062 32.8546 23.3019 33.5527 23.4559C34.06 23.5677 34.6002 23.694 35.1617 23.694C35.1846 23.6929 35.2083 23.6918 35.2304 23.6899C35.247 23.6885 35.2622 23.687 35.2788 23.6859C35.288 23.684 35.2961 23.6829 35.305 23.6814C35.3434 23.6619 35.3811 23.6534 35.4172 23.6287C35.4734 23.5884 35.5048 23.5286 35.5483 23.4802C35.5885 23.4359 35.6487 23.402 35.6727 23.3488C35.6831 23.3241 35.6842 23.2919 35.6679 23.2698C35.6491 23.2458 35.6207 23.2388 35.5926 23.231C35.4638 23.2137 35.3345 23.1963 35.205 23.1786C34.9535 23.138 34.7024 23.0974 34.4506 23.0567C34.1132 23.0003 33.7743 22.9268 33.4438 22.8548C32.9147 22.74 32.3953 22.6237 31.8799 22.4911C31.6402 22.428 31.4003 22.3656 31.1607 22.3028C31.1101 22.2869 31.0591 22.2718 31.0082 22.2559C30.9598 22.2386 30.9199 22.2164 30.8642 22.2127Z" fill="white"/>
<path d="M18.8519 22.3687C18.7655 22.3687 18.5137 22.6257 18.4206 22.701C18.3763 22.738 18.2674 22.8332 18.2449 22.8867C18.2024 22.9916 18.2681 23.0477 18.3365 23.0983C18.3992 23.1452 18.5916 23.1153 18.6769 23.0514C18.7392 23.0045 19.1399 22.6456 19.1638 22.6036C19.2798 22.3986 18.9866 22.3687 18.8519 22.3687Z" fill="white"/>
<path d="M17.2403 22.3698C17.2063 22.379 17.1713 22.389 17.1373 22.3986C17.0476 22.4366 14.9637 23.0827 13.9761 23.2928C13.6911 23.3534 13.4027 23.3925 13.1088 23.4357C13.0188 23.449 12.8279 23.4364 12.7651 23.4896C12.7245 23.5261 12.8445 23.7189 12.8788 23.7713C12.966 23.9009 13.9879 23.9441 14.4424 23.8241C14.6263 23.7702 17.3326 22.8228 17.388 22.7523C17.4448 22.6795 17.4308 22.4983 17.4231 22.4654C17.4035 22.382 17.323 22.3698 17.2403 22.3698Z" fill="white"/>
<path d="M28.9547 22.383C28.8732 22.4047 28.7469 22.3697 28.6959 22.4461C28.6679 22.4871 28.662 22.5535 28.6882 22.5938C28.7199 22.6414 29.1611 23.0029 29.2136 23.0298C29.283 23.0653 29.3734 23.063 29.4602 23.063C29.5333 23.0616 29.6843 23.0003 29.6662 22.8843C29.6618 22.8537 29.6411 22.8264 29.6178 22.805C29.5506 22.7441 29.4679 22.7049 29.3948 22.654C29.3325 22.6119 29.2623 22.5587 29.1999 22.5166C29.143 22.4738 29.0932 22.4417 29.0363 22.3988C29.0116 22.3867 28.985 22.3848 28.9547 22.383Z" fill="white"/>
<path d="M28.2969 22.7315C28.223 22.7496 28.1381 22.7806 28.1525 22.8792C28.154 22.898 28.2695 22.9863 28.3135 23.0291C28.4128 23.1288 28.4859 23.3016 28.6122 23.3695C28.7 23.4171 28.83 23.4751 28.9289 23.4245C29.0523 23.3643 29.0205 23.2432 29.0002 23.217C28.9097 23.0996 28.7868 23.0095 28.6816 22.9043C28.6306 22.8534 28.5826 22.7795 28.5191 22.75C28.4582 22.7223 28.3714 22.7315 28.2969 22.7315Z" fill="white"/>
<path d="M19.3489 22.7474C19.2821 22.7862 19.1994 22.8929 19.1466 22.9497C19.1075 22.9914 19.0695 23.0332 19.0311 23.0741C18.9531 23.1535 18.7903 23.2898 18.9292 23.3872C18.9867 23.4275 19.0824 23.4603 19.1455 23.4419C19.1965 23.4182 19.2445 23.4138 19.2888 23.3762C19.3327 23.3392 19.3622 23.285 19.3918 23.2381C19.4265 23.1856 19.5431 23.0221 19.5723 22.9966C19.6325 22.9434 19.7211 22.9032 19.662 22.7958C19.6358 22.747 19.4121 22.7112 19.3489 22.7474Z" fill="white"/>
<path d="M30.3932 22.7531C30.3341 22.7786 30.1277 22.851 30.1314 22.9101C30.1377 22.9957 30.2617 23.0334 30.3371 23.0592C30.3939 23.0792 30.4449 23.1113 30.4973 23.1382C30.6044 23.1951 30.7122 23.2516 30.8189 23.3084C30.9891 23.3941 31.1593 23.4797 31.3295 23.5654C31.5761 23.6954 31.8275 23.815 32.0842 23.9217C32.3478 24.0313 32.6173 24.1624 32.9082 24.2159C33.1552 24.2614 33.4417 24.2481 33.7142 24.2481C33.736 24.2462 33.7581 24.2451 33.7796 24.2436C33.8161 24.2422 33.8523 24.2407 33.8888 24.2392C33.908 24.2377 33.9265 24.2363 33.9453 24.2351C33.9568 24.2329 33.9686 24.2322 33.9804 24.2303C33.9918 24.2289 34.0036 24.2278 34.0155 24.2259C34.024 24.2244 34.0321 24.2233 34.041 24.2215C34.0668 24.21 34.0934 24.1982 34.12 24.1871C34.1805 24.1443 34.3226 23.9974 34.2628 23.9217C34.2067 23.8523 33.9693 23.8357 33.8759 23.815C33.6717 23.7703 33.469 23.7227 33.27 23.6728C32.5497 23.4927 31.8582 23.2575 31.1693 23.0238C30.992 22.9588 30.8144 22.8938 30.6372 22.8285C30.5586 22.7993 30.4829 22.7561 30.3932 22.7531Z" fill="white"/>
<path d="M17.6153 22.9274C17.4802 22.9333 16.9932 23.2147 16.7993 23.2955C16.2559 23.5267 15.6891 23.7227 15.122 23.9117C14.9718 23.9575 14.8208 24.0037 14.6701 24.0487C14.576 24.0753 14.4634 24.0904 14.3795 24.137C14.3548 24.1499 14.3338 24.1724 14.3297 24.2008C14.3212 24.2514 14.3637 24.2909 14.3991 24.3175C14.4423 24.3492 14.4837 24.3862 14.5339 24.405C14.6125 24.4334 14.7041 24.4316 14.796 24.436C15.0105 24.446 15.437 24.5132 15.7153 24.3913C15.9716 24.2798 17.0548 23.7094 17.3406 23.5547C17.4754 23.479 18.0672 23.2029 18.0591 23.0936C18.0462 22.9212 17.7685 22.9274 17.6153 22.9274Z" fill="white"/>
<path d="M29.8484 23.1064C29.7996 23.1385 29.6704 23.2367 29.687 23.3035C29.7062 23.3778 29.9469 23.4889 29.9865 23.5177C30.3542 23.7938 30.7208 24.0678 31.1044 24.317C31.3156 24.4536 31.5301 24.5969 31.7649 24.6851C31.9942 24.7711 32.267 24.801 32.5377 24.801C32.5532 24.7999 32.5694 24.7985 32.5857 24.7974C32.6082 24.7874 32.6311 24.7785 32.654 24.7693C32.7171 24.7302 32.8674 24.602 32.8216 24.5205C32.8102 24.5009 32.791 24.4869 32.771 24.4776C32.7153 24.4588 32.6595 24.4396 32.6038 24.4204C32.5074 24.3853 32.4107 24.3495 32.3147 24.3148C32.016 24.1948 31.7247 24.0645 31.4348 23.9257C31.0376 23.7348 30.6469 23.5332 30.2637 23.322C30.1437 23.2537 30.0241 23.1847 29.9048 23.116C29.8949 23.1134 29.8846 23.1108 29.8746 23.1075C29.8654 23.1075 29.8576 23.1068 29.8484 23.1064Z" fill="white"/>
<path d="M29.2735 23.3592C29.251 23.3706 29.2303 23.3821 29.2144 23.4042C29.1864 23.4433 29.1768 23.4965 29.159 23.5412C29.1417 23.5814 29.1236 23.6206 29.1055 23.6601C29.1 23.6822 29.0996 23.7088 29.1088 23.7287C29.1317 23.7745 29.1923 23.7756 29.2329 23.7967C29.2676 23.8144 29.2993 23.838 29.3289 23.8653C29.5973 24.1183 29.8498 24.3848 30.1215 24.6241C30.2224 24.7138 30.3106 24.8245 30.4254 24.8858C30.5173 24.9357 30.6288 24.9597 30.7326 24.9866C30.8932 25.0276 31.0494 25.0845 31.2303 25.0845C31.296 25.0516 31.4913 24.9914 31.4585 24.8851C31.457 24.881 31.4551 24.877 31.4529 24.8729C31.4489 24.8666 31.4444 24.8596 31.44 24.8533C31.3739 24.7802 31.2746 24.743 31.1949 24.6931C31.0453 24.6004 30.9002 24.503 30.7536 24.4066C30.397 24.1718 30.0592 23.9023 29.7151 23.6442C29.5881 23.5489 29.5017 23.4009 29.3429 23.364C29.3337 23.3629 29.3255 23.3621 29.3167 23.3603C29.3097 23.3595 29.3026 23.3595 29.2953 23.3595C29.2875 23.3592 29.2812 23.3592 29.2735 23.3592Z" fill="white"/>
<path d="M18.1952 23.363C18.0977 23.3903 15.8688 24.6117 15.8367 24.6645C15.7831 24.7509 15.9478 24.8849 16.0298 24.903C16.152 24.9299 16.8273 24.8646 17.12 24.6899C17.2053 24.6261 18.2144 23.833 18.2938 23.7669C18.3905 23.6842 18.7058 23.521 18.6707 23.4524C18.6308 23.3745 18.2871 23.3338 18.1952 23.363Z" fill="white"/>
<path d="M18.8184 23.6728C18.7567 23.665 18.4016 24.1055 17.5553 24.6977C17.4826 24.7479 17.3176 24.8535 17.2814 24.9284C17.2286 25.0747 17.4701 25.1112 17.5587 25.1112C17.579 25.1094 18.0379 25.0507 18.2509 24.927C18.3488 24.8697 19.2999 23.9139 19.3294 23.8718C19.3427 23.8529 19.3526 23.7558 19.3486 23.7473C19.2984 23.6713 19.1404 23.7237 19.0514 23.7123C18.9831 23.7027 18.8856 23.6831 18.8184 23.6728Z" fill="white"/>
<path d="M28.6107 23.6771C28.5277 23.703 28.4472 23.8015 28.4845 23.8998C28.504 23.9526 28.5609 23.9636 28.6008 23.9969C28.6381 24.0293 28.6654 24.0663 28.6927 24.105C28.8625 24.3399 29.0305 24.578 29.2125 24.8054C29.2823 24.8918 29.354 25.0018 29.4496 25.0687C29.5733 25.1558 29.8203 25.2418 29.9883 25.2418C30.0484 25.2116 30.1976 25.206 30.2005 25.1145C30.2005 25.1108 30.2005 25.1063 30.1998 25.1023C30.1899 25.0151 30.0292 24.9014 29.9657 24.8416C29.7136 24.5998 29.4618 24.3579 29.2089 24.1161C29.1564 24.0626 29.1036 24.0094 29.0508 23.9562C29.0021 23.9009 28.9611 23.8396 28.9013 23.7919C28.8219 23.7277 28.7219 23.6804 28.6107 23.6771Z" fill="white"/>
<path d="M18.6111 25.5232C18.5727 25.5365 18.586 25.6055 18.5967 25.641C18.6155 25.703 18.8632 26.1069 18.9729 26.269C19.067 26.4085 19.1571 26.5518 19.269 26.6825C19.6918 27.1787 20.2024 27.6192 20.7517 27.9016C20.8356 27.9437 21.2926 28.1815 21.3964 28.1719C21.4182 28.17 21.4256 28.149 21.4215 28.1364C21.4145 28.1102 21.3916 28.0947 21.3702 28.0811C21.2664 28.0323 21.1623 27.9832 21.0582 27.9345C20.8791 27.8499 20.7026 27.7477 20.5346 27.6391C20.1407 27.3836 19.7774 27.0812 19.4429 26.7131C19.2901 26.5452 19.1878 26.3713 19.0493 26.1704C18.9186 25.9817 18.7451 25.6358 18.7012 25.5645C18.6783 25.5269 18.6462 25.5025 18.6111 25.5232Z" fill="white"/>
<path d="M29.1686 25.564C29.1243 25.5876 28.8755 26.0484 28.6613 26.3596C28.4232 26.7044 28.1223 27.0367 27.7896 27.3048C27.5116 27.5293 27.2399 27.6928 26.9305 27.8545C26.7366 27.9487 26.4926 28.0587 26.4468 28.0975C26.3855 28.1481 26.4165 28.1872 26.4882 28.1872C26.5509 28.161 26.8359 28.0417 27.1232 27.8833C27.7276 27.5503 28.3416 26.9998 28.7628 26.4261C28.9441 26.1783 29.1893 25.7157 29.2159 25.6511C29.2365 25.6005 29.2251 25.5695 29.1686 25.564Z" fill="white"/>
<path fill-rule="evenodd" clip-rule="evenodd" d="M21.5547 20.0553C21.5547 20.0553 21.493 19.9401 21.6274 19.8729C21.7632 19.8053 22.7697 19.483 23.9597 19.483C25.2667 19.483 26.4024 19.9065 26.4684 19.9604C26.5585 20.0335 26.4765 20.1697 26.375 20.1494C26.2746 20.1295 25.2445 19.6923 23.9733 19.6923C22.7022 19.6923 21.8142 20.0298 21.7359 20.0756C21.6429 20.1295 21.5547 20.0553 21.5547 20.0553Z" fill="white"/>
<path d="M20.1777 24.1505C20.1777 22.5891 21.8484 21.3234 23.9097 21.3234C25.9713 21.3234 27.6424 22.5891 27.6424 24.1505C27.6424 25.7122 25.9713 26.9778 23.9097 26.9778C21.8484 26.9778 20.1777 25.7122 20.1777 24.1505Z" stroke="white" stroke-width="0.2" stroke-miterlimit="3.864"/>
<path d="M23.6299 21.8817C23.6008 21.8986 23.5513 21.8879 23.5166 21.892C23.3656 21.9119 23.2146 21.9308 23.0684 21.9584C22.6449 22.0371 22.2373 22.2025 21.8925 22.4392C21.8049 22.4993 21.7049 22.5684 21.6351 22.6544C21.6333 22.6581 21.6311 22.6614 21.6281 22.6655C21.603 22.7072 21.5587 22.739 21.5417 22.7847C21.5351 22.8032 21.5288 22.8316 21.5358 22.8523C21.5594 22.9199 21.6853 23.0362 21.7481 23.0735C21.7791 23.0923 21.8319 23.1281 21.8367 23.1672C21.8433 23.227 21.83 23.2843 21.8264 23.3371C21.8256 23.4083 21.8256 23.4796 21.8256 23.5508V24.6009V25.0188C21.8245 25.0801 21.823 25.1403 21.8212 25.2012C21.8131 25.2315 21.6927 25.3474 21.6643 25.3799C21.6266 25.4231 21.607 25.4774 21.576 25.5232C21.5757 25.5268 21.5738 25.5302 21.5723 25.5335C21.5904 25.5505 21.5871 25.5833 21.5997 25.604C21.6362 25.6642 21.6971 25.7277 21.7551 25.7724C22.2273 26.1412 22.9373 26.3446 23.5687 26.3952C23.8182 26.4148 24.0748 26.3963 24.3277 26.3963C24.3492 26.3745 24.5061 26.3745 24.5493 26.3745C24.5696 26.3546 24.6796 26.3531 24.715 26.3531C24.7357 26.3306 24.8048 26.3306 24.8373 26.3306C24.8498 26.3177 24.8738 26.3177 24.8941 26.3177C24.9144 26.2963 24.9624 26.2963 24.9938 26.2963C25.0086 26.2797 25.0488 26.2745 25.0724 26.2745C25.0868 26.259 25.1238 26.2523 25.1463 26.2523C25.1607 26.2365 25.202 26.2309 25.2245 26.2309C25.2471 26.2062 25.3128 26.1874 25.3471 26.1874C25.3641 26.1637 25.3948 26.16 25.4187 26.149C25.4797 26.1194 25.5402 26.0899 25.6004 26.0603C25.8112 25.9359 26.0006 25.7679 26.1121 25.5483C26.1343 25.5058 26.1664 25.4644 26.1664 25.4113C26.1837 25.3939 26.1878 25.36 26.1878 25.333C26.2133 25.3079 26.2096 25.2499 26.2096 25.2112C26.2376 25.1794 26.2233 25.0823 26.2225 25.0369C26.2162 24.6053 25.8806 24.1899 25.5063 24.0297C25.4992 24.0268 25.4819 24.026 25.4819 24.0168C25.5092 23.998 25.5465 23.9599 25.5827 23.9599C25.6104 23.9186 25.7012 23.8831 25.7433 23.8469C25.8315 23.7727 26.0442 23.563 26.0442 23.4508C26.0589 23.4368 26.0656 23.4157 26.0656 23.3939C26.0833 23.3773 26.0877 23.3448 26.0877 23.3193C26.1188 23.2869 26.1095 23.203 26.1095 23.1539C26.1372 23.124 26.118 23.0531 26.1121 23.0188C26.0745 22.8132 25.9914 22.6411 25.85 22.4897C25.8179 22.4554 25.782 22.4299 25.7503 22.3974C25.6503 22.2937 25.5188 22.2272 25.3962 22.1659C25.0521 21.9939 24.6527 21.902 24.2358 21.8824C24.0331 21.882 23.8315 21.8817 23.6299 21.8817Z" fill="white"/>
<path d="M23.8429 22.2565C24.0788 22.2565 24.3118 22.2768 24.4934 22.3835C24.7755 22.5489 24.8593 22.8904 24.8176 23.2153C24.7917 23.4092 24.7271 23.5964 24.5805 23.7248C24.4373 23.85 24.2516 23.8806 24.057 23.9058C23.6262 23.9611 23.1801 23.8112 23.0576 23.3974C23.0277 23.2973 23.0044 23.1873 23.0029 23.0758C23.0055 23.0208 23.0085 22.965 23.0111 22.9104C23.0295 22.8901 23.0325 22.8387 23.0325 22.8099C23.0472 22.7952 23.055 22.7664 23.055 22.7446C23.0668 22.7339 23.076 22.7139 23.076 22.6966C23.0845 22.6888 23.0893 22.6785 23.0893 22.666C23.113 22.6475 23.155 22.5832 23.155 22.5526C23.189 22.5334 23.2082 22.4957 23.2359 22.4695C23.3105 22.3998 23.45 22.3134 23.5556 22.3134C23.566 22.3015 23.5829 22.3004 23.5992 22.3004C23.6217 22.2761 23.6863 22.2783 23.7214 22.2783C23.7476 22.2499 23.8108 22.2742 23.8429 22.2565Z" fill="black"/>
<path d="M23.7869 24.2482C24.0764 24.2482 24.3315 24.2522 24.5611 24.3582C25.0511 24.5845 25.0965 25.3994 24.7576 25.773C24.512 26.0462 23.9833 26.0942 23.62 25.9986C23.537 25.9761 23.4535 25.9583 23.3797 25.9166C23.2818 25.8601 23.2047 25.7878 23.1378 25.6955C23.0433 25.5651 22.9891 25.3779 22.9809 25.2066C22.9765 25.1103 22.9891 25.0146 22.9891 24.9231C23.0071 24.9054 23.0108 24.864 23.0108 24.8363C23.0267 24.8204 23.0322 24.7898 23.0322 24.7665C23.0466 24.7547 23.0548 24.7333 23.0548 24.7141C23.0706 24.7004 23.0891 24.6672 23.0891 24.644C23.1279 24.6148 23.1533 24.5565 23.181 24.5177C23.2128 24.4734 23.3376 24.3704 23.39 24.3704C23.4081 24.3471 23.4557 24.3261 23.486 24.3261C23.4996 24.3102 23.5336 24.3047 23.5554 24.3047C23.5724 24.2858 23.616 24.2829 23.6429 24.2829C23.6747 24.2489 23.7514 24.2784 23.7869 24.2482Z" fill="black"/>
<path d="M27.2581 20.139C27.3135 20.1228 27.3674 20.1353 27.4043 20.1752C27.4394 20.2136 27.4294 20.2782 27.3844 20.3033C27.3478 20.3236 27.2991 20.3255 27.2581 20.3362C27.1529 20.3635 26.7914 20.4163 26.7715 20.5418C26.7608 20.6142 26.8564 20.698 26.8929 20.7238C26.9428 20.7674 26.8564 20.6854 26.9062 20.729C26.979 20.7929 27.1411 20.9048 27.0536 21.0196C27.0322 21.0473 26.9971 21.0602 26.9609 21.0565C26.7885 21.0391 26.5533 20.6969 26.533 20.6404C26.5082 20.5703 26.5182 20.4983 26.5581 20.4403C26.6928 20.2472 27.051 20.2099 27.2581 20.139Z" fill="black"/>
<path d="M30.1339 20.6958C30.1247 20.8424 30.5445 20.8125 30.6468 20.8217C30.7985 20.8354 31.0939 20.9447 31.1504 20.8941C31.2187 20.8332 31.2914 20.5444 31.1688 20.5389C30.9909 20.5315 30.9237 20.5515 30.7254 20.5666C30.5216 20.5792 30.1432 20.5529 30.1339 20.6958Z" fill="white"/>
<path d="M17.7073 20.7467C17.7132 20.8479 17.2838 20.8468 17.1819 20.856C17.0306 20.8697 16.788 20.9738 16.7064 20.8837C16.6447 20.8162 16.5657 20.619 16.689 20.6138C16.8662 20.6061 16.9914 20.6183 17.1889 20.6334C17.3939 20.6459 17.6981 20.6002 17.7073 20.7467Z" fill="white"/>
<path d="M20.9597 20.1092C21.1606 20.1594 21.2754 20.1539 21.3913 20.3429C21.4497 20.4367 21.4533 20.5869 21.3555 20.7169C21.2924 20.8018 21.2684 20.8284 21.199 20.9129C21.1281 20.9986 21.1196 21.0566 20.9996 21.0739C20.9597 21.0798 20.9254 21.0702 20.9032 21.0381C20.8239 20.9233 20.9926 20.7841 21.0816 20.6837C21.1155 20.6453 21.1923 20.5312 21.1798 20.4836C21.1561 20.3266 20.9679 20.3292 20.8431 20.2905C20.7973 20.2757 20.6695 20.2521 20.6293 20.2266C20.5809 20.1959 20.5953 20.1369 20.6241 20.0929C20.6466 20.0586 20.7633 20.063 20.9597 20.1092Z" fill="black"/>
<path d="M29.8142 20.646C29.8574 20.6571 29.9121 20.6582 29.9206 20.711C29.9302 20.7767 29.8803 20.8391 29.747 20.8539C29.6544 20.8443 29.4672 20.6789 29.3944 20.8247C29.332 20.948 29.7245 20.9971 29.7068 21.1193C29.6928 21.2216 29.6555 21.2382 29.565 21.2382C29.524 21.2404 29.4273 21.1814 29.3944 21.1692C29.3043 21.1275 29.0909 20.958 29.0105 21.0939C28.9311 21.2283 29.4731 21.4107 29.4587 21.5155C29.4443 21.6148 29.3446 21.6931 29.2693 21.6673C29.1652 21.6421 28.8318 21.2508 28.6804 21.4044C28.5408 21.5462 29.0983 21.7946 29.0707 21.881C29.0234 22.0261 28.8964 22.0693 28.7195 21.9224C28.6272 21.8456 28.4817 21.7027 28.3987 21.8146C28.2964 21.9527 28.591 22.1265 28.6169 22.1727C28.6815 22.289 28.5331 22.4234 28.4352 22.4012C28.3444 22.3891 28.2104 22.0464 28.0834 22.1642C27.9859 22.2539 28.224 22.4677 28.1993 22.553C28.1893 22.6324 27.9874 22.7368 27.8936 22.6634C27.7647 22.5777 28.0686 22.1325 27.7703 21.7127C27.6259 21.5343 27.5085 21.2574 27.5004 21.2087C27.489 21.1234 27.4952 20.9768 27.5499 20.9037C27.7588 20.6235 28.707 20.6423 29.112 20.6235C29.3834 20.6106 29.5362 20.646 29.8142 20.646Z" fill="white"/>
<path d="M17.9637 20.6874C17.9091 20.6874 17.8618 20.6992 17.8537 20.7538C17.8434 20.821 17.8533 20.9277 17.967 20.9307C18.1011 20.9329 18.2646 20.7546 18.3429 20.8672C18.4315 20.9942 17.9737 21.0706 18.0468 21.2249C18.141 21.4221 18.3267 21.2416 18.3606 21.2294C18.4529 21.1862 18.7409 20.9296 18.858 21.0987C18.9617 21.2475 18.4887 21.4635 18.4315 21.5343C18.4153 21.555 18.3817 21.6665 18.3946 21.6938C18.498 21.9235 18.759 21.7034 18.934 21.5118C18.999 21.4406 19.0463 21.4014 19.1112 21.3844C19.2009 21.3612 19.2792 21.3789 19.3032 21.4594C19.3176 21.5052 19.304 21.5591 19.2703 21.5905C19.2338 21.6255 18.8262 21.9198 18.8399 22.0077C18.8679 22.186 18.9757 22.2096 19.0547 22.1716C19.1396 22.1339 19.3782 21.7289 19.5188 21.7824C19.5561 21.7968 19.6026 21.8031 19.6174 21.8389C19.6381 21.888 19.63 21.9567 19.5989 21.9981C19.5595 22.0512 19.4849 22.121 19.4347 22.1653C19.3918 22.203 19.3442 22.2477 19.3187 22.2945C19.2523 22.4138 19.3508 22.4684 19.4598 22.4684C19.4982 22.4684 19.5188 22.447 19.5454 22.4241C19.6119 22.3676 19.6809 22.1158 19.8157 22.183C19.9567 22.2539 19.6957 22.4533 19.7215 22.5947C19.7599 22.7014 19.9294 22.7232 19.9763 22.6438C20.028 22.5172 19.9973 22.3219 20.0494 22.1018C20.1 21.9047 20.2417 21.603 20.31 21.4841C20.3536 21.414 20.4064 21.359 20.4264 21.2752C20.4278 21.2692 20.4289 21.2637 20.43 21.2578C20.4415 21.1696 20.3857 21.0968 20.3259 21.0429C20.2277 20.9532 20.0952 20.8982 19.9722 20.8572C19.6097 20.7365 19.2216 20.7254 18.8059 20.7062C18.5264 20.6925 18.2488 20.6874 17.9637 20.6874Z" fill="white"/>
<path d="M27.7352 22.9457C27.7861 22.8427 28.0176 22.9557 28.039 22.9753C28.1029 23.0314 28.1247 23.1233 28.1719 23.1905C28.2299 23.2732 28.3805 23.4482 28.3721 23.542C28.365 23.6181 28.0723 23.8451 28.0084 23.7916C28.0065 23.7897 28.0051 23.7872 28.0021 23.7849C27.9589 23.5021 27.8655 23.2304 27.7285 22.976C27.7285 22.9649 27.7315 22.9546 27.7352 22.9457Z" fill="white"/>
<path d="M28.0519 23.9343C28.1324 23.9343 28.2697 23.9657 28.3254 24.0148C28.3716 24.0551 28.3949 24.1156 28.4277 24.1655L28.5976 24.4051L28.9919 24.9349L29.1724 25.1678C29.206 25.2251 29.1968 25.2675 29.147 25.307L29.1163 25.3111C28.9328 25.3111 28.6478 25.2428 28.523 25.1328C28.4606 25.0774 28.4274 25.0117 28.3875 24.9456L28.1948 24.5893C28.1637 24.5361 28.053 24.3733 28.0334 24.3153C28.0312 24.3087 28.0283 24.2998 28.026 24.2895C28.029 24.2434 28.0301 24.1972 28.0301 24.1503C28.0301 24.0887 28.0279 24.027 28.0234 23.9657C28.0301 23.948 28.0393 23.9362 28.0519 23.9343Z" fill="white"/>
<path d="M19.3681 24.1122C19.4737 23.966 19.6111 23.8453 19.7392 23.8648C19.7687 23.8659 19.7901 23.877 19.8042 23.8936C19.7946 23.9782 19.7901 24.0642 19.7901 24.1506L19.7913 24.1905L19.7879 24.1993C19.7517 24.3289 19.7384 24.299 19.651 24.4685C19.518 24.7251 19.3729 25.0921 19.2873 25.1316C19.1625 25.1892 18.9723 25.1822 18.835 25.2165C18.6386 25.2663 18.499 25.2154 18.499 25.1238C18.4998 25.0064 19.2895 24.2311 19.3681 24.1122Z" fill="white"/>
<path d="M19.4202 25.3243C19.5358 25.3354 19.5723 25.4893 19.7086 25.5218C19.7949 25.5425 19.895 25.496 19.963 25.4568C20.0069 25.4314 20.0682 25.3811 20.1265 25.3874C20.5179 26.0734 21.2249 26.632 22.1091 26.958C22.111 26.9617 22.1125 26.965 22.1143 26.9687C22.1213 27.0031 22.1114 27.0315 22.0995 27.0459C22.053 27.0991 21.603 27.8072 21.511 27.8294C21.4305 27.8578 21.1215 27.6599 21.0104 27.5993C20.4237 27.2818 19.8688 26.8565 19.4394 26.3034C19.3035 26.1295 18.9199 25.6832 18.9244 25.4989C18.928 25.369 19.3523 25.3213 19.4202 25.3243Z" fill="white"/>
<path d="M28.4341 25.4294C28.4828 25.4098 28.8332 25.5394 28.8391 25.6254C28.8358 25.6963 28.6213 25.9968 28.3809 26.3191C27.9597 26.8848 27.4372 27.2676 26.8535 27.5929C26.728 27.6627 26.5947 27.7262 26.4618 27.7812L26.3492 27.8255C26.3141 27.8255 26.2823 27.8163 26.2602 27.7927C26.2151 27.7461 25.7599 27.0675 25.7385 27.0384C25.7211 27.0151 25.7259 26.9752 25.7422 26.9475C26.5718 26.6341 27.2426 26.1161 27.6388 25.4803C27.7056 25.4618 27.8227 25.5623 27.8736 25.5874C27.9622 25.6309 28.0741 25.6749 28.1834 25.6446C28.2978 25.6132 28.3444 25.4703 28.4341 25.4294Z" fill="white"/>
<path d="M24.528 27.2368C24.5741 27.2642 24.5981 27.3162 24.6155 27.3513C24.6506 27.4229 24.7617 28.0687 24.8197 28.3208C24.8374 28.4047 24.8606 28.5342 24.847 28.6225C24.8352 28.6996 24.7458 28.8075 24.6528 28.82C24.5756 28.8315 24.4213 28.7148 24.3951 28.6565C24.3611 28.5793 24.3666 28.4848 24.3585 28.3947C24.3382 28.1229 24.2983 27.4683 24.2983 27.3982C24.2983 27.3568 24.312 27.293 24.3552 27.2535C24.4131 27.2487 24.4707 27.2435 24.528 27.2368Z" fill="white"/>
<path d="M25.0596 27.1482C25.0844 27.17 25.1028 27.1969 25.1176 27.2165C25.1663 27.283 25.3938 27.9154 25.4968 28.1609C25.5304 28.2418 25.5769 28.3692 25.5784 28.4604C25.5802 28.5408 25.5093 28.6656 25.4181 28.6944C25.3413 28.7199 25.1652 28.6302 25.1287 28.5752C25.0799 28.5036 25.0689 28.4072 25.0441 28.3171C24.9754 28.0461 24.8182 27.3919 24.8056 27.3214C24.7997 27.2878 24.8001 27.2383 24.8193 27.1951C24.9009 27.1814 24.9803 27.1655 25.0596 27.1482Z" fill="white"/>
<path d="M25.5456 27.0158C25.5773 27.0354 25.6024 27.0631 25.6224 27.0837C25.6785 27.1436 25.9816 27.7439 26.1138 27.9746C26.1563 28.0511 26.2187 28.1714 26.232 28.2619C26.2426 28.3413 26.1877 28.4734 26.1005 28.5141C26.0278 28.548 25.8417 28.4805 25.7985 28.4306C25.7416 28.3653 25.7191 28.2711 25.6837 28.1847C25.5821 27.9241 25.3466 27.2938 25.3255 27.2251C25.3141 27.1886 25.3086 27.1306 25.33 27.0812C25.4027 27.0609 25.4751 27.0394 25.5456 27.0158Z" fill="white"/>
<path d="M23.9949 27.2708C24.037 27.3043 24.054 27.3583 24.0673 27.3944C24.0935 27.4705 24.1256 28.1251 24.1514 28.3828C24.1592 28.4674 24.1669 28.5995 24.1426 28.6848C24.1208 28.7601 24.0196 28.8561 23.9259 28.8576C23.8476 28.8587 23.708 28.7251 23.6899 28.6638C23.6648 28.5829 23.6829 28.4899 23.6851 28.3987C23.6984 28.1269 23.7376 27.4723 23.7464 27.4033C23.7512 27.3634 23.7712 27.3051 23.8147 27.2708C23.8472 27.2715 23.879 27.2715 23.91 27.2715C23.9384 27.2715 23.9668 27.2715 23.9949 27.2708Z" fill="white"/>
<path d="M23.5023 27.2565C23.5362 27.2953 23.5444 27.3503 23.551 27.3869C23.5654 27.4662 23.4945 28.1172 23.4805 28.3763C23.4742 28.4609 23.4613 28.5927 23.424 28.6732C23.3904 28.7441 23.2756 28.8231 23.1833 28.8098C23.105 28.7991 22.9895 28.6444 22.9806 28.5812C22.9688 28.4971 23.0005 28.4085 23.0168 28.3191C23.0725 28.0525 23.2143 27.412 23.2335 27.3451C23.2427 27.3119 23.266 27.2676 23.3026 27.2381C23.3686 27.2451 23.4355 27.2514 23.5023 27.2565Z" fill="white"/>
<path d="M23.006 27.1958C23.0477 27.2427 23.0458 27.3099 23.0466 27.3535C23.0466 27.434 22.8638 28.0627 22.8044 28.3149C22.7837 28.398 22.7483 28.525 22.6973 28.5984C22.6523 28.662 22.5256 28.7199 22.437 28.6908C22.3624 28.6664 22.2742 28.4947 22.2764 28.4305C22.2794 28.3459 22.3262 28.2639 22.3587 28.1787C22.4592 27.9258 22.7099 27.3199 22.7405 27.2571C22.7564 27.2261 22.7867 27.1855 22.8291 27.1622C22.8867 27.1752 22.9462 27.1859 23.006 27.1958Z" fill="white"/>
<path d="M22.5203 27.0894C22.5498 27.1411 22.5376 27.2031 22.5317 27.2441C22.5199 27.3231 22.2408 27.9164 22.1426 28.1564C22.1093 28.235 22.054 28.355 21.9927 28.4189C21.938 28.4754 21.8033 28.5123 21.7202 28.4698C21.6508 28.434 21.591 28.2505 21.6031 28.1874C21.619 28.1047 21.6781 28.0308 21.7235 27.9518C21.8623 27.7178 22.2046 27.1588 22.2448 27.1012C22.2615 27.0776 22.2891 27.0491 22.3238 27.0318C22.3885 27.0524 22.4545 27.0713 22.5203 27.0894Z" fill="white"/>
<path d="M19.8937 22.9225C19.962 22.9055 20.0979 22.8534 20.123 22.9203C19.9775 23.1754 19.8767 23.4479 19.8265 23.7325C19.7737 23.7632 19.6408 23.686 19.5046 23.6288C19.3203 23.5501 19.595 23.394 19.6906 23.2529C19.7423 23.1765 19.828 22.9749 19.8937 22.9225Z" fill="white"/>
<path d="M19.8096 24.4657C19.8469 24.7363 19.9278 24.9958 20.0489 25.241C20.0219 25.2908 19.7505 25.3938 19.604 25.2702C19.5213 25.1679 19.7158 24.4538 19.8096 24.4657Z" fill="white"/>
<path d="M38.5688 19.8377C38.6357 19.8377 38.6947 19.8377 38.7472 19.8647C38.8195 19.9016 39.0333 20.1135 39.0311 20.1988C39.0296 20.2442 38.7627 20.3277 38.6427 20.3731C38.5533 20.4133 38.3521 20.4938 38.3178 20.5049C38.2953 20.513 38.1354 20.5145 38.1088 20.5138C38.0726 20.5149 37.8234 20.5174 37.7189 20.5174C37.6768 20.5189 36.9177 20.5389 36.6597 20.5389C36.3728 20.5389 36.0911 20.5455 35.8053 20.5455C35.7414 20.5455 35.4151 20.5507 35.3959 20.5529H34.1712H33.9057L33.8013 20.557L33.7359 20.561H32.9473C32.8875 20.561 32.4887 20.5728 32.3108 20.5832C32.0653 20.6035 31.7034 20.6341 31.6875 20.6352C31.6395 20.6352 31.5435 20.6533 31.5292 20.5998C31.514 20.5426 31.6325 20.5156 31.6698 20.5086C32.1088 20.4222 32.5493 20.317 33.0462 20.2549C33.8729 20.1512 34.2709 20.1386 34.4056 20.0988C34.4839 20.0748 34.4681 19.9729 34.4056 19.9651C33.5192 19.8606 31.5365 20.2494 31.2519 20.3085C30.7232 20.4226 30.3315 20.451 30.2011 20.4521H28.9683C28.2827 20.451 27.9859 20.5263 27.939 20.5355C27.8064 20.5658 27.6813 20.6075 27.5635 20.6685C27.3139 20.7966 27.1551 20.9546 27.2604 21.2544C27.2977 21.319 27.3331 21.408 27.3693 21.4726C27.4542 21.6413 27.5635 21.8492 27.6517 22.0142C27.7156 22.1316 27.7551 22.2789 27.7551 22.4263L27.7197 22.6094C27.7175 22.6408 27.6407 22.7759 27.6004 22.7519C27.5964 22.7489 27.5893 22.7412 27.5801 22.7309C27.5317 22.66 27.4804 22.5902 27.4258 22.5226C27.4081 22.4979 27.394 22.4779 27.3877 22.4706C27.3239 22.3871 27.5085 22.273 27.4915 22.1671C27.4568 21.957 27.1481 21.5549 26.9163 21.3633C26.7804 21.2511 26.6545 21.1023 26.5338 20.9649C26.4839 20.8966 26.4282 20.8401 26.3776 20.7726C26.3333 20.7128 26.3126 20.6755 26.2945 20.6024C26.2594 20.4565 26.347 20.3679 26.4411 20.293C26.4972 20.2483 26.6035 20.1818 26.6903 20.1464C26.9244 20.05 27.4734 19.9526 27.7983 19.9101C27.9061 19.8994 28.1697 19.868 28.3669 19.864C28.5869 19.864 28.7966 19.8706 29.0027 19.8865C29.4044 19.9179 29.7968 19.9928 30.2144 19.9987C30.8221 20.0083 31.4069 19.9703 31.9966 19.9419C32.2595 19.9293 32.5367 19.9119 32.8181 19.8883C33.2497 19.8514 34.5655 19.868 34.7597 19.8802C34.8553 19.8857 35.7267 19.9215 36.1672 19.9555C36.265 19.9629 36.3444 19.9721 36.4075 19.9832C36.601 19.9791 36.7929 19.9876 36.9824 19.9762C37.3364 19.9537 37.6916 19.9145 38.0413 19.8865L38.5688 19.8377Z" fill="white"/>
<path d="M14.1967 19.8033C14.7586 19.8033 15.2555 19.8506 15.7983 19.8768C16.077 19.8893 16.3469 19.8952 16.6257 19.9082C16.9066 19.9215 17.195 19.9429 17.4807 19.9429C17.9932 19.9429 18.4761 19.9096 18.9749 19.8864L19.3585 19.8853C19.5978 19.8812 19.8621 19.8712 20.104 19.8945C20.2546 19.9085 20.4067 19.9096 20.5526 19.9266C20.7508 19.9495 21.0935 19.9901 21.2374 20.0551C21.3704 20.1142 21.4671 20.2039 21.518 20.2604C21.6159 20.3682 21.7617 20.5366 21.6801 20.6636C21.6465 20.7274 21.5531 20.8205 21.5044 20.8766C21.4394 20.9493 20.9317 21.371 20.8055 21.5504C20.691 21.7103 20.6578 21.8306 20.5873 21.9562C20.4909 22.1175 20.5969 22.2375 20.5614 22.332C20.4566 22.4435 20.3602 22.5598 20.2742 22.6817C20.2554 22.692 20.2387 22.6953 20.2254 22.6857C20.1383 22.6248 20.1553 22.4945 20.1763 22.3254C20.1856 22.198 20.2878 21.9347 20.3251 21.8668C20.3967 21.7317 20.6279 21.4481 20.6463 21.3968C20.7944 20.9818 20.382 20.7252 20.0685 20.6229C19.9644 20.589 19.8603 20.5502 19.751 20.5303C19.3471 20.4572 18.9144 20.4653 18.4787 20.4516C18.1793 20.4424 17.8636 20.4306 17.5587 20.4306L16.9003 20.4291C16.6903 20.4125 16.4776 20.4003 16.2816 20.3538C15.9456 20.274 15.6639 20.2009 15.3279 20.1267C15.0421 20.064 14.7335 20.0093 14.4281 19.9901C14.2203 19.9772 13.8585 19.9543 13.6428 19.9543C13.4841 19.9543 12.3081 19.9421 12.1343 19.9905C12.0741 20.0023 12.0837 20.1157 12.1243 20.1256C12.3502 20.1902 13.1891 20.2087 13.7451 20.1895C14.0719 20.2054 14.437 20.246 14.746 20.2903C15.1459 20.3471 15.5151 20.4199 15.8858 20.5373L16.2816 20.6407C16.3469 20.661 16.4322 20.7045 16.3428 20.7658C16.0981 20.7658 15.8717 20.7182 15.6236 20.7145C14.9989 20.7145 14.0977 20.6957 13.4711 20.6957C13.4058 20.6916 10.3683 20.6591 10.0058 20.6385C9.60223 20.6152 9.23854 20.4217 9.10268 20.3549C9.05099 20.332 8.89887 20.2139 8.90812 20.1906C8.93727 20.1157 9.10268 19.8332 9.23228 19.8229C9.50697 19.8487 9.84552 19.8853 10.1287 19.8978C10.1287 19.8978 12.1575 19.8753 12.2173 19.8709C12.523 19.8469 13.2493 19.8155 13.5631 19.81C13.737 19.807 14.0312 19.7959 14.1967 19.8033Z" fill="white"/>
<path d="M28.0398 24.6061C28.1336 24.5942 28.3289 25.4032 28.2048 25.4645C28.0793 25.5313 27.7806 25.3781 27.7459 25.3375C27.7393 25.3304 27.7356 25.3219 27.7349 25.3131C27.8489 25.0982 27.932 24.8723 27.9804 24.6371C27.9966 24.6205 28.0151 24.6112 28.0398 24.6061Z" fill="white"/>
<path d="M23.9807 19.866C22.9646 19.866 21.8751 20.1532 21.8345 20.2152C21.7403 20.3633 21.9427 20.3574 21.9375 20.563C21.9312 20.8148 21.7355 20.9836 21.6676 21.0563C21.4088 21.331 21.0787 21.4709 20.8506 21.7777C20.8332 21.8006 20.8162 21.904 20.8395 21.9357C20.8996 22.0162 21.0411 21.9273 21.075 21.9003C21.555 21.5248 22.0054 21.3742 22.5496 21.2051C22.6848 21.1626 23.3704 21.0194 24.255 21.0574C25.037 21.091 25.7581 21.2955 26.3857 21.664C26.6364 21.811 26.8601 21.9937 27.0979 22.1912C27.1843 22.264 27.2519 22.1576 27.2548 22.1181C27.2581 22.0724 27.2209 22.0077 27.1972 21.9693C27.0167 21.6677 26.6183 21.3952 26.3422 21.0711C26.2055 20.9105 26.1372 20.8525 26.0859 20.7606C25.9172 20.4752 26.1753 20.4589 26.1428 20.3282C26.1177 20.2241 25.1167 19.866 23.9807 19.866Z" fill="white"/>
</g>
<defs>
<clipPath id="clip0_1_74840">
<rect width="32" height="10.6562" fill="white" transform="translate(8 19)"/>
</clipPath>
</defs>
</svg>
