<svg width="48" height="48" viewBox="0 0 48 48" fill="none" xmlns="http://www.w3.org/2000/svg">
<path d="M22.2336 7.76531C18.0802 8.43865 14.6602 10.9586 12.8602 14.6986C10.9402 18.672 11.2669 23.352 13.7269 27.0053C16.4802 31.112 21.4002 33.1986 26.2669 32.3386C28.9402 31.8653 31.6002 30.372 33.3736 28.3453C35.2002 26.2653 36.2469 23.792 36.4736 21.012C36.6536 18.9186 36.2336 16.6853 35.3069 14.7653C34.6669 13.432 34.0402 12.5186 33.0669 11.5053C31.2736 9.63865 29.1002 8.42531 26.5736 7.89198C25.8802 7.74531 25.5602 7.71198 24.3002 7.69198C23.2402 7.67865 22.6669 7.69865 22.2336 7.76531ZM25.0336 8.99865C27.5802 9.23865 29.8669 10.2653 31.6469 11.9586C32.7469 13.0053 33.4202 13.912 34.0336 15.1653C35.2869 17.712 35.5269 20.5186 34.7336 23.2453C33.5736 27.2253 30.1735 30.272 26.0336 31.0386C25.5269 31.1386 25.0535 31.1653 24.0336 31.1653C22.5336 31.1653 22.0202 31.0853 20.7402 30.692C14.8469 28.8586 11.5936 22.5786 13.4802 16.6653C14.0402 14.912 15.0136 13.372 16.4002 12.0453C18.7269 9.81198 21.8802 8.70531 25.0336 8.99865Z" fill="black"/>
<path d="M26.1336 13.5321V14.3988H23.7003H21.2669V15.2321V16.0654L18.8536 16.0788L16.4336 16.0988V19.6321C16.4336 23.0788 16.4403 23.1854 16.5869 23.8921C16.8003 24.8721 17.1203 25.7921 17.6403 26.8588C18.2936 28.2121 19.2136 29.7054 19.3469 29.6254C19.5136 29.5188 20.3869 28.0788 20.8669 27.0988C21.4003 26.0121 21.7136 25.2054 21.8669 24.5121C21.9136 24.3054 21.9736 24.1321 21.9936 24.1321C22.0136 24.1321 22.0869 24.2721 22.1603 24.4521C22.4003 25.0521 23.1936 26.5321 23.6669 27.2654L24.1469 27.9988L24.3269 27.7521C25.2736 26.4188 26.1603 24.6654 26.5669 23.2988C26.8803 22.2521 26.8403 22.3321 26.9403 22.5988C27.1336 23.1321 27.8403 24.4654 28.3803 25.3321C28.7003 25.8454 28.9803 26.2654 29.0003 26.2654C29.0203 26.2654 29.2336 25.9588 29.4736 25.5788C30.5603 23.9121 31.3069 22.2321 31.6869 20.6321C31.8136 20.0654 31.8269 19.8121 31.8469 16.3454L31.8736 12.6654H29.0069H26.1336V13.5321ZM30.9336 16.6588C30.9336 20.0588 30.9136 20.2654 30.4936 21.4788C30.3603 21.8521 30.1336 22.3988 29.9869 22.6921C29.6403 23.3921 29.0736 24.3321 29.0003 24.3321C28.8203 24.3321 27.7936 22.3788 27.4803 21.4321C27.0603 20.1854 27.0536 20.1121 27.0203 16.7121L26.9869 13.5988H28.9603H30.9336V16.6588ZM26.1003 18.3654C26.1003 21.0788 26.0869 21.4988 25.9803 21.9988C25.7203 23.1988 25.2469 24.3588 24.5269 25.5254L24.1803 26.0854L24.0469 25.9254C23.5269 25.2788 22.7069 23.5321 22.3936 22.3988C22.2469 21.8454 22.2403 21.7388 22.2136 18.5454L22.1936 15.2654L24.1469 15.2788L26.1003 15.2988V18.3654ZM21.2669 19.9454C21.2669 23.2054 21.2269 23.6654 20.8603 24.7654C20.7469 25.0921 20.5269 25.6454 20.3669 25.9921C20.0803 26.5988 19.4336 27.7054 19.3269 27.7721C19.2536 27.8121 18.5603 26.6721 18.2336 25.9654C17.9403 25.3454 17.6869 24.6188 17.4936 23.8654C17.3936 23.4988 17.3736 22.9588 17.3536 20.2121L17.3269 16.9988H19.2936H21.2669V19.9454Z" fill="black"/>
<path d="M27.28 13.852C27.3533 14.0453 30.62 19.8053 30.6733 19.8386C30.7066 19.8586 30.7333 18.652 30.7333 16.8386V13.7986H28.9933C28.04 13.7986 27.2666 13.8253 27.28 13.852Z" fill="black"/>
<path d="M27.2201 18.0986C27.2468 19.352 27.2868 19.9653 27.3668 20.3186C27.4935 20.8786 27.7935 21.7786 28.0468 22.3253C28.2735 22.812 28.9468 23.9986 28.9935 23.9986C29.1068 23.9986 30.2001 21.8586 30.2001 21.6453C30.2001 21.5453 27.3801 16.552 27.2535 16.432C27.2068 16.3853 27.1935 16.8853 27.2201 18.0986Z" fill="black"/>
<path d="M22.4467 15.5187C22.4334 15.5454 22.7267 16.1054 23.1001 16.7654C23.4667 17.4254 24.2401 18.792 24.8067 19.7987L25.8334 21.632L25.8801 21.0654C25.9001 20.752 25.9201 19.3854 25.9267 18.0254C25.9334 15.7787 25.9201 15.5454 25.8201 15.5054C25.6734 15.4454 22.4734 15.4587 22.4467 15.5187Z" fill="black"/>
<path d="M22.4202 19.9653C22.4535 21.9787 22.4802 22.172 22.9069 23.3053C23.1202 23.872 23.6535 24.9653 23.9402 25.4053C24.1335 25.7053 24.1602 25.7253 24.2335 25.6187C24.4535 25.2987 24.9669 24.3253 25.1735 23.852L25.3935 23.332L24.4602 21.6787C23.9402 20.772 23.3069 19.6587 23.0469 19.1987C22.7869 18.7387 22.5335 18.3053 22.4869 18.232C22.4069 18.1187 22.3935 18.3587 22.4202 19.9653Z" fill="black"/>
<path d="M17.7402 17.5787C17.9669 17.9653 18.4069 18.7587 20.0669 21.712C20.8469 23.1053 20.9735 23.2987 21.0069 23.1453C21.0335 23.0453 21.0535 21.6653 21.0602 20.0787L21.0669 17.1987H19.2935H17.5269L17.7402 17.5787Z" fill="black"/>
<path d="M17.5469 21.5987C17.5802 23.312 17.5936 23.472 17.7536 24.0654C18.0402 25.1187 18.5136 26.1787 19.1536 27.2187L19.3136 27.4787L19.5936 26.9987C19.9202 26.452 20.5336 25.2054 20.5336 25.0854C20.5336 25.0387 20.3736 24.7254 20.1736 24.3854C19.9736 24.0454 19.3136 22.8787 18.7002 21.7987C18.0869 20.7187 17.5736 19.8187 17.5536 19.7987C17.5336 19.7787 17.5336 20.592 17.5469 21.5987Z" fill="black"/>
<path d="M29.1204 34.6654C28.0937 34.7854 27.4271 35.1654 27.0804 35.8254C26.9137 36.1387 26.9004 36.2254 26.9004 36.9654C26.9004 37.712 26.9137 37.792 27.0937 38.152C27.4871 38.9654 28.4137 39.332 30.0337 39.332C31.0871 39.332 31.9937 39.0854 32.4271 38.6787C32.6404 38.4787 32.8604 38.0387 32.8671 37.812C32.8671 37.672 32.8404 37.6654 32.3804 37.6654H31.9004L31.8137 38.012C31.6471 38.7187 31.1804 38.9654 30.0004 38.9654C29.3404 38.9654 29.1937 38.9454 28.9537 38.8187C28.3671 38.5054 28.1671 37.972 28.2137 36.8387C28.2537 35.9854 28.3671 35.632 28.7071 35.3387C29.0004 35.0787 29.3271 34.9987 30.0471 34.992C30.7937 34.992 31.1937 35.092 31.5004 35.3587C31.6871 35.5187 31.7537 35.632 31.7804 35.8454L31.8204 36.132H32.2737H32.7337V35.5054V34.8787L32.2871 34.7987C31.2071 34.612 30.0404 34.5587 29.1204 34.6654Z" fill="black"/>
<path d="M8.40016 34.8521C8.40016 34.9988 8.52016 35.0654 8.7735 35.0654C9.02016 35.0654 9.3135 35.2388 9.36016 35.4121C9.38016 35.4988 9.40016 36.2054 9.40016 36.9854C9.40016 38.7588 9.36016 38.8521 8.60016 38.9721C8.40016 39.0054 8.3335 39.0454 8.3335 39.1388C8.3335 39.2588 8.44016 39.2654 11.0535 39.2654C13.9868 39.2654 14.3068 39.2321 14.7868 38.9121C15.1068 38.6988 15.2668 38.3788 15.2668 37.9321C15.2668 37.2921 15.0068 37.0588 14.1668 36.9388C13.9202 36.8988 13.7068 36.8588 13.6868 36.8388C13.6735 36.8254 13.8202 36.7788 14.0135 36.7388C14.7002 36.5921 15.0268 36.2721 15.0268 35.7388C15.0202 35.3321 14.8602 35.0454 14.5535 34.8921C14.3202 34.7721 14.0802 34.7654 11.3535 34.7454C8.46683 34.7254 8.40016 34.7254 8.40016 34.8521ZM13.0935 35.1388C13.4735 35.2454 13.6668 35.4654 13.6668 35.7988C13.6668 36.1654 13.5068 36.4588 13.2468 36.5654C12.9135 36.6988 12.1935 36.7521 11.3468 36.6988L10.5802 36.6454L10.6202 36.0054C10.6602 35.4254 10.6802 35.3521 10.8335 35.2121C10.9935 35.0788 11.0668 35.0654 11.9202 35.0654C12.4202 35.0654 12.9468 35.0988 13.0935 35.1388ZM13.3735 37.2054C13.7602 37.3054 13.9335 37.5254 13.9335 37.9188C13.9335 38.7188 13.2602 39.0054 11.6468 38.8921C10.7068 38.8254 10.6535 38.7788 10.6135 37.8454L10.5802 37.1321H11.8268C12.5335 37.1321 13.2068 37.1654 13.3735 37.2054Z" fill="black"/>
<path d="M15.5337 34.8987C15.5337 35.0454 15.5604 35.0654 15.7604 35.0654C16.067 35.0654 16.387 35.1854 16.467 35.332C16.507 35.4054 16.5337 36.0654 16.5337 36.8454C16.5337 38.1587 16.5404 38.252 16.687 38.532C16.9537 39.072 17.6804 39.332 18.887 39.332C19.647 39.332 20.067 39.232 20.467 38.9654L20.8004 38.7387V39.0054V39.2654H21.867H22.9337V39.1054C22.9337 38.972 22.8937 38.9387 22.6337 38.9054C22.4737 38.8787 22.2737 38.8054 22.187 38.732L22.0337 38.612L22.0537 36.672L22.0737 34.732H20.9004H19.727L19.747 34.8787C19.7604 34.9987 19.827 35.0387 20.0604 35.0787C20.427 35.1387 20.6537 35.2854 20.747 35.5187C20.847 35.7787 20.767 37.9187 20.647 38.212C20.4404 38.712 19.9404 38.9454 19.067 38.952C18.4537 38.9587 18.1004 38.812 17.9004 38.4654C17.747 38.1987 17.7337 37.792 17.8204 35.8787L17.867 34.732H16.7004H15.5337V34.8987Z" fill="black"/>
<path d="M23.3066 34.7921C23.2199 34.9321 23.3533 35.0654 23.5799 35.0654C23.7466 35.0654 23.8666 35.1188 24.0066 35.2588L24.1999 35.4521V36.9521C24.1999 37.7788 24.1799 38.5054 24.1599 38.5654C24.1066 38.6988 23.8399 38.8321 23.5199 38.8921C23.3066 38.9321 23.2666 38.9654 23.2666 39.0988V39.2654H24.8333H26.3999V39.0988C26.3999 38.9654 26.3599 38.9321 26.1533 38.8921C25.8533 38.8388 25.6599 38.7454 25.5533 38.6054C25.4933 38.5254 25.4733 38.0721 25.4666 36.9854C25.4666 35.4921 25.4666 35.4721 25.6199 35.2921C25.7333 35.1654 25.8666 35.0988 26.0733 35.0721C26.3133 35.0388 26.3733 35.0054 26.3866 34.8788L26.4066 34.7321H24.8733C24.0266 34.7321 23.3266 34.7588 23.3066 34.7921Z" fill="black"/>
<path d="M33.3999 34.8988C33.3999 35.0454 33.4266 35.0654 33.6333 35.0654C33.9399 35.0654 34.1666 35.1788 34.2599 35.3788C34.3599 35.5988 34.3599 38.3321 34.2599 38.5588C34.1666 38.7654 33.8266 38.9321 33.5066 38.9321C33.2933 38.9321 33.2666 38.9521 33.2666 39.0988V39.2654H34.9333C36.5666 39.2654 36.5999 39.2654 36.5999 39.1321C36.5999 38.9854 36.5666 38.9654 36.1733 38.8988C36.0199 38.8721 35.8333 38.7788 35.7199 38.6654C35.5466 38.4921 35.5333 38.4388 35.5333 37.9854C35.5333 37.5121 35.5399 37.4921 35.7266 37.3788C35.8333 37.3188 35.9666 37.2654 36.0199 37.2654C36.0733 37.2654 36.6066 37.7121 37.2066 38.2654L38.2999 39.2654H39.3133C40.2799 39.2654 40.3333 39.2588 40.3333 39.1321C40.3333 39.0388 40.2666 38.9854 40.0733 38.9321C39.9333 38.8988 39.6533 38.7388 39.4533 38.5788C38.9933 38.2188 36.9999 36.5188 36.9999 36.4921C36.9999 36.4788 37.2466 36.2788 37.5533 36.0521C38.2133 35.5588 38.9133 35.2188 39.4599 35.1121C39.8133 35.0454 39.8666 35.0188 39.8666 34.8854V34.7321H38.3999C37.0066 34.7321 36.9333 34.7388 36.9333 34.8588C36.9333 34.9521 36.9999 34.9988 37.1866 35.0321C37.6599 35.1188 37.7266 35.3188 37.3866 35.6454C37.1999 35.8188 35.8733 36.8054 35.6199 36.9588C35.5533 36.9988 35.5333 36.8321 35.5333 36.2121C35.5333 35.2521 35.5866 35.1521 36.0999 35.0788C36.3799 35.0388 36.4399 35.0054 36.4533 34.8788L36.4733 34.7321H34.9399H33.3999V34.8988Z" fill="black"/>
</svg>
