<svg width="48" height="48" viewBox="0 0 48 48" fill="none" xmlns="http://www.w3.org/2000/svg">
<path d="M34.5867 16.9295L34.0306 16.8682L23.9937 15.7487V16.1238L33.9907 17.2373L34.5867 16.9295Z" fill="#A1C1E4"/>
<path d="M34.5867 16.929L34.0306 16.8677L23.9937 15.7483V16.1234L33.9907 17.2369L34.5867 16.929Z" fill="url(#paint0_linear_1_74936)"/>
<path d="M23.9937 16.1224L33.9907 17.2359L32.4812 19.9244C32.4812 19.9244 32.2954 23.5399 32.1721 24.9607C32.0489 26.3826 32.0179 27.4955 30.9396 27.9588C28.7817 28.8865 26.1206 29.7159 23.9937 30.1798V16.1224Z" fill="#D3E2F5"/>
<path d="M23.9937 16.1205L33.9907 17.234L32.4812 19.9225C32.4812 19.9225 32.2954 23.538 32.1721 24.9588C32.0489 26.3807 32.0179 27.4936 30.9396 27.9569C28.7817 28.8846 26.1206 29.714 23.9937 30.1779V16.1205Z" fill="url(#paint1_linear_1_74936)"/>
<path d="M34.5865 16.9288L33.9904 17.2367L32.481 19.9251L32.8496 19.9787L34.3119 17.4183L34.5865 16.9288Z" fill="#415050"/>
<path d="M34.5865 16.9279L33.9904 17.2358L32.481 19.9242L32.8496 19.9778L34.3119 17.4174L34.5865 16.9279Z" fill="url(#paint2_linear_1_74936)"/>
<path d="M13.4004 16.9314L13.9565 16.87L23.9934 15.7506V16.1257L13.9976 17.2392L15.5071 19.9277C15.5071 19.9277 15.6922 23.5432 15.8155 24.964C15.9381 26.3859 15.9685 27.4988 17.0481 27.962C19.2048 28.8897 21.8676 29.7192 23.9934 30.1831V30.5653C21.7354 30.0729 18.9809 29.197 16.9022 28.3038C15.6809 27.778 15.5821 26.5997 15.4672 25.2355L15.4469 24.9967C15.3343 23.7076 15.1659 20.541 15.1373 19.9812L13.6749 17.4208L13.4004 16.9314Z" fill="#F6F8FD"/>
<path d="M13.4004 16.9328L13.9565 16.8714L23.9934 15.752V16.1271L13.9976 17.2406L15.5071 19.9291C15.5071 19.9291 15.6922 23.5446 15.8155 24.9654C15.9381 26.3873 15.9685 27.5002 17.0481 27.9634C19.2048 28.8912 21.8676 29.7206 23.9934 30.1845V30.5667C21.7354 30.0743 18.9809 29.1984 16.9022 28.3052C15.6809 27.7794 15.5821 26.6011 15.4672 25.2369L15.4469 24.9981C15.3343 23.709 15.1659 20.5424 15.1373 19.9826L13.6749 17.4222L13.4004 16.9328Z" fill="url(#paint3_linear_1_74936)"/>
<path d="M13.4004 16.9295L13.9565 16.8682L23.9934 15.7487V16.1238L13.9976 17.2373L13.4004 16.9295Z" fill="#BECDE1"/>
<path d="M13.4004 16.929L13.9565 16.8677L23.9934 15.7483V16.1234L13.9976 17.2369L13.4004 16.929Z" fill="url(#paint4_linear_1_74936)"/>
<path d="M23.9933 16.1224L13.9976 17.2359L15.507 19.9244C15.507 19.9244 15.6922 23.5399 15.8154 24.9607C15.9381 26.3826 15.9685 27.4955 17.0481 27.9588C19.2048 28.8865 21.8676 29.7159 23.9933 30.1798V16.1224Z" fill="#F4F6FD"/>
<path d="M23.9933 16.1205L13.9976 17.234L15.507 19.9225C15.507 19.9225 15.6922 23.538 15.8154 24.9588C15.9381 26.3807 15.9685 27.4936 17.0481 27.9569C19.2048 28.8846 21.8676 29.714 23.9933 30.1779V16.1205Z" fill="url(#paint5_linear_1_74936)"/>
<path d="M13.4004 16.9288L13.9976 17.2367L15.5071 19.9251L15.1373 19.9787L13.6749 17.4183L13.4004 16.9288Z" fill="#415050"/>
<path d="M13.4004 16.9279L13.9976 17.2358L15.5071 19.9242L15.1373 19.9778L13.6749 17.4174L13.4004 16.9279Z" fill="url(#paint6_linear_1_74936)"/>
<path d="M32.4817 19.9276C32.4817 19.9276 32.2959 23.5432 32.1726 24.9639C32.0494 26.3859 32.0184 27.4987 30.9401 27.962C28.7822 28.8897 26.1211 29.7192 23.9941 30.183V30.5653C26.2527 30.0729 29.0072 29.197 31.086 28.3038C32.3072 27.778 32.4061 26.5996 32.5204 25.2354L32.5406 24.9967C32.6538 23.7075 32.8205 20.5409 32.8503 19.9812L32.4817 19.9276Z" fill="#7D8283"/>
<path d="M32.8224 19.9764C32.7945 20.4939 32.6253 23.695 32.5128 24.9943C32.5128 25.0014 32.4925 25.2295 32.4919 25.2372C32.3776 26.5954 32.2788 27.7595 31.0748 28.277C28.9907 29.1737 26.2433 30.0455 23.9943 30.5361L23.9663 30.1556C26.0921 29.6918 28.7555 28.8629 30.9122 27.9358C31.9912 27.4719 32.0227 26.3703 32.1448 24.9484C32.2686 23.5277 32.4533 19.9115 32.4533 19.9115L32.8224 19.9764Z" fill="#787E80"/>
<path d="M32.7929 19.9724C32.7691 20.4464 32.597 23.682 32.4845 24.992C32.4827 25.0075 32.4642 25.2242 32.4636 25.2391C32.3493 26.5908 32.2511 27.7406 31.0632 28.2503C28.9719 29.1494 26.2328 30.0182 23.994 30.5059L23.938 30.1301C26.0649 29.6657 28.7266 28.8362 30.8833 27.9091C31.9623 27.4453 31.9944 26.3544 32.1177 24.9331C32.2416 23.5111 32.4261 19.8956 32.4261 19.8956L32.7929 19.9724Z" fill="#737A7C"/>
<path d="M32.7651 19.9687C32.743 20.3992 32.5704 23.67 32.4566 24.9895C32.4549 25.0127 32.4364 25.2182 32.4352 25.2414C32.3215 26.5853 32.2226 27.7214 31.0526 28.2252C28.956 29.1255 26.2223 29.9907 23.9941 30.4772L23.9102 30.102C26.0365 29.6382 28.6994 28.8093 30.8567 27.8816C31.935 27.4178 31.9672 26.3376 32.0899 24.9163C32.2137 23.4949 32.3983 19.8794 32.3983 19.8794L32.7651 19.9687Z" fill="#6E7578"/>
<path d="M32.7372 19.9646C32.7164 20.3522 32.5432 23.657 32.4276 24.9872C32.4253 25.0176 32.408 25.2129 32.4062 25.2432C32.2937 26.5806 32.1954 27.703 31.0414 28.1978C28.9383 29.1023 26.2129 29.9645 23.9943 30.4474L23.8823 30.0765C26.0081 29.6114 28.6715 28.7826 30.8283 27.8549C31.9072 27.3916 31.9399 26.3228 32.0632 24.9002C32.1859 23.4783 32.3717 19.8634 32.3717 19.8634L32.7372 19.9646Z" fill="#687173"/>
<path d="M32.7077 19.9604C32.6905 20.3052 32.5154 23.6445 32.3993 24.9842C32.3958 25.0229 32.3808 25.2075 32.3772 25.2444C32.2641 26.5764 32.1665 27.6834 31.0286 28.1728C28.9213 29.0785 26.2013 29.9366 23.9939 30.4183L23.854 30.0491C25.9809 29.5846 28.6432 28.7546 30.7999 27.8299C31.8783 27.3648 31.9122 26.3055 32.0355 24.8848C32.1587 23.4634 32.3433 19.8473 32.3433 19.8473L32.7077 19.9604Z" fill="#646D70"/>
<path d="M32.6798 19.9563C32.6649 20.2576 32.4881 23.632 32.3714 24.9819C32.3666 25.0283 32.3529 25.2016 32.3493 25.2469C32.2368 26.5717 32.1385 27.6638 31.0185 28.1461C28.9041 29.0547 26.1918 29.9092 23.994 30.3885L23.8267 30.0223C25.953 29.5585 28.6159 28.7284 30.772 27.8013C31.851 27.3381 31.8849 26.2901 32.0075 24.8687C32.132 23.4468 32.3154 19.8318 32.3154 19.8318L32.6798 19.9563Z" fill="#5F696C"/>
<path d="M32.6521 19.9522C32.639 20.2106 32.4609 23.6195 32.343 24.9795C32.3382 25.0337 32.3246 25.1969 32.3192 25.2481C32.2091 26.5676 32.1108 27.6454 31.0068 28.1199C28.887 29.0316 26.1813 29.8819 23.9942 30.3588L23.7983 29.9944C25.9259 29.5317 28.5869 28.7023 30.7449 27.7746C31.8238 27.3113 31.8571 26.2741 31.9804 24.8527C32.1042 23.4314 32.2889 19.8158 32.2889 19.8158L32.6521 19.9522Z" fill="#5A6569"/>
<path d="M32.6225 19.9479C32.6118 20.1635 32.4331 23.6069 32.314 24.9765C32.3093 25.0384 32.2956 25.1914 32.2908 25.2504C32.1807 26.5627 32.083 27.6262 30.9951 28.0936C28.8694 29.0071 26.1708 29.855 23.9938 30.3301L23.7705 29.9687C25.8969 29.5043 28.5591 28.6748 30.7164 27.7477C31.7942 27.2844 31.8299 26.2591 31.9538 24.8365C32.0764 23.4146 32.2604 19.799 32.2604 19.799L32.6225 19.9479Z" fill="#556266"/>
<path d="M32.5948 19.9437C32.5858 20.1164 32.406 23.5938 32.2851 24.9741C32.2798 25.0431 32.2678 25.1848 32.2619 25.2521C32.1529 26.5585 32.0546 27.6077 30.984 28.0668C28.8523 28.9838 26.1609 29.8281 23.994 30.3009L23.7422 29.9413C25.8685 29.4774 28.532 28.648 30.6887 27.7209C31.7677 27.2576 31.8022 26.2424 31.9255 24.8204C32.0493 23.3997 32.2345 19.7835 32.2345 19.7835L32.5948 19.9437Z" fill="#515E62"/>
<path d="M32.5661 19.9396C32.5595 20.0688 32.3786 23.5808 32.2577 24.9723C32.2511 25.0491 32.2398 25.1795 32.2333 25.254C32.1243 26.5532 32.0267 27.5881 30.9733 28.0413C28.835 28.9594 26.1501 29.8008 23.994 30.2712L23.7153 29.9139C25.8411 29.4519 28.504 28.6224 30.6601 27.6941C31.7391 27.2303 31.7754 26.2263 31.898 24.805C32.0225 23.3831 32.2064 19.7675 32.2064 19.7675L32.5661 19.9396Z" fill="#4C5A5F"/>
<path d="M32.5383 19.9355C32.5335 20.0218 32.3513 23.5683 32.2298 24.97C32.2221 25.0551 32.212 25.1742 32.2054 25.2558C32.0959 26.5491 31.9994 27.5691 30.9633 28.0151C28.8179 28.9375 26.1414 29.7735 23.9942 30.2415L23.6875 29.8872C25.8127 29.4245 28.4755 28.5951 30.6334 27.6674C31.7112 27.2041 31.7481 26.2103 31.8714 24.7884C31.9946 23.367 32.1792 19.7515 32.1792 19.7515L32.5383 19.9355Z" fill="#48575C"/>
<path d="M32.5089 19.9313C32.5065 19.9741 32.3231 23.5558 32.201 24.9676C32.1927 25.0599 32.1844 25.1688 32.1766 25.2576C32.0676 26.5443 31.9706 27.5506 30.9512 27.9889C28.8004 28.913 26.1304 29.7466 23.9939 30.2123L23.6587 29.8616C25.785 29.3977 28.4473 28.5677 30.604 27.6405C31.6836 27.1773 31.7193 26.1948 31.8431 24.7729C31.9664 23.3509 32.1516 19.7348 32.1516 19.7348L32.5089 19.9313Z" fill="#435459"/>
<path d="M23.6309 29.8347C25.7566 29.3709 28.4189 28.5408 30.5762 27.6137C31.6558 27.1505 31.6926 26.1781 31.8153 24.7568C31.9397 23.3354 32.1244 19.7199 32.1244 19.7199L32.4816 19.9277C32.4816 19.9277 32.2958 23.5432 32.1725 24.964C32.163 25.0646 32.1565 25.1634 32.1482 25.2599C32.0398 26.5389 31.9427 27.5315 30.94 27.9621C28.7821 28.8898 26.121 29.7192 23.9941 30.1831L23.6309 29.8347Z" fill="#3F5257"/>
<path d="M15.5012 19.9276C15.5012 19.9276 15.6864 23.5432 15.809 24.9639C15.9323 26.3859 15.9633 27.4987 17.0416 27.962C19.199 28.8897 21.8618 29.7192 23.9869 30.183V30.5653C21.729 30.0729 18.9745 29.197 16.8963 28.3038C15.6751 27.778 15.5756 26.5996 15.4613 25.2354L15.4404 24.9967C15.3291 23.7075 15.1606 20.5409 15.1309 19.9812L15.5012 19.9276Z" fill="#7D8283"/>
<path d="M15.1602 19.9764C15.187 20.4939 15.3567 23.695 15.4698 24.9943C15.4704 25.0014 15.4894 25.2295 15.49 25.2372C15.6043 26.5954 15.7032 27.7595 16.9084 28.277C18.9925 29.1737 21.7393 30.0455 23.9871 30.5361L24.0156 30.1556C21.8893 29.6918 19.2271 28.8629 17.0704 27.9358C15.992 27.4719 15.9598 26.3703 15.8366 24.9484C15.7133 23.5277 15.5287 19.9115 15.5287 19.9115L15.1602 19.9764Z" fill="#787E80"/>
<path d="M15.1885 19.9724C15.2129 20.4464 15.3838 23.682 15.4981 24.992C15.4981 25.0075 15.5178 25.2242 15.519 25.2391C15.6321 26.5908 15.7309 27.7406 16.9183 28.2503C19.0095 29.1494 21.7491 30.0182 23.9868 30.5059L24.044 30.1301C21.9177 29.6657 19.2536 28.8362 17.0975 27.9091C16.0192 27.4453 15.9882 26.3544 15.8643 24.9331C15.7411 23.5111 15.5565 19.8956 15.5565 19.8956L15.1885 19.9724Z" fill="#737A7C"/>
<path d="M15.2163 19.9687C15.2389 20.3992 15.411 23.67 15.5254 24.9895C15.5278 25.0127 15.545 25.2182 15.5468 25.2414C15.6599 26.5853 15.7588 27.7214 16.9295 28.2252C19.0266 29.1255 21.7591 29.9907 23.9867 30.4772L24.0706 30.102C21.9449 29.6382 19.2833 28.8093 17.1253 27.8816C16.047 27.4178 16.0148 26.3376 15.891 24.9163C15.7683 23.4949 15.5843 19.8794 15.5843 19.8794L15.2163 19.9687Z" fill="#6E7578"/>
<path d="M15.2451 19.9646C15.2654 20.3522 15.4393 23.657 15.5542 24.9872C15.5572 25.0176 15.5732 25.2129 15.5762 25.2432C15.6887 26.5806 15.7876 27.703 16.941 28.1978C19.0447 29.1023 21.7695 29.9645 23.9869 30.4474L24.0994 30.0765C21.9731 29.6114 19.3109 28.7826 17.1542 27.8549C16.0752 27.3916 16.0425 26.3228 15.9192 24.9002C15.7954 23.4783 15.6113 19.8634 15.6113 19.8634L15.2451 19.9646Z" fill="#687173"/>
<path d="M15.2739 19.9604C15.2912 20.3052 15.4668 23.6445 15.5835 24.9842C15.5865 25.0229 15.602 25.2075 15.6049 25.2444C15.7169 26.5764 15.8158 27.6834 16.9519 28.1728C19.0616 29.0785 21.7804 29.9366 23.9871 30.4183L24.1276 30.0491C22.0018 29.5846 19.339 28.7546 17.1817 27.8299C16.104 27.3648 16.0694 26.3055 15.9461 24.8848C15.8235 23.4634 15.6383 19.8473 15.6383 19.8473L15.2739 19.9604Z" fill="#646D70"/>
<path d="M15.3027 19.9563C15.317 20.2576 15.4938 23.632 15.6111 24.9819C15.6147 25.0283 15.6291 25.2016 15.6338 25.2469C15.7446 26.5717 15.8422 27.6638 16.9635 28.1461C19.0773 29.0547 21.7901 29.9092 23.9867 30.3885L24.1552 30.0223C22.0289 29.5585 19.3667 28.7284 17.21 27.8013C16.1298 27.3381 16.097 26.2901 15.9738 24.8687C15.8505 23.4468 15.6648 19.8318 15.6648 19.8318L15.3027 19.9563Z" fill="#5F696C"/>
<path d="M15.3311 19.9522C15.3442 20.2106 15.5216 23.6195 15.6395 24.9795C15.6442 25.0337 15.658 25.1969 15.6621 25.2481C15.7729 26.5676 15.8717 27.6454 16.9751 28.1199C19.0961 29.0316 21.8018 29.8819 23.9871 30.3588L24.183 29.9944C22.0572 29.5317 19.395 28.7023 17.2371 27.7746C16.1594 27.3113 16.1242 26.2741 16.0009 24.8527C15.8795 23.4314 15.6937 19.8158 15.6937 19.8158L15.3311 19.9522Z" fill="#5A6569"/>
<path d="M15.3584 19.9479C15.3709 20.1635 15.549 23.6069 15.668 24.9765C15.6734 25.0384 15.6859 25.1914 15.6901 25.2504C15.8014 26.5627 15.8991 27.6262 16.9864 28.0936C19.1133 29.0071 21.8107 29.855 23.987 30.3301L24.2109 29.9687C22.0857 29.5043 19.4229 28.6748 17.2656 27.7477C16.1873 27.2844 16.1521 26.2591 16.0289 24.8365C15.9056 23.4146 15.7205 19.799 15.7205 19.799L15.3584 19.9479Z" fill="#556266"/>
<path d="M15.3872 19.9437C15.3955 20.1164 15.576 23.5938 15.6951 24.9741C15.7017 25.0431 15.7147 25.1848 15.7195 25.2521C15.8296 26.5585 15.9273 27.6077 16.9961 28.0668C19.1296 28.9838 21.821 29.8281 23.9867 30.3009L24.2385 29.9413C22.1128 29.4774 19.45 28.648 17.2933 27.7209C16.2149 27.2576 16.1797 26.2424 16.0571 24.8204C15.9326 23.3997 15.7481 19.7835 15.7481 19.7835L15.3872 19.9437Z" fill="#515E62"/>
<path d="M15.4155 19.9396C15.4227 20.0688 15.6043 23.5808 15.724 24.9723C15.7312 25.0491 15.7413 25.1795 15.7484 25.254C15.8568 26.5532 15.9556 27.5881 17.0084 28.0413C19.1472 28.9594 21.8309 29.8008 23.987 30.2712L24.2669 29.9139C22.1411 29.4519 19.4783 28.6224 17.321 27.6941C16.2432 27.2303 16.2069 26.2263 16.0837 24.805C15.9598 23.3831 15.7752 19.7675 15.7752 19.7675L15.4155 19.9396Z" fill="#4C5A5F"/>
<path d="M15.4438 19.9355C15.4486 20.0218 15.6308 23.5683 15.7528 24.97C15.76 25.0551 15.7701 25.1742 15.7773 25.2558C15.8856 26.5491 15.9833 27.5691 17.02 28.0151C19.1636 28.9375 21.8401 29.7735 23.9867 30.2415L24.2945 29.8872C22.1688 29.4245 19.5066 28.5951 17.3487 27.6674C16.2709 27.2041 16.2352 26.2103 16.1119 24.7884C15.9881 23.367 15.8028 19.7515 15.8028 19.7515L15.4438 19.9355Z" fill="#48575C"/>
<path d="M15.4731 19.9313C15.4749 19.9741 15.6583 23.5558 15.7816 24.9676C15.7893 25.0599 15.7982 25.1688 15.8054 25.2576C15.9138 26.5443 16.0114 27.5506 17.0314 27.9889C19.1816 28.913 21.851 29.7466 23.9869 30.2123L24.3227 29.8616C22.1969 29.3977 19.5341 28.5677 17.3768 27.6405C16.299 27.1773 16.2615 26.1948 16.1382 24.7729C16.015 23.3509 15.831 19.7348 15.831 19.7348L15.4731 19.9313Z" fill="#435459"/>
<path d="M24.3505 29.8347C22.2247 29.3709 19.5619 28.5408 17.4052 27.6137C16.3269 27.1505 16.2893 26.1781 16.1661 24.7568C16.0422 23.3354 15.8565 19.7199 15.8565 19.7199L15.501 19.9277C15.501 19.9277 15.6861 23.5432 15.8088 24.964C15.8183 25.0646 15.8261 25.1634 15.8344 25.2599C15.9428 26.5389 16.0393 27.5315 17.0414 27.9621C19.1987 28.8898 21.8615 29.7192 23.9867 30.1831L24.3505 29.8347Z" fill="#3F5257"/>
<path d="M23.9926 16.1092L13.9956 17.2215L13.9741 17.2245L13.9849 17.2435L15.4944 19.932L15.4925 19.9254C15.4943 19.9618 15.6796 23.5583 15.801 24.9635L15.8207 25.2029C15.9308 26.504 16.0172 27.5335 17.0419 27.9735C19.0992 28.8578 21.762 29.7087 23.9902 30.1951L23.9937 30.1957L23.9967 30.1951C26.2273 29.7087 28.889 28.8578 30.9451 27.9735C31.9716 27.5335 32.0573 26.504 32.1663 25.2029L32.1871 24.9635C32.3092 23.5583 32.4932 19.9618 32.495 19.9254L32.4932 19.932L34.0033 17.2435L34.014 17.2245L33.9919 17.2215L23.9956 16.1092H23.9926ZM33.9783 17.2287L32.4682 19.9183L32.4658 19.9207V19.9249C32.4634 19.9606 32.2795 23.5565 32.1574 24.9612L32.1377 25.2005C32.0281 26.4932 31.943 27.5127 30.9337 27.9467C28.8782 28.8292 26.2184 29.6807 23.9902 30.166H23.9967C21.7698 29.6807 19.1093 28.8292 17.0532 27.9467C16.0457 27.5127 15.9593 26.4932 15.8504 25.2005L15.8302 24.9612C15.7081 23.5565 15.5241 19.9606 15.5223 19.9249V19.9207L15.5205 19.9183L14.0093 17.2287L13.9985 17.2513L23.9956 16.1384H23.9926L33.989 17.2513L33.9783 17.2287Z" fill="white"/>
<path d="M20.0193 9.26927C14.3476 10.9246 9.44229 15.1541 9.44229 22.2941C9.44229 29.6372 15.7451 35.8953 24.0004 36.3211L23.9968 37.7567C16.7407 37.7567 8.37939 31.7969 8.37939 22.68C8.37939 14.8439 13.2377 10.8901 19.0338 9.02156C19.1052 9.00608 19.1821 9.01204 19.2481 9.02514C19.4964 9.07456 19.7501 9.12815 20.0193 9.26927Z" fill="#D7D8D9"/>
<path d="M24.0068 38.2054C14.6952 38.2054 8 30.2818 8 22.7542C8 19.9811 9.90131 13.8004 14.1016 13.8004C13.2299 14.6721 10.8135 17.5636 10.8135 21.705C10.8135 27.3903 14.6565 33.5711 23.9967 34.5143C26.4821 34.7649 28.6811 38.2054 24.0068 38.2054Z" fill="#D7D8D9"/>
<path d="M23.9139 34.5325C26.0182 34.7355 27.8045 37.1626 25.6127 37.9045C25.1857 38.0474 24.6129 38.1302 23.8656 38.1266C15.0375 38.054 8.63225 30.9342 8.09397 23.7346C8.06896 23.4029 8.0565 23.0707 8.0577 22.7402C8.06544 20.4954 9.27181 16.2617 11.7858 14.5963C12.436 14.1747 13.1803 13.9353 14.0223 13.9627C13.3244 14.7011 11.6566 16.7226 11.0498 19.6022C10.9057 20.2953 10.8217 21.0366 10.8259 21.822C10.8634 27.5181 14.7714 33.6262 23.9139 34.5325Z" fill="#D3D5D6"/>
<path d="M23.8307 34.5538C25.9577 34.7485 27.6499 37.1535 25.4587 37.8478C25.03 37.9806 24.4613 38.0557 23.7259 38.0461C14.9663 37.9032 8.6652 30.8978 8.14954 23.7125C8.12453 23.3826 8.11265 23.0539 8.11443 22.7252C8.13111 20.4256 9.3595 16.2712 11.8211 14.6611C12.4392 14.2752 13.143 14.071 13.9421 14.1252C13.252 14.8981 11.6312 16.916 11.0482 19.7391C10.9095 20.428 10.8321 21.164 10.8392 21.941C10.9113 27.646 14.8859 33.6833 23.8307 34.5538Z" fill="#CED0D1"/>
<path d="M23.7468 34.5737C25.8964 34.76 27.4945 37.1436 25.3045 37.7897C24.8728 37.9123 24.3083 37.9802 23.5854 37.9671C14.8943 37.7516 8.69862 30.8628 8.2032 23.6895C8.17998 23.3626 8.1698 23.0357 8.17159 22.7111C8.19719 20.3561 9.44591 16.2797 11.8563 14.7238C12.4404 14.3749 13.1067 14.2057 13.8629 14.2867C13.1806 15.0936 11.6049 17.1097 11.0464 19.875C10.9136 20.5604 10.8404 21.2898 10.8511 22.0585C10.9607 27.7742 15.0008 33.7394 23.7468 34.5737Z" fill="#CBCDCF"/>
<path d="M23.6635 34.5939C25.8339 34.7713 27.3391 37.1329 25.1497 37.7313C24.7168 37.8456 24.1559 37.9058 23.4443 37.8879C14.8228 37.6003 8.73136 30.8271 8.25798 23.6668C8.23535 23.3417 8.22646 23.019 8.22825 22.6968C8.26338 20.2865 9.53346 16.2886 11.8914 14.7881C12.4422 14.4755 13.0698 14.3409 13.7826 14.4493C13.108 15.2895 11.5788 17.3027 11.0441 20.012C10.9173 20.6932 10.85 21.4172 10.8643 22.1764C11.009 27.9016 15.1152 33.7954 23.6635 34.5939Z" fill="#C7C9CB"/>
<path d="M23.5801 34.6142C25.7726 34.7845 27.1838 37.1228 24.9949 37.6736C24.5596 37.7784 24.0041 37.8296 23.3044 37.807C14.752 37.4497 8.76417 30.7908 8.31222 23.6443C8.29138 23.3221 8.28183 23.0012 8.2854 22.682C8.32827 20.2175 9.6192 16.2982 11.9266 14.8525C12.444 14.5762 13.0323 14.4762 13.7028 14.6119C13.0353 15.486 11.5532 17.4963 11.0423 20.1472C10.9209 20.8254 10.8595 21.5435 10.8762 22.2944C11.0584 28.0303 15.2289 33.852 23.5801 34.6142Z" fill="#C3C6C7"/>
<path d="M23.4964 34.6339C25.7103 34.7958 27.0274 37.1133 24.8397 37.6165C24.4038 37.7111 23.8518 37.7552 23.1623 37.7284C14.6796 37.2973 8.7983 30.7557 8.3666 23.6216C8.34695 23.3013 8.33802 22.9833 8.34159 22.6677C8.39399 20.1472 9.707 16.3077 11.962 14.9162C12.4455 14.6762 12.9956 14.6113 13.6221 14.7745C12.9629 15.6825 11.5261 17.6892 11.0408 20.2836C10.9253 20.9588 10.8681 21.6692 10.889 22.4123C11.1063 28.1584 15.3441 33.9086 23.4964 34.6339Z" fill="#BFC2C4"/>
<path d="M23.4139 34.654C25.6492 34.807 26.8728 37.1025 24.6858 37.5586C24.2463 37.6437 23.6997 37.6807 23.0227 37.6485C14.6072 37.1459 8.8302 30.7199 8.42112 23.5983C8.40207 23.2815 8.39493 22.9659 8.3991 22.6527C8.45983 20.078 9.79422 16.316 11.9974 14.9804C12.4475 14.7767 12.9584 14.7464 13.5431 14.9363C12.8905 15.8783 11.5008 17.882 11.0381 20.4198C10.9292 21.0915 10.8774 21.7959 10.9018 22.5307C11.1554 28.2863 15.4587 33.9651 23.4139 34.654Z" fill="#BCBFC1"/>
<path d="M23.3299 34.675C25.5885 34.8203 26.7174 37.0931 24.5309 37.5016C24.0897 37.576 23.5467 37.6064 22.8816 37.5688C14.537 36.9948 8.86417 30.6837 8.47593 23.5758C8.45867 23.262 8.45146 22.9494 8.45682 22.6386C8.5247 20.0085 9.88054 16.3256 12.0325 15.0442C12.4493 14.8763 12.9215 14.8817 13.464 15.0984C12.8185 16.0749 11.474 18.0756 11.0363 20.5563C10.9327 21.2232 10.8863 21.9222 10.9143 22.6481C11.2055 28.4138 15.573 34.0212 23.3299 34.675Z" fill="#B8BCBE"/>
<path d="M23.2463 34.6942C25.5268 34.8311 26.5618 37.0837 24.3759 37.4434C23.9335 37.5089 23.394 37.5303 22.742 37.4898C14.464 36.8438 8.89715 30.6493 8.53035 23.5533C8.51249 23.2413 8.50771 22.9317 8.51247 22.625C8.58988 19.939 9.9672 16.3347 12.0679 15.1081C12.4508 14.9771 12.8843 15.017 13.3833 15.2611C12.7455 16.271 11.4469 18.2687 11.0343 20.6928C10.9366 21.3561 10.8961 22.0492 10.927 22.7662C11.2528 28.5426 15.6876 34.0779 23.2463 34.6942Z" fill="#B5B8BA"/>
<path d="M23.1624 34.7142C25.465 34.844 26.407 37.074 24.2223 37.386C23.7763 37.4419 23.2422 37.4556 22.6009 37.4098C14.3932 36.6917 8.92942 30.6122 8.58465 23.5299C8.56917 23.2209 8.5638 22.9142 8.56975 22.6099C8.65609 19.8691 10.0548 16.3434 12.1025 15.1716C12.4539 15.0775 12.8474 15.1519 13.3041 15.4235C12.6735 16.4673 11.4208 18.462 11.0325 20.8283C10.9402 21.4887 10.9045 22.1746 10.9402 22.8838C11.3022 28.6698 15.802 34.1342 23.1624 34.7142Z" fill="#B1B5B7"/>
<path d="M23.0797 34.7345C25.4043 34.856 26.251 37.0633 24.0675 37.3277C23.6197 37.3742 23.0898 37.3807 22.4598 37.3301C14.3213 36.5411 8.96218 30.5777 8.63885 23.5074C8.62397 23.2007 8.62044 22.8964 8.62759 22.5963C8.72286 19.7995 10.1418 16.3531 12.1377 15.2354C12.4557 15.1776 12.8112 15.2878 13.2238 15.5855C12.601 16.6627 11.3952 18.6556 11.0314 20.9642C10.9445 21.6216 10.9141 22.3022 10.9516 23.0024C11.3511 28.7985 15.9171 34.1903 23.0797 34.7345Z" fill="#AEB1B3"/>
<path d="M22.996 34.7553C25.3432 34.8672 26.0965 37.0537 23.9124 37.2699C23.4628 37.3062 22.9365 37.3044 22.3202 37.2502C14.2501 36.3898 8.99521 30.5419 8.6945 23.4852C8.68021 23.1804 8.67726 22.8785 8.6844 22.5819C8.78741 19.7303 10.2284 16.3619 12.1737 15.2996C12.4577 15.2782 12.7733 15.4223 13.1449 15.748C12.5292 16.8597 11.3693 18.8491 11.0299 21.1005C10.9483 21.7537 10.9239 22.4283 10.9649 23.1196C11.4008 28.927 16.0316 34.2474 22.996 34.7553Z" fill="#AAAEB1"/>
<path d="M22.9117 34.7751C25.2804 34.8793 25.9395 37.0444 23.7584 37.2129C23.3065 37.2391 22.7849 37.2295 22.1793 37.1712C14.1783 36.2381 9.02824 30.5057 8.74718 23.4622C8.73587 23.1609 8.7329 22.862 8.74064 22.5666C8.85318 19.6608 10.3156 16.371 12.2079 15.3635C12.4586 15.3784 12.7367 15.5576 13.0648 15.9107C12.4562 17.0551 11.3433 19.0422 11.0271 21.237C10.9515 21.8866 10.9319 22.5553 10.9777 23.2383C11.4487 29.0546 16.1462 34.3035 22.9117 34.7751Z" fill="#A6ABAD"/>
<path d="M22.8291 34.7949C25.2198 34.892 25.7849 37.0332 23.6037 37.1547C23.15 37.1719 22.632 37.1547 22.0389 37.0921C14.1064 36.0876 9.06171 30.4708 8.80328 23.4403C8.79078 23.1402 8.78903 22.8443 8.79856 22.5525C8.91824 19.5913 10.4027 16.3807 12.2438 15.4279C12.4618 15.478 12.6999 15.6929 12.9852 16.0728C12.3838 17.2518 11.3167 19.2358 11.0255 21.3735C10.9565 22.019 10.9416 22.6811 10.991 23.3563C11.4995 29.1828 16.2601 34.3602 22.8291 34.7949Z" fill="#A2A7AA"/>
<path d="M22.7455 34.8149C25.1577 34.9036 25.6299 37.0234 23.4488 37.0972C22.9926 37.1044 22.4799 37.08 21.8976 37.0115C14.0347 35.9355 9.09426 30.4348 8.85846 23.4168C8.84655 23.1197 8.84536 22.8273 8.85548 22.5379C8.9841 19.5214 10.4894 16.3893 12.2793 15.4908C12.4633 15.5789 12.6628 15.8284 12.9051 16.2351C12.3115 17.4486 11.2903 19.4285 11.0223 21.5096C10.9604 22.1515 10.9496 22.8077 11.0026 23.4734C11.5475 29.3099 16.3748 34.4153 22.7455 34.8149Z" fill="#9FA4A7"/>
<path d="M22.6616 34.8352C25.097 34.9156 25.4739 37.014 23.294 37.039C22.8361 37.0372 22.3275 37.0038 21.7583 36.9324C13.9632 35.7838 9.12763 30.3985 8.91148 23.3937C8.90255 23.0995 8.90255 22.8095 8.91148 22.5237C9.04963 19.4518 10.5758 16.3983 12.3139 15.5552C12.4651 15.679 12.6253 15.9631 12.8254 16.3966C12.2388 17.6446 11.2647 19.6215 11.0218 21.646C10.9646 22.2838 10.9592 22.9334 11.0146 23.592C11.5969 29.4387 16.4898 34.4726 22.6616 34.8352Z" fill="#9CA1A3"/>
<path d="M22.5784 34.855C25.0358 34.9282 25.3198 37.0028 23.1399 36.9825C22.6802 36.9694 22.1746 36.9295 21.6179 36.8521C13.8919 35.6326 9.16052 30.3641 8.967 23.3712C8.95807 23.08 8.95929 22.7924 8.96881 22.5095C9.1153 19.3823 10.6634 16.408 12.3485 15.6184C12.4676 15.7792 12.5891 16.099 12.7457 16.5592C12.1669 17.8412 11.2381 19.8151 11.0195 21.7819C10.9683 22.4173 10.9689 23.0609 11.0278 23.71C11.6453 29.5668 16.6042 34.5293 22.5784 34.855Z" fill="#989EA1"/>
<path d="M22.4956 34.8751C24.9738 34.9406 25.1638 36.9937 22.985 36.9241C22.5236 36.9015 22.0233 36.8556 21.4761 36.7722C13.8199 35.4819 9.19388 30.3277 9.02179 23.3485C9.01286 23.0597 9.01462 22.775 9.02594 22.4946C9.18135 19.3131 10.7498 16.4168 12.3849 15.6832C12.4688 15.8791 12.5516 16.2346 12.6659 16.7217C12.0949 18.0376 11.2118 20.0086 11.0177 21.9188C10.9718 22.5494 10.9778 23.1865 11.041 23.8278C11.6936 29.6947 16.7191 34.5852 22.4956 34.8751Z" fill="#959B9D"/>
<path d="M22.4116 34.8957C24.9125 34.9523 25.0078 36.9845 22.8302 36.8666C22.3664 36.8351 21.8709 36.7797 21.3362 36.6922C13.7484 35.3304 9.22661 30.2917 9.07536 23.3256C9.06881 23.0385 9.07116 22.7575 9.08307 22.4806C9.24622 19.2432 10.8367 16.4255 12.4194 15.7467C12.4706 15.9795 12.5146 16.3689 12.5873 16.884C12.0216 18.2327 11.1856 20.2012 11.0165 22.0543C10.9754 22.6813 10.9868 23.313 11.0535 23.9454C11.743 29.8219 16.8334 34.642 22.4116 34.8957Z" fill="#91979A"/>
<path d="M22.3291 34.9158C24.8503 34.9646 24.8533 36.9742 22.6757 36.8087C22.2107 36.7682 21.7188 36.7051 21.1954 36.614C13.6773 35.1796 9.2603 30.2564 9.1305 23.3027C9.12514 23.0193 9.12811 22.7406 9.14002 22.4661C9.3127 19.1739 10.9246 16.4354 12.4555 15.8108C12.4733 16.0805 12.4787 16.5045 12.5061 17.0464C11.9493 18.4302 11.1604 20.3952 11.0133 22.191C10.9794 22.8145 10.9966 23.4403 11.0657 24.0643C11.7927 29.9515 16.9481 34.6978 22.3291 34.9158Z" fill="#8E9496"/>
<path d="M22.2448 34.9354C24.7891 34.9764 24.6974 36.9635 22.5205 36.7515C22.0524 36.7003 21.566 36.6294 21.0545 36.5335C13.6054 35.0283 9.29257 30.2206 9.18479 23.2806C9.17943 22.999 9.18421 22.7227 9.19671 22.4518C9.37773 19.1042 11.0104 16.4443 12.4907 15.8751C12.4746 16.1805 12.4407 16.6396 12.427 17.2095C11.8774 18.626 11.1331 20.5886 11.0116 22.3267C10.983 22.9466 11.0051 23.5659 11.0789 24.1816C11.8405 30.0789 17.0626 34.7543 22.2448 34.9354Z" fill="#8A9194"/>
<path d="M22.1615 34.9559C24.7279 34.9886 24.5422 36.9542 22.3664 36.6934C21.8972 36.6327 21.4143 36.5541 20.9141 36.4546C13.5335 34.8767 9.32549 30.1851 9.23975 23.2565C9.23558 22.979 9.2403 22.7057 9.25399 22.4366C9.44275 19.0342 11.0981 16.4535 12.5254 15.9373C12.476 16.2796 12.4046 16.7739 12.3468 17.3705C11.8049 18.8216 11.1065 20.7812 11.0094 22.4628C10.9868 23.0797 11.0142 23.6924 11.0916 24.3003C11.8901 30.2066 17.177 34.8106 22.1615 34.9559Z" fill="#878D90"/>
<path d="M22.0768 34.9766C24.6664 35.0004 24.386 36.9445 22.212 36.6361C21.7392 36.5658 21.2611 36.4801 20.774 36.3747C13.4625 34.7259 9.35802 30.1499 9.29372 23.2349C9.29074 22.9586 9.29674 22.6883 9.31043 22.4239C9.50812 18.965 11.1843 16.4623 12.5604 16.0026C12.4782 16.3807 12.3668 16.9107 12.2674 17.5329C11.7321 19.0186 11.0813 20.9752 11.008 22.5996C10.9908 23.2129 11.0223 23.8197 11.1033 24.4181C11.9387 30.3351 17.2912 34.8676 22.0768 34.9766Z" fill="#838A8D"/>
<path d="M21.9948 34.9958C24.604 35.0125 24.2312 36.9334 22.0573 36.5779C21.5839 36.4975 21.1087 36.4046 20.633 36.2945C13.3905 34.5742 9.3921 30.1143 9.34744 23.2125C9.34565 22.938 9.35277 22.67 9.36706 22.4086C9.57368 18.8949 11.2719 16.4708 12.5962 16.0659C12.4801 16.4809 12.33 17.0442 12.1871 17.6957C11.6601 19.2135 11.0552 21.1677 11.0064 22.7355C10.9951 23.3441 11.0325 23.9449 11.1165 24.5356C11.9876 30.4627 17.4068 34.9232 21.9948 34.9958Z" fill="#81878A"/>
<path d="M21.9109 35.0165C24.5427 35.0248 24.0759 36.9243 21.9025 36.52C21.4261 36.4307 20.9575 36.3288 20.4937 36.2151C13.3191 34.4228 9.4243 30.0784 9.40346 23.1903C9.40227 22.9194 9.40882 22.6532 9.4249 22.3948C9.63986 18.8268 11.3589 16.4814 12.6314 16.13C12.4819 16.582 12.2932 17.1798 12.1074 17.8586C11.5876 19.411 11.029 21.3617 11.0046 22.8717C10.9986 23.4773 11.0415 24.0721 11.129 24.6545C12.0365 30.5911 17.5212 34.9802 21.9109 35.0165Z" fill="#7D8387"/>
<path d="M21.7482 36.4632C13.7453 34.7989 9.45752 30.4801 9.45752 23.1674C9.45752 19.0862 11.3594 16.5109 12.667 16.1935C12.0721 17.7786 11.0027 20.9083 11.0027 23.0078C11.0027 29.8459 17.2305 35.0359 21.8268 35.0359C24.4813 35.0359 23.9204 36.9145 21.7482 36.4632Z" fill="#798083"/>
<path d="M27.3858 9.69851C27.3798 9.70506 27.3745 9.7116 27.3709 9.71934L27.3453 9.78187C31.9797 11.2306 37.1797 15.2892 37.1797 21.7016C37.1797 27.2732 33.3021 33.7171 23.9971 34.5162L24.0006 34.8854C33.3063 34.0845 37.487 27.375 37.487 21.9046C37.487 15.494 32.8985 11.152 27.3858 9.69851Z" fill="#3C535A"/>
<path d="M27.3858 9.69979C27.3798 9.70634 27.3745 9.71288 27.3709 9.72062L27.3453 9.78315C31.9797 11.2319 37.1797 15.2905 37.1797 21.7028C37.1797 27.2744 33.3021 33.7184 23.9971 34.5175L24.0006 34.8867C33.3063 34.0858 37.487 27.3763 37.487 21.9059C37.487 15.4953 32.8985 11.1533 27.3858 9.69979Z" fill="url(#paint7_linear_1_74936)"/>
<path d="M27.973 9.26407C33.644 10.9206 38.566 15.1548 38.566 22.2949C38.566 29.6379 32.2549 35.8961 24.0002 36.3218L23.9966 37.7575C31.2539 37.7575 39.6128 31.7929 39.6128 22.6759C39.6128 14.841 34.754 10.8855 28.9585 9.01815C28.8864 9.00207 28.7935 9.01279 28.7262 9.02231C28.6185 9.0372 28.4732 9.07293 28.3064 9.12295C28.1915 9.16344 28.0522 9.22418 27.973 9.26407Z" fill="#DEE4E9"/>
<path d="M27.3857 9.69935C32.8984 11.1528 37.4869 15.4949 37.4869 21.9055L38.5665 22.2967C38.5665 15.1566 33.6445 10.9224 27.9734 9.26587C27.7084 9.3915 27.4971 9.57371 27.3857 9.69935Z" fill="#C6DAF1"/>
<path d="M27.3857 9.70119C32.8984 11.1547 37.4869 15.4967 37.4869 21.9073L38.5665 22.2985C38.5665 15.1585 33.6445 10.9242 27.9734 9.2677C27.7084 9.39334 27.4971 9.57555 27.3857 9.70119Z" fill="url(#paint8_linear_1_74936)"/>
<path d="M38.5662 22.2932C38.5662 29.6362 32.2603 35.8944 24.0068 36.3213V34.8833C33.3119 34.0824 37.4866 27.3723 37.4866 21.9019L38.5662 22.2932Z" fill="white"/>
<path d="M38.5662 22.2917C38.5662 29.6348 32.2603 35.8929 24.0068 36.3199V34.8819C33.3119 34.081 37.4866 27.3709 37.4866 21.9005L38.5662 22.2917Z" fill="url(#paint9_linear_1_74936)"/>
<path d="M20.6066 9.7036C15.0933 11.1571 10.5042 15.4991 10.5042 21.9097C10.5042 27.3795 14.6931 34.0848 24 34.8857V36.3231C15.7447 35.8974 9.44189 29.6392 9.44189 22.2961C9.44189 15.1561 14.3472 10.9266 20.0189 9.2713C20.2237 9.36479 20.4845 9.55593 20.6066 9.7036Z" fill="#7093AE"/>
<path d="M20.6066 9.70503C15.0933 11.1585 10.5042 15.5005 10.5042 21.9111C10.5042 27.3809 14.6931 34.0863 24 34.8871V36.3246C15.7447 35.8988 9.44189 29.6406 9.44189 22.2976C9.44189 15.1576 14.3472 10.9281 20.0189 9.27274C20.2237 9.36622 20.4845 9.55736 20.6066 9.70503Z" fill="url(#paint10_linear_1_74936)"/>
<path d="M10.8134 21.7069C10.8134 15.2927 16.0134 11.236 20.6472 9.78663L20.6222 9.72411C20.6175 9.71637 20.6127 9.70982 20.6067 9.70327C15.0935 11.1568 10.5044 15.4988 10.5044 21.9094C10.5044 27.3792 14.6933 34.0845 24.0002 34.8854L23.9966 34.5162C14.6975 33.7171 10.8134 27.1761 10.8134 21.7069Z" fill="#3C535A"/>
<path d="M10.8134 21.7082C10.8134 15.294 16.0134 11.2372 20.6472 9.78791L20.6222 9.72539C20.6175 9.71765 20.6127 9.7111 20.6067 9.70455C15.0935 11.158 10.5044 15.5 10.5044 21.9106C10.5044 27.3804 14.6933 34.0858 24.0002 34.8867L23.9966 34.5175C14.6975 33.7184 10.8134 27.1774 10.8134 21.7082Z" fill="url(#paint11_linear_1_74936)"/>
<path d="M27.3775 9.70493C28.7649 10.0711 30.0725 10.6136 31.2658 11.3174C32.4995 12.045 33.5821 12.9281 34.4848 13.9427C35.4315 15.0062 36.1675 16.2031 36.6701 17.4964C37.2048 18.8695 37.4751 20.3515 37.4751 21.9015C37.4751 23.2913 37.1994 24.7501 36.6784 26.1202C36.1157 27.5976 35.2898 28.948 34.2251 30.1348C33.064 31.4293 31.6522 32.485 30.0278 33.2752C28.2433 34.1433 26.2158 34.6804 23.9995 34.8716L24.0013 34.8948C26.2194 34.703 28.2516 34.1659 30.0391 33.296C31.6647 32.5046 33.0789 31.4471 34.243 30.1502C35.3089 28.9617 36.1353 27.6077 36.6992 26.1292C37.222 24.7555 37.4989 23.2937 37.4989 21.9015C37.4989 20.3486 37.2274 18.8641 36.6915 17.488C36.1871 16.1911 35.4511 14.9937 34.502 13.9273C33.5981 12.9108 32.5138 12.026 31.2783 11.2977C30.0862 10.5951 28.7804 10.0533 27.3972 9.68527C27.3918 9.68468 27.3721 9.70314 27.3775 9.70493Z" fill="#EDF1FB"/>
<path d="M23.8678 38.4952C33.1795 38.4952 40.0003 30.2822 40.0003 22.7545C40.0003 19.9815 38.0978 13.8007 33.8987 13.8007C34.7705 14.6725 37.1868 17.564 37.1868 21.7053C37.1868 27.3907 33.3437 33.5714 24.0035 34.5146C21.5169 34.7653 19.193 38.4952 23.8678 38.4952Z" fill="#DEE4E9"/>
<path d="M23.9413 38.4209C33.1886 38.3411 39.8964 30.3002 39.8964 22.782C39.8964 19.9465 37.9951 13.9378 33.9318 13.9224C34.7904 14.828 37.1442 17.7314 37.1442 21.7745C37.1442 27.5153 33.1868 33.6484 24.0717 34.5469C21.578 34.7857 19.3105 38.456 23.9413 38.4209Z" fill="#D6DCE1"/>
<path d="M24.0139 38.3444C33.1999 38.1872 39.792 30.316 39.792 22.8098C39.792 19.9117 37.8901 14.0745 33.9655 14.0442C34.8105 14.9838 37.0994 17.8985 37.0994 21.844C37.0994 27.6394 33.0295 33.7261 24.1401 34.5794C21.6392 34.8063 19.4283 38.4177 24.0139 38.3444Z" fill="#CFD5DA"/>
<path d="M24.0871 38.269C33.2111 38.0332 39.6885 30.3341 39.6885 22.8374C39.6885 19.8768 37.786 14.2117 33.9989 14.1658C34.8314 15.14 37.056 18.0654 37.056 21.915C37.056 27.7647 32.8723 33.8037 24.2085 34.6124C21.6993 34.8273 19.5456 38.3786 24.0871 38.269Z" fill="#C8CED2"/>
<path d="M24.1601 38.1941C33.221 37.8803 39.584 30.3514 39.584 22.8643C39.584 19.8424 37.6815 14.3482 34.0326 14.2874C34.8519 15.2955 37.0116 18.2329 37.0116 21.9842C37.0116 27.8887 32.7149 33.8812 24.2774 34.6452C21.7592 34.8483 19.6621 38.3394 24.1601 38.1941Z" fill="#C0C7CB"/>
<path d="M24.2322 38.119C33.2324 37.7266 39.4793 30.3686 39.4793 22.8922C39.4793 19.8077 37.578 14.4844 34.0667 14.4094C34.8723 15.4514 36.9695 18.4001 36.9695 22.0544C36.9695 28.0148 32.5572 33.9592 24.346 34.6773C21.8201 34.8678 19.7807 38.3018 24.2322 38.119Z" fill="#BAC0C4"/>
<path d="M24.3054 38.0432C33.2436 37.5728 39.3755 30.3846 39.3755 22.9195C39.3755 19.7719 37.4743 14.6213 34.0999 14.5314C34.893 15.6073 36.9247 18.5661 36.9247 22.1239C36.9247 28.1392 32.4005 34.0365 24.4149 34.7105C21.8801 34.8898 19.8984 38.263 24.3054 38.0432Z" fill="#B2B9BD"/>
<path d="M24.3779 37.969C33.2537 37.4194 39.2713 30.4027 39.2713 22.9471C39.2713 19.7376 37.3706 14.7584 34.1338 14.6531C34.9126 15.7624 36.8806 18.7337 36.8806 22.1938C36.8806 28.2638 32.2426 34.1141 24.4827 34.7429C21.9408 34.9102 20.0151 38.2251 24.3779 37.969Z" fill="#ABB2B6"/>
<path d="M24.4508 37.8925C33.2646 37.2655 39.1673 30.4196 39.1673 22.9736C39.1673 19.7028 37.266 14.8957 34.1685 14.7748C34.9336 15.9181 36.8373 18.9013 36.8373 22.2638C36.8373 28.388 32.085 34.1906 24.5519 34.7754C22.0022 34.9302 20.1332 38.1855 24.4508 37.8925Z" fill="#A4ABAF"/>
<path d="M24.5244 37.8174C33.2763 37.1118 39.0635 30.4374 39.0635 23.0015C39.0635 19.6675 37.1617 15.032 34.2017 14.8962C34.9544 16.074 36.7931 19.0673 36.7931 22.3334C36.7931 28.5129 31.9283 34.2685 24.6215 34.8074C22.0623 34.9515 20.2497 38.1473 24.5244 37.8174Z" fill="#9DA3A7"/>
<path d="M24.5968 37.7429C33.2868 36.9581 38.9596 30.4546 38.9596 23.0294C38.9596 19.633 37.0577 15.1689 34.2352 15.0182C34.9742 16.2294 36.7504 19.2346 36.7504 22.4036C36.7504 28.6379 31.7713 34.3465 24.689 34.8407C22.1232 34.9717 20.3679 38.1079 24.5968 37.7429Z" fill="#979DA1"/>
<path d="M24.6694 37.6667C33.2975 36.8039 38.8554 30.4719 38.8554 23.0562C38.8554 19.5978 36.9535 15.3058 34.2692 15.1397C34.9962 16.3848 36.7058 19.4013 36.7058 22.4733C36.7058 28.7624 31.6135 34.4239 24.7582 34.8729C22.1834 34.9926 20.4852 38.0698 24.6694 37.6667Z" fill="#8F9699"/>
<path d="M24.743 37.5915C33.3079 36.6519 38.7515 30.489 38.7515 23.084C38.7515 19.5631 36.8496 15.4426 34.3028 15.2616C35.015 16.5412 36.6632 19.5691 36.6632 22.5439C36.6632 28.8878 31.4566 34.5017 24.8263 34.9066C22.2439 35.0144 20.6022 38.0315 24.743 37.5915Z" fill="#888F92"/>
<path d="M24.8151 37.5168C33.3193 36.4968 38.6468 30.506 38.6468 23.1111C38.6468 19.5277 36.7455 15.5799 34.3357 15.3834C35.036 16.6964 36.6193 19.7355 36.6193 22.6127C36.6193 29.012 31.2995 34.5795 24.8955 34.9385C22.3053 35.0344 20.7202 37.9926 24.8151 37.5168Z" fill="#81878A"/>
<path d="M24.8875 37.4411C33.3292 36.3437 38.5423 30.5232 38.5423 23.1384C38.5423 19.4931 36.6411 15.7162 34.3689 15.5054C35.0566 16.8523 36.575 19.9022 36.575 22.6835C36.575 29.137 31.1421 34.6568 24.9637 34.9718C22.3652 35.0545 20.8373 37.9538 24.8875 37.4411Z" fill="#7A7F83"/>
<path d="M24.9617 37.3661C33.3409 36.1901 38.4391 30.5405 38.4391 23.1653C38.4391 19.4586 36.5373 15.8526 34.4032 15.6269C35.0773 17.0083 36.5313 20.0695 36.5313 22.752C36.5313 29.2615 30.9835 34.7348 25.0332 35.004C22.4269 35.0754 20.9556 37.9157 24.9617 37.3661Z" fill="#73787B"/>
<path d="M25.0345 37.2909C33.3517 36.0351 38.3349 30.5576 38.3349 23.1925C38.3349 19.4233 36.4337 15.9894 34.4365 15.7488C35.0975 17.1636 36.4885 20.2373 36.4885 22.8221C36.4885 29.3852 30.827 34.8121 25.1024 35.036C22.4871 35.0961 21.0724 37.8768 25.0345 37.2909Z" fill="#6C7174"/>
<path d="M25.1068 37.2154C33.3615 35.8834 38.2311 30.5755 38.2311 23.22C38.2311 19.3888 36.3298 16.127 34.4702 15.8703C35.1175 17.3191 36.4442 20.4035 36.4442 22.8925C36.4442 29.5115 30.6701 34.8896 25.1693 35.0694C22.5481 35.117 21.1893 37.8376 25.1068 37.2154Z" fill="#656A6C"/>
<path d="M25.1794 37.1411C33.3728 35.7286 38.1262 30.5917 38.1262 23.248C38.1262 19.3544 36.2243 16.264 34.5047 15.9919C35.1376 17.4746 36.4006 20.5709 36.4006 22.9616C36.4006 29.636 30.5117 34.9671 25.2384 35.1022C22.6083 35.1386 21.3078 37.7996 25.1794 37.1411Z" fill="#5D6265"/>
<path d="M25.2522 37.0651C33.3842 35.5759 38.0228 30.6098 38.0228 23.2757C38.0228 19.3195 36.1209 16.4007 34.5382 16.1142C35.1587 17.6303 36.3567 20.7385 36.3567 23.0328C36.3567 29.7595 30.3552 35.0453 25.307 35.1352C22.6692 35.1591 21.4247 37.7606 25.2522 37.0651Z" fill="#565A5C"/>
<path d="M25.3253 36.9905C33.3948 35.4221 37.9178 30.6257 37.9178 23.3029C37.9178 19.2848 36.0171 16.5374 34.5714 16.2361C35.1799 17.7861 36.3137 20.905 36.3137 23.1022C36.3137 29.885 30.1978 35.1226 25.3759 35.1672C22.7297 35.1791 21.5418 37.7223 25.3253 36.9905Z" fill="#4F5355"/>
<path d="M25.3987 36.9148C33.4051 35.2678 37.8144 30.6447 37.8144 23.3308C37.8144 19.249 35.9131 16.6749 34.6055 16.3575C35.1998 17.942 36.2698 21.0723 36.2698 23.1719C36.2698 30.01 30.0408 35.1999 25.4445 35.1999C22.79 35.1999 21.6593 37.6829 25.3987 36.9148Z" fill="#474B4C"/>
<path d="M23.997 37.7787C25.9578 37.7787 28.0294 37.3393 29.9873 36.5086C31.9779 35.6643 33.8225 34.4252 35.3219 32.927C36.664 31.5837 37.7168 30.0599 38.4516 28.3956C39.2423 26.5998 39.643 24.6765 39.643 22.6799C39.643 20.7936 39.3572 19.0483 38.7922 17.4954C38.2682 16.0526 37.4923 14.742 36.4836 13.5987C34.7073 11.5808 32.1809 10.0338 28.9738 9.0001C28.9625 8.99712 28.95 9.00308 28.9458 9.01499C28.9417 9.0263 28.9488 9.0394 28.9601 9.04297C32.1595 10.0743 34.6794 11.6165 36.4509 13.6273C37.4548 14.767 38.2277 16.074 38.7511 17.5102C39.3138 19.059 39.599 20.7983 39.599 22.6799C39.599 24.8587 39.1221 26.9422 38.1807 28.8726C37.3125 30.6512 36.0805 32.2494 34.5162 33.6201C33.0562 34.9009 31.3187 35.9531 29.4918 36.6611C27.687 37.3631 25.7858 37.7341 23.997 37.7341C23.9845 37.7341 23.9756 37.7436 23.9756 37.7567C23.9756 37.7686 23.9845 37.7787 23.997 37.7787Z" fill="#E5E6E6"/>
<path d="M20.6033 9.68829C19.2088 10.0557 17.894 10.6005 16.6954 11.3085C15.4616 12.0367 14.3797 12.921 13.477 13.9362C12.532 15.0015 11.7972 16.1989 11.2947 17.4952C10.76 18.8713 10.4902 20.3558 10.4902 21.9081C10.4902 23.3008 10.7677 24.7633 11.2917 26.1358C11.855 27.6143 12.6833 28.9677 13.7515 30.1568C16.2107 32.8941 19.7548 34.5328 23.9986 34.8996L24.0016 34.8698C19.7643 34.5048 16.228 32.8685 13.7741 30.1366C12.7077 28.9505 11.8818 27.6012 11.3191 26.1256C10.7963 24.7555 10.52 23.2967 10.52 21.9081C10.52 20.3593 10.7891 18.8778 11.3221 17.5065C11.8234 16.2132 12.5564 15.0193 13.499 13.9559C14.3999 12.9418 15.4801 12.06 16.7097 11.3341C17.9065 10.6279 19.2272 10.0837 20.62 9.71628L20.6033 9.68829Z" fill="#EDF1FB"/>
<path d="M28.2344 9.87863C29.6766 9.90185 30.562 10.1174 31.9946 11.0064C30.5388 10.9522 29.3002 10.3336 28.2344 9.87863Z" fill="#E5E6E6"/>
<path d="M31.9951 11.0042C30.5624 10.1152 29.677 9.89962 28.2349 9.8764C29.7003 10.1938 30.6625 10.4873 31.9951 11.0042Z" fill="#232E30"/>
<path d="M31.9951 11.0024C30.5624 10.1134 29.677 9.89782 28.2349 9.8746C29.7003 10.192 30.6625 10.4855 31.9951 11.0024Z" fill="url(#paint12_linear_1_74936)"/>
<path d="M32.0952 10.3195C32.6031 11.2162 33.535 12.0736 34.652 12.8846C34.19 11.7652 33.9744 11.2942 32.0952 10.3195Z" fill="#7093AE"/>
<path d="M32.0952 10.3204C32.6031 11.2171 33.535 12.0746 34.652 12.8856C34.19 11.7661 33.9744 11.2951 32.0952 10.3204Z" fill="url(#paint13_linear_1_74936)"/>
<path d="M34.652 12.8846C33.9208 11.9736 33.1498 11.053 32.0952 10.3195C32.6031 11.2162 33.535 12.0736 34.652 12.8846Z" fill="#232E30"/>
<path d="M34.652 12.8856C33.9208 11.9745 33.1498 11.054 32.0952 10.3204C32.6031 11.2171 33.535 12.0746 34.652 12.8856Z" fill="url(#paint14_linear_1_74936)"/>
<path d="M33.542 12.9171C34.7323 13.2416 35.3337 13.4732 36.293 14.8862C34.8835 14.3075 34.6049 14.0407 33.542 12.9171Z" fill="#9CB3CF"/>
<path d="M33.542 12.9188C34.7323 13.2433 35.3337 13.4749 36.293 14.8879C34.8835 14.3092 34.6049 14.0424 33.542 12.9188Z" fill="url(#paint15_linear_1_74936)"/>
<path d="M33.542 12.9171C34.3292 13.3214 35.3301 14.0157 36.293 14.8862C35.3337 13.4732 34.7323 13.2416 33.542 12.9171Z" fill="#232E30"/>
<path d="M33.542 12.9188C34.3292 13.3231 35.3301 14.0174 36.293 14.8879C35.3337 13.4749 34.7323 13.2433 33.542 12.9188Z" fill="url(#paint16_linear_1_74936)"/>
<path d="M36.2598 13.4724C36.3854 14.6544 36.8821 15.8828 37.6681 17.0648C37.6454 15.859 37.7603 14.8854 36.2598 13.4724Z" fill="#9CB3CF"/>
<path d="M36.2598 13.4736C36.3854 14.6556 36.8821 15.884 37.6681 17.0659C37.6454 15.8602 37.7603 14.8866 36.2598 13.4736Z" fill="url(#paint17_linear_1_74936)"/>
<path d="M36.1841 16.2135C37.4828 17.1864 38.0306 17.9903 38.2616 19.5099C37.5167 18.7168 36.9087 18.0743 36.1841 16.2135Z" fill="#9CB3CF"/>
<path d="M36.1841 16.2126C37.4828 17.1855 38.0306 17.9894 38.2616 19.509C37.5167 18.7158 36.9087 18.0733 36.1841 16.2126Z" fill="url(#paint18_linear_1_74936)"/>
<path d="M36.1841 16.2135C37.1815 17.3693 37.7072 18.2547 38.2616 19.5099C38.0306 17.9903 37.4828 17.1864 36.1841 16.2135Z" fill="#232E30"/>
<path d="M36.1841 16.2126C37.1815 17.3683 37.7072 18.2538 38.2616 19.509C38.0306 17.9894 37.4828 17.1855 36.1841 16.2126Z" fill="url(#paint19_linear_1_74936)"/>
<path d="M39.159 19.0318C38.9631 19.8434 38.7422 20.0524 38.6725 20.6776C38.604 21.304 38.6279 22.4514 38.5928 23.2392C38.9971 22.405 39.9908 21.5815 39.159 19.0318Z" fill="#9CB3CF"/>
<path d="M39.159 19.0303C38.9631 19.8419 38.7422 20.0509 38.6725 20.6761C38.604 21.3026 38.6279 22.45 38.5928 23.2378C38.9971 22.4035 39.9908 21.58 39.159 19.0303Z" fill="url(#paint20_linear_1_74936)"/>
<path d="M38.6725 20.6776C38.604 21.304 38.6279 22.4514 38.5928 23.2392C39.0733 21.6416 39.2221 20.5204 39.159 19.0318C38.9631 19.8434 38.7422 20.0524 38.6725 20.6776Z" fill="#232E30"/>
<path d="M38.6725 20.6761C38.604 21.3026 38.6279 22.45 38.5928 23.2378C39.0733 21.6402 39.2221 20.5189 39.159 19.0303C38.9631 19.8419 38.7422 20.0509 38.6725 20.6761Z" fill="url(#paint21_linear_1_74936)"/>
<path d="M37.6108 22.1392C37.9579 23.2634 38.7201 24.2834 37.8537 26.3228C37.8073 25.3611 37.1249 24.7579 37.6108 22.1392Z" fill="#9CB3CF"/>
<path d="M37.6108 22.1385C37.9579 23.2627 38.7201 24.2827 37.8537 26.3221C37.8073 25.3604 37.1249 24.7572 37.6108 22.1385Z" fill="url(#paint22_linear_1_74936)"/>
<path d="M37.8538 26.3228C38.7201 24.2834 37.958 23.2634 37.6108 22.1392C37.7895 23.8636 38.0717 24.8961 37.8538 26.3228Z" fill="#232E30"/>
<path d="M37.8538 26.3221C38.7201 24.2827 37.958 23.2627 37.6108 22.1385C37.7895 23.8629 38.0717 24.8954 37.8538 26.3221Z" fill="url(#paint23_linear_1_74936)"/>
<path d="M39.2516 25.7916C38.7199 26.546 37.8768 26.78 36.6055 29.1868C38.3263 28.3073 38.8699 27.5184 39.2516 25.7916Z" fill="#9CB3CF"/>
<path d="M39.2516 25.7932C38.7199 26.5476 37.8768 26.7816 36.6055 29.1884C38.3263 28.3089 38.8699 27.52 39.2516 25.7932Z" fill="url(#paint24_linear_1_74936)"/>
<path d="M36.6055 29.1868C37.975 27.9072 38.6943 27.0747 39.2516 25.7916C38.7199 26.546 37.8768 26.78 36.6055 29.1868Z" fill="#232E30"/>
<path d="M36.6055 29.1884C37.975 27.9088 38.6943 27.0764 39.2516 25.7932C38.7199 26.5476 37.8768 26.7816 36.6055 29.1884Z" fill="url(#paint25_linear_1_74936)"/>
<path d="M36.5402 26.7138C35.9935 27.7415 35.7553 28.3138 35.6547 28.6454C35.5541 28.9771 35.4963 30.3395 35.4272 30.6259C36.1984 29.753 36.3162 29.1295 36.3936 28.7824C36.4692 28.4346 36.5783 27.4783 36.5402 26.7138Z" fill="#9CB3CF"/>
<path d="M36.5402 26.7142C35.9935 27.742 35.7553 28.3142 35.6547 28.6459C35.5541 28.9775 35.4963 30.3399 35.4272 30.6263C36.1984 29.7534 36.3162 29.13 36.3936 28.7828C36.4692 28.4351 36.5783 27.4788 36.5402 26.7142Z" fill="url(#paint26_linear_1_74936)"/>
<path d="M35.4272 30.6268C35.8435 29.63 36.318 27.8776 36.5402 26.7147C35.9935 27.7424 35.7553 28.3146 35.6547 28.6463C35.557 28.9672 35.4963 30.3403 35.4272 30.6268C35.4284 30.6262 35.4272 30.6273 35.4272 30.6268Z" fill="#232E30"/>
<path d="M35.4272 30.6277C35.8435 29.6309 36.318 27.8785 36.5402 26.7156C35.9935 27.7434 35.7553 28.3156 35.6547 28.6473C35.557 28.9682 35.4963 30.3413 35.4272 30.6277C35.4284 30.6271 35.4272 30.6283 35.4272 30.6277Z" fill="url(#paint27_linear_1_74936)"/>
<path d="M33.8516 30.6003C33.127 31.2797 32.6958 31.6971 32.3493 32.2383C32.0027 32.7796 31.9027 33.409 31.54 33.9413C33.4818 32.86 33.5205 31.6351 33.8516 30.6003Z" fill="#9CB3CF"/>
<path d="M33.8516 30.6003C33.127 31.2797 32.6958 31.6971 32.3493 32.2383C32.0027 32.7796 31.9027 33.409 31.54 33.9413C33.4818 32.86 33.5205 31.6351 33.8516 30.6003Z" fill="url(#paint28_linear_1_74936)"/>
<path d="M32.3493 32.2383C32.0027 32.7796 31.9027 33.409 31.54 33.9413C32.3367 33.1732 33.227 31.8209 33.8516 30.6003C33.127 31.2797 32.6958 31.6971 32.3493 32.2383Z" fill="#232E30"/>
<path d="M32.3493 32.2383C32.0027 32.7796 31.9027 33.409 31.54 33.9413C32.3367 33.1732 33.227 31.8209 33.8516 30.6003C33.127 31.2797 32.6958 31.6971 32.3493 32.2383Z" fill="url(#paint29_linear_1_74936)"/>
<path d="M36.779 31.0696C36.1716 31.3435 35.5863 31.4399 34.9634 31.7126C34.3412 31.9871 33.5749 32.7404 33.1152 33.0441C34.7706 32.9357 35.9769 32.4034 36.779 31.0696Z" fill="#9CB3CF"/>
<path d="M36.779 31.0682C36.1716 31.3421 35.5863 31.4385 34.9634 31.7112C34.3412 31.9857 33.5749 32.739 33.1152 33.0427C34.7706 32.9343 35.9769 32.402 36.779 31.0682Z" fill="url(#paint30_linear_1_74936)"/>
<path d="M26.5801 35.9063C27.1583 35.3728 27.3381 34.8738 27.8924 34.445C28.4468 34.0163 29.3602 33.5537 29.9479 33.3792C29.2673 34.2027 28.4057 35.5466 26.5801 35.9063Z" fill="#9CB3CF"/>
<path d="M26.5801 35.9044C27.1583 35.3708 27.3381 34.8719 27.8924 34.4431C28.4468 34.0144 29.3602 33.5517 29.9479 33.3773C29.2673 34.2008 28.4057 35.5447 26.5801 35.9044Z" fill="url(#paint31_linear_1_74936)"/>
<path d="M26.5801 35.9063C28.0127 35.1239 28.6445 34.2247 29.9479 33.3792C29.3602 33.5537 28.4468 34.0163 27.8924 34.445C27.3381 34.8738 27.1583 35.3728 26.5801 35.9063Z" fill="#232E30"/>
<path d="M26.5801 35.9044C28.0127 35.1219 28.6445 34.2228 29.9479 33.3773C29.3602 33.5517 28.4468 34.0144 27.8924 34.4431C27.3381 34.8719 27.1583 35.3708 26.5801 35.9044Z" fill="url(#paint32_linear_1_74936)"/>
<path d="M30.6779 35.5951C29.4411 35.6754 29.2202 35.4611 28.6206 35.4551C30.4236 34.737 30.747 34.6793 32.8965 34.8186C32.1915 35.3747 31.5085 35.5284 30.6779 35.5951Z" fill="#9CB3CF"/>
<path d="M30.6779 35.5951C29.4411 35.6754 29.2202 35.4611 28.6206 35.4551C30.4236 34.737 30.747 34.6793 32.8965 34.8186C32.1915 35.3747 31.5085 35.5284 30.6779 35.5951Z" fill="url(#paint33_linear_1_74936)"/>
<path d="M28.6201 35.4531C30.1343 35.0137 31.5438 35.3382 32.8961 34.8166C30.7465 34.6773 30.4231 34.735 28.6201 35.4531Z" fill="#232E30"/>
<path d="M28.6201 35.4512C30.1343 35.0117 31.5438 35.3363 32.8961 34.8146C30.7465 34.6753 30.4231 34.7331 28.6201 35.4512Z" fill="url(#paint34_linear_1_74936)"/>
<path d="M26.5631 37.1234C25.3639 37.0329 24.5964 36.544 24.0908 36.3481C25.2912 36.238 26.4845 36.151 27.2336 36.2898C27.9987 36.4303 28.3143 36.7995 28.8633 36.8227C27.9385 37.1478 27.1985 37.1716 26.5631 37.1234Z" fill="#9CB3CF"/>
<path d="M26.5631 37.1224C25.3639 37.0319 24.5964 36.543 24.0908 36.3471C25.2912 36.237 26.4845 36.15 27.2336 36.2888C27.9987 36.4293 28.3143 36.7985 28.8633 36.8217C27.9385 37.1468 27.1985 37.1706 26.5631 37.1224Z" fill="url(#paint35_linear_1_74936)"/>
<path d="M24.0908 36.349C25.6735 36.533 27.0025 36.8122 28.8633 36.8235C28.3143 36.8003 27.9987 36.4311 27.2336 36.2906C26.4845 36.1519 25.2912 36.2388 24.0908 36.349Z" fill="#232E30"/>
<path d="M24.0908 36.3486C25.6735 36.5326 27.0025 36.8119 28.8633 36.8232C28.3143 36.8 27.9987 36.4308 27.2336 36.2903C26.4845 36.1515 25.2912 36.2385 24.0908 36.3486Z" fill="url(#paint36_linear_1_74936)"/>
<path d="M33.1152 33.0441C34.0745 32.5129 35.4857 32.1908 36.779 31.0696C36.1716 31.3435 35.5863 31.4399 34.9634 31.7126C34.3412 31.9871 33.5749 32.7404 33.1152 33.0441Z" fill="#232E30"/>
<path d="M33.1152 33.0427C34.0745 32.5115 35.4857 32.1894 36.779 31.0682C36.1716 31.3421 35.5863 31.4385 34.9634 31.7112C34.3412 31.9857 33.5749 32.739 33.1152 33.0427Z" fill="url(#paint37_linear_1_74936)"/>
<path d="M36.2598 13.4724C36.3854 14.6544 36.8821 15.8828 37.6681 17.0648C37.3507 15.5756 36.9344 14.8467 36.2598 13.4724Z" fill="#232E30"/>
<path d="M36.2598 13.4736C36.3854 14.6556 36.8821 15.884 37.6681 17.0659C37.3507 15.5767 36.9344 14.8479 36.2598 13.4736Z" fill="url(#paint38_linear_1_74936)"/>
<path d="M19.7721 9.8764C18.3324 9.89962 17.4463 10.1152 16.0137 11.0042C17.4689 10.95 18.7087 10.3313 19.7721 9.8764Z" fill="#F1F5FC"/>
<path d="M19.7721 9.8746C18.3324 9.89782 17.4463 10.1134 16.0137 11.0024C17.4689 10.9482 18.7087 10.3295 19.7721 9.8746Z" fill="url(#paint39_radial_1_74936)"/>
<path d="M16.0137 11.0042C17.4463 10.1152 18.3324 9.89962 19.7721 9.8764C18.3341 10.2087 17.3463 10.4873 16.0137 11.0042Z" fill="#232E30"/>
<path d="M16.0137 11.0024C17.4463 10.1134 18.3324 9.89782 19.7721 9.8746C18.3341 10.2069 17.3463 10.4855 16.0137 11.0024Z" fill="url(#paint40_linear_1_74936)"/>
<path d="M15.9129 10.3195C15.4056 11.2162 14.4731 12.0736 13.3555 12.8846C13.8175 11.7652 14.0331 11.2942 15.9129 10.3195Z" fill="#232E30"/>
<path d="M15.9129 10.3204C15.4056 11.2171 14.4731 12.0746 13.3555 12.8856C13.8175 11.7661 14.0331 11.2951 15.9129 10.3204Z" fill="url(#paint41_linear_1_74936)"/>
<path d="M13.3555 12.8846C14.232 11.9307 14.5827 11.371 15.9129 10.3195C15.4056 11.2162 14.4731 12.0736 13.3555 12.8846Z" fill="#587089"/>
<path d="M13.3555 12.8856C14.232 11.9317 14.5827 11.3719 15.9129 10.3204C15.4056 11.2171 14.4731 12.0746 13.3555 12.8856Z" fill="url(#paint42_linear_1_74936)"/>
<path d="M14.4642 12.9171C13.2751 13.2416 12.6737 13.4732 11.7139 14.8862C13.1239 14.3075 13.4025 14.0407 14.4642 12.9171Z" fill="#F1F5FC"/>
<path d="M14.4642 12.9188C13.2751 13.2433 12.6737 13.4749 11.7139 14.8879C13.1239 14.3092 13.4025 14.0424 14.4642 12.9188Z" fill="url(#paint43_radial_1_74936)"/>
<path d="M14.4642 12.9171C13.6788 13.3214 12.688 14.0532 11.7139 14.8862C12.6737 13.4732 13.2751 13.2416 14.4642 12.9171Z" fill="#232E30"/>
<path d="M14.4642 12.9188C13.6788 13.3231 12.688 14.0549 11.7139 14.8879C12.6737 13.4749 13.2751 13.2433 14.4642 12.9188Z" fill="url(#paint44_linear_1_74936)"/>
<path d="M11.7493 13.4724C11.6219 14.6544 11.1998 15.8316 10.3394 17.0648C10.3632 15.859 10.3345 14.9164 11.7493 13.4724Z" fill="#9CB3CF"/>
<path d="M11.7493 13.4736C11.6219 14.6556 11.1998 15.8328 10.3394 17.0659C10.3632 15.8602 10.3345 14.9176 11.7493 13.4736Z" fill="url(#paint45_linear_1_74936)"/>
<path d="M11.7493 13.4724C11.6219 14.6544 11.1164 15.8816 10.3394 17.0648C10.7443 15.4071 11.1932 14.7854 11.7493 13.4724Z" fill="#232E30"/>
<path d="M11.7493 13.4736C11.6219 14.6556 11.1164 15.8828 10.3394 17.0659C10.7443 15.4082 11.1932 14.7866 11.7493 13.4736Z" fill="url(#paint46_linear_1_74936)"/>
<path d="M11.8308 16.2187C10.5244 17.1809 9.96951 17.98 9.72656 19.4984C10.478 18.7106 11.0907 18.0729 11.8308 16.2187Z" fill="#F1F5FC"/>
<path d="M11.8308 16.2198C10.5244 17.1821 9.96951 17.9811 9.72656 19.4995C10.478 18.7118 11.0907 18.074 11.8308 16.2198Z" fill="url(#paint47_radial_1_74936)"/>
<path d="M11.8308 16.2187C11.1086 16.9915 9.89388 18.9571 9.72656 19.4984C9.96951 17.98 10.5244 17.1809 11.8308 16.2187Z" fill="#232E30"/>
<path d="M11.8308 16.2198C11.1086 16.9927 9.89388 18.9583 9.72656 19.4995C9.96951 17.9811 10.5244 17.1821 11.8308 16.2198Z" fill="url(#paint48_linear_1_74936)"/>
<path d="M9.33389 20.6776C9.40356 21.304 9.38033 22.4514 9.41486 23.2392C8.97363 21.9161 8.92128 20.5424 8.84863 19.0318C9.04454 19.8434 9.26482 20.0524 9.33389 20.6776Z" fill="#232E30"/>
<path d="M9.33389 20.6761C9.40356 21.3026 9.38033 22.45 9.41486 23.2378C8.97363 21.9147 8.92128 20.541 8.84863 19.0303C9.04454 19.8419 9.26482 20.0509 9.33389 20.6761Z" fill="url(#paint49_linear_1_74936)"/>
<path d="M10.3969 22.1392C10.0504 23.2634 9.28764 24.2834 10.154 26.3228C10.2011 25.3611 10.8822 24.7579 10.3969 22.1392Z" fill="#F1F5FC"/>
<path d="M10.3969 22.1385C10.0504 23.2627 9.28764 24.2827 10.154 26.3221C10.2011 25.3604 10.8822 24.7572 10.3969 22.1385Z" fill="url(#paint50_radial_1_74936)"/>
<path d="M10.154 26.3228C9.28764 24.2834 10.0504 23.2634 10.3969 22.1392C10.363 23.9011 9.87237 24.8961 10.154 26.3228Z" fill="#232E30"/>
<path d="M10.154 26.3221C9.28764 24.2827 10.0504 23.2627 10.3969 22.1385C10.363 23.9004 9.87237 24.8954 10.154 26.3221Z" fill="url(#paint51_linear_1_74936)"/>
<path d="M8.75684 25.7916C9.28798 26.546 10.1317 26.78 11.403 29.1868C9.68095 28.3073 9.13733 27.5184 8.75684 25.7916Z" fill="#9CB3CF"/>
<path d="M8.75684 25.7932C9.28798 26.5476 10.1317 26.7816 11.403 29.1884C9.68095 28.3089 9.13733 27.52 8.75684 25.7932Z" fill="url(#paint52_linear_1_74936)"/>
<path d="M11.4682 26.7138C12.0142 27.7415 12.2535 28.3138 12.3536 28.6454C12.4536 28.9771 12.5114 30.3395 12.5804 30.6259C11.8099 29.753 11.5986 29.148 11.5217 28.8008C11.4449 28.4525 11.4295 27.4783 11.4682 26.7138Z" fill="#232E30"/>
<path d="M11.4682 26.7142C12.0142 27.742 12.2535 28.3142 12.3536 28.6459C12.4536 28.9775 12.5114 30.3399 12.5804 30.6263C11.8099 29.7534 11.5986 29.1484 11.5217 28.8013C11.4449 28.453 11.4295 27.4788 11.4682 26.7142Z" fill="url(#paint53_linear_1_74936)"/>
<path d="M12.5805 30.6268C12.0047 29.7639 11.8178 27.8031 11.4683 26.7147C12.0143 27.7424 12.2536 28.3146 12.3537 28.6463C12.4501 28.9672 12.5114 30.3403 12.5805 30.6268C12.5805 30.6273 12.5799 30.6262 12.5805 30.6268Z" fill="#F1F5FC"/>
<path d="M12.5805 30.6277C12.0047 29.7649 11.8178 27.8041 11.4683 26.7156C12.0143 27.7434 12.2536 28.3156 12.3537 28.6473C12.4501 28.9682 12.5114 30.3413 12.5805 30.6277C12.5805 30.6283 12.5799 30.6271 12.5805 30.6277Z" fill="url(#paint54_radial_1_74936)"/>
<path d="M14.1558 30.6003C14.881 31.2797 15.3122 31.6971 15.6587 32.2383C16.0058 32.7796 16.1065 33.409 16.4685 33.9413C14.5262 32.86 14.4886 31.6351 14.1558 30.6003Z" fill="#232E30"/>
<path d="M14.1558 30.6003C14.881 31.2797 15.3122 31.6971 15.6587 32.2383C16.0058 32.7796 16.1065 33.409 16.4685 33.9413C14.5262 32.86 14.4886 31.6351 14.1558 30.6003Z" fill="url(#paint55_linear_1_74936)"/>
<path d="M15.6587 32.2383C16.0058 32.7796 16.1065 33.409 16.4685 33.9413C16.0172 33.6442 14.6143 31.4946 14.1558 30.6003C14.881 31.2797 15.3122 31.6971 15.6587 32.2383Z" fill="#F1F5FC"/>
<path d="M15.6587 32.2383C16.0058 32.7796 16.1065 33.409 16.4685 33.9413C16.0172 33.6442 14.6143 31.4946 14.1558 30.6003C14.881 31.2797 15.3122 31.6971 15.6587 32.2383Z" fill="url(#paint56_radial_1_74936)"/>
<path d="M11.2295 31.0691C11.8374 31.3401 12.4234 31.4329 13.0474 31.7027C13.6708 31.9736 14.4413 32.7221 14.9039 33.024C13.2474 32.9234 12.0375 32.397 11.2295 31.0691Z" fill="#9CB3CF"/>
<path d="M11.2295 31.0675C11.8374 31.3384 12.4234 31.4313 13.0474 31.701C13.6708 31.9719 14.4413 32.7204 14.9039 33.0223C13.2474 32.9217 12.0375 32.3953 11.2295 31.0675Z" fill="url(#paint57_linear_1_74936)"/>
<path d="M14.9039 33.024C13.9399 32.4988 12.6228 32.1368 11.2295 31.0691C11.8374 31.3401 12.4234 31.4329 13.0474 31.7027C13.6708 31.9736 14.4413 32.7221 14.9039 33.024Z" fill="#232E30"/>
<path d="M14.9039 33.0223C13.9399 32.4971 12.6228 32.1351 11.2295 31.0675C11.8374 31.3384 12.4234 31.4313 13.0474 31.701C13.6708 31.9719 14.4413 32.7204 14.9039 33.0223Z" fill="url(#paint58_linear_1_74936)"/>
<path d="M21.4283 35.9063C20.8495 35.3728 20.6703 34.8738 20.1159 34.445C19.561 34.0163 18.6481 33.5537 18.0586 33.3792C18.7404 34.2027 19.6014 35.5466 21.4283 35.9063Z" fill="#232E30"/>
<path d="M21.4283 35.9044C20.8495 35.3708 20.6703 34.8719 20.1159 34.4431C19.561 34.0144 18.6481 33.5517 18.0586 33.3773C18.7404 34.2008 19.6014 35.5447 21.4283 35.9044Z" fill="url(#paint59_linear_1_74936)"/>
<path d="M21.4283 35.9063C20.1987 35.2281 19.4775 34.2926 18.0586 33.3792C18.6481 33.5537 19.561 34.0163 20.1159 34.445C20.6703 34.8738 20.8495 35.3728 21.4283 35.9063Z" fill="#F1F5FC"/>
<path d="M21.4283 35.9044C20.1987 35.2261 19.4775 34.2907 18.0586 33.3773C18.6481 33.5517 19.561 34.0144 20.1159 34.4431C20.6703 34.8719 20.8495 35.3708 21.4283 35.9044Z" fill="url(#paint60_radial_1_74936)"/>
<path d="M17.3305 35.5951C18.5667 35.6754 18.7887 35.4611 19.3878 35.4551C17.5853 34.737 17.2608 34.6793 15.1118 34.8186C15.8168 35.3747 16.4993 35.5284 17.3305 35.5951Z" fill="#9CB3CF"/>
<path d="M17.3305 35.5951C18.5667 35.6754 18.7887 35.4611 19.3878 35.4551C17.5853 34.737 17.2608 34.6793 15.1118 34.8186C15.8168 35.3747 16.4993 35.5284 17.3305 35.5951Z" fill="url(#paint61_linear_1_74936)"/>
<path d="M19.3882 35.4531C17.8061 35.1352 16.464 35.3382 15.1123 34.8166C17.2613 34.6773 17.5858 34.735 19.3882 35.4531Z" fill="#232E30"/>
<path d="M19.3882 35.4512C17.8061 35.1332 16.464 35.3363 15.1123 34.8146C17.2613 34.6753 17.5858 34.7331 19.3882 35.4512Z" fill="url(#paint62_linear_1_74936)"/>
<path d="M21.4435 37.1234C22.644 37.0329 23.4115 36.544 23.917 36.3481C22.7172 36.238 21.5245 36.151 20.7742 36.2898C20.0091 36.4303 19.6935 36.7995 19.1445 36.8227C20.0693 37.1478 20.8094 37.1716 21.4435 37.1234Z" fill="#9CB3CF"/>
<path d="M21.4435 37.1224C22.644 37.0319 23.4115 36.543 23.917 36.3471C22.7172 36.237 21.5245 36.15 20.7742 36.2888C20.0091 36.4293 19.6935 36.7985 19.1445 36.8217C20.0693 37.1468 20.8094 37.1706 21.4435 37.1224Z" fill="url(#paint63_linear_1_74936)"/>
<path d="M23.917 36.349C22.3343 36.533 21.0053 36.8122 19.1445 36.8235C19.6935 36.8003 20.0091 36.4311 20.7742 36.2906C21.5245 36.1519 22.7172 36.2388 23.917 36.349Z" fill="#232E30"/>
<path d="M23.917 36.3486C22.3343 36.5326 21.0053 36.8119 19.1445 36.8232C19.6935 36.8 20.0091 36.4308 20.7742 36.2903C21.5245 36.1515 22.7172 36.2385 23.917 36.3486Z" fill="url(#paint64_linear_1_74936)"/>
<path d="M11.403 29.1868C10.5783 28.3609 9.27785 27.1932 8.75684 25.7916C9.28798 26.546 10.1317 26.78 11.403 29.1868Z" fill="#232E30"/>
<path d="M11.403 29.1884C10.5783 28.3625 9.27785 27.1949 8.75684 25.7932C9.28798 26.5476 10.1317 26.7816 11.403 29.1884Z" fill="url(#paint65_linear_1_74936)"/>
<path d="M32.8973 34.8082C30.7627 34.6695 30.4435 34.7177 28.6149 35.4471C28.6071 35.4495 28.603 35.4584 28.6059 35.465C28.6095 35.4733 28.6185 35.4769 28.6256 35.4745C30.4483 34.7481 30.7674 34.6998 32.8944 34.8374C32.9033 34.8392 32.9104 34.8308 32.9104 34.8231C32.911 34.8153 32.9045 34.8082 32.8973 34.8082Z" fill="#818384"/>
<path d="M36.7682 31.0482C36.4627 31.1857 36.1555 31.281 35.8578 31.3721C35.5654 31.462 35.2623 31.5555 34.9544 31.6907C34.5513 31.8693 34.0923 32.242 33.6874 32.5713C33.4694 32.7494 33.2646 32.9167 33.1008 33.0239L33.0806 33.0382L33.108 33.0798L33.1288 33.0655C33.2938 32.9566 33.4998 32.7887 33.7183 32.61C34.1214 32.2819 34.577 31.911 34.9741 31.7377C35.2802 31.6025 35.5814 31.509 35.872 31.4191C36.1715 31.3274 36.48 31.2328 36.7885 31.0934L36.8116 31.0827L36.7914 31.038L36.7682 31.0482Z" fill="#88898A"/>
<path d="M38.2737 19.4995L38.2624 19.4888C37.5121 18.6885 36.9196 18.0573 36.1991 16.2096C36.195 16.2007 36.1866 16.1965 36.1783 16.1995C36.1694 16.2031 36.1652 16.212 36.1688 16.2209C36.8916 18.0758 37.4859 18.7093 38.2385 19.5108L38.2498 19.5227C38.2552 19.5292 38.2659 19.5298 38.2731 19.5233C38.2796 19.5173 38.2802 19.506 38.2737 19.4995Z" fill="#D0D1D3"/>
<path d="M37.7102 17.0646L37.7067 16.7872C37.696 15.6981 37.6864 14.7579 36.2871 13.4425L36.23 13.5027C37.6025 14.7948 37.6114 15.7183 37.6233 16.7878L37.6269 17.0658L37.7102 17.0646Z" fill="#EBF1FB"/>
<path d="M36.2992 14.8694C34.9011 14.2948 34.6248 14.0352 33.5554 12.9038C33.5482 12.8967 33.5381 12.8967 33.5303 12.9026C33.5244 12.9086 33.5244 12.9193 33.5303 12.9259C34.6051 14.062 34.8814 14.3222 36.2867 14.8998C36.295 14.9039 36.3045 14.8998 36.3087 14.8914C36.3123 14.8825 36.3087 14.873 36.2992 14.8694Z" fill="#C3C4C6"/>
<path d="M15.1134 34.8329C17.2397 34.6948 17.5595 34.743 19.3815 35.4694C19.3899 35.4724 19.3982 35.4689 19.4018 35.4611C19.4047 35.4534 19.4012 35.445 19.3934 35.4421C17.5642 34.7132 17.2451 34.665 15.111 34.8031C15.1032 34.8049 15.0967 34.8115 15.0967 34.8192C15.0973 34.8276 15.105 34.8335 15.1134 34.8329Z" fill="#939596"/>
<path d="M19.146 36.8378C19.4282 36.8253 19.6462 36.7246 19.8992 36.6085C20.135 36.4978 20.403 36.3739 20.7775 36.3043C21.5373 36.1643 22.7443 36.2566 23.9155 36.3632C23.9233 36.3638 23.931 36.3578 23.9322 36.3495C23.9334 36.3418 23.9274 36.334 23.9179 36.3328C22.7443 36.2269 21.5343 36.134 20.771 36.2751C20.3947 36.3453 20.1243 36.4704 19.8861 36.5811C19.6355 36.6961 19.4205 36.7961 19.1442 36.808C19.1359 36.808 19.1293 36.8152 19.1299 36.8235C19.1305 36.8318 19.1365 36.8378 19.146 36.8378Z" fill="#838486"/>
<path d="M28.8869 36.8378C28.6047 36.8253 28.3862 36.7246 28.1337 36.6085C27.8973 36.4978 27.6294 36.3739 27.256 36.3043C26.495 36.1643 25.2881 36.2566 24.1174 36.3632C24.1085 36.3638 24.1019 36.3578 24.1001 36.3495C24.0995 36.3418 24.1061 36.334 24.1144 36.3328C25.2881 36.2269 26.4974 36.134 27.2614 36.2751C27.6389 36.3453 27.908 36.4704 28.1468 36.5811C28.3969 36.6961 28.6113 36.7961 28.8887 36.808C28.8971 36.808 28.903 36.8152 28.903 36.8235C28.903 36.8318 28.8959 36.8378 28.8869 36.8378Z" fill="#838486"/>
<path d="M8.83436 19.0371C8.92367 19.4039 9.01657 19.6469 9.09874 19.8624C9.19699 20.1185 9.28154 20.3394 9.31965 20.6812C9.36193 21.0646 9.37026 21.6512 9.378 22.218C9.38217 22.5711 9.38634 22.9367 9.40063 23.2422C9.40123 23.2505 9.40718 23.2559 9.41611 23.2559C9.42445 23.2553 9.4304 23.2482 9.4304 23.241C9.41671 22.9355 9.41135 22.5711 9.40599 22.2174C9.39944 21.65 9.39229 21.0623 9.34823 20.6782C9.31072 20.3322 9.22498 20.1101 9.12673 19.8505C9.04396 19.6374 8.95226 19.395 8.86413 19.0306C8.86175 19.0223 8.85401 19.0181 8.84567 19.0193C8.83733 19.0217 8.83257 19.03 8.83436 19.0371Z" fill="#94A3AF"/>
<path d="M11.2238 31.0846C11.5323 31.2222 11.8419 31.3156 12.1408 31.4067C12.4326 31.4937 12.7345 31.5854 13.0417 31.7182C13.4413 31.8914 13.8998 32.2606 14.3041 32.5863C14.5232 32.7638 14.7304 32.9311 14.8959 33.0389C14.9031 33.0424 14.912 33.0412 14.9162 33.0341C14.921 33.027 14.9186 33.018 14.912 33.0133C14.7483 32.9073 14.5417 32.74 14.3225 32.5631C13.9176 32.2362 13.4567 31.8664 13.0536 31.6908C12.7446 31.5574 12.4421 31.4657 12.1491 31.377C11.8508 31.2877 11.5436 31.1936 11.2351 31.0578C11.228 31.0548 11.2191 31.0578 11.2155 31.0655C11.2125 31.0721 11.2155 31.0816 11.2238 31.0846Z" fill="#818384"/>
<path d="M8.74364 25.799C8.91156 26.0366 9.11163 26.2248 9.34266 26.4415C9.83927 26.9066 10.5193 27.5437 11.3892 29.1937C11.3934 29.2008 11.4023 29.2032 11.4089 29.199C11.416 29.1961 11.419 29.1865 11.4154 29.1794C10.5419 27.5258 9.8613 26.8857 9.3635 26.4195C9.13307 26.2033 8.93419 26.0176 8.76925 25.7818C8.76389 25.7746 8.75436 25.774 8.74722 25.7776C8.74067 25.7835 8.73947 25.7925 8.74364 25.799Z" fill="#838486"/>
<path d="M11.7347 13.4695C11.6013 14.7164 11.1405 15.8894 10.3271 17.0553C10.3223 17.0618 10.3235 17.0708 10.3307 17.0761C10.3378 17.0803 10.3467 17.0785 10.3509 17.072C11.1678 15.9025 11.6293 14.7241 11.7645 13.4719C11.7651 13.4641 11.7591 13.457 11.7508 13.4558C11.7425 13.4552 11.7353 13.4606 11.7347 13.4695Z" fill="#BABBBD"/>
<path d="M27.9749 9.27807C31.0045 10.1605 33.5685 11.6992 35.39 13.7284C36.3922 14.8443 37.168 16.1073 37.6962 17.481C38.2637 18.9559 38.5513 20.5749 38.5513 22.2946C38.5513 24.0922 38.1767 25.8506 37.4372 27.5178C36.7208 29.1398 35.6883 30.6106 34.3706 31.8902C31.6524 34.5328 27.9719 36.1018 24.005 36.3061C23.9967 36.3067 23.9902 36.3138 23.9914 36.3215C23.9914 36.3311 23.9979 36.3364 24.0068 36.3364C27.9797 36.131 31.6685 34.5602 34.3915 31.9117C35.7116 30.6291 36.7453 29.1547 37.4658 27.5309C38.2053 25.8589 38.581 24.0976 38.581 22.2946C38.581 20.5713 38.2922 18.9481 37.7242 17.4702C37.1936 16.093 36.4166 14.827 35.4121 13.7094C33.587 11.6753 31.0176 10.1331 27.9832 9.24889C27.9749 9.2471 27.9636 9.25961 27.9612 9.26794C27.9588 9.27509 27.9672 9.27568 27.9749 9.27807Z" fill="white"/>
<path d="M24.0008 36.307C20.034 36.1021 16.3541 34.5331 13.6353 31.8911C12.3193 30.6109 11.2874 29.1402 10.5699 27.5182C9.83156 25.8509 9.45761 24.0925 9.45761 22.2949C9.45761 20.577 9.74402 18.9592 10.3103 17.486C10.8391 16.1123 11.6143 14.8506 12.6153 13.7353C14.435 11.7066 16.9966 10.1674 20.0227 9.28314C20.031 9.28076 20.0447 9.28314 20.0429 9.2754C20.0399 9.26826 20.0048 9.25754 20 9.25873C16.9757 10.1448 14.4141 11.6858 12.5926 13.7157C11.5893 14.8333 10.8129 16.098 10.2835 17.4753C9.71544 18.952 9.42725 20.574 9.42725 22.2949C9.42725 24.0979 9.80238 25.8592 10.5419 27.5313C11.2618 29.155 12.2955 30.6294 13.615 31.9132C16.3386 34.5605 20.0256 36.1313 23.9991 36.3368C24.008 36.3368 24.0145 36.3314 24.0145 36.3231C24.0157 36.3141 24.0086 36.3076 24.0008 36.307Z" fill="white"/>
<path d="M24.0049 30.2072C26.1312 29.7446 28.7935 28.902 30.9508 27.9755C31.2176 27.8618 31.4152 27.6855 31.5754 27.4593V25.8176L24.0049 24.014V30.2072Z" fill="#D3E2F5"/>
<path d="M24.0049 30.2072C26.1312 29.7446 28.7935 28.902 30.9508 27.9755C31.2176 27.8618 31.4152 27.6855 31.5754 27.4593V25.8176L24.0049 24.014V30.2072Z" fill="url(#paint66_linear_1_74936)"/>
<path d="M27.9665 18.6691H32.318L32.8814 17.7468H27.8111V20.3221H24.0896V17.7468H23.9306V19.5968H16.3237L16.3797 19.6939C16.3797 19.6939 16.3797 19.707 16.3797 19.7314H23.9306V21.0378H16.394C16.394 21.0813 16.3946 21.1331 16.3952 21.1771H23.9306V22.9117H16.4155C16.4161 22.9545 16.4166 23.0028 16.4166 23.0456H20.0977V25.5275H16.4559C16.4559 25.5305 16.4559 25.5328 16.4559 25.534C16.4667 25.8931 16.5029 26.2087 16.5786 26.4808H20.1018V27.3263H17.1223C17.2616 27.4305 17.4289 27.5127 17.6278 27.574C18.4263 27.8176 19.3522 28.0694 20.2346 28.2951V25.6626L23.9306 25.6585V29.0972C23.9443 29.099 23.9609 29.102 23.9758 29.1043C24.0032 29.1002 24.0616 29.0948 24.0896 29.0912V26.3968H31.5196C31.5291 26.3546 31.5386 26.3028 31.5476 26.2587H24.0896V24.9618H31.6297C31.6309 24.9207 31.6316 24.8516 31.6333 24.8064H24.0896V23.0456H31.6577C31.6577 23.0028 31.6583 22.9462 31.6589 22.9027H27.9665V20.4519H31.6863C31.6911 19.9904 31.6953 19.6939 31.6953 19.6939L31.8244 19.4807H27.9665V18.6691Z" fill="#BCD0ED"/>
<path d="M27.9665 18.6686H32.318L32.8814 17.7462H27.8111V20.3215H24.0896V17.7462H23.9306V19.5963H16.3237L16.3797 19.6933C16.3797 19.6933 16.3797 19.7064 16.3797 19.7308H23.9306V21.0372H16.394C16.394 21.0807 16.3946 21.1325 16.3952 21.1766H23.9306V22.9111H16.4155C16.4161 22.954 16.4166 23.0022 16.4166 23.0451H20.0977V25.5269H16.4559C16.4559 25.5299 16.4559 25.5323 16.4559 25.5335C16.4667 25.8925 16.5029 26.2081 16.5786 26.4802H20.1018V27.3258H17.1223C17.2616 27.43 17.4289 27.5122 17.6278 27.5735C18.4263 27.817 19.3522 28.0689 20.2346 28.2946V25.6621L23.9306 25.6579V29.0966C23.9443 29.0984 23.9609 29.1014 23.9758 29.1038C24.0032 29.0996 24.0616 29.0943 24.0896 29.0907V26.3963H31.5196C31.5291 26.354 31.5386 26.3022 31.5476 26.2581H24.0896V24.9613H31.6297C31.6309 24.9202 31.6316 24.8511 31.6333 24.8058H24.0896V23.0451H31.6577C31.6577 23.0022 31.6583 22.9457 31.6589 22.9022H27.9665V20.4513H31.6863C31.6911 19.9899 31.6953 19.6933 31.6953 19.6933L31.8244 19.4802H27.9665V18.6686Z" fill="url(#paint67_linear_1_74936)"/>
<path d="M31.1789 26.675L24.2592 28.8823L24.0479 29.1407V26.3558H31.5719L31.1789 26.675Z" fill="#606969"/>
<path d="M24.2592 28.8823L31.1789 26.675L31.5719 26.3558L31.56 26.4076C31.4064 27.0537 31.0569 27.4324 30.459 27.6146C28.4714 28.2214 25.6341 28.902 24.0961 29.133L24.0479 29.1407L24.2592 28.8823Z" fill="#E3EBF7"/>
<path d="M16.9185 25.0719L20.1387 23.0045V25.5709H16.4165L16.9185 25.0719Z" fill="#E3EBF7"/>
<path d="M16.9186 25.0719L16.4167 25.5709L16.4155 25.5298C16.4048 25.157 16.3917 24.3216 16.375 23.0468V23.0045H20.1388L16.9186 25.0719Z" fill="#606969"/>
<path d="M23.7248 25.9099L23.9713 25.6169V29.1462L23.9236 29.139C23.0763 29.014 21.7389 28.721 20.2497 28.3405L20.2188 28.3334L23.7248 25.9099Z" fill="#E3EBF7"/>
<path d="M23.7248 25.9099L20.2188 28.3334V25.6169H23.9713L23.7248 25.9099Z" fill="#606969"/>
<path d="M17.1904 27.1304L19.8926 26.6642L20.1439 26.4403V27.3686H17.1226L17.1904 27.1304Z" fill="#E3EBF7"/>
<path d="M19.8924 26.6642L17.1902 27.1304L17.1224 27.3686H17.1075L17.0967 27.3609C16.8282 27.162 16.6448 26.8774 16.5388 26.4927L16.5239 26.4403H20.1437L19.8924 26.6642Z" fill="#606969"/>
<path d="M23.8354 21.2922L16.78 22.626L16.3739 22.9547L16.3733 22.9124L16.353 21.1779V21.1356H23.9712L23.8354 21.2922Z" fill="#606969"/>
<path d="M16.7801 22.626L23.8356 21.2922L23.9714 21.1356V22.9547H16.374L16.7801 22.626Z" fill="#E3EBF7"/>
<path d="M24.3587 20.0683L27.5402 18.0604L27.8528 17.7055V20.3642H24.0479L24.3587 20.0683Z" fill="#E3EBF7"/>
<path d="M27.5402 18.0604L24.3587 20.0683L24.0479 20.3642V17.7055H27.8528L27.5402 18.0604Z" fill="#606969"/>
<path d="M23.7748 19.8742L23.9713 19.6902V21.0806H16.3525L23.7748 19.8742Z" fill="#E3EBF7"/>
<path d="M23.7748 19.8742L16.3526 21.0806L16.3514 21.0383L16.3395 19.7325L16.3389 19.6902H23.9713L23.7748 19.8742Z" fill="#606969"/>
<path d="M16.4199 19.4371L23.7957 17.8997L23.9713 17.7055V19.639H16.3008L16.4199 19.4371Z" fill="#E3EBF7"/>
<path d="M23.7953 17.8997L16.4195 19.4371L16.3004 19.639L16.2885 19.6193L15.1577 17.7681L15.1196 17.7055H23.971L23.7953 17.8997Z" fill="#606969"/>
<path d="M31.2562 20.9068L28.2945 22.6372L27.9253 22.945V20.4108H31.7284L31.2562 20.9068Z" fill="#606969"/>
<path d="M28.2945 22.6372L31.2562 20.9068L31.7284 20.4108V20.4525L31.701 22.9039L31.6998 22.945H27.9253L28.2945 22.6372Z" fill="#E3EBF7"/>
<path d="M31.9261 18.8601L28.1533 19.3532L27.9253 19.5229V18.6285H32.3411L31.9261 18.8601Z" fill="#606969"/>
<path d="M28.1533 19.3532L31.9261 18.8601L32.3411 18.6285L32.3018 18.6916L31.8076 19.5026L31.7957 19.5229H27.9253L28.1533 19.3532Z" fill="#E3EBF7"/>
<path d="M31.2778 25.2053L24.2646 26.1032L24.0479 26.3003V24.9218H31.6732L31.2778 25.2053Z" fill="#606969"/>
<path d="M24.2646 26.1032L31.2778 25.2053L31.6732 24.9218V24.9635L31.6589 25.5363C31.6511 25.8168 31.6285 26.0556 31.5874 26.2664L31.5821 26.3003H24.0479L24.2646 26.1032Z" fill="#E3EBF7"/>
<path d="M31.4618 23.2308L24.3039 24.6116L24.0479 24.848V23.0045H31.6994L31.4618 23.2308Z" fill="#606969"/>
<path d="M24.3039 24.6116L31.4618 23.2308L31.6994 23.0045L31.6982 23.0468C31.6892 23.7768 31.6815 24.3687 31.675 24.8075L31.6738 24.848H24.0479L24.3039 24.6116Z" fill="#E3EBF7"/>
<path d="M27.6503 21.4185L24.3146 21.955L24.0479 22.1902V21.2488H27.8528L27.6503 21.4185Z" fill="#606969"/>
<path d="M24.3146 21.955L27.6503 21.4185L27.8528 21.2488V22.1902H24.0479L24.3146 21.955Z" fill="#E3EBF7"/>
<path d="M20.3718 24.6166L23.8022 24.0289L23.9713 23.8336V24.7738H20.2158L20.3718 24.6166Z" fill="#E3EBF7"/>
<path d="M23.8022 24.0289L20.3718 24.6166L20.2158 24.7738V23.8336H23.9713L23.8022 24.0289Z" fill="#606969"/>
<path d="M24.0894 29.09C25.5226 28.8744 28.3611 28.2087 30.4464 27.5728C31.065 27.3834 31.3783 26.9934 31.5194 26.3956H24.0894V29.09Z" fill="#D4B066"/>
<path d="M24.0894 29.0881C25.5226 28.8725 28.3611 28.2068 30.4464 27.5709C31.065 27.3815 31.3783 26.9915 31.5194 26.3937H24.0894V29.0881Z" fill="url(#paint68_linear_1_74936)"/>
<path d="M20.0981 23.0464H16.417C16.4301 24.0992 16.445 25.0977 16.4563 25.5282H20.0981V23.0464Z" fill="#D91121"/>
<path d="M20.0981 23.0468H16.417C16.4301 24.0996 16.445 25.0981 16.4563 25.5287H20.0981V23.0468Z" fill="url(#paint69_linear_1_74936)"/>
<path d="M20.2598 25.6589V28.3003C21.7025 28.6683 23.0513 28.9678 23.9307 29.0976V25.6589H20.2598Z" fill="#D91121"/>
<path d="M20.2598 25.6589V28.3003C21.7025 28.6683 23.0513 28.9678 23.9307 29.0976V25.6589H20.2598Z" fill="url(#paint70_linear_1_74936)"/>
<path d="M20.1019 26.4799H16.5786C16.6786 26.8413 16.8484 27.1247 17.1223 27.3254H20.1019V26.4799Z" fill="#003971"/>
<path d="M20.1019 26.4785H16.5786C16.6786 26.84 16.8484 27.1234 17.1223 27.3241H20.1019V26.4785Z" fill="url(#paint71_linear_1_74936)"/>
<path d="M23.9309 21.1758H16.3955C16.4009 21.704 16.408 22.3066 16.4158 22.9103H23.9309V21.1758Z" fill="#D4B066"/>
<path d="M23.9309 21.1739H16.3955C16.4009 21.7021 16.408 22.3047 16.4158 22.9085H23.9309V21.1739Z" fill="url(#paint72_linear_1_74936)"/>
<path d="M24.0898 20.3224H27.8114V17.7473H24.0898V20.3224Z" fill="#D91121"/>
<path d="M27.8109 20.3196V17.7443H24.0894V20.3196H27.8109Z" fill="url(#paint73_linear_1_74936)"/>
<path d="M23.9304 17.747H15.1934L16.3235 19.597H23.9304V17.747Z" fill="#D4B066"/>
<path d="M23.9304 17.7467H15.1934L16.3235 19.5967H23.9304V17.7467Z" fill="url(#paint74_linear_1_74936)"/>
<path d="M27.9663 22.9043H31.6587C31.67 21.9974 31.6802 21.0798 31.6861 20.4534H27.9663V22.9043Z" fill="#D91121"/>
<path d="M27.9663 22.9053H31.6587C31.67 21.9984 31.6802 21.0808 31.6861 20.4544H27.9663V22.9053Z" fill="url(#paint75_linear_1_74936)"/>
<path d="M27.9663 18.6701V19.4817H31.7725L32.2661 18.6701H27.9663Z" fill="#003971"/>
<path d="M27.9663 18.6707V19.4823H31.7725L32.2661 18.6707H27.9663Z" fill="url(#paint76_linear_1_74936)"/>
<path d="M24.0898 26.2594H31.5478C31.5889 26.0415 31.6098 25.8009 31.6181 25.5348C31.6217 25.3924 31.6264 25.2132 31.63 24.9625H24.0898V26.2594Z" fill="#141314"/>
<path d="M24.0894 24.8057H31.6331C31.6409 24.3186 31.6497 23.6922 31.6575 23.0449H24.0894V24.8057Z" fill="#D4B066"/>
<path d="M24.0894 24.8042H31.6331C31.6409 24.3171 31.6497 23.6907 31.6575 23.0435H24.0894V24.8042Z" fill="url(#paint77_linear_1_74936)"/>
<path d="M20.2578 24.7322H23.9306V23.8743H20.2578V24.7322Z" fill="#003971"/>
<path d="M23.931 24.729H20.2583V23.8709H23.931V24.729Z" fill="url(#paint78_linear_1_74936)"/>
<path d="M24.0898 22.1489H27.8114V21.2895H24.0898V22.1489Z" fill="#003971"/>
<path d="M27.8109 22.1495H24.0894V21.2903H27.8109V22.1495Z" fill="url(#paint79_linear_1_74936)"/>
<path d="M23.9308 19.7319H16.3799C16.3823 19.8688 16.387 20.3738 16.3942 21.0383H23.9308V19.7319Z" fill="#141314"/>
<path d="M31.467 26.4399C31.3133 27.0318 30.993 27.3646 30.4344 27.5355C28.4707 28.1339 25.6774 28.8068 24.1328 29.0438V26.4399H31.467Z" fill="#D4B066"/>
<path d="M31.467 26.4403C31.3133 27.0322 30.993 27.365 30.4344 27.5359C28.4707 28.1343 25.6774 28.8072 24.1328 29.0442V26.4403H31.467Z" fill="url(#paint80_linear_1_74936)"/>
<path d="M32.2665 18.6697H27.9668V19.4813H28.0269V18.7293H32.2665V18.6697Z" fill="#233B4D"/>
<path d="M27.8114 21.2895H24.0898V22.1487H24.1494V21.3484H27.8114V21.2895Z" fill="#233B4D"/>
<path d="M27.8114 17.7473H24.0898V20.3226H24.1494V17.8068H27.8114V17.7473Z" fill="#96423A"/>
<path d="M23.9309 17.7473H15.1938L16.324 19.5973H16.3919L15.3046 17.8068H23.9309V17.7473Z" fill="#716543"/>
<path d="M23.9306 21.1779H16.3916L16.4112 22.9124H16.4744L16.4547 21.2368H23.9306V21.1779Z" fill="#716543"/>
<path d="M20.0978 23.0462H16.4126L16.4519 25.528H16.5204L16.4799 23.1057H20.0978V23.0462Z" fill="#95473F"/>
<path d="M31.6866 20.4525H27.9668V22.9022H28.0269V20.5121H31.6866V20.4525Z" fill="#96423A"/>
<path d="M23.9305 23.8743H20.2578V24.7323H20.3168V23.9338H23.9305V23.8743Z" fill="#264865"/>
<path d="M23.9337 25.6592H20.2598V28.3006L20.3193 28.3179V25.7181H23.9337V25.6592Z" fill="#95473F"/>
<path d="M31.5145 26.3976H24.0898V29.0967H24.1494V26.4571H31.5145V26.3976Z" fill="#716543"/>
<path d="M31.658 23.0462H24.0898V24.8069H24.1494V23.1057H31.658V23.0462Z" fill="#716543"/>
<path d="M16.5786 26.4815C16.5828 26.4958 16.5875 26.5095 16.5917 26.5244L16.5965 26.541C16.6906 26.8465 16.9025 27.1353 17.1354 27.327H17.2294C16.9984 27.155 16.7614 26.8632 16.6584 26.541H20.1019V26.4815H16.5786Z" fill="#264865"/>
<path d="M32.9316 17.6956C32.6935 18.1547 32.285 18.8532 31.7753 19.6594C31.7586 21.4214 31.7157 24.4046 31.6925 25.5246C31.6675 26.7274 31.315 27.3741 30.5504 27.6218C29.8091 27.8629 25.4689 29.027 24.0112 29.1557L24.0476 29.1086C25.6481 28.927 29.7924 27.8058 30.5326 27.5658C31.2692 27.3264 31.6074 26.6959 31.6336 25.5246C31.6568 24.4016 31.6997 21.4112 31.7145 19.6505L31.7157 19.6428L31.7193 19.635L32.8578 17.7677L32.9316 17.6956Z" fill="#E3EBF7"/>
<path d="M32.9314 17.6956H15.0972L15.1263 17.7415L16.3238 19.6898C16.3399 21.4154 16.3923 24.3599 16.4179 25.5544C16.4429 26.728 16.7823 27.336 17.5576 27.5872C18.3757 27.8534 22.4539 28.9788 24.011 29.1557L24.0146 29.1562L24.0182 29.1557C25.6205 28.9746 29.7762 27.8498 30.5175 27.6087C31.2815 27.361 31.634 26.7137 31.659 25.5133C31.6834 24.3909 31.7263 21.4083 31.7411 19.6469L32.9029 17.7409L32.9314 17.6956ZM31.6816 19.6297V19.638C31.6673 21.3981 31.6238 24.3885 31.6006 25.5115C31.575 26.6833 31.2356 27.3133 30.499 27.5521C29.7589 27.7927 25.6152 28.9145 24.0146 29.0955C22.4593 28.9193 18.3936 27.7968 17.5754 27.5313C16.8198 27.2853 16.5006 26.7125 16.4768 25.5532C16.4518 24.3569 16.3982 21.4053 16.3833 19.6809V19.6719L16.3786 19.6648L15.2043 17.7552H32.8237L31.6864 19.6225L31.6816 19.6297Z" fill="#606E7B"/>
<path d="M37.1341 34.3718C37.249 34.4867 37.3062 34.6261 37.3062 34.7898C37.3062 34.9542 37.249 35.0947 37.1341 35.2108C37.0192 35.3269 36.8799 35.3847 36.7161 35.3847C36.5518 35.3847 36.4124 35.3269 36.2981 35.2108C36.1838 35.0947 36.1266 34.9542 36.1266 34.7898C36.1266 34.6261 36.1844 34.4867 36.2987 34.3718C36.4142 34.2557 36.5536 34.1973 36.7161 34.1973C36.8793 34.1973 37.0186 34.2557 37.1341 34.3718ZM37.202 34.3051C37.0686 34.1717 36.9061 34.105 36.7161 34.105C36.5268 34.105 36.3654 34.1717 36.2326 34.3051C36.0986 34.4391 36.0308 34.6005 36.0308 34.7898C36.0308 34.9804 36.0975 35.1429 36.2308 35.2775C36.3642 35.4121 36.5262 35.4787 36.7161 35.4787C36.9061 35.4787 37.0686 35.4121 37.202 35.2775C37.3366 35.1423 37.4033 34.9798 37.4033 34.7898C37.4033 34.5999 37.3366 34.4385 37.202 34.3051ZM36.8179 34.7577C36.79 34.769 36.7477 34.7743 36.6917 34.7743H36.572V34.5016H36.6852C36.759 34.5016 36.812 34.5105 36.8453 34.5296C36.8787 34.5481 36.8954 34.585 36.8954 34.6398C36.8954 34.6975 36.8697 34.7374 36.8179 34.7577ZM36.4392 35.1649H36.572V34.8672H36.6762C36.7471 34.8672 36.7965 34.8756 36.8245 34.8916C36.8715 34.919 36.8954 34.9774 36.8954 35.0649V35.1244L36.8983 35.1489C36.8989 35.1524 36.8995 35.1542 36.9007 35.1572C36.9007 35.1596 36.9013 35.1626 36.9025 35.1649H37.0264L37.0216 35.1554C37.0186 35.1489 37.0168 35.1364 37.015 35.1161C37.0138 35.0959 37.0133 35.0774 37.0133 35.0601V35.0048C37.0133 34.9667 36.9996 34.928 36.9722 34.8881C36.9454 34.8476 36.9013 34.8231 36.8418 34.8142C36.8888 34.8065 36.9251 34.7946 36.9519 34.7773C37.0007 34.7457 37.0258 34.6957 37.0258 34.6284C37.0258 34.5338 36.9865 34.4706 36.9085 34.4379C36.865 34.42 36.7965 34.4105 36.7024 34.4105H36.4392V35.1649Z" fill="black"/>
<defs>
<linearGradient id="paint0_linear_1_74936" x1="35.9269" y1="17.0763" x2="35.8862" y2="17.4449" gradientUnits="userSpaceOnUse">
<stop stop-color="#A1C1E4"/>
<stop offset="1" stop-color="#CCDCF3"/>
</linearGradient>
<linearGradient id="paint1_linear_1_74936" x1="29.8258" y1="33.0631" x2="22.3266" y2="31.2541" gradientUnits="userSpaceOnUse">
<stop stop-color="#D3E2F5"/>
<stop offset="1" stop-color="#9EBDE2"/>
</linearGradient>
<linearGradient id="paint2_linear_1_74936" x1="35.0631" y1="15.3338" x2="35.3845" y2="15.5154" gradientUnits="userSpaceOnUse">
<stop stop-color="#415050"/>
<stop offset="1" stop-color="#576162"/>
</linearGradient>
<linearGradient id="paint3_linear_1_74936" x1="27.0257" y1="16.0266" x2="25.3192" y2="30.4934" gradientUnits="userSpaceOnUse">
<stop stop-color="#F6F8FD"/>
<stop offset="1" stop-color="#4B616C"/>
</linearGradient>
<linearGradient id="paint4_linear_1_74936" x1="25.0861" y1="14.2355" x2="25.3605" y2="15.1335" gradientUnits="userSpaceOnUse">
<stop stop-color="#BECDE1"/>
<stop offset="1" stop-color="#D7E6F7"/>
</linearGradient>
<linearGradient id="paint5_linear_1_74936" x1="23.0944" y1="31.369" x2="14.7491" y2="31.369" gradientUnits="userSpaceOnUse">
<stop stop-color="#F4F6FD"/>
<stop offset="1" stop-color="#C9DCF2"/>
</linearGradient>
<linearGradient id="paint6_linear_1_74936" x1="16.3351" y1="21.3733" x2="16.0127" y2="21.5553" gradientUnits="userSpaceOnUse">
<stop stop-color="#415050"/>
<stop offset="1" stop-color="#576162"/>
</linearGradient>
<linearGradient id="paint7_linear_1_74936" x1="44.6892" y1="16.005" x2="37.9896" y2="38.2042" gradientUnits="userSpaceOnUse">
<stop stop-color="#3C535A"/>
<stop offset="1" stop-color="#87A3C1"/>
</linearGradient>
<linearGradient id="paint8_linear_1_74936" x1="26.5897" y1="25.1936" x2="23.1309" y2="10.2661" gradientUnits="userSpaceOnUse">
<stop stop-color="#C6DAF1"/>
<stop offset="1" stop-color="#84A3C2"/>
</linearGradient>
<linearGradient id="paint9_linear_1_74936" x1="40.8607" y1="61.4186" x2="22.5675" y2="37.3683" gradientUnits="userSpaceOnUse">
<stop stop-color="white"/>
<stop offset="1" stop-color="#C6DAF1"/>
</linearGradient>
<linearGradient id="paint10_linear_1_74936" x1="24.4543" y1="6.39168" x2="35.3915" y2="31.4867" gradientUnits="userSpaceOnUse">
<stop stop-color="#7093AE"/>
<stop offset="1" stop-color="#F6F8FD"/>
</linearGradient>
<linearGradient id="paint11_linear_1_74936" x1="25.2867" y1="9.74896" x2="27.1951" y2="34.1865" gradientUnits="userSpaceOnUse">
<stop stop-color="#3C535A"/>
<stop offset="1" stop-color="#8AAACA"/>
</linearGradient>
<linearGradient id="paint12_linear_1_74936" x1="32.7133" y1="8.18097" x2="33.1813" y2="8.6787" gradientUnits="userSpaceOnUse">
<stop stop-color="#232E30"/>
<stop offset="1" stop-color="#7F919D"/>
</linearGradient>
<linearGradient id="paint13_linear_1_74936" x1="30.7836" y1="6.22016" x2="35.3986" y2="8.87425" gradientUnits="userSpaceOnUse">
<stop stop-color="#7093AE"/>
<stop offset="1" stop-color="#F6F8FD"/>
</linearGradient>
<linearGradient id="paint14_linear_1_74936" x1="34.5697" y1="7.85306" x2="37.1267" y2="10.4174" gradientUnits="userSpaceOnUse">
<stop stop-color="#232E30"/>
<stop offset="1" stop-color="#7F919D"/>
</linearGradient>
<linearGradient id="paint15_linear_1_74936" x1="35.912" y1="17.947" x2="33.4953" y2="16.6792" gradientUnits="userSpaceOnUse">
<stop stop-color="#9CB3CF"/>
<stop offset="1" stop-color="#F1F5FC"/>
</linearGradient>
<linearGradient id="paint16_linear_1_74936" x1="32.1557" y1="15.5227" x2="31.7696" y2="14.4236" gradientUnits="userSpaceOnUse">
<stop stop-color="#232E30"/>
<stop offset="1" stop-color="#7F919D"/>
</linearGradient>
<linearGradient id="paint17_linear_1_74936" x1="39.1669" y1="13.434" x2="39.3452" y2="14.3845" gradientUnits="userSpaceOnUse">
<stop stop-color="#9CB3CF"/>
<stop offset="1" stop-color="#F1F5FC"/>
</linearGradient>
<linearGradient id="paint18_linear_1_74936" x1="34.0861" y1="16.3826" x2="34.3834" y2="15.9368" gradientUnits="userSpaceOnUse">
<stop stop-color="#9CB3CF"/>
<stop offset="1" stop-color="#F1F5FC"/>
</linearGradient>
<linearGradient id="paint19_linear_1_74936" x1="39.7303" y1="16.8739" x2="39.8641" y2="17.7655" gradientUnits="userSpaceOnUse">
<stop stop-color="#232E30"/>
<stop offset="1" stop-color="#7F919D"/>
</linearGradient>
<linearGradient id="paint20_linear_1_74936" x1="36.4446" y1="22.8252" x2="36.8345" y2="20.7943" gradientUnits="userSpaceOnUse">
<stop stop-color="#9CB3CF"/>
<stop offset="1" stop-color="#F1F5FC"/>
</linearGradient>
<linearGradient id="paint21_linear_1_74936" x1="39.0418" y1="24.4831" x2="38.5958" y2="24.4682" gradientUnits="userSpaceOnUse">
<stop stop-color="#232E30"/>
<stop offset="1" stop-color="#7F919D"/>
</linearGradient>
<linearGradient id="paint22_linear_1_74936" x1="35.8638" y1="26.3531" x2="35.6188" y2="22.3041" gradientUnits="userSpaceOnUse">
<stop stop-color="#9CB3CF"/>
<stop offset="1" stop-color="#F1F5FC"/>
</linearGradient>
<linearGradient id="paint23_linear_1_74936" x1="39.9773" y1="22.0397" x2="40.2284" y2="26.1778" gradientUnits="userSpaceOnUse">
<stop stop-color="#232E30"/>
<stop offset="1" stop-color="#7F919D"/>
</linearGradient>
<linearGradient id="paint24_linear_1_74936" x1="33.7583" y1="26.1599" x2="35.5413" y2="24.4835" gradientUnits="userSpaceOnUse">
<stop stop-color="#9CB3CF"/>
<stop offset="1" stop-color="#F1F5FC"/>
</linearGradient>
<linearGradient id="paint25_linear_1_74936" x1="39.1851" y1="30.5253" x2="37.5212" y2="30.7184" gradientUnits="userSpaceOnUse">
<stop stop-color="#232E30"/>
<stop offset="1" stop-color="#7F919D"/>
</linearGradient>
<linearGradient id="paint26_linear_1_74936" x1="35.2689" y1="32.1617" x2="34.7787" y2="31.9983" gradientUnits="userSpaceOnUse">
<stop stop-color="#9CB3CF"/>
<stop offset="1" stop-color="#F1F5FC"/>
</linearGradient>
<linearGradient id="paint27_linear_1_74936" x1="35.1153" y1="32.0758" x2="34.759" y2="31.9719" gradientUnits="userSpaceOnUse">
<stop stop-color="#232E30"/>
<stop offset="1" stop-color="#7F919D"/>
</linearGradient>
<linearGradient id="paint28_linear_1_74936" x1="31.5" y1="35.7846" x2="31.0542" y2="35.5319" gradientUnits="userSpaceOnUse">
<stop stop-color="#9CB3CF"/>
<stop offset="1" stop-color="#F1F5FC"/>
</linearGradient>
<linearGradient id="paint29_linear_1_74936" x1="31.5341" y1="35.5573" x2="30.8867" y2="35.3269" gradientUnits="userSpaceOnUse">
<stop stop-color="#232E30"/>
<stop offset="1" stop-color="#7F919D"/>
</linearGradient>
<linearGradient id="paint30_linear_1_74936" x1="34.0801" y1="29.3807" x2="35.4766" y2="29.559" gradientUnits="userSpaceOnUse">
<stop stop-color="#9CB3CF"/>
<stop offset="1" stop-color="#F1F5FC"/>
</linearGradient>
<linearGradient id="paint31_linear_1_74936" x1="26.1393" y1="37.7688" x2="25.8458" y2="37.5073" gradientUnits="userSpaceOnUse">
<stop stop-color="#9CB3CF"/>
<stop offset="1" stop-color="#F1F5FC"/>
</linearGradient>
<linearGradient id="paint32_linear_1_74936" x1="25.6208" y1="37.3377" x2="25.2652" y2="36.9681" gradientUnits="userSpaceOnUse">
<stop stop-color="#232E30"/>
<stop offset="1" stop-color="#7F919D"/>
</linearGradient>
<linearGradient id="paint33_linear_1_74936" x1="28.4943" y1="33.4225" x2="30.7745" y2="33.2812" gradientUnits="userSpaceOnUse">
<stop stop-color="#9CB3CF"/>
<stop offset="1" stop-color="#F1F5FC"/>
</linearGradient>
<linearGradient id="paint34_linear_1_74936" x1="27.3091" y1="35.7194" x2="27.216" y2="35.0079" gradientUnits="userSpaceOnUse">
<stop stop-color="#232E30"/>
<stop offset="1" stop-color="#7F919D"/>
</linearGradient>
<linearGradient id="paint35_linear_1_74936" x1="24.4725" y1="34.0369" x2="26.3695" y2="34.3504" gradientUnits="userSpaceOnUse">
<stop stop-color="#9CB3CF"/>
<stop offset="1" stop-color="#F1F5FC"/>
</linearGradient>
<linearGradient id="paint36_linear_1_74936" x1="22.7274" y1="35.8836" x2="22.774" y2="35.6363" gradientUnits="userSpaceOnUse">
<stop stop-color="#232E30"/>
<stop offset="1" stop-color="#7F919D"/>
</linearGradient>
<linearGradient id="paint37_linear_1_74936" x1="36.4796" y1="34.7081" x2="33.9106" y2="35.5194" gradientUnits="userSpaceOnUse">
<stop stop-color="#232E30"/>
<stop offset="1" stop-color="#7F919D"/>
</linearGradient>
<linearGradient id="paint38_linear_1_74936" x1="34.7009" y1="16.5331" x2="34.4631" y2="15.4188" gradientUnits="userSpaceOnUse">
<stop stop-color="#232E30"/>
<stop offset="1" stop-color="#7F919D"/>
</linearGradient>
<radialGradient id="paint39_radial_1_74936" cx="0" cy="0" r="1" gradientUnits="userSpaceOnUse" gradientTransform="translate(17.2012 8.83467) scale(1.99744 1.99744)">
<stop stop-color="#7F9FBD"/>
<stop offset="1" stop-color="#F1F5FC"/>
</radialGradient>
<linearGradient id="paint40_linear_1_74936" x1="19.5906" y1="12.7938" x2="18.6399" y2="13.2097" gradientUnits="userSpaceOnUse">
<stop stop-color="#232E30"/>
<stop offset="1" stop-color="#7F919D"/>
</linearGradient>
<linearGradient id="paint41_linear_1_74936" x1="18.3472" y1="12.9054" x2="15.743" y2="15.3581" gradientUnits="userSpaceOnUse">
<stop stop-color="#232E30"/>
<stop offset="1" stop-color="#7F919D"/>
</linearGradient>
<linearGradient id="paint42_linear_1_74936" x1="12.8035" y1="14.5517" x2="12.5135" y2="14.336" gradientUnits="userSpaceOnUse">
<stop stop-color="#587089"/>
<stop offset="1" stop-color="#E0ECF9"/>
</linearGradient>
<radialGradient id="paint43_radial_1_74936" cx="0" cy="0" r="1" gradientUnits="userSpaceOnUse" gradientTransform="translate(12.209 12.6157) scale(2.08423 2.08427)">
<stop stop-color="#7F9FBD"/>
<stop offset="1" stop-color="#F1F5FC"/>
</radialGradient>
<linearGradient id="paint44_linear_1_74936" x1="10.3275" y1="15.805" x2="10.1049" y2="15.4933" gradientUnits="userSpaceOnUse">
<stop stop-color="#232E30"/>
<stop offset="1" stop-color="#7F919D"/>
</linearGradient>
<linearGradient id="paint45_linear_1_74936" x1="11.7812" y1="11.8482" x2="12.1804" y2="11.9978" gradientUnits="userSpaceOnUse">
<stop stop-color="#9CB3CF"/>
<stop offset="1" stop-color="#F1F5FC"/>
</linearGradient>
<linearGradient id="paint46_linear_1_74936" x1="12.0079" y1="11.9393" x2="12.3842" y2="12.0779" gradientUnits="userSpaceOnUse">
<stop stop-color="#232E30"/>
<stop offset="1" stop-color="#7F919D"/>
</linearGradient>
<radialGradient id="paint47_radial_1_74936" cx="0" cy="0" r="1" gradientUnits="userSpaceOnUse" gradientTransform="translate(9.41807 16.4403) scale(2.30299 2.30303)">
<stop stop-color="#7F9FBD"/>
<stop offset="1" stop-color="#F1F5FC"/>
</radialGradient>
<linearGradient id="paint48_linear_1_74936" x1="12.1069" y1="20.9956" x2="11.2154" y2="21.2927" gradientUnits="userSpaceOnUse">
<stop stop-color="#232E30"/>
<stop offset="1" stop-color="#7F919D"/>
</linearGradient>
<linearGradient id="paint49_linear_1_74936" x1="8.68829" y1="17.7693" x2="9.12374" y2="17.7396" gradientUnits="userSpaceOnUse">
<stop stop-color="#232E30"/>
<stop offset="1" stop-color="#7F919D"/>
</linearGradient>
<radialGradient id="paint50_radial_1_74936" cx="0" cy="0" r="1" gradientUnits="userSpaceOnUse" gradientTransform="translate(8.98951 24.1111) scale(2.05244 2.05248)">
<stop stop-color="#7F9FBD"/>
<stop offset="1" stop-color="#F1F5FC"/>
</radialGradient>
<linearGradient id="paint51_linear_1_74936" x1="10.4244" y1="27.5617" x2="9.94909" y2="27.5815" gradientUnits="userSpaceOnUse">
<stop stop-color="#232E30"/>
<stop offset="1" stop-color="#7F919D"/>
</linearGradient>
<linearGradient id="paint52_linear_1_74936" x1="12.5101" y1="30.4526" x2="12.2724" y2="30.6606" gradientUnits="userSpaceOnUse">
<stop stop-color="#9CB3CF"/>
<stop offset="1" stop-color="#F1F5FC"/>
</linearGradient>
<linearGradient id="paint53_linear_1_74936" x1="12.5104" y1="32.0467" x2="12.0746" y2="32.126" gradientUnits="userSpaceOnUse">
<stop stop-color="#232E30"/>
<stop offset="1" stop-color="#7F919D"/>
</linearGradient>
<radialGradient id="paint54_radial_1_74936" cx="0" cy="0" r="1" gradientUnits="userSpaceOnUse" gradientTransform="translate(10.4219 29.2109) scale(2.16793 2.16802)">
<stop stop-color="#7F9FBD"/>
<stop offset="1" stop-color="#F1F5FC"/>
</radialGradient>
<linearGradient id="paint55_linear_1_74936" x1="17.3457" y1="35.3565" x2="16.9297" y2="35.6537" gradientUnits="userSpaceOnUse">
<stop stop-color="#232E30"/>
<stop offset="1" stop-color="#7F919D"/>
</linearGradient>
<radialGradient id="paint56_radial_1_74936" cx="0" cy="0" r="1" gradientUnits="userSpaceOnUse" gradientTransform="translate(13.2135 33.517) scale(2.89365 2.89363)">
<stop stop-color="#7F9FBD"/>
<stop offset="1" stop-color="#F1F5FC"/>
</radialGradient>
<linearGradient id="paint57_linear_1_74936" x1="16.111" y1="29.9448" x2="16.5269" y2="31.6976" gradientUnits="userSpaceOnUse">
<stop stop-color="#9CB3CF"/>
<stop offset="1" stop-color="#F1F5FC"/>
</linearGradient>
<linearGradient id="paint58_linear_1_74936" x1="9.65307" y1="30.8922" x2="9.871" y2="30.3177" gradientUnits="userSpaceOnUse">
<stop stop-color="#232E30"/>
<stop offset="1" stop-color="#7F919D"/>
</linearGradient>
<linearGradient id="paint59_linear_1_74936" x1="21.0574" y1="31.2581" x2="23.3711" y2="32.6339" gradientUnits="userSpaceOnUse">
<stop stop-color="#232E30"/>
<stop offset="1" stop-color="#7F919D"/>
</linearGradient>
<radialGradient id="paint60_radial_1_74936" cx="0" cy="0" r="1" gradientUnits="userSpaceOnUse" gradientTransform="translate(19.1281 35.251) scale(1.20932 1.20931)">
<stop stop-color="#7F9FBD"/>
<stop offset="1" stop-color="#F1F5FC"/>
</radialGradient>
<linearGradient id="paint61_linear_1_74936" x1="20.7034" y1="34.7166" x2="20.644" y2="35.7417" gradientUnits="userSpaceOnUse">
<stop stop-color="#9CB3CF"/>
<stop offset="1" stop-color="#F1F5FC"/>
</linearGradient>
<linearGradient id="paint62_linear_1_74936" x1="13.812" y1="35.0488" x2="13.8565" y2="34.4104" gradientUnits="userSpaceOnUse">
<stop stop-color="#232E30"/>
<stop offset="1" stop-color="#7F919D"/>
</linearGradient>
<linearGradient id="paint63_linear_1_74936" x1="25.2056" y1="36.1345" x2="25.2502" y2="36.6691" gradientUnits="userSpaceOnUse">
<stop stop-color="#9CB3CF"/>
<stop offset="1" stop-color="#F1F5FC"/>
</linearGradient>
<linearGradient id="paint64_linear_1_74936" x1="17.858" y1="37.0546" x2="17.7838" y2="36.3121" gradientUnits="userSpaceOnUse">
<stop stop-color="#232E30"/>
<stop offset="1" stop-color="#7F919D"/>
</linearGradient>
<linearGradient id="paint65_linear_1_74936" x1="7.57952" y1="24.5921" x2="7.91629" y2="24.3346" gradientUnits="userSpaceOnUse">
<stop stop-color="#232E30"/>
<stop offset="1" stop-color="#7F919D"/>
</linearGradient>
<linearGradient id="paint66_linear_1_74936" x1="29.8207" y1="33.0886" x2="22.322" y2="31.2796" gradientUnits="userSpaceOnUse">
<stop stop-color="#D3E2F5"/>
<stop offset="1" stop-color="#748A9B"/>
</linearGradient>
<linearGradient id="paint67_linear_1_74936" x1="36.959" y1="28.9053" x2="22.386" y2="35.8642" gradientUnits="userSpaceOnUse">
<stop stop-color="#BCD0ED"/>
<stop offset="1" stop-color="#C7D9EF"/>
</linearGradient>
<linearGradient id="paint68_linear_1_74936" x1="27.8535" y1="25.2027" x2="36.261" y2="25.2027" gradientUnits="userSpaceOnUse">
<stop stop-color="#D4B066"/>
<stop offset="1" stop-color="#E7CC8F"/>
</linearGradient>
<linearGradient id="paint69_linear_1_74936" x1="16.2277" y1="21.8559" x2="23.6971" y2="21.8559" gradientUnits="userSpaceOnUse">
<stop stop-color="#D91121"/>
<stop offset="1" stop-color="#DC7866"/>
</linearGradient>
<linearGradient id="paint70_linear_1_74936" x1="20.2598" y1="24.4678" x2="23.8096" y2="24.4678" gradientUnits="userSpaceOnUse">
<stop stop-color="#D91121"/>
<stop offset="1" stop-color="#DC7866"/>
</linearGradient>
<linearGradient id="paint71_linear_1_74936" x1="16.189" y1="25.2879" x2="23.6501" y2="25.2879" gradientUnits="userSpaceOnUse">
<stop stop-color="#003971"/>
<stop offset="1" stop-color="#5687C0"/>
</linearGradient>
<linearGradient id="paint72_linear_1_74936" x1="16.1663" y1="19.9829" x2="23.7017" y2="19.9829" gradientUnits="userSpaceOnUse">
<stop stop-color="#D4B066"/>
<stop offset="1" stop-color="#E7CC8F"/>
</linearGradient>
<linearGradient id="paint73_linear_1_74936" x1="26.2373" y1="16.5534" x2="41.6687" y2="16.5534" gradientUnits="userSpaceOnUse">
<stop stop-color="#D91121"/>
<stop offset="1" stop-color="#DC7866"/>
</linearGradient>
<linearGradient id="paint74_linear_1_74936" x1="14.9653" y1="16.5558" x2="23.7023" y2="16.5558" gradientUnits="userSpaceOnUse">
<stop stop-color="#D4B066"/>
<stop offset="1" stop-color="#E7CC8F"/>
</linearGradient>
<linearGradient id="paint75_linear_1_74936" x1="26.2369" y1="19.2635" x2="41.6639" y2="19.2635" gradientUnits="userSpaceOnUse">
<stop stop-color="#D91121"/>
<stop offset="1" stop-color="#DC7866"/>
</linearGradient>
<linearGradient id="paint76_linear_1_74936" x1="26.7452" y1="17.48" x2="37.9243" y2="17.48" gradientUnits="userSpaceOnUse">
<stop stop-color="#003971"/>
<stop offset="1" stop-color="#5687C0"/>
</linearGradient>
<linearGradient id="paint77_linear_1_74936" x1="27.8538" y1="21.8525" x2="36.2616" y2="21.8525" gradientUnits="userSpaceOnUse">
<stop stop-color="#D4B066"/>
<stop offset="1" stop-color="#E7CC8F"/>
</linearGradient>
<linearGradient id="paint78_linear_1_74936" x1="16.19" y1="22.6798" x2="23.6506" y2="22.6798" gradientUnits="userSpaceOnUse">
<stop stop-color="#003971"/>
<stop offset="1" stop-color="#5687C0"/>
</linearGradient>
<linearGradient id="paint79_linear_1_74936" x1="26.7455" y1="20.0992" x2="37.9263" y2="20.0992" gradientUnits="userSpaceOnUse">
<stop stop-color="#003971"/>
<stop offset="1" stop-color="#5687C0"/>
</linearGradient>
<linearGradient id="paint80_linear_1_74936" x1="27.8547" y1="25.2492" x2="36.2627" y2="25.2492" gradientUnits="userSpaceOnUse">
<stop stop-color="#D4B066"/>
<stop offset="1" stop-color="#E7CC8F"/>
</linearGradient>
</defs>
</svg>
