<svg width="48" height="48" viewBox="0 0 48 48" fill="none" xmlns="http://www.w3.org/2000/svg">
<g clip-path="url(#clip0_1_75415)">
<path d="M11.2154 19.1197C11.3583 18.7985 11.481 18.5376 12.38 18.5376H17.5699C17.8561 18.5376 18.142 18.3971 18.142 17.996V16.5718C18.142 16.4103 18.3056 16.1894 18.7346 16.1894H29.4823C29.7887 16.1894 30.0342 16.3501 30.0342 16.7314V17.8555C30.0342 18.1564 30.1771 18.4774 30.6266 18.4774H39.2492C39.5555 18.4774 39.9642 18.5574 39.7805 18.9391C39.5964 19.32 36.7973 24.8975 36.6075 25.2701C36.5346 25.4129 36.4779 25.6034 35.9111 25.6034H30.6107C30.3594 25.6034 29.9466 25.6034 29.9466 26.0806V27.408C29.9466 27.5989 29.8012 27.8853 29.3397 27.8853H18.7056C18.3736 27.8853 18.1309 27.7177 18.1309 27.3921V26.2234C18.1309 25.969 17.9931 25.5958 17.6048 25.5958H8.67835C8.39483 25.5958 8.12785 25.3809 8.29788 24.968C8.46791 24.5543 11.2154 19.1197 11.2154 19.1197Z" fill="#C7D6EE"/>
<path d="M8.98047 24.3475L9.22856 24.3482L11.6675 19.5821L11.4193 19.5814L8.98047 24.3475Z" fill="url(#paint0_linear_1_75415)"/>
<path d="M17.626 25.0205H9.2774C8.98614 25.0205 8.88399 24.8899 8.99738 24.6675C9.62955 23.4326 11.7084 19.3714 11.7623 19.2636C11.8255 19.1368 11.9785 18.9818 12.2612 18.9818H17.8635C18.4447 18.9818 18.5437 18.7323 18.5437 18.2816V16.9394C18.5437 16.7589 18.6656 16.6389 18.8801 16.6389H29.141C29.4166 16.6389 29.5386 16.7283 29.5386 16.9089V17.9004C29.5386 18.2912 29.4634 18.9219 30.3502 18.9219H38.8289C39.2097 18.9219 39.3086 19.1741 39.107 19.5733C38.3567 21.0599 36.5104 24.5848 36.453 24.7044C36.3802 24.8564 36.1544 24.9901 35.7937 24.9901H30.2282C29.769 24.9901 29.3105 25.2906 29.3105 25.7415V26.887C29.3105 27.0956 29.1829 27.2435 28.956 27.2435H18.9997C18.6917 27.2435 18.5742 27.0721 18.5742 26.8435V25.8014C18.5742 25.4411 18.3295 25.0205 17.626 25.0205Z" fill="#E9CF98"/>
<path d="M28.7598 24.7517L29.9292 25.9488C29.9292 25.9488 30.0126 25.6863 30.3297 25.6212L29.0202 24.4214C29.0202 24.4214 28.8098 24.5383 28.7598 24.7517Z" fill="white"/>
<path d="M17.6533 25.6044C17.6533 25.6044 18.1211 25.6212 18.1211 26.2279L19.2066 24.653L18.906 24.4396L17.6533 25.6044Z" fill="white"/>
<path d="M29.1909 19.6407L30.424 18.4603C30.424 18.4603 30.2568 18.4402 30.0893 18.1732L28.8667 19.3947L29.1909 19.6407Z" fill="white"/>
<path d="M28.6577 17.2289L29.7969 16.2747C29.7969 16.2747 29.9224 16.3463 29.9746 16.4594L28.7832 17.537L28.6577 17.2289Z" fill="white"/>
<path d="M18.1504 16.6202C18.1504 16.4226 18.3373 16.1894 18.6433 16.1894L19.5075 17.2388C19.5075 17.2388 19.2488 17.2388 19.2082 17.3324C19.1671 17.4262 19.1263 17.627 19.1263 17.627L18.1504 16.6202Z" fill="white"/>
<path d="M17.7769 18.5102C17.7769 18.5102 18.1462 18.4527 18.1462 18.065L19.0029 19.055L18.4569 19.4426L17.7769 18.5102Z" fill="white"/>
<path d="M24.1116 16.1894L24.0723 16.6408H29.009C29.171 16.6408 29.2621 16.6808 29.3232 16.8L29.8698 16.3227C29.8698 16.3227 29.7325 16.1894 29.4823 16.1894H24.1116Z" fill="url(#paint1_linear_1_75415)"/>
<path d="M18.643 16.1894C18.5114 16.1894 18.3594 16.2533 18.2788 16.3524L18.6331 16.7303C18.6331 16.7303 18.7038 16.6408 18.9873 16.6408H24.0726L24.1119 16.1894H18.643Z" fill="url(#paint2_linear_1_75415)"/>
<path d="M18.15 16.6202V17.996C18.15 18.212 18.106 18.2649 18.106 18.2649L18.4968 18.6729C18.4968 18.6729 18.5527 18.532 18.5527 18.4454V17.0823C18.5527 16.9962 18.5606 16.8708 18.5606 16.8708L18.1936 16.4244C18.1936 16.4244 18.15 16.5024 18.15 16.6202Z" fill="url(#paint3_linear_1_75415)"/>
<path d="M29.5467 16.8289C29.5467 16.8289 29.5361 16.9889 29.5361 17.075C29.5361 17.161 29.5467 18.3231 29.5467 18.4094C29.5467 18.4954 29.6743 18.655 29.6743 18.655L30.1421 18.2485C30.1421 18.2485 30.0312 18.212 30.0312 17.996V16.6202C30.0312 16.5024 29.933 16.4244 29.933 16.4244L29.5467 16.8289Z" fill="url(#paint4_linear_1_75415)"/>
<path d="M17.5993 18.5392C17.4527 18.5392 12.4165 18.5449 12.1482 18.5449C11.7588 18.5449 11.5298 18.7136 11.5298 18.7136L11.8501 19.1368C11.8501 19.1368 11.9782 18.9817 12.261 18.9817H17.9438C18.1418 18.9817 18.2905 18.8938 18.2905 18.8938L17.9191 18.4557C17.9191 18.4557 17.7368 18.5392 17.5993 18.5392Z" fill="url(#paint5_linear_1_75415)"/>
<path d="M8.82974 24.7044L8.24902 25.1043C8.24902 25.1043 8.20298 25.2697 8.28975 25.4003C8.37672 25.5305 8.50952 25.5507 8.50952 25.5507L9.26536 25.0205C9.26536 25.0205 8.83759 25.0007 9.01557 24.6895C9.19355 24.3783 9.1839 24.261 9.1839 24.261C9.1839 24.261 8.97622 24.2946 8.82974 24.7044Z" fill="url(#paint6_linear_1_75415)"/>
<path d="M10.4242 20.7877C9.96113 21.7238 8.40574 24.7311 8.35133 24.8385C8.29681 24.9455 8.24219 25.1326 8.24219 25.1326L8.84158 24.7044L11.6502 19.2088C11.6502 19.2088 10.8874 19.851 10.4242 20.7877Z" fill="url(#paint7_linear_1_75415)"/>
<path d="M9.27721 25.0335L8.50684 25.5778C8.50684 25.5778 17.2819 25.5991 17.5035 25.5991C17.7249 25.5991 17.8179 25.6406 17.8179 25.6406L18.2131 25.1995C18.2131 25.1995 17.8356 25.0335 17.6259 25.0335H9.27721Z" fill="url(#paint8_linear_1_75415)"/>
<path d="M18.043 25.8818C18.043 25.8818 18.1238 26.0413 18.1238 26.1686V27.3082C18.1238 27.4712 18.1885 27.6126 18.1885 27.6126L18.5741 27.1665V25.8014C18.5741 25.5835 18.4518 25.4003 18.4518 25.4003L18.043 25.8818Z" fill="url(#paint9_linear_1_75415)"/>
<path d="M29.3091 25.6604V27.0256L29.9141 27.5455C29.9141 27.5455 29.9292 27.4068 29.9292 27.2442V26.1041C29.9292 25.977 29.9666 25.897 29.9666 25.897L29.4376 25.3775C29.4376 25.3775 29.3091 25.4422 29.3091 25.6604Z" fill="url(#paint10_linear_1_75415)"/>
<path d="M28.8566 27.2534H24.0996V27.8875H29.3635C29.5424 27.8875 29.751 27.7706 29.7907 27.7409L29.1942 27.1853C29.1942 27.1853 29.1548 27.2534 28.8566 27.2534Z" fill="url(#paint11_linear_1_75415)"/>
<path d="M18.3701 27.8084C18.3701 27.8084 18.4926 27.8937 18.835 27.8937C19.1771 27.8937 24.0998 27.8875 24.0998 27.8875V27.2534H19.0189C18.927 27.2534 18.8655 27.2366 18.8655 27.2366L18.3701 27.8084Z" fill="url(#paint12_linear_1_75415)"/>
<path d="M19.7363 17.2258C19.4607 17.2258 19.1856 17.3762 19.1856 17.6768V19.149C19.1856 19.4492 19.0019 19.5695 18.7878 19.5695H12.6963C12.4489 19.5695 12.2574 19.6709 12.1474 19.8754C12.0574 20.0434 10.5361 23.038 10.0445 24.0058C9.93791 24.2157 10.031 24.3433 10.3046 24.3433H18.8187C19.1856 24.3433 19.2469 24.674 19.2469 25.0042V26.1483C19.2469 26.359 19.4608 26.5994 19.7056 26.5994H23.9888V17.2258H19.7363Z" fill="url(#paint13_linear_1_75415)"/>
<path d="M29.7104 25.1591L30.2009 25.6543C30.2009 25.6543 30.3233 25.5877 30.8957 25.5877H36.1264C36.2351 25.5877 36.385 25.534 36.385 25.534L33.62 24.9856C33.62 24.9856 30.4188 24.9877 30.269 24.9856C30.2634 24.9854 30.2578 24.9853 30.2521 24.9853C29.9276 24.9853 29.7104 25.1591 29.7104 25.1591Z" fill="url(#paint14_linear_1_75415)"/>
<path d="M29.8945 18.8343C29.8945 18.8343 30.1336 18.9128 30.3289 18.9128H38.5648C38.8154 18.9128 38.9617 18.9311 38.9617 18.9311L39.6272 18.5415C39.6272 18.5415 39.4136 18.4816 39.2001 18.4816H30.6468C30.433 18.4816 30.3439 18.4325 30.3439 18.4325L29.8945 18.8343Z" fill="url(#paint15_linear_1_75415)"/>
<path d="M39.2041 19.1417C39.2041 19.1417 39.2418 19.347 39.1706 19.4865C39.0997 19.6259 36.6104 24.4344 36.498 24.6552C36.3853 24.8759 36.1313 24.9573 36.1313 24.9573L36.415 25.5145C36.415 25.5145 36.5155 25.4395 36.5748 25.3637C36.6339 25.2883 39.6968 19.1668 39.7915 18.9521C39.8859 18.7372 39.803 18.6595 39.803 18.6595L39.2041 19.1417Z" fill="url(#paint16_linear_1_75415)"/>
<path d="M35.8676 24.9988C35.5407 24.9988 33.7017 25.0125 33.7017 25.0125L36.317 25.5341C36.317 25.5341 36.4805 25.4677 36.5623 25.3333C36.6442 25.1995 36.5621 25.1595 36.4669 25.2397C36.3717 25.3204 36.2083 25.1866 36.2897 25.0929C36.3717 24.9988 36.4532 24.7044 36.4532 24.7044C36.4532 24.7044 36.1947 24.9988 35.8676 24.9988Z" fill="url(#paint17_linear_1_75415)"/>
<path d="M11.5371 24.5848C9.82434 24.6971 9.27734 25.0152 9.27734 25.0152H17.4565C18.3866 25.0152 18.2804 25.1401 18.2752 25.1457L18.9411 24.4541C18.9411 24.4541 17.3234 24.4541 16.2956 24.4355C16.1649 24.4331 16.0183 24.432 15.8582 24.432C14.7597 24.432 13.0323 24.487 11.5371 24.5848ZM18.275 25.1459C18.275 25.1459 18.2751 25.1458 18.2752 25.1457L18.275 25.1459Z" fill="url(#paint18_linear_1_75415)"/>
<path d="M30.829 24.4355C30.1013 24.4541 28.9556 24.4541 28.9556 24.4541L29.7192 25.1603C29.7192 25.1603 29.7977 24.9951 30.4715 24.9951C31.1457 24.9951 36.0038 24.9786 36.0038 24.9786C36.0038 24.9786 36.0857 24.7177 34.6552 24.6175C33.5284 24.5384 31.8279 24.4335 31.0059 24.4335C30.9413 24.4335 30.8822 24.4342 30.829 24.4355Z" fill="url(#paint19_linear_1_75415)"/>
<path d="M29.0981 19.6434C29.0981 19.6434 30.2441 19.6434 30.972 19.662C31.6998 19.6806 36.1115 19.4842 37.325 19.3719C38.5382 19.2598 38.9254 18.9418 38.9254 18.9418C38.9254 18.9418 31.2117 18.9822 30.5377 18.9822C29.8642 18.9822 29.9581 18.8511 29.9581 18.8511L29.0981 19.6434Z" fill="url(#paint20_linear_1_75415)"/>
<path d="M18.4927 25.4205C18.4927 25.4205 18.5745 25.681 18.5745 25.8818V26.7849C18.5745 27.0256 18.6563 27.1463 18.6563 27.1463L19.351 26.4637C19.351 26.4637 19.2472 26.2231 19.2472 26.0424V25.0243C19.2472 24.7889 19.1874 24.5974 19.1874 24.5974L18.4927 25.4205Z" fill="url(#paint21_linear_1_75415)"/>
<path d="M28.686 25.0186C28.686 25.254 28.6698 25.884 28.6698 26.0649C28.6698 26.2451 28.6274 26.4637 28.6274 26.4637L29.3221 27.1463C29.3221 27.1463 29.4041 27.0256 29.4041 26.7849V25.8818C29.4041 25.681 29.4859 25.4205 29.4859 25.4205L28.7419 24.5783C28.7419 24.5783 28.686 24.7837 28.686 25.0186Z" fill="url(#paint22_linear_1_75415)"/>
<path d="M18.8809 27.2263L23.9481 27.2663L23.9685 27.2659V26.5994L19.555 26.5838L18.8809 27.2263Z" fill="url(#paint23_linear_1_75415)"/>
<path d="M23.9891 26.5994H23.9688V27.2659L29.179 27.2065L28.3414 26.5837L23.9891 26.5994Z" fill="url(#paint24_linear_1_75415)"/>
<path d="M18.9493 16.637C18.8062 16.637 18.6738 16.7128 18.6738 16.7128L19.3455 17.3618C19.3455 17.3618 19.4116 17.2208 19.8849 17.2208H23.9889V16.637H18.9493Z" fill="url(#paint25_linear_1_75415)"/>
<path d="M23.9888 16.637V17.2208H28.0926C28.5659 17.2208 28.6639 17.4231 28.6639 17.4231L29.3353 16.7744C29.3353 16.7744 29.1716 16.637 29.0285 16.637H23.9888Z" fill="url(#paint26_linear_1_75415)"/>
<path d="M18.5459 17.2041V18.3826C18.5459 18.5224 18.4834 18.6881 18.4834 18.6881L19.1411 19.4213C19.1411 19.4213 19.1856 19.3603 19.1856 19.055C19.1856 18.7494 19.2121 17.5538 19.2121 17.5538L18.5546 16.8293C18.5546 16.8293 18.5459 17.0209 18.5459 17.2041Z" fill="url(#paint27_linear_1_75415)"/>
<path d="M28.6914 17.5678V19.0332C28.6914 19.3387 28.8369 19.4213 28.8369 19.4213L29.6407 18.626C29.6407 18.626 29.5359 18.4596 29.5359 18.3202C29.5359 18.1804 29.5291 17.3283 29.5291 17.1451C29.5291 16.9618 29.5373 16.7924 29.5373 16.7924L28.6914 17.5678Z" fill="url(#paint28_linear_1_75415)"/>
<path d="M18.0022 18.9981H12.363C12.1995 18.9981 11.9337 19.0583 11.8521 19.1387L12.363 19.6606C12.363 19.6606 12.5059 19.5603 12.8533 19.5603H18.7173C18.881 19.5603 19.0442 19.4998 19.0442 19.4998L18.3906 18.8378C18.3906 18.8378 18.227 18.9981 18.0022 18.9981Z" fill="url(#paint29_linear_1_75415)"/>
<path d="M35.5664 24.3654C35.5664 24.3654 35.8822 24.2488 35.9809 24.6172C35.9809 24.6172 36.0597 24.7338 36.2769 24.4232C36.4939 24.1133 38.5466 19.966 38.5263 19.9074C38.5065 19.8494 38.0921 19.7717 38.0921 19.7717L35.5664 24.3654Z" fill="url(#paint30_linear_1_75415)"/>
<path d="M38.1514 19.811C38.2504 19.8689 38.3489 19.9466 38.2108 20.2372C38.0728 20.5274 36.494 23.5513 36.1587 24.1326C35.8232 24.7139 36.1189 24.9466 36.1189 24.9466C36.1189 24.9466 36.3758 24.83 36.4529 24.7044C36.5306 24.5783 38.9411 19.8883 39.107 19.5733C39.273 19.2583 39.1578 19.1323 39.1578 19.1323L38.1514 19.811Z" fill="url(#paint31_linear_1_75415)"/>
<path d="M23.9888 17.2258V26.5994H28.2088C28.4533 26.5994 28.6675 26.5091 28.6675 26.2383V24.8403C28.6675 24.57 28.8508 24.3601 29.0652 24.3601H35.4313C35.6548 24.3601 35.8554 24.2317 35.9718 24.0204C36.492 23.0757 37.9246 20.3361 38.033 20.1153C38.1653 19.8457 38.0834 19.6895 37.7768 19.6895H29.3404C28.9735 19.6895 28.6978 19.4194 28.6978 19.0888V17.5565C28.6978 17.3461 28.5756 17.2258 28.3003 17.2258H23.9888Z" fill="url(#paint32_linear_1_75415)"/>
<path d="M9.2085 24.7543L10.0252 24.2679C10.0252 24.2679 9.93167 24.2279 10.0787 23.9388C10.2259 23.6497 11.6049 20.8882 11.6049 20.8882L11.2972 20.8228L9.2085 24.7543Z" fill="url(#paint33_linear_1_75415)"/>
<path d="M9.1344 24.3966C8.93001 24.758 8.97117 24.8983 8.97117 24.8983L9.46141 24.5772C9.46141 24.5772 11.6476 20.4231 11.8723 19.9413C12.0972 19.4598 11.7621 19.2636 11.7621 19.2636C11.7621 19.2636 9.3388 24.0356 9.1344 24.3966Z" fill="url(#paint34_linear_1_75415)"/>
<path d="M9.46506 25.0323C9.4326 25.0537 9.13381 25.0898 9.07547 25.0323C9.01692 24.9752 8.91923 24.9307 8.9973 24.8667C9.07547 24.8026 10.0364 24.2416 10.0364 24.2416C10.0364 24.2416 9.91977 24.3053 10.9072 24.3053H18.8058C19.0137 24.3053 19.2085 24.4454 19.2346 24.5349C19.2607 24.6244 19.2086 24.6625 19.1437 24.6499C19.079 24.637 18.9098 24.5859 18.8709 24.522C18.8319 24.4583 18.9228 24.4073 18.3511 24.4073C17.7795 24.4073 13.4145 24.4712 12.4273 24.5604C11.4399 24.6499 10.1404 24.5859 9.46506 25.0323Z" fill="white"/>
<path d="M38.6402 18.9585C38.6725 18.9376 38.9716 18.9014 39.03 18.9585C39.0883 19.016 39.186 19.0606 39.1079 19.1246C39.03 19.1882 38.0687 19.7496 38.0687 19.7496C38.0687 19.7496 38.1852 19.686 37.1981 19.686H29.2992C29.0913 19.686 28.8965 19.5459 28.8707 19.4564C28.8446 19.3668 28.8964 19.3283 28.9611 19.3414C29.0265 19.3543 29.1952 19.4053 29.2344 19.4689C29.2733 19.5329 29.1822 19.5836 29.754 19.5836C30.3258 19.5836 34.6903 19.52 35.6781 19.4309C36.6652 19.3414 37.9648 19.4053 38.6402 18.9585Z" fill="white"/>
<path d="M12.0154 19.6967C12.0154 19.6064 12.0665 19.4358 12.0257 19.3859C11.9848 19.3356 12.1074 19.2754 12.1892 19.3253C12.2708 19.3756 12.4445 19.4156 12.4648 19.4559C12.4853 19.4959 12.4547 19.5962 12.3423 19.6365C12.2299 19.6765 12.1278 19.7668 11.9541 20.1378C11.7804 20.5095 10.7893 22.3957 10.7893 22.3957C10.7893 22.3957 10.9325 22.0949 10.8712 22.0845C10.8099 22.0746 10.667 22.3256 10.667 22.3256L12.0154 19.6967Z" fill="white"/>
<path d="M18.8465 19.5192C18.7619 19.5276 18.7383 19.4366 18.8104 19.4247C18.883 19.4129 18.9789 19.4072 19.0631 19.0819C19.1476 18.7567 19.0874 17.7698 19.0753 17.5926C19.0631 17.4152 18.979 17.2025 19.0995 17.1081C19.2197 17.0133 19.304 17.2144 19.617 17.2144C19.9298 17.2144 20.6401 17.1908 20.6401 17.1908C20.6401 17.1908 19.6411 17.2613 19.4724 17.2853C19.3039 17.3089 19.1595 17.4387 19.1834 17.6753C19.2077 17.9118 19.1476 19.1295 19.0995 19.2594C19.0513 19.3893 18.9669 19.5074 18.8465 19.5192Z" fill="white"/>
<path d="M25.5863 17.198C25.4538 17.2041 28.1241 17.2289 28.2924 17.2289C28.461 17.2289 28.6535 17.2791 28.6898 17.4444C28.7258 17.6102 28.7003 18.1526 28.7003 18.1526C28.7003 18.1526 28.7832 17.4563 28.9036 17.3264C29.0239 17.1961 28.9878 17.0072 28.8314 17.0422C28.6748 17.078 27.4356 17.1162 25.5863 17.198Z" fill="white"/>
<path d="M29.1518 24.445C29.0678 24.4328 28.9717 24.4214 28.9474 24.4922C28.9233 24.5626 29.0554 24.6099 28.9233 24.6804C28.7916 24.7512 28.6934 24.7946 28.6934 24.7357C28.6934 24.6766 28.7615 24.3738 29.0137 24.3738C29.2658 24.3738 35.49 24.362 35.5866 24.362C35.6823 24.362 35.8026 24.3738 35.8504 24.4682C35.8984 24.5626 35.9583 24.7985 35.9946 24.8693C36.0304 24.9402 35.9705 24.9402 35.8623 24.7985C35.7543 24.6568 35.4783 24.5982 35.2624 24.6099C35.0461 24.6217 29.1518 24.445 29.1518 24.445Z" fill="white"/>
<path d="M36.0187 24.6453C36.0187 24.6453 35.9588 24.5158 35.9227 24.4328C35.8867 24.3505 35.7788 24.3155 35.7788 24.3155C35.7788 24.3155 35.8987 24.1734 36.0667 23.8671C36.2349 23.5609 37.0272 22.0983 37.1112 21.8979C37.1112 21.8979 36.931 22.4407 37.2794 21.9923C37.2794 21.9923 36.1508 24.0908 36.0787 24.2325C36.0069 24.3742 36.0187 24.6453 36.0187 24.6453Z" fill="white"/>
<path d="M19.3218 26.2958C19.3218 26.2958 19.3361 26.4653 19.2359 26.5357C19.1354 26.6062 19.0924 26.733 19.1785 26.7895C19.2646 26.8458 19.322 26.8176 19.3794 26.733C19.4368 26.6485 19.6379 26.578 19.767 26.6062C19.767 26.6062 19.3218 26.6622 19.3218 26.2958Z" fill="white"/>
<path d="M25.5088 26.5978C25.5088 26.5978 27.9314 26.7232 28.0749 26.7296C28.218 26.7361 28.3189 26.7407 28.3189 26.7407C28.3189 26.7407 28.0617 26.7007 28.1378 26.6195L25.5088 26.5978Z" fill="white"/>
<path d="M28.38 26.578C28.38 26.578 28.3083 26.6908 28.4231 26.7468C28.5381 26.8032 28.6531 26.8595 28.7248 26.7749C28.7964 26.6904 28.6674 26.4649 28.6816 26.3099C28.6816 26.3099 28.739 26.5498 28.38 26.578Z" fill="white"/>
<path d="M31.335 26.7822H31.2008V27.0054H31.335C31.4033 27.0054 31.4235 26.9788 31.4235 26.9349V26.8523C31.4235 26.7959 31.3968 26.7822 31.335 26.7822ZM31.335 27.0777H31.2008V27.2614H31.1191V26.7086H31.335C31.4571 26.7086 31.5052 26.762 31.5052 26.8523V26.9349C31.5052 26.9948 31.4841 27.0351 31.4235 27.0618L31.575 27.2614H31.4783L31.335 27.0777ZM31.3098 27.4298C31.5979 27.4298 31.7492 27.2358 31.7492 26.9977C31.7492 26.7597 31.5979 26.5628 31.3098 26.5628C31.0214 26.5628 30.8667 26.7597 30.8667 26.9977C30.8667 27.2358 31.0214 27.4298 31.3098 27.4298ZM31.3098 26.4897C31.6291 26.4897 31.824 26.7164 31.824 26.9967C31.824 27.2732 31.6291 27.5032 31.3098 27.5032C30.9886 27.5032 30.792 27.2732 30.792 26.9967C30.792 26.7164 30.9886 26.4897 31.3098 26.4897Z" fill="black"/>
<path d="M14.8879 30.1335H13.9965V29.0193H13.1362V31.7894H13.9965V30.5949H14.8879V31.7894H15.749V29.0193H14.8879V30.1335Z" fill="black"/>
<path d="M30.7135 31.3283V29.0192H29.853V31.7893H31.945V31.3283H30.7135Z" fill="black"/>
<path d="M35.6055 29.0192V29.4812H36.3885V31.7893H37.2486V29.4812H38.0323V29.0192H35.6055Z" fill="black"/>
<path d="M10.0322 29.5959C10.0322 29.2497 10.2452 29.0191 10.5645 29.0191H12.2901V29.4806H11.053C10.9568 29.4806 10.8936 29.5506 10.8936 29.654V31.1543C10.8936 31.2585 10.9568 31.3282 11.053 31.3282H12.2901V31.7892H10.5645C10.2452 31.7892 10.0322 31.5581 10.0322 31.2123V29.5959Z" fill="black"/>
<path d="M24.9994 30.6656L25.7433 31.7894H24.8285L24.17 30.6467V30.2856H24.5254C24.6213 30.2856 24.685 30.2155 24.685 30.1122V29.6542C24.685 29.5508 24.6213 29.4812 24.5254 29.4812H23.9235V31.7894H23.0625V29.0193H25.0135C25.3339 29.0193 25.5457 29.2498 25.5457 29.596L25.5466 30.156C25.5466 30.461 25.3591 30.6656 25.0765 30.6656H24.9994Z" fill="black"/>
<path d="M27.9824 31.3283C28.0776 31.3283 28.1418 31.2587 28.1418 31.1549V29.6541C28.1418 29.5509 28.0776 29.4808 27.9824 29.4808H27.3822C27.2865 29.4808 27.2223 29.5509 27.2223 29.6541V31.1549C27.2223 31.2587 27.2865 31.3283 27.3822 31.3283H27.9824ZM26.3618 29.596C26.3618 29.2498 26.574 29.0192 26.8936 29.0192H28.4704C28.7896 29.0192 29.003 29.2498 29.003 29.596V31.2125C29.003 31.5583 28.7896 31.7893 28.4704 31.7893H26.8936C26.574 31.7893 26.3618 31.5583 26.3618 31.2125V29.596Z" fill="black"/>
<path d="M19.5781 29.0192H20.5011L21.0518 31.1608C21.056 31.1802 21.0701 31.1916 21.09 31.1916C21.1096 31.1916 21.1249 31.1802 21.1285 31.1608L21.6639 29.0192H22.3863L21.719 31.3964C21.6383 31.6671 21.4923 31.7893 21.186 31.7893H20.7565C20.5595 31.7893 20.3988 31.6895 20.3022 31.3944L19.5781 29.0192Z" fill="black"/>
<path d="M17.4794 31.2409C17.4794 31.294 17.5112 31.3278 17.5595 31.3278H18.9739V31.7894H17.1506C16.8313 31.7894 16.6187 31.5583 16.6187 31.213V29.596C16.6187 29.2498 16.8313 29.0193 17.1506 29.0193H18.9739V29.4812H17.5595C17.5112 29.4812 17.4794 29.5156 17.4794 29.5678V30.1331H18.8115V30.5951H17.4794V31.2409Z" fill="black"/>
<path d="M33.4053 31.2409C33.4053 31.294 33.4369 31.3278 33.4844 31.3278H34.8994V31.7894H33.076C32.7569 31.7894 32.543 31.5583 32.543 31.213V29.596C32.543 29.2498 32.7569 29.0193 33.076 29.0193H34.8994V29.4812H33.4844C33.4369 29.4812 33.4053 29.5156 33.4053 29.5678V30.1331H34.7366V30.5951H33.4053V31.2409Z" fill="black"/>
</g>
<defs>
<linearGradient id="paint0_linear_1_75415" x1="11.5018" y1="19.6629" x2="11.4893" y2="24.3738" gradientUnits="userSpaceOnUse">
<stop stop-color="#C7D6EE"/>
<stop offset="0.185394" stop-color="#91AFC8"/>
<stop offset="1" stop-color="#002334"/>
</linearGradient>
<linearGradient id="paint1_linear_1_75415" x1="25.3925" y1="14.9313" x2="28.2865" y2="17.8778" gradientUnits="userSpaceOnUse">
<stop stop-color="#E1E8F5"/>
<stop offset="0.89888" stop-color="#92A5C1"/>
<stop offset="0.955063" stop-color="#476886"/>
<stop offset="1" stop-color="#E1E8F5"/>
</linearGradient>
<linearGradient id="paint2_linear_1_75415" x1="19.7847" y1="17.8614" x2="22.7452" y2="14.8471" gradientUnits="userSpaceOnUse">
<stop stop-color="#E1E8F5"/>
<stop offset="0.0393219" stop-color="#476886"/>
<stop offset="0.0898895" stop-color="#92A5C1"/>
<stop offset="1" stop-color="#E1E8F5"/>
</linearGradient>
<linearGradient id="paint3_linear_1_75415" x1="17.8535" y1="17.9991" x2="18.8186" y2="17.0827" gradientUnits="userSpaceOnUse">
<stop stop-color="#E1E8F5"/>
<stop offset="0.157303" stop-color="#C7D6EE"/>
<stop offset="1" stop-color="#E1E8F5"/>
</linearGradient>
<linearGradient id="paint4_linear_1_75415" x1="30.3448" y1="18.0351" x2="29.3229" y2="17.0648" gradientUnits="userSpaceOnUse">
<stop stop-color="#E1E8F5"/>
<stop offset="0.157303" stop-color="#C7D6EE"/>
<stop offset="1" stop-color="#E1E8F5"/>
</linearGradient>
<linearGradient id="paint5_linear_1_75415" x1="13.2105" y1="20.473" x2="16.531" y2="17.0923" gradientUnits="userSpaceOnUse">
<stop stop-color="#476886"/>
<stop offset="0.129211" stop-color="#92A5C1"/>
<stop offset="1" stop-color="#E1E8F5"/>
</linearGradient>
<linearGradient id="paint6_linear_1_75415" x1="8.97425" y1="25.1638" x2="8.58751" y2="24.6015" gradientUnits="userSpaceOnUse">
<stop stop-color="#002334"/>
<stop offset="0.106735" stop-color="white"/>
<stop offset="0.185394" stop-color="#91AFC8"/>
<stop offset="0.241577" stop-color="#002334"/>
<stop offset="0.533707" stop-color="#5E738F"/>
<stop offset="0.758423" stop-color="#002334"/>
<stop offset="1" stop-color="#002334"/>
</linearGradient>
<linearGradient id="paint7_linear_1_75415" x1="11.8035" y1="21.2423" x2="8.77499" y2="22.8115" gradientUnits="userSpaceOnUse">
<stop stop-color="#91AFC8"/>
<stop offset="1" stop-color="#002334"/>
</linearGradient>
<linearGradient id="paint8_linear_1_75415" x1="13.4639" y1="25.9672" x2="13.238" y2="24.6628" gradientUnits="userSpaceOnUse">
<stop stop-color="#A5B9CC"/>
<stop offset="1" stop-color="#002334"/>
</linearGradient>
<linearGradient id="paint9_linear_1_75415" x1="18.1387" y1="26.5064" x2="18.5274" y2="26.5064" gradientUnits="userSpaceOnUse">
<stop stop-color="#5E738F"/>
<stop offset="0.48877" stop-color="#91AFC8"/>
<stop offset="1" stop-color="#91AFC8"/>
</linearGradient>
<linearGradient id="paint10_linear_1_75415" x1="29.848" y1="26.4615" x2="29.3667" y2="26.4615" gradientUnits="userSpaceOnUse">
<stop stop-color="#5E738F"/>
<stop offset="0.320221" stop-color="#91AFC8"/>
<stop offset="1" stop-color="#91AFC8"/>
</linearGradient>
<linearGradient id="paint11_linear_1_75415" x1="26.2321" y1="28.7103" x2="27.5133" y2="26.4507" gradientUnits="userSpaceOnUse">
<stop stop-color="#A5B9CC"/>
<stop offset="1" stop-color="#002334"/>
</linearGradient>
<linearGradient id="paint12_linear_1_75415" x1="20.6846" y1="26.5945" x2="21.9758" y2="28.8716" gradientUnits="userSpaceOnUse">
<stop stop-color="#002334"/>
<stop offset="0.775284" stop-color="#A5B9CC"/>
<stop offset="1" stop-color="#A5B9CC"/>
</linearGradient>
<linearGradient id="paint13_linear_1_75415" x1="15.4133" y1="18.0236" x2="21.1796" y2="28.1925" gradientUnits="userSpaceOnUse">
<stop stop-color="#FFEFCF"/>
<stop offset="0.460678" stop-color="#FFE4A6"/>
<stop offset="1" stop-color="#BC956E"/>
</linearGradient>
<linearGradient id="paint14_linear_1_75415" x1="31.9156" y1="26.586" x2="33.5444" y2="24.7375" gradientUnits="userSpaceOnUse">
<stop stop-color="#5E738F"/>
<stop offset="0.606735" stop-color="#91AFC8"/>
<stop offset="1" stop-color="#C7DFF4"/>
</linearGradient>
<linearGradient id="paint15_linear_1_75415" x1="33.5758" y1="16.6717" x2="35.7231" y2="20.4585" gradientUnits="userSpaceOnUse">
<stop stop-color="#E1E8F5"/>
<stop offset="0.814606" stop-color="#7F97B4"/>
<stop offset="0.904495" stop-color="#476886"/>
<stop offset="1" stop-color="#002334"/>
</linearGradient>
<linearGradient id="paint16_linear_1_75415" x1="36.1344" y1="25.2387" x2="39.6339" y2="19.0675" gradientUnits="userSpaceOnUse">
<stop stop-color="#8CA0B5"/>
<stop offset="0.140442" stop-color="#E1E8F5"/>
<stop offset="0.814606" stop-color="#7F97B4"/>
<stop offset="0.904495" stop-color="#476886"/>
<stop offset="1" stop-color="#002334"/>
</linearGradient>
<linearGradient id="paint17_linear_1_75415" x1="34.8912" y1="25.3421" x2="36.1532" y2="24.6002" gradientUnits="userSpaceOnUse">
<stop stop-color="#002334"/>
<stop offset="0.814606" stop-color="#A5B9CC"/>
<stop offset="0.887634" stop-color="#002334"/>
<stop offset="1" stop-color="#002334"/>
</linearGradient>
<linearGradient id="paint18_linear_1_75415" x1="11.9371" y1="22.6012" x2="16.0275" y2="26.766" gradientUnits="userSpaceOnUse">
<stop stop-color="#D4BC7B"/>
<stop offset="0.331467" stop-color="#7F5F39"/>
<stop offset="1" stop-color="#D4BC7B"/>
</linearGradient>
<linearGradient id="paint19_linear_1_75415" x1="34.0398" y1="23.184" x2="31.1181" y2="26.1588" gradientUnits="userSpaceOnUse">
<stop stop-color="#D4BC7B"/>
<stop offset="0.331467" stop-color="#7F5F39"/>
<stop offset="1" stop-color="#D4BC7B"/>
</linearGradient>
<linearGradient id="paint20_linear_1_75415" x1="36.5306" y1="16.8186" x2="31.808" y2="21.6269" gradientUnits="userSpaceOnUse">
<stop stop-color="#D4BC7B"/>
<stop offset="0.331467" stop-color="#7F5F39"/>
<stop offset="1" stop-color="#D4BC7B"/>
</linearGradient>
<linearGradient id="paint21_linear_1_75415" x1="18.6476" y1="25.8719" x2="19.2757" y2="25.8719" gradientUnits="userSpaceOnUse">
<stop stop-color="#D3BD8B"/>
<stop offset="1" stop-color="#7F5F39"/>
</linearGradient>
<linearGradient id="paint22_linear_1_75415" x1="29.331" y1="25.8623" x2="28.7027" y2="25.8623" gradientUnits="userSpaceOnUse">
<stop stop-color="#D3BD8B"/>
<stop offset="1" stop-color="#7F5F39"/>
</linearGradient>
<linearGradient id="paint23_linear_1_75415" x1="20.9635" y1="26.1282" x2="22.0998" y2="28.1321" gradientUnits="userSpaceOnUse">
<stop stop-color="#7F5F39"/>
<stop offset="0.646072" stop-color="#D3BD8B"/>
<stop offset="0.887634" stop-color="#FFE4A6"/>
<stop offset="1" stop-color="#FFE4A6"/>
</linearGradient>
<linearGradient id="paint24_linear_1_75415" x1="27.0236" y1="26.138" x2="25.7822" y2="28.3272" gradientUnits="userSpaceOnUse">
<stop stop-color="#7F5F39"/>
<stop offset="0.455063" stop-color="#D3BD8B"/>
<stop offset="0.887634" stop-color="#FFE4A6"/>
<stop offset="1" stop-color="#FFE4A6"/>
</linearGradient>
<linearGradient id="paint25_linear_1_75415" x1="20.132" y1="18.1449" x2="22.7796" y2="15.4492" gradientUnits="userSpaceOnUse">
<stop stop-color="#D4BC7B"/>
<stop offset="0.0393219" stop-color="#7F5F39"/>
<stop offset="0.106735" stop-color="#D1AC75"/>
<stop offset="1" stop-color="#D4BC7B"/>
</linearGradient>
<linearGradient id="paint26_linear_1_75415" x1="27.8851" y1="18.1989" x2="25.1911" y2="15.4561" gradientUnits="userSpaceOnUse">
<stop stop-color="#D4BC7B"/>
<stop offset="0.0393219" stop-color="#7F5F39"/>
<stop offset="0.106735" stop-color="#D1AC75"/>
<stop offset="1" stop-color="#D4BC7B"/>
</linearGradient>
<linearGradient id="paint27_linear_1_75415" x1="18.3466" y1="18.5844" x2="19.3324" y2="17.6485" gradientUnits="userSpaceOnUse">
<stop stop-color="#FFE292"/>
<stop offset="0.157303" stop-color="#D1AC75"/>
<stop offset="1" stop-color="#FFE292"/>
</linearGradient>
<linearGradient id="paint28_linear_1_75415" x1="29.6926" y1="18.5714" x2="28.6649" y2="17.5957" gradientUnits="userSpaceOnUse">
<stop stop-color="#FFE292"/>
<stop offset="0.157303" stop-color="#D1AC75"/>
<stop offset="1" stop-color="#FFE292"/>
</linearGradient>
<linearGradient id="paint29_linear_1_75415" x1="13.8077" y1="20.9306" x2="16.8833" y2="17.7992" gradientUnits="userSpaceOnUse">
<stop stop-color="#7F5F39"/>
<stop offset="1" stop-color="#BD9B6A"/>
</linearGradient>
<linearGradient id="paint30_linear_1_75415" x1="36.3988" y1="21.4988" x2="37.7073" y2="22.8311" gradientUnits="userSpaceOnUse">
<stop stop-color="#7F5F39"/>
<stop offset="1" stop-color="#D4BC7B"/>
</linearGradient>
<linearGradient id="paint31_linear_1_75415" x1="35.9564" y1="24.8048" x2="38.8142" y2="19.2003" gradientUnits="userSpaceOnUse">
<stop stop-color="#A78A5E"/>
<stop offset="0.764038" stop-color="#7F5F39"/>
<stop offset="0.915726" stop-color="#674C2B"/>
<stop offset="1" stop-color="#674C2B"/>
</linearGradient>
<linearGradient id="paint32_linear_1_75415" x1="33.4835" y1="26.071" x2="25.3019" y2="16.1437" gradientUnits="userSpaceOnUse">
<stop stop-color="#FFEFCF"/>
<stop offset="0.460678" stop-color="#FFE4A6"/>
<stop offset="1" stop-color="#BC956E"/>
</linearGradient>
<linearGradient id="paint33_linear_1_75415" x1="8.88034" y1="24.2945" x2="11.7174" y2="21.4059" gradientUnits="userSpaceOnUse">
<stop stop-color="#7F5F39"/>
<stop offset="1" stop-color="#E9CF98"/>
</linearGradient>
<linearGradient id="paint34_linear_1_75415" x1="8.36962" y1="24.1225" x2="12.1901" y2="20.2327" gradientUnits="userSpaceOnUse">
<stop stop-color="#7F5F39"/>
<stop offset="1" stop-color="#E4CB90"/>
</linearGradient>
<clipPath id="clip0_1_75415">
<rect width="32" height="16" fill="white" transform="translate(8 16)"/>
</clipPath>
</defs>
</svg>
