<svg width="48" height="48" viewBox="0 0 48 48" fill="none" xmlns="http://www.w3.org/2000/svg">
<g clip-path="url(#clip0_1_75708)">
<path d="M14.6318 13.0971C17.6887 14.1604 20.7292 15.2727 23.7932 16.3145C23.9016 16.3564 24.009 16.3564 24.1173 16.3145C27.1762 15.2676 30.2147 14.1645 33.2665 13.0971C32.1838 14.8229 31.0909 16.5425 29.9847 18.2529C29.4735 18.0331 28.947 17.8501 28.4317 17.6395C28.7302 17.114 29.0513 16.6008 29.3539 16.0773C28.3683 16.5732 27.3654 17.0343 26.387 17.5444C27.0709 17.8051 27.7559 18.0607 28.4348 18.3357C28.8131 18.4901 29.2189 18.7876 29.2445 19.2313C29.3048 19.7241 28.9684 20.1269 28.7302 20.5215C27.256 22.828 25.7899 25.1406 24.3085 27.443C24.3167 26.8357 24.2472 26.2222 24.3187 25.6191C24.9015 23.7696 25.4771 21.9181 26.0077 20.0533C26.112 19.7762 25.8022 19.628 25.6028 19.5309C25.0405 19.2824 24.514 18.9532 23.9384 18.7406C23.3546 18.9931 22.7944 19.2988 22.2219 19.5759C22.045 19.6576 21.7955 19.8192 21.8968 20.0502C22.4233 21.9161 23.005 23.7665 23.5837 25.617C23.6481 26.2212 23.5867 26.8346 23.5898 27.443C22.1319 25.161 20.6771 22.8761 19.2212 20.5931C18.9677 20.1729 18.5996 19.7435 18.663 19.2191C18.6968 18.7784 19.1006 18.486 19.4789 18.3327C20.1516 18.0587 20.8345 17.8082 21.5123 17.5434C20.536 17.0353 19.5371 16.5701 18.5526 16.0784C18.8542 16.6018 19.1752 17.114 19.4727 17.6405C18.9544 17.847 18.4299 18.0382 17.9136 18.2499C16.8115 16.5374 15.7207 14.8168 14.6318 13.0971Z" fill="black"/>
<path d="M21.1094 33.9779C21.1196 32.9699 21.1022 31.9628 21.1186 30.9548C22.7769 30.966 24.4361 30.9517 26.0944 30.9609C26.4185 30.9497 26.7968 31.1122 26.8612 31.4619C26.9011 31.8044 26.8919 32.152 26.8673 32.4945C26.8469 32.8727 26.4502 33.1017 26.1006 33.0772C24.748 33.0803 23.3954 33.0752 22.0418 33.0782C22.0428 33.3808 22.0438 33.6824 22.0479 33.9851C21.7351 33.9932 21.4222 33.9892 21.1094 33.9779ZM22.0387 31.6387C22.0428 31.8739 22.0448 32.109 22.0499 32.3452C23.334 32.3329 24.6181 32.3564 25.9022 32.3339C26.1353 32.199 25.9769 31.8749 26.0208 31.6582C24.6948 31.6132 23.3657 31.649 22.0387 31.6387Z" fill="black"/>
<path d="M8.11863 31.4199C8.25153 31.1194 8.59607 30.9517 8.91607 30.9589C10.5416 30.9548 12.1672 30.9609 13.7938 30.9568C13.7968 31.2349 13.7979 31.514 13.7999 31.7921C12.2071 31.8033 10.6122 31.7778 9.02035 31.8044C8.9907 31.8279 8.93243 31.8759 8.90278 31.9005C8.88438 32.3002 8.90687 32.702 8.89051 33.1028C9.03466 33.1385 9.18086 33.1753 9.33115 33.1692C10.8197 33.1651 12.3083 33.1713 13.7968 33.1651C13.7979 33.434 13.7989 33.7029 13.7989 33.9718C12.2398 34.0168 10.6786 33.9779 9.11952 33.9943C8.73716 34.0096 8.26278 33.936 8.11147 33.527C8.02866 33.1651 8.08591 32.7899 8.07058 32.4229C8.07569 32.0896 8.02661 31.7461 8.11863 31.4199Z" fill="#010101"/>
<path d="M14.5749 33.2438C14.5718 32.4812 14.5697 31.7185 14.5789 30.9568C14.9122 30.9578 15.2465 30.9558 15.5809 30.9619C15.5921 31.6929 15.5686 32.4249 15.5952 33.1559C16.8322 33.1805 18.0703 33.1661 19.3074 33.1641C19.3585 32.43 19.3196 31.6939 19.3309 30.9599C19.6683 30.9578 20.0057 30.9589 20.343 30.9548C20.3502 31.7164 20.3522 32.4791 20.3451 33.2418C20.3492 33.6507 19.9617 33.9922 19.5619 33.9851C18.4005 34.0198 17.2381 33.9738 16.0757 33.9943C15.7403 33.9932 15.3989 34.0137 15.0707 33.9309C14.7926 33.8266 14.5595 33.5516 14.5749 33.2438Z" fill="#010101"/>
<path d="M27.6539 30.9568C29.2826 30.9609 30.9112 30.9568 32.5398 30.9578C32.8915 30.9507 33.3056 31.1337 33.3935 31.5048C33.418 31.8453 33.417 32.1888 33.3925 32.5292C33.3414 32.8155 33.0888 32.9658 32.8578 33.0987C33.0786 33.3788 33.2749 33.6763 33.4732 33.9728C33.0704 33.9472 32.4591 34.1885 32.2341 33.7325C32.0992 33.5178 31.9714 33.2991 31.8405 33.0823C30.764 33.0731 29.6874 33.0782 28.6109 33.0792C28.6129 33.3757 28.6139 33.6722 28.617 33.9697C28.295 33.9984 27.9719 33.9994 27.6509 33.9779C27.656 32.9709 27.6468 31.9638 27.6539 30.9568ZM28.6211 31.605C28.6129 31.8504 28.6129 32.0968 28.6139 32.3421C29.8858 32.3329 31.1586 32.3595 32.4294 32.3299C32.4611 32.3074 32.5245 32.2614 32.5572 32.2378C32.5388 32.0313 32.6625 31.7195 32.4151 31.6173C31.1515 31.5907 29.8858 31.6162 28.6211 31.605Z" fill="#010101"/>
<path d="M34.1911 31.7083C34.1778 31.2472 34.6594 30.9262 35.0867 30.9578C36.7 30.9568 38.3133 30.9609 39.9266 30.9558C39.9317 31.9628 39.944 32.9709 39.9143 33.9779C39.6342 33.9902 39.351 34.0168 39.0719 33.982C38.9451 33.7172 39.0525 33.3716 39.0218 33.0782C37.7254 33.0772 36.4291 33.0782 35.1327 33.0772C35.1307 33.3798 35.1327 33.6835 35.1348 33.9871C34.8209 33.9953 34.5081 33.9912 34.1952 33.9779C34.2044 33.2214 34.1758 32.4648 34.1911 31.7083ZM35.1368 31.6479C35.1327 31.88 35.1338 32.1121 35.1378 32.3452C36.4301 32.338 37.7234 32.3431 39.0167 32.3421C39.0187 32.108 39.0198 31.8749 39.0228 31.6408C37.7275 31.6408 36.4322 31.6275 35.1368 31.6479Z" fill="#010101"/>
</g>
<defs>
<clipPath id="clip0_1_75708">
<rect width="32" height="21.0607" fill="white" transform="translate(8 13)"/>
</clipPath>
</defs>
</svg>
