<svg width="48" height="48" viewBox="0 0 48 48" fill="none" xmlns="http://www.w3.org/2000/svg">
<g clip-path="url(#clip0_1_75735)">
<path d="M8 26.6767H39.9012V28.7375H8V26.6767Z" fill="#EC1C2E"/>
<path d="M8.00488 25.4157V20.0235H14.658C16.8177 20.0235 18.3563 21.0069 18.3563 22.682C18.3563 24.277 17.1377 25.4157 14.5969 25.4157H8.00488ZM13.35 24.0371C14.1781 24.0371 14.6627 23.3313 14.6627 22.7902C14.6627 22.2397 14.2298 21.5951 13.3735 21.5951H11.562V24.0371H13.35Z" fill="#00529B"/>
<path d="M24.1858 21.3598L21.7438 25.4251H18.3467L21.565 20H26.7972L30.0297 25.4251H22.8778L23.7294 24.0135H25.7762L24.1858 21.3598Z" fill="#00529B"/>
<path d="M34.1985 25.411H30.6743V20H40V21.5762H34.1985V22.5408H39.9012V24.07H34.1985V25.411Z" fill="#00529B"/>
</g>
<defs>
<clipPath id="clip0_1_75735">
<rect width="32" height="8.73754" fill="white" transform="translate(8 20)"/>
</clipPath>
</defs>
</svg>
