<svg width="48" height="48" viewBox="0 0 48 48" fill="none" xmlns="http://www.w3.org/2000/svg">
<g clip-path="url(#clip0_1_75753)">
<path d="M32.9618 8.0022C33.5151 8.0022 33.9624 8.44479 33.9624 8.99216V38.9794C33.9624 39.5263 33.5151 39.9693 32.9618 39.9693H15.0427C14.49 39.9693 14.0425 39.5263 14.0425 38.9794V8.99216C14.0425 8.44479 14.49 8.0022 15.0427 8.0022H32.9618Z" fill="white"/>
<path d="M14.4316 12.4475H33.5868V38.9195C33.5868 39.1396 33.5492 39.2757 33.4007 39.4234C33.2396 39.5835 33.0982 39.5979 32.843 39.5979L15.0036 39.5997C14.863 39.5997 14.7552 39.5549 14.6388 39.4565C14.4947 39.333 14.4316 39.179 14.4316 39.0161V12.4475Z" fill="#FFF200"/>
<path d="M33.5868 11.1157H14.4316V12.4757H33.5868V11.1157Z" fill="#ED1C24"/>
<path d="M33.5868 9.75296H14.4316V11.113H33.5868V9.75296Z" fill="white"/>
<path d="M14.9731 8.36963H33.0328C33.322 8.36963 33.5887 8.64844 33.5887 8.92055V9.78874H14.4316L14.4334 9.02522V8.96169C14.4334 8.65385 14.6706 8.40006 14.9731 8.36963Z" fill="#009A4E"/>
<path d="M32.9618 8.0022C33.5151 8.0022 33.9624 8.44479 33.9624 8.99216V38.9794C33.9624 39.5263 33.5151 39.9693 32.9618 39.9693H15.0427C14.49 39.9693 14.0425 39.5263 14.0425 38.9794V8.99216C14.0425 8.44479 14.49 8.0022 15.0427 8.0022H32.9618ZM32.9618 8.39737H15.0427C14.7106 8.39737 14.4421 8.66407 14.4421 8.99216V38.9794C14.4421 39.3079 14.7106 39.5728 15.0427 39.5728H32.9618C33.294 39.5728 33.5624 39.3079 33.5624 38.9794V8.99216C33.5624 8.66413 33.294 8.39737 32.9618 8.39737Z" fill="black"/>
<path d="M23.6502 14.1276C23.6502 14.1276 23.6381 14.243 23.6118 14.3106C23.5858 14.3732 23.5182 14.4154 23.5227 14.4574C23.5272 14.4986 23.571 14.5482 23.639 14.5826C23.7057 14.6175 23.7325 14.6444 23.801 14.6619C23.8645 14.6776 23.9451 14.7241 23.9679 14.6708C23.9908 14.6167 23.9564 14.5509 23.9178 14.4878C23.8507 14.3777 23.8167 14.3508 23.7178 14.1996C23.6968 14.167 23.6802 14.132 23.6502 14.1276Z" fill="black"/>
<path d="M23.1483 26.0207C23.155 26.001 23.3134 26.1013 23.3957 26.1496C23.569 26.2534 23.6468 26.3152 23.7999 26.4297C23.9212 26.5219 23.9798 26.5694 24.1016 26.6741C24.251 26.803 24.3315 26.913 24.3719 26.888C24.43 26.8182 24.2766 26.6141 24.1409 26.5032C24.0089 26.3939 23.8724 26.3054 23.7672 26.2364C23.6316 26.146 23.6195 26.1254 23.4168 25.9893C23.1989 25.8435 23.0109 25.66 23.0109 25.66L22.7992 25.4936L22.4676 25.2138L22.0989 24.8742L21.8205 24.564C21.8205 24.564 21.6039 24.2991 21.5695 24.248C21.5346 24.1975 21.4325 24.0336 21.3484 23.895C21.2732 23.7705 21.1274 23.5772 21.1139 23.5607C21.0351 23.4653 20.8552 23.5038 20.6462 23.3808C20.3925 23.2308 20.3311 23.0939 20.3311 23.0939C20.3311 23.0939 20.3217 23.0738 20.3119 23.063C20.3025 23.0518 20.2833 23.038 20.2833 23.038L20.1503 22.9453L20.0742 22.8952C20.0742 22.8952 20.0165 22.8473 19.944 22.8164C19.871 22.7842 19.7086 22.6897 19.7086 22.6897L19.4181 22.5045C19.4181 22.5045 19.3045 22.4132 19.2669 22.3828C19.2284 22.3537 19.1568 22.3121 19.1568 22.3121C19.1568 22.3121 19.1111 22.2892 19.0973 22.2883C19.0834 22.2874 19.023 22.2821 19.023 22.2821C19.023 22.2821 18.9671 22.2673 18.9102 22.334C18.8534 22.4012 18.8673 22.3653 18.9599 22.743C18.9966 22.8916 18.993 23.4157 19.0324 23.5754C19.0825 23.7804 19.2266 24.0453 19.2414 24.0766C19.2558 24.1075 19.266 24.2221 19.266 24.2221C19.266 24.2221 19.2598 24.3148 19.2696 24.3734C19.3135 24.6441 19.7095 24.466 19.7969 24.8375C19.8828 25.204 19.7454 25.5696 19.7454 25.5696C19.7454 25.5696 19.6603 25.7514 19.5399 25.78C19.42 25.8078 19.2338 25.5419 19.0991 25.3267C18.9663 25.1149 18.8575 24.8375 18.8226 24.7493C18.7877 24.6611 18.7693 24.6419 18.729 24.5779C18.6695 24.4826 18.6216 24.5001 18.555 24.3497C18.4878 24.1993 18.5473 24.1389 18.5174 24.0078C18.4999 23.9353 18.4843 23.9272 18.4615 23.8234C18.4395 23.72 18.41 23.3911 18.41 23.3911L18.3679 23.085C18.3679 23.085 18.3531 22.9453 18.3339 22.8576C18.2673 22.5515 18.244 22.2552 18.244 22.2552L18.2315 22.1335L18.227 22.0078C18.227 22.0078 18.223 21.9473 18.2378 21.8851C18.2525 21.823 18.2826 21.7715 18.2826 21.7715C18.2826 21.7715 18.3443 21.6681 18.3551 21.6422C18.3653 21.6176 18.4915 21.4708 18.4915 21.4708C18.4915 21.4708 18.5578 21.4157 18.6656 21.3499C18.774 21.2841 18.8711 21.2886 18.8711 21.2886C18.8711 21.2886 18.8997 21.2859 19.0913 21.3097C19.2828 21.3333 19.6767 21.4381 19.776 21.4636C19.874 21.4901 19.9913 21.5312 20.0673 21.5737C20.2862 21.6927 20.3524 21.6422 20.1784 21.5057C20.0611 21.414 20.028 21.3728 19.9335 21.2869C19.8538 21.2135 19.7912 21.1647 19.7317 21.0971C19.6722 21.0282 19.5026 20.7781 19.5026 20.7781L19.3965 20.6214C19.3965 20.6214 19.3397 20.557 19.3302 20.5525C19.3213 20.5471 19.2927 20.5252 19.2927 20.5252C19.2927 20.5252 19.2224 20.5288 19.1499 20.5149C19.0765 20.5001 19.0425 20.6031 19.0425 20.6031C19.0425 20.6031 18.8849 20.8971 18.7247 21.0771C18.4652 21.3692 18.279 21.568 18.1837 21.7237C18.0499 21.9394 18.0794 22.1758 18.0105 22.2849C17.9702 22.3489 17.9483 22.3583 17.9264 22.4142C17.8592 22.5839 18.1031 22.6769 18.0472 22.8649C17.9581 23.163 17.26 23.4579 17.1673 23.4086C17.0711 23.3581 17.1499 22.9549 17.1821 22.8246C17.2152 22.6935 17.3132 22.5002 17.3222 22.4904C17.3307 22.4809 17.3544 22.4353 17.3615 22.3968C17.3692 22.3583 17.3718 22.2711 17.3763 22.2227C17.3808 22.1739 17.4009 22.097 17.4009 22.097C17.4009 22.097 17.4036 22.0804 17.4653 21.9466C17.5275 21.812 17.7549 21.4986 17.9178 21.1997C18.0252 21.0046 18.07 20.8865 18.1774 20.6908C18.2763 20.5114 18.4459 20.2375 18.4459 20.2375C18.4459 20.2375 18.5174 20.0979 18.551 20.046C18.585 19.9927 18.6566 19.892 18.7237 19.7926C18.7914 19.6937 18.8079 19.6194 18.896 19.538C18.969 19.47 19.0187 19.4337 19.114 19.4033C19.2558 19.3563 19.353 19.3814 19.498 19.4217C19.6483 19.4628 19.7517 19.5317 19.8502 19.6132C19.9482 19.6956 20.0211 19.7864 20.0211 19.7864L20.069 19.8571L20.0985 19.8746L20.1899 19.9332L20.3989 20.0714C20.3989 20.0714 20.8947 20.4089 20.9225 20.4272C20.9489 20.4447 21.0379 20.5176 21.0554 20.5235C21.0738 20.5288 21.2058 20.3856 21.4649 20.2071C21.7647 19.9989 21.8708 20.0146 21.9702 19.9605C22.0682 19.9063 22.1085 19.8616 22.1855 19.7846C22.3019 19.6682 22.3027 19.606 22.4348 19.4436C22.5677 19.2816 22.6921 19.1907 22.6921 19.1907C22.6921 19.1907 22.7104 19.1724 22.9472 18.9048C23.1835 18.6381 23.2882 18.4362 23.2882 18.4362L23.418 18.1762C23.418 18.1762 23.606 17.7721 23.6664 17.6123C23.7273 17.4521 23.7273 17.3988 23.7273 17.3988C23.7273 17.3988 23.7362 17.3567 23.6906 17.2753C23.6435 17.1942 23.5952 17.2309 23.5052 17.2493C23.333 17.286 23.2282 17.2412 23.0542 17.2109C22.8949 17.1844 22.8116 17.1366 22.6518 17.1102C22.4899 17.0829 22.3954 17.0561 22.2329 17.0717C22.2083 17.0744 22.1587 17.0847 22.1349 17.0927C22.0431 17.1231 22.0177 17.1303 21.9496 17.1697C21.8709 17.2064 21.819 17.218 21.7317 17.2202C21.6712 17.222 21.6346 17.2239 21.5787 17.2019C21.5402 17.1871 21.5182 17.176 21.4878 17.1487C21.4695 17.1321 21.4596 17.1213 21.4457 17.0999C21.444 17.0829 21.4386 17.0837 21.4552 17.0561C21.4713 17.0278 21.4914 17.0229 21.4914 17.0229L21.5657 17.0046C21.5657 17.0046 21.6704 16.9773 21.6803 16.9745C21.6897 16.9719 21.7895 16.9396 21.8333 16.9258C21.8776 16.9119 21.926 16.8864 21.926 16.8864C21.926 16.8864 21.9528 16.8435 21.9425 16.8188C21.9295 16.791 21.87 16.7884 21.87 16.7884C21.87 16.7884 21.7867 16.8188 21.7774 16.8215C21.7684 16.8233 21.6355 16.8653 21.6355 16.8653C21.6355 16.8653 21.5312 16.8882 21.4502 16.9074C21.3688 16.9257 21.2524 16.9352 21.2524 16.9352L21.2175 16.9257C21.2175 16.9257 21.1781 16.8993 21.1719 16.8716C21.166 16.847 21.1624 16.8286 21.158 16.8005C21.1405 16.6975 21.1195 16.6353 21.1441 16.5338C21.1535 16.4912 21.1634 16.4675 21.1817 16.4282C21.1973 16.3955 21.2076 16.3767 21.2278 16.3458L21.2918 16.241L21.4127 16.0625C21.4543 16.0204 21.4816 15.9994 21.5339 15.9699C21.6109 15.9269 21.6556 15.9148 21.7519 15.9041C21.8463 15.8938 21.8593 15.8947 21.9931 15.8647C22.1278 15.8342 22.2232 15.781 22.2232 15.781C22.2232 15.781 22.545 15.6628 22.7409 15.5666C22.9463 15.4659 23.0358 15.3585 23.2484 15.2753C23.3384 15.2404 23.3907 15.2238 23.4834 15.2001C23.495 15.1925 23.5008 15.1853 23.5044 15.1714C23.5134 15.1379 23.4615 15.1222 23.4257 15.1258C23.3934 15.1284 23.3201 15.1625 23.3035 15.1258C23.2909 15.0976 23.3706 15.081 23.3706 15.081C23.3706 15.081 23.4081 15.0636 23.4091 15.0426C23.41 15.0103 23.355 15.0313 23.3303 15.0287C23.2054 15.0147 23.1956 14.9919 23.1092 14.9709C23.0076 14.9455 22.9526 14.9141 22.847 14.9096C22.7539 14.906 22.6666 14.9257 22.608 14.9396C22.5503 14.9544 22.5485 14.8975 22.5713 14.8863C22.7347 14.8102 22.7382 14.804 22.8537 14.7986C22.9168 14.7959 23.005 14.8094 23.0148 14.8143C23.0243 14.8196 23.1505 14.8134 23.1827 14.7803C23.2158 14.748 23.0793 14.7498 23.0148 14.7243C22.9554 14.7006 22.8645 14.6939 22.8663 14.6545C22.8694 14.6151 22.9133 14.637 22.9446 14.629C22.9839 14.6196 23.0068 14.6205 23.0471 14.6152C23.1196 14.6053 23.1258 14.5986 23.2332 14.5897C23.3393 14.5794 23.4924 14.6246 23.4924 14.6246C23.4924 14.6246 23.653 14.6958 23.7318 14.7334C23.8106 14.77 23.9059 14.7893 23.9059 14.7893C23.9059 14.7893 24.0177 14.8049 24.1028 14.7517C24.1892 14.6989 24.1404 14.664 24.1104 14.6152C24.0808 14.5695 24.0433 14.5033 24.0983 14.378C24.1471 14.2688 24.1726 14.1413 24.1865 14.1296C24.204 14.1158 24.2716 14.2138 24.3154 14.2541C24.4725 14.4009 24.6802 14.4734 24.8762 14.7803C24.8914 14.8049 24.9639 14.7656 25.1912 14.8005C25.4186 14.8354 25.6173 15.0788 25.6675 15.137C25.7194 15.1956 25.7865 15.1925 25.7865 15.1925L25.8957 15.2073L26.2922 15.214C26.2922 15.214 26.4721 15.1817 26.5759 15.2212C26.6484 15.2485 26.8901 15.41 26.78 15.4713C26.703 15.5143 26.6305 15.4199 26.5607 15.4154C26.4783 15.41 26.4426 15.4257 26.3691 15.444C26.2152 15.4825 25.8849 15.5823 26.0049 15.6226C26.0138 15.6261 26.0308 15.6288 26.0308 15.6288L26.0899 15.6391C26.0899 15.6391 26.2349 15.6722 26.3226 15.7066C26.455 15.759 26.5177 15.8168 26.6394 15.8883C26.7092 15.9286 26.7397 15.9689 26.8157 15.9917C26.8856 16.0119 26.9303 15.9917 27.0019 16.0038C27.0959 16.0204 27.1486 16.0397 27.2346 16.0808C27.3626 16.1421 27.4091 16.2164 27.5237 16.2988C27.581 16.3404 27.6293 16.3466 27.6723 16.4026C27.6822 16.4151 27.6903 16.4219 27.6947 16.4366C27.71 16.4876 27.6106 16.4576 27.5578 16.4492C27.4996 16.4393 27.4755 16.4106 27.4218 16.386C27.3421 16.3484 27.3045 16.3073 27.2177 16.2916C27.155 16.2795 27.1174 16.2889 27.053 16.2925C26.9903 16.2952 26.9572 16.3046 26.8945 16.3055C26.788 16.3073 26.7281 16.2979 26.6233 16.2759C26.506 16.2513 26.4479 16.2057 26.3315 16.1815C26.1999 16.1542 25.9673 16.0414 25.9896 16.1542C26.0012 16.2083 26.1248 16.254 26.1248 16.254C26.1248 16.254 26.2098 16.2996 26.2904 16.3354C26.3709 16.3703 26.4156 16.4236 26.4156 16.4236L26.4711 16.4648C26.4711 16.4648 26.5284 16.5436 26.6036 16.6326C26.677 16.7203 26.8076 16.7176 26.8076 16.7176C26.8076 16.7176 26.8864 16.7176 27.0564 16.7525C27.2256 16.7874 27.4002 16.8921 27.4002 16.8921C27.4002 16.8921 27.5317 16.9825 27.6087 17.0734C27.6848 17.1643 27.6409 17.2099 27.6311 17.2193C27.6222 17.2291 27.6257 17.2246 27.615 17.2291C27.6061 17.2336 27.5112 17.1145 27.5112 17.1145L27.4432 17.0568C27.4432 17.0568 27.3769 17.0103 27.291 16.9825C27.2051 16.9552 27.1764 16.9736 27.1764 16.9736C27.1764 16.9736 26.9938 17.0246 26.8345 17.0201C26.677 17.0156 26.5946 16.9525 26.5946 16.9525L26.4944 16.8853C26.4944 16.8853 26.344 16.7444 26.3386 16.8111C26.335 16.8563 26.4049 16.9064 26.4049 16.9064C26.4049 16.9064 26.4532 16.9552 26.4854 16.9861C26.5463 17.046 26.5714 17.0761 26.6412 17.1382C26.711 17.2009 26.7539 17.2009 26.7539 17.2009C26.7539 17.2009 26.7915 17.2098 26.8058 17.2126C26.8202 17.2152 26.8453 17.222 26.8453 17.222C26.8453 17.222 26.8686 17.2309 26.9777 17.2753C27.086 17.3191 27.2033 17.4145 27.2033 17.4145C27.2033 17.4145 27.214 17.4234 27.2302 17.4266C27.2462 17.4284 27.2785 17.4445 27.2874 17.4472C27.2972 17.4494 27.325 17.4494 27.3877 17.4583C27.4513 17.4677 27.427 17.508 27.427 17.508L27.4163 17.5232L27.3643 17.5581C27.3643 17.5581 27.2972 17.5774 27.2516 17.5796C27.205 17.5823 27.1388 17.5564 27.1388 17.5564L26.9983 17.5035C26.9983 17.5035 26.856 17.4659 26.8255 17.461C26.7951 17.4565 26.668 17.431 26.6465 17.4266C26.6259 17.4217 26.5624 17.3988 26.5454 17.389C26.5284 17.3796 26.4971 17.3733 26.4201 17.3357C26.344 17.2981 26.3136 17.2547 26.2187 17.2247C26.123 17.1943 26.0648 17.1881 25.9932 17.2378C25.8696 17.3228 26.1793 17.3367 26.3333 17.4136C26.5607 17.5255 26.6886 17.6078 26.7423 17.7287C26.7969 17.8499 26.8515 17.8938 26.8515 17.8938C26.8515 17.8938 27.0117 17.9744 27.0833 18.0589C27.1227 18.1045 27.1281 18.1422 27.1674 18.1878C27.2551 18.2907 27.4252 18.2849 27.4593 18.3722C27.4915 18.4536 27.3214 18.4169 27.2328 18.4088C27.0735 18.3932 27.035 18.2473 26.8864 18.1887C26.8023 18.1551 26.7486 18.1551 26.6626 18.1256C26.506 18.0741 26.4326 18.0066 26.2759 17.9578C26.181 17.9287 26.0092 17.8039 26.0307 17.9C26.0342 17.9233 26.0485 17.9412 26.0548 17.9551C26.0629 17.969 26.1023 18.02 26.1023 18.02C26.1023 18.02 26.155 18.0898 26.1792 18.1082C26.2016 18.1275 26.3027 18.2035 26.4477 18.2823C26.5909 18.3611 26.7162 18.5123 26.7162 18.5123C26.7162 18.5123 26.7592 18.5741 26.7798 18.6171C26.8012 18.6655 26.786 18.6802 26.82 18.7473C26.8513 18.814 26.8666 18.827 26.9095 18.8682C27.0151 18.9698 27.1261 18.9496 27.2604 19.0047C27.2971 19.0203 27.2997 19.0257 27.3391 19.0677C27.3785 19.1093 27.3319 19.1272 27.3319 19.1272C27.3319 19.1272 27.1825 19.1657 27.0858 19.1576C26.9605 19.1478 26.9041 19.1093 26.7824 19.0484C26.6589 18.988 26.5945 18.8793 26.582 18.8726C26.5712 18.8654 26.5408 18.8332 26.5175 18.8166C26.4943 18.8001 26.4342 18.7875 26.3805 18.7728C26.326 18.758 26.2955 18.7553 26.241 18.7405C26.1667 18.7195 26.0896 18.6868 26.0547 18.6757C26.0198 18.6636 25.9402 18.6492 25.882 18.6837C25.7656 18.7526 26.0627 18.7991 26.155 18.8981C26.2024 18.9478 26.222 18.9827 26.2668 19.0351C26.3009 19.0753 26.3152 19.1035 26.3573 19.1348C26.3859 19.1558 26.4387 19.1786 26.4387 19.1786C26.4387 19.1786 26.5103 19.2118 26.615 19.2695C26.7197 19.3272 26.8423 19.4906 26.8423 19.4906L26.9166 19.6042L26.9605 19.6691L26.9721 19.6991L26.9882 19.7358C26.9882 19.7358 27.0419 19.8056 27.0813 19.8284C27.1207 19.8522 27.1135 19.8728 27.1135 19.8728C27.1135 19.8728 27.1091 19.8871 27.0813 19.9028C27.0545 19.9194 27.0392 19.9054 26.9999 19.8938C26.9605 19.8826 26.9345 19.8451 26.9006 19.8177C26.8647 19.7891 26.8271 19.7197 26.7636 19.6803C26.7072 19.6464 26.6339 19.6343 26.6052 19.6253C26.5774 19.6151 26.5076 19.5712 26.4798 19.5591C26.453 19.5483 26.3805 19.5152 26.3805 19.5152C26.3805 19.5152 26.241 19.4374 26.1639 19.4164C26.0869 19.3948 26.1361 19.4419 26.1361 19.4419C26.1361 19.4419 26.2051 19.5493 26.2713 19.5922C26.3573 19.649 26.478 19.6992 26.4387 19.7452C26.4118 19.7752 26.376 19.7645 26.3366 19.76C26.2722 19.7524 26.1943 19.6754 26.1943 19.6754C26.1943 19.6754 26.1621 19.6544 26.018 19.6087C25.8748 19.5617 25.9276 19.6405 25.9607 19.683C25.993 19.7242 26.0369 19.7479 26.0369 19.7479L26.1344 19.7918L26.1792 19.8056C26.1792 19.8056 26.2186 19.8128 26.3484 19.8432C26.4781 19.8728 26.5498 19.9359 26.5498 19.9359C26.5498 19.9359 26.6195 20.0008 26.7162 20.0724C26.8146 20.1449 26.9113 20.1633 26.965 20.1704C27.0187 20.1771 27.0169 20.2147 27.0169 20.2147C27.0169 20.2147 27.0241 20.2492 27.0206 20.2604C27.0188 20.272 27.0072 20.2814 26.9955 20.2814C26.9847 20.2814 26.9794 20.2859 26.9651 20.2935C26.9508 20.3007 26.8953 20.3096 26.8953 20.3096C26.8953 20.3096 26.7503 20.3052 26.6357 20.2769C26.523 20.2492 26.4227 20.1704 26.4119 20.166C26.403 20.1615 26.2973 20.1029 26.224 20.0796C26.1533 20.0559 26.0396 20.0662 26.027 20.0707C26.0154 20.0752 25.976 20.0814 25.9089 20.1011C25.8409 20.119 25.9259 20.1449 25.9259 20.1449L25.9742 20.1494L26.0897 20.1584C26.0897 20.1584 26.2097 20.1722 26.3108 20.2098C26.4119 20.2465 26.4782 20.3208 26.5453 20.3888C26.6124 20.4555 26.6867 20.4994 26.6867 20.4994L26.7404 20.5343L26.7682 20.5553L26.7754 20.5736C26.7754 20.5736 26.7727 20.583 26.7682 20.5946C26.7637 20.6067 26.7467 20.6156 26.7467 20.6156C26.7467 20.6156 26.7217 20.6111 26.7109 20.6111C26.6984 20.6111 26.6223 20.5709 26.566 20.5463C26.5078 20.5208 26.4782 20.4966 26.4156 20.4813C26.3619 20.4684 26.2903 20.4625 26.2741 20.4675C26.2581 20.472 26.1398 20.4885 26.0485 20.4948C25.9573 20.5019 25.8785 20.5033 25.7711 20.4903C25.6181 20.472 25.4149 20.3511 25.3889 20.3847C25.3361 20.4554 25.4972 20.4755 25.576 20.5207C25.6834 20.5829 25.8696 20.6389 25.8696 20.6389C25.8696 20.6389 26.0056 20.6689 26.0853 20.7064C26.2598 20.7875 26.3126 20.9074 26.4531 21.0336C26.5301 21.1043 26.5928 21.1347 26.6966 21.15C26.7861 21.163 26.7843 21.1522 26.9257 21.1245C27.068 21.0963 27.154 20.9616 27.1951 21.0108C27.2032 21.0203 27.1996 21.0292 27.1978 21.0431C27.1951 21.0569 27.1836 21.0825 27.1836 21.0825C27.1836 21.0825 27.1674 21.1053 27.1424 21.1312C27.1164 21.1567 27.0188 21.21 26.9678 21.231C26.9168 21.2521 26.7915 21.287 26.634 21.282C26.4764 21.2776 26.2545 21.1567 26.2545 21.1567L26.0952 21.0896C26.0952 21.0896 26.0218 21.0551 25.9717 21.0363C25.8392 20.9862 25.7551 20.9907 25.619 20.9549C25.5349 20.9321 25.4794 20.9083 25.4033 20.8927C25.3263 20.8762 25.3702 20.9066 25.3774 20.9173C25.4131 20.966 25.4614 20.9817 25.5224 21.0099C25.6029 21.0493 25.6593 21.0413 25.7416 21.0762C25.8339 21.1134 25.9144 21.1657 25.9655 21.1988C26.0156 21.2311 26.0532 21.2678 26.1024 21.3188L26.2716 21.4638C26.2716 21.4638 26.3109 21.496 26.3154 21.5095C26.3198 21.5234 26.3386 21.5582 26.3297 21.6142C26.3198 21.6702 26.2742 21.6308 26.2742 21.6308L26.2295 21.6021L26.1847 21.561L26.1139 21.5024C26.1139 21.5024 26.0531 21.4473 25.9484 21.394C25.8446 21.3399 25.7192 21.3264 25.7192 21.3264C25.7192 21.3264 25.6082 21.3099 25.6118 21.3448C25.6172 21.3793 25.6421 21.3824 25.7299 21.4052C25.8185 21.4281 25.8767 21.4728 25.8767 21.4728C25.8767 21.4728 25.9672 21.54 26.0324 21.6142C26.0968 21.6885 26.1157 21.7606 26.1157 21.7606C26.1157 21.7606 26.1488 21.8214 26.2321 21.902C26.3153 21.9834 26.3592 21.9552 26.3546 21.9946C26.3502 22.034 26.3134 22.0412 26.3134 22.0412C26.3134 22.0412 26.292 22.0393 26.2831 22.0393C26.2741 22.0393 26.2526 22.0273 26.2294 22.0183C26.2061 22.0094 26.1184 21.9485 26.1184 21.9485C26.1184 21.9485 25.9806 21.8367 25.9653 21.8259C25.9483 21.8138 25.8186 21.7167 25.8186 21.7167C25.8186 21.7167 25.7416 21.6675 25.6869 21.6397C25.6306 21.6124 25.5563 21.5838 25.5142 21.5699C25.4731 21.5565 25.396 21.552 25.396 21.552C25.396 21.552 25.3039 21.5381 25.2475 21.5171C25.1589 21.4831 25.0559 21.3886 25.0443 21.3841C25.0318 21.3793 24.9494 21.351 24.9333 21.3537C24.9173 21.3555 24.8796 21.5113 24.8707 21.6012C24.8331 21.9781 24.9333 22.2282 25.0891 22.5737C25.3137 23.0758 25.9393 23.7001 25.9393 23.7001C25.9393 23.7001 26.0969 23.7892 26.1632 23.8424C26.3502 23.9888 26.6599 24.196 26.9347 24.4699C27.1692 24.7048 27.4808 25.1214 27.4808 25.1214C27.4808 25.1214 27.6615 25.373 27.7457 25.5511C27.8477 25.7695 27.9301 26.1025 27.9301 26.1025C27.9301 26.1025 27.9372 26.1598 27.9426 26.1723C27.9498 26.1839 27.9658 26.1992 27.9766 26.1992L28.0858 26.2028C28.0965 26.2028 28.2209 26.1939 28.3033 26.1732C28.3848 26.1526 28.5781 26.064 28.707 25.9969C28.8341 25.9288 28.9871 25.8 28.9871 25.8C28.9871 25.8 29.0166 25.7749 29.1653 25.6084C29.3157 25.442 29.4123 25.1923 29.449 25.0978C29.4848 25.0043 29.5144 24.824 29.5359 24.516C29.5591 24.2068 29.5171 23.881 29.5171 23.881C29.5171 23.881 29.4607 23.4263 29.4266 23.2714C29.3926 23.1175 29.3103 22.865 29.3103 22.865C29.3103 22.865 29.253 22.6405 29.2351 22.4986C29.2163 22.3567 29.2136 22.1258 29.2136 22.1258C29.2136 22.1258 29.2136 21.9844 29.2592 21.723C29.3067 21.463 29.466 21.2008 29.466 21.2008C29.466 21.2008 29.5108 21.1125 29.6827 20.9067C29.859 20.6959 29.9153 20.6628 30.089 20.537C30.2269 20.4381 30.4049 20.2788 30.4632 20.3164C30.5276 20.3566 30.4004 20.4372 30.3575 20.4793C30.2492 20.5867 30.047 20.7764 29.8831 21.0624C29.74 21.3099 29.6862 21.4737 29.6505 21.6353C29.6146 21.7964 29.6299 21.9736 29.6344 22.034C29.6398 22.0945 29.6729 22.0725 29.6729 22.0725C29.6729 22.0725 30.021 21.7928 30.2099 21.5811C30.4149 21.352 30.5974 20.9443 30.669 20.9407C30.7173 20.9376 30.7397 21.0468 30.7281 21.0974C30.6834 21.309 30.6682 21.3354 30.5992 21.476C30.5205 21.6371 30.4472 21.7087 30.3379 21.8573C30.2233 22.013 30.1669 22.0725 30.0748 22.2788C29.9415 22.5755 30.0193 22.8047 30.0193 22.8047C30.0193 22.8047 30.0354 22.9439 30.098 22.9421C30.2028 22.9385 30.4328 22.648 30.5832 22.4104C30.6942 22.2363 30.7345 22.0349 30.807 21.9292C30.8732 21.8357 30.9315 22.0814 30.9028 22.2264C30.8696 22.3987 30.7846 22.5536 30.5976 22.7975C30.415 23.0355 30.4203 23.262 30.4203 23.262C30.4203 23.262 30.4015 23.3654 30.3863 23.591C30.372 23.8156 30.4364 24.1567 30.4364 24.1567C30.4364 24.1567 30.4936 24.4417 30.5054 24.6579C30.5162 24.8753 30.5089 25.369 30.3057 25.7534C30.2252 25.9074 30.0524 26.1204 30.0524 26.1204C30.0524 26.1204 29.919 26.2574 29.8098 26.337C29.7006 26.4167 29.4383 26.5411 29.4383 26.5411C29.4383 26.5411 29.2567 26.6037 29.2316 26.6092C29.2047 26.6163 29.1887 26.6387 29.1887 26.6387C29.1887 26.6387 29.2047 26.6736 29.2119 26.6879C29.2181 26.7023 29.2691 26.8275 29.2691 26.8275C29.2691 26.8275 29.3237 27.0047 29.3443 27.1453C29.3649 27.2858 29.3407 27.318 29.3211 27.4254C29.3014 27.5284 29.2567 27.4809 29.245 27.6832C29.2352 27.8623 29.3157 27.9517 29.3014 28.1523C29.2952 28.24 29.1958 28.0413 29.1474 27.9572C29.0454 27.7745 29.0695 27.4935 29.0678 27.4237C29.065 27.3539 29.0596 27.2769 29.0337 27.1892C29.0024 27.0746 28.955 26.986 28.9022 26.9162C28.8484 26.8472 28.7921 26.8079 28.7733 26.8151C28.7545 26.8213 28.7527 26.858 28.7527 26.8759C28.7517 26.8956 28.7893 26.9619 28.7974 26.9762C28.8072 26.9896 28.8744 27.1123 28.8744 27.1123C28.8744 27.1123 28.9039 27.2072 28.9155 27.3916C28.9272 27.5742 28.8708 27.8015 28.8708 27.8015C28.8708 27.8015 28.7973 28.0566 28.7204 28.207C28.6344 28.3725 28.4438 28.5981 28.4438 28.5981C28.4438 28.5981 28.3069 28.7234 28.2039 28.9293C28.1028 29.1351 28.1896 29.2247 28.152 29.2515C28.1126 29.2774 28.032 29.1324 28.0106 29.0349C27.99 28.9436 27.9998 28.9006 28.0374 28.7985C28.0723 28.7001 28.1547 28.5577 28.1547 28.5577L28.2773 28.3492C28.2773 28.3492 28.4259 28.0664 28.4725 27.8605C28.519 27.6564 28.4653 27.4291 28.4653 27.4291C28.4653 27.4291 28.4591 27.3539 28.4081 27.3575C28.3561 27.3602 28.3204 27.405 28.2988 27.4595C28.2567 27.5723 28.3168 27.5518 28.2522 27.7397C28.2022 27.8874 28.1878 27.8677 28.161 27.9554C28.1287 28.0601 28.1117 28.1675 28.1136 28.2329C28.1163 28.2973 28.0805 28.2705 28.0805 28.2705C28.0805 28.2705 28.0178 28.1541 28.0178 28.0091C28.0178 27.9304 28.0214 27.8856 28.0304 27.8068C28.0447 27.6806 28.0966 27.4873 28.0966 27.4873C28.0966 27.4873 28.1521 27.2966 28.1405 27.123C28.1272 26.9475 28.0662 26.9154 28.0662 26.9154C28.0662 26.9154 28.0502 26.8921 27.9821 26.8956C27.915 26.9011 27.9186 27.0218 27.9186 27.0218C27.9186 27.0218 27.898 27.1946 27.8712 27.302C27.7969 27.5982 27.6975 27.754 27.5221 28.0037C27.3628 28.2293 27.1471 28.428 27.0387 28.5211C26.9313 28.616 26.6001 28.8568 26.6001 28.8568L26.2117 29.1154C26.2117 29.1154 26.0577 29.2658 25.9879 29.4448C25.9163 29.623 25.9199 29.7626 25.961 29.9263C26.0022 30.0911 26.0613 30.1662 26.0926 30.2127C26.123 30.2576 26.1831 30.338 26.2027 30.433C26.2152 30.4911 26.2063 30.526 26.2099 30.5851C26.2136 30.637 26.2206 30.6657 26.2188 30.7185C26.217 30.8008 26.2322 30.8589 26.1848 30.9261C26.1508 30.9771 26.0577 31.0218 26.0577 31.0218C26.0577 31.0218 25.9521 31.0683 25.8894 31.1068C25.2288 31.5052 24.9944 31.7638 24.622 32.2078C24.5038 32.3501 24.5907 32.3412 24.4645 32.5094C24.3879 32.6097 24.2112 32.6097 24.1472 32.7296C24.0581 32.8934 24.3477 33.0545 24.0133 33.1987C23.5824 33.3848 22.8408 33.2514 22.826 33.1933C22.7858 33.0339 22.971 32.8496 23.0368 32.7762C23.3384 32.4468 23.6079 32.4387 23.7068 32.1658C23.7283 32.1076 23.7198 32.0575 23.9601 31.8793C24.1288 31.7549 24.8028 31.2474 25.0973 30.9091C25.1984 30.7927 25.2852 30.7158 25.3291 30.5904C25.3739 30.4632 25.2852 30.3836 25.2852 30.3836L25.1644 30.1867L24.9326 29.7723C24.9326 29.7723 24.835 29.5521 24.7822 29.425C24.7276 29.2979 24.6265 28.9559 24.6265 28.9559C24.6265 28.9559 24.5522 28.6481 24.5396 28.4475C24.5173 28.0877 24.5665 27.8783 24.6614 27.5292C24.784 27.0764 25.0624 26.8866 25.1734 26.4372C25.2057 26.3066 25.2128 26.0828 25.1465 26.0936C25.0838 26.1052 25.0785 26.2815 25.0302 26.3997C24.8512 26.8454 24.6148 27.0406 24.4851 27.5024C24.3983 27.8147 24.3625 28.0001 24.3633 28.3241C24.3643 28.5093 24.3571 28.4753 24.4045 28.7967C24.4233 28.9148 24.4519 28.9783 24.4869 29.0938C24.5119 29.1761 24.5791 29.3301 24.5791 29.3301C24.5791 29.3301 24.6713 29.5333 24.7035 29.6756C24.7133 29.7249 24.7259 29.7525 24.7222 29.8018C24.716 29.8868 24.7312 29.9048 24.6901 29.9817C24.639 30.0775 24.6703 30.1339 24.5074 30.1696C24.3624 30.2 24.0662 30.1034 24.0662 30.1034C24.0662 30.1034 22.8484 29.7346 22.0711 29.8411C21.9171 29.8617 21.8343 29.9181 21.6795 29.9154C21.5385 29.9136 21.4669 29.8035 21.3259 29.8456C21.2973 29.8537 21.2883 29.8742 21.2624 29.8913C21.0565 30.0344 21.214 30.2725 20.6717 30.149C20.3387 30.0729 19.9355 29.8689 20.0053 29.7409C20.0988 29.5708 20.2241 29.543 20.4873 29.4347C20.7688 29.3201 21.1912 29.3524 21.2745 29.347C21.3761 29.3389 21.522 29.2682 21.7036 29.2638C22.0178 29.2584 22.0737 29.296 22.0737 29.296L22.6072 29.3434L23.628 29.356C23.628 29.356 23.8106 29.3425 23.8831 29.3282C23.9565 29.3138 24.0142 29.1697 24.0544 29.1008C24.0939 29.0328 24.0527 28.9325 24.0527 28.9325L24.0223 28.8851L23.9251 28.7285L23.7457 28.4259L23.5466 28.0286C23.5466 28.0286 23.4163 27.752 23.347 27.5703C23.278 27.3895 23.2378 27.2874 23.1921 27.1004C23.1442 26.9079 23.1147 26.7522 23.1084 26.5974C23.1009 26.3752 23.0861 26.2024 23.1483 26.0207Z" fill="black"/>
<path d="M29.7752 25.652C29.99 25.3763 30.0107 25.1202 30.0232 24.7596C30.033 24.4974 29.9337 24.0932 29.9337 24.0932L29.9202 24.0637C29.9202 24.0637 29.8826 24.0149 29.8595 24.0793C29.863 24.1362 29.8702 24.1818 29.8702 24.1818L29.8827 24.7023C29.8827 24.7023 29.8666 24.9646 29.7772 25.2349C29.6268 25.6914 29.2276 25.8945 29.1694 26.0592C29.0699 26.3322 29.5184 25.984 29.7752 25.652Z" fill="white"/>
<path d="M27.5236 26.4943C27.5236 26.4943 27.4359 26.5193 27.4341 26.6061C27.4323 26.693 27.4555 26.7681 27.4528 26.8729C27.4511 27.0063 27.3285 27.1602 27.4072 27.2103C27.5424 27.2962 27.6587 26.6912 27.6176 26.6017C27.5764 26.5121 27.5361 26.4933 27.5236 26.4943Z" fill="white"/>
<path d="M26.0074 30.6893C26.0074 30.6893 25.9823 30.676 25.9331 30.6948C25.8848 30.7135 25.8883 30.7637 25.8883 30.7637C25.8883 30.7637 25.8785 30.8174 25.9179 30.8228C25.9573 30.83 26.0217 30.7333 26.0217 30.7225C26.0217 30.7117 26.0074 30.6893 26.0074 30.6893Z" fill="white"/>
<path d="M24.5807 31.7034C24.5807 31.7034 24.5663 31.7178 24.5789 31.7276C24.5923 31.7393 24.6111 31.7249 24.6111 31.7249C24.6111 31.7249 24.8572 31.5325 25.0031 31.3973C25.1571 31.2524 25.3791 31.0026 25.3791 31.0026C25.3791 31.0026 25.3943 30.9838 25.3773 30.9677C25.3593 30.9516 25.3173 30.9766 25.2824 30.9927C25.252 31.0089 25.2341 31.0258 25.2109 31.0447C25.1894 31.0644 25.116 31.1396 25.116 31.1396L24.9262 31.324L24.8062 31.4367L24.6899 31.5477L24.6415 31.6032C24.6415 31.6032 24.629 31.6247 24.6255 31.6301C24.6218 31.6363 24.6094 31.6524 24.6094 31.6524C24.6094 31.6524 24.5914 31.6695 24.5914 31.6748C24.5914 31.6793 24.586 31.6838 24.586 31.6892C24.5842 31.6963 24.5807 31.7034 24.5807 31.7034Z" fill="white"/>
<path d="M24.155 31.9828C24.155 31.9828 24.1286 31.9613 24.087 31.9819C24.0449 32.0043 24.0002 32.0614 23.9965 32.0678C23.9926 32.0759 23.9697 32.1063 23.9854 32.1331C24.0011 32.16 24.0543 32.1206 24.0623 32.1188C24.07 32.1188 24.1394 32.0634 24.1394 32.0634C24.1394 32.0634 24.1796 32.0382 24.155 31.9828Z" fill="white"/>
<path d="M23.3399 32.808C23.3399 32.808 23.305 32.7436 23.2593 32.7704C23.2136 32.7973 23.1886 32.8062 23.1465 32.8644C23.1394 32.8742 23.0942 32.9324 23.0861 32.9476C23.078 32.962 23.0328 33.0479 23.1246 33.0541C23.2821 33.063 23.1787 32.962 23.2329 32.9225C23.2767 32.8922 23.3591 32.9002 23.36 32.868C23.3609 32.8358 23.3399 32.808 23.3399 32.808Z" fill="white"/>
<path d="M20.5475 29.5105C20.5475 29.5105 20.4531 29.5338 20.446 29.5661C20.4383 29.6001 20.501 29.6323 20.5108 29.634C20.522 29.6358 20.5431 29.6609 20.6061 29.6179C20.6683 29.5759 20.6656 29.5401 20.6656 29.5401C20.6656 29.5401 20.7024 29.4971 20.5475 29.5105Z" fill="white"/>
<path d="M22.0833 29.4604C22.0833 29.4604 22.0823 29.4255 22.0157 29.4301C21.9476 29.4337 21.9333 29.4461 21.9315 29.4569C21.9293 29.4667 21.9351 29.4838 21.9955 29.4891C22.0569 29.4927 22.0815 29.4891 22.0833 29.4604Z" fill="white"/>
<path d="M23.5358 29.5025C23.4136 29.5015 23.4521 29.5052 23.3769 29.5088C23.2404 29.5159 23.1661 29.5105 23.0314 29.5015C22.8425 29.489 22.5503 29.4425 22.5503 29.4425C22.5503 29.4425 22.5136 29.4336 22.4988 29.4577C22.4854 29.4801 22.5346 29.532 22.5785 29.5455C22.8179 29.6198 22.8309 29.6073 22.9938 29.6099C23.0847 29.6108 23.1352 29.6018 23.2256 29.5964C23.3402 29.5876 23.3934 29.6054 23.5183 29.5723C23.5509 29.5642 23.5823 29.5034 23.5358 29.5025Z" fill="white"/>
<path d="M24.3537 29.2599C24.3537 29.2599 24.3291 29.2313 24.2784 29.2564C24.2284 29.2805 24.1979 29.3351 24.1979 29.3351C24.1979 29.3351 24.1742 29.3727 24.2248 29.3674C24.274 29.3602 24.3183 29.3387 24.3299 29.3316C24.3429 29.3243 24.3796 29.2903 24.3537 29.2599Z" fill="white"/>
<path d="M23.6415 19.4406C23.6415 19.4406 23.987 19.1171 24.2345 18.6893C24.3812 18.4341 24.4452 17.8403 24.3191 17.9879C24.2622 18.0556 24.1933 18.3635 24.0841 18.5916C23.9283 18.9165 23.5958 19.3766 23.5958 19.3766C23.5958 19.3766 23.5243 19.5297 23.6415 19.4406Z" fill="white"/>
<path d="M22.2608 20.2628C22.2608 20.2628 22.224 20.2914 22.2406 20.3371C22.2581 20.3837 22.3284 20.3488 22.3284 20.3488C22.3284 20.3488 22.4881 20.2884 22.6555 20.2821C22.8233 20.2749 23.056 20.325 23.056 20.325C23.056 20.325 23.167 20.3554 23.1854 20.3626C23.2037 20.3702 23.2642 20.3993 23.2745 20.4029C23.2834 20.4069 23.3411 20.4351 23.3734 20.406C23.4056 20.3764 23.1715 20.1639 22.9326 20.1317C22.5347 20.0775 22.2734 20.2489 22.2734 20.2489L22.2608 20.2628Z" fill="white"/>
<path d="M20.6215 21.664C20.6497 21.6882 20.7826 21.4349 20.8936 21.2747C20.975 21.1574 21.1237 20.9614 21.1237 20.9614C21.1237 20.9614 21.1908 20.8715 21.0771 20.9216C21.0311 20.9422 20.9049 21.0384 20.8158 21.2152C20.7406 21.3655 20.592 21.6403 20.6215 21.664Z" fill="white"/>
<path d="M19.7024 20.5635C19.7024 20.5635 19.6737 20.6615 19.7883 20.7841C19.9038 20.9072 19.9333 21.0088 20.0068 20.9354C20.0269 20.9153 19.9351 20.7497 19.8886 20.7036C19.8407 20.6579 19.8067 20.6203 19.8067 20.6203L19.7767 20.5957L19.7382 20.5743L19.7163 20.5654C19.7163 20.5654 19.7104 20.5599 19.7024 20.5635Z" fill="white"/>
<path d="M19.3299 19.6237C19.3299 19.6237 19.2055 19.647 19.1751 19.7074C19.1442 19.7678 19.3182 19.7311 19.3182 19.7311C19.3182 19.7311 19.4337 19.7373 19.4364 19.6935C19.4391 19.6488 19.4217 19.6443 19.3299 19.6237Z" fill="white"/>
<path d="M17.3533 22.8996C17.2897 22.8813 17.279 23.0062 17.2705 23.0464C17.2633 23.0867 17.2991 23.1673 17.3139 23.1673C17.3282 23.1663 17.3787 23.0876 17.3814 23.0491C17.3842 23.0098 17.4092 22.9171 17.3533 22.8996Z" fill="white"/>
<path d="M19.4064 25.3396C19.4064 25.3396 19.2927 25.2496 19.2752 25.2854C19.2582 25.3212 19.3688 25.4792 19.3688 25.4792C19.3688 25.4792 19.4027 25.5311 19.4551 25.5078C19.5065 25.4828 19.4882 25.4255 19.4882 25.4255C19.4882 25.4255 19.4533 25.3521 19.4064 25.3396Z" fill="white"/>
<path d="M18.5492 22.7009C18.5492 22.7009 18.5202 22.6934 18.5099 22.7282C18.4991 22.7631 18.5 22.82 18.4924 22.8888C18.4862 22.9426 18.5063 23.0858 18.5063 23.0858C18.5063 23.0858 18.5175 23.1995 18.5403 23.2671C18.5649 23.3413 18.6302 23.447 18.6302 23.447C18.6302 23.447 18.6548 23.5012 18.6853 23.4985C18.7152 23.4953 18.7081 23.46 18.7081 23.46C18.7081 23.46 18.6128 23.0823 18.6101 23.0438C18.5989 22.9181 18.5989 22.765 18.5989 22.765L18.598 22.7421C18.598 22.7421 18.5971 22.7018 18.5492 22.7009Z" fill="white"/>
<path d="M18.6978 21.5486C18.6978 21.5486 18.6454 21.5387 18.5972 21.6394C18.5484 21.7414 18.5587 21.7826 18.5631 21.7871C18.5667 21.7916 18.6052 21.7907 18.667 21.6963C18.7283 21.6027 18.7144 21.5669 18.7144 21.5669C18.7144 21.5669 18.7108 21.5486 18.6978 21.5486Z" fill="white"/>
<path d="M20.1381 22.5926C20.1381 22.5926 20.2012 22.687 20.0804 22.6651C19.9591 22.6432 19.7045 22.4422 19.6006 22.3881C19.4981 22.334 19.3294 22.3169 19.4001 22.2534C19.4131 22.2427 19.4167 22.2323 19.4368 22.2315C19.4579 22.2306 19.5277 22.2579 19.5321 22.261C19.5357 22.2627 19.7151 22.337 19.7218 22.3388C19.7281 22.3415 19.8288 22.3845 19.9004 22.4265C19.972 22.469 20.0883 22.5505 20.0883 22.5505L20.1381 22.5926Z" fill="white"/>
<path d="M23.4948 25.4828C23.5279 25.5866 23.1126 25.2635 22.8902 25.0921C22.3008 24.6382 21.5793 23.7079 21.6693 23.6255C21.7436 23.5579 22.0394 23.984 22.4731 24.4534C22.9367 24.9538 23.4755 25.421 23.4948 25.4828Z" fill="white"/>
<path d="M25.2287 25.0379C25.0998 25.1753 25.0542 25.3512 25.1284 25.4828C25.2009 25.6107 25.2233 25.2957 25.3039 25.203C25.3737 25.122 25.4167 25.135 25.5312 25.0536C25.7264 24.9162 25.3916 24.863 25.2287 25.0379Z" fill="white"/>
<path d="M24.491 22.1012C24.4024 22.0869 24.405 22.2216 24.4175 22.317C24.4767 22.7439 24.6683 23.0728 24.9241 23.3825C25.0799 23.5714 25.5069 23.9079 25.5561 23.8538C25.574 23.8345 25.1497 23.5065 24.8794 23.085C24.6879 22.786 24.5858 22.5332 24.5617 22.2866C24.559 22.2552 24.5661 22.1133 24.491 22.1012Z" fill="white"/>
<path d="M22.838 15.7736C22.6456 15.8778 22.3117 15.9696 22.3117 15.9696C22.3117 15.9696 22.2965 16.0027 22.3395 15.9992C22.6255 15.9763 22.7346 15.9405 22.8868 15.8734C23.039 15.8077 23.1495 15.625 23.1495 15.625C23.1495 15.625 23.2113 15.5113 23.0968 15.6049C23.0609 15.6335 22.9436 15.7159 22.838 15.7736Z" fill="white"/>
<path d="M25.1598 15.0401C25.1598 15.0401 25.0945 15.0257 25.0506 15.0531C25.0067 15.0808 25.0192 15.1028 25.0192 15.1028C25.0192 15.1028 25.0873 15.1547 25.1356 15.1632C25.1839 15.1704 25.2877 15.2156 25.2842 15.1807C25.2797 15.1449 25.2216 15.0809 25.2009 15.0635C25.1822 15.045 25.1598 15.0401 25.1598 15.0401Z" fill="white"/>
<path d="M24.0667 17.0451C24.0779 17.0679 24.273 17.0146 24.3482 16.9725C24.4069 16.9394 24.4301 16.8284 24.4301 16.8284C24.4301 16.8284 24.4462 16.721 24.4212 16.7626C24.3097 16.9448 24.0559 17.0217 24.0667 17.0451Z" fill="white"/>
<path d="M24.0604 16.5442C24.1392 16.393 23.8442 16.7013 23.6938 16.781C23.6021 16.8293 23.4526 16.8937 23.4526 16.8937C23.4526 16.8937 23.4132 16.9429 23.4683 16.9385C23.5233 16.9349 23.6634 16.9823 23.7771 16.8946C23.804 16.8731 23.9221 16.7013 23.9221 16.7013C23.9221 16.7013 24.0227 16.6158 24.0604 16.5442Z" fill="white"/>
<path d="M24.0147 17.1878C24.0209 17.2124 24.3516 17.2043 24.4345 17.1793C24.4998 17.1614 24.5356 17.0459 24.5356 17.0459C24.5356 17.0459 24.575 16.9448 24.541 16.9788C24.3911 17.1319 24.009 17.1632 24.0147 17.1878Z" fill="white"/>
<path d="M18.7029 20.2171C18.7029 20.2171 18.6529 20.1988 18.5907 20.2923C18.5289 20.3854 18.2505 20.8083 18.2997 20.8705C18.3583 20.9439 18.5996 20.4928 18.673 20.4087C18.7473 20.3232 18.7169 20.2373 18.7169 20.2373C18.7169 20.2373 18.716 20.218 18.7029 20.2171Z" fill="white"/>
<path d="M24.7666 27.8422C24.7362 27.9827 24.772 28.2701 24.8204 28.3264C24.9385 28.4687 24.866 28.1035 24.883 27.9755C24.8973 27.8565 24.9116 27.8153 24.9707 27.6882C25.0763 27.4591 24.8285 27.5432 24.7666 27.8422Z" fill="white"/>
<path d="M23.7508 15.6215C23.7508 15.6215 23.6591 15.6241 23.5875 15.6635C23.515 15.7029 23.4971 15.7589 23.4971 15.7589C23.4971 15.7589 23.4823 15.7991 23.4922 15.8211C23.5132 15.869 23.6126 15.7965 23.6819 15.8202C23.7378 15.8403 23.7647 15.8569 23.8076 15.9083C23.8452 15.9531 23.911 16.0175 23.9522 15.9808C23.9947 15.945 23.9791 15.8533 23.9791 15.8533C23.9791 15.8533 23.9303 15.7038 23.8663 15.6617C23.8018 15.6188 23.7508 15.6215 23.7508 15.6215Z" fill="white"/>
<path d="M22.2263 16.6727C22.2263 16.6727 22.1748 16.6807 22.1869 16.7434C22.199 16.8047 22.2326 16.7953 22.2326 16.7953C22.2326 16.7953 22.3391 16.7496 22.3328 16.6857C22.3252 16.6212 22.2263 16.6727 22.2263 16.6727Z" fill="white"/>
<path d="M21.4821 16.3389C21.4821 16.3389 21.4262 16.3411 21.3868 16.4104C21.3484 16.4794 21.3255 16.551 21.3255 16.551C21.3255 16.551 21.3072 16.6414 21.3394 16.67C21.3721 16.6982 21.4078 16.6114 21.4548 16.5774C21.483 16.5573 21.5005 16.5483 21.5296 16.5277C21.5694 16.5004 21.6343 16.5353 21.6298 16.4548C21.624 16.3737 21.5381 16.3352 21.4821 16.3389Z" fill="white"/>
<path d="M23.8875 15.4729C23.8875 15.4729 23.7609 15.4545 23.7658 15.5033C23.7702 15.5489 23.8343 15.5216 23.8754 15.54C23.9157 15.5583 23.9426 15.5655 23.9748 15.595C23.9985 15.616 23.9958 15.6572 24.0249 15.6581C24.0652 15.659 24.0571 15.6425 24.0571 15.6425C24.0571 15.6425 24.0204 15.5333 23.9726 15.5024C23.9251 15.4711 23.8875 15.4729 23.8875 15.4729Z" fill="white"/>
<path d="M25.3003 15.9835C25.2824 16.0524 25.2716 16.0761 25.2716 16.0761C25.2716 16.0761 25.2359 16.2162 25.3773 16.1647C25.5187 16.1127 25.4453 16.1347 25.5473 16.0851C25.6476 16.0358 25.6458 16.0631 25.7192 16.0667C25.7442 16.0676 25.7603 16.0685 25.798 16.0614C25.8301 16.0542 25.8167 16.0166 25.7451 15.9973C25.6682 15.9772 25.5742 15.9817 25.4651 15.9807C25.4006 15.9799 25.3191 15.9146 25.3003 15.9835Z" fill="white"/>
<path d="M25.3628 15.4657C25.3628 15.4657 25.2983 15.4509 25.2536 15.4787C25.2097 15.506 25.2231 15.5279 25.2231 15.5279C25.2231 15.5279 25.2903 15.5812 25.3395 15.5884C25.3878 15.5969 25.4916 15.6416 25.4881 15.6058C25.4827 15.5709 25.4254 15.506 25.4048 15.4886C25.3843 15.4711 25.3628 15.4657 25.3628 15.4657Z" fill="white"/>
<path d="M25.6115 16.4382C25.6115 16.4382 25.5425 16.4243 25.495 16.4507C25.4485 16.4767 25.461 16.4977 25.461 16.4977C25.461 16.4977 25.5344 16.547 25.5863 16.5546C25.6383 16.5617 25.7492 16.6038 25.7448 16.5702C25.7403 16.5371 25.6776 16.4758 25.657 16.4593C25.6364 16.4426 25.6115 16.4382 25.6115 16.4382Z" fill="white"/>
<path d="M25.6333 16.7908C25.6333 16.7908 25.5599 16.7743 25.5098 16.8047C25.4597 16.8347 25.4748 16.8589 25.4748 16.8589C25.4748 16.8589 25.551 16.9166 25.6065 16.9247C25.661 16.9332 25.7792 16.9815 25.7738 16.943C25.7694 16.9045 25.7031 16.8347 25.6798 16.8159C25.6584 16.7961 25.6333 16.7908 25.6333 16.7908Z" fill="white"/>
<path d="M25.6662 17.1345C25.6662 17.1345 25.5865 17.1162 25.5328 17.1502C25.4782 17.1842 25.4952 17.2115 25.4952 17.2115C25.4952 17.2115 25.5775 17.2759 25.6366 17.2858C25.6966 17.2952 25.8245 17.3502 25.8193 17.3068C25.8138 17.2639 25.7422 17.1842 25.7172 17.1632C25.6939 17.1408 25.6662 17.1345 25.6662 17.1345Z" fill="white"/>
<path d="M25.6591 17.5597C25.6591 17.5597 25.5794 17.5427 25.5257 17.5763C25.4711 17.6094 25.4863 17.6367 25.4863 17.6367C25.4863 17.6367 25.5704 17.7011 25.6295 17.711C25.6886 17.7204 25.8166 17.7754 25.8112 17.7324C25.805 17.689 25.7342 17.6094 25.7101 17.5883C25.685 17.5664 25.6591 17.5597 25.6591 17.5597Z" fill="white"/>
<path d="M25.6009 18.3885C25.6009 18.3885 25.5203 18.3711 25.4666 18.4051C25.4129 18.4387 25.429 18.4656 25.429 18.4656C25.429 18.4656 25.5114 18.5304 25.5705 18.5399C25.6305 18.5488 25.7585 18.6047 25.7531 18.5609C25.7477 18.5179 25.6762 18.4387 25.651 18.4168C25.6268 18.3948 25.6009 18.3885 25.6009 18.3885Z" fill="white"/>
<path d="M25.6546 17.9741C25.6546 17.9741 25.5632 17.9531 25.4988 17.9924C25.437 18.0309 25.4558 18.0623 25.4558 18.0623C25.4558 18.0623 25.5516 18.1374 25.6205 18.1482C25.6886 18.1594 25.8372 18.2225 25.8317 18.1733C25.8246 18.1227 25.7422 18.031 25.7136 18.0063C25.685 17.9813 25.6546 17.9741 25.6546 17.9741Z" fill="white"/>
<path d="M25.5615 18.7636C25.5615 18.7636 25.4953 18.7479 25.4506 18.7761C25.4058 18.8038 25.4202 18.8258 25.4202 18.8258C25.4202 18.8258 25.4882 18.8799 25.5365 18.8871C25.5857 18.8952 25.6905 18.9403 25.6869 18.9046C25.6815 18.8687 25.6233 18.8038 25.6028 18.7864C25.5831 18.7681 25.5615 18.7636 25.5615 18.7636Z" fill="white"/>
<path d="M25.4987 19.1224C25.4987 19.1224 25.445 19.1108 25.4074 19.1337C25.3717 19.1565 25.3823 19.1748 25.3823 19.1748C25.3823 19.1748 25.4387 19.2187 25.479 19.2254C25.5192 19.2316 25.6079 19.2702 25.6043 19.2397C25.6007 19.2106 25.5506 19.1565 25.5345 19.1417C25.5175 19.1269 25.4987 19.1224 25.4987 19.1224Z" fill="white"/>
<path d="M25.4217 19.4501C25.4217 19.4501 25.3734 19.4389 25.3394 19.4599C25.3071 19.48 25.3161 19.4975 25.3161 19.4975C25.3161 19.4975 25.3671 19.5369 25.4038 19.5423C25.4405 19.549 25.5193 19.5825 25.5158 19.5561C25.513 19.5297 25.4692 19.48 25.4539 19.467C25.4387 19.4537 25.4217 19.4501 25.4217 19.4501Z" fill="white"/>
<path d="M25.3451 19.7186C25.3451 19.7186 25.295 19.7073 25.2628 19.7275C25.2287 19.7485 25.2386 19.7651 25.2386 19.7651C25.2386 19.7651 25.2897 19.8053 25.3264 19.8107C25.3631 19.8166 25.4418 19.851 25.4383 19.8238C25.4356 19.7974 25.3917 19.7486 25.3756 19.7356C25.3612 19.7222 25.3451 19.7186 25.3451 19.7186Z" fill="white"/>
<path d="M25.251 20.0301C25.251 20.0301 25.2117 20.0206 25.1839 20.0372C25.157 20.0547 25.166 20.0677 25.166 20.0677C25.166 20.0677 25.2071 20.0999 25.2367 20.1053C25.2662 20.1097 25.3306 20.1375 25.3271 20.1151C25.3244 20.0941 25.2886 20.0547 25.277 20.0435C25.2644 20.0327 25.251 20.0301 25.251 20.0301Z" fill="white"/>
<path d="M25.1389 20.3214C25.1389 20.3214 25.1048 20.3133 25.0816 20.3276C25.0583 20.3424 25.0655 20.3544 25.0655 20.3544C25.0655 20.3544 25.1013 20.3817 25.1264 20.3853C25.1514 20.3903 25.2069 20.414 25.2042 20.3948C25.2025 20.3764 25.1711 20.3424 25.1613 20.3334C25.1495 20.3241 25.1389 20.3214 25.1389 20.3214Z" fill="white"/>
<path d="M25.0237 20.5985C25.0237 20.5985 24.9887 20.5908 24.9655 20.6056C24.943 20.6195 24.9511 20.6311 24.9511 20.6311C24.9511 20.6311 24.9852 20.6589 25.0111 20.6633C25.0371 20.6669 25.0916 20.6906 25.089 20.6728C25.0872 20.653 25.0559 20.6195 25.046 20.6101C25.0353 20.6011 25.0237 20.5985 25.0237 20.5985Z" fill="white"/>
<path d="M17.5312 22.0077C17.5312 22.0077 17.4735 22.1196 17.5021 22.1809C17.5303 22.2427 17.6082 22.0829 17.6082 22.0829C17.6082 22.0829 17.6887 21.9235 17.6561 21.8945C17.623 21.865 17.6038 21.9473 17.5312 22.0077Z" fill="white"/>
<path d="M25.6777 36.3765V36.1591C25.6777 35.665 25.9274 35.5683 26.6569 35.5648C27.3282 35.5683 27.5654 35.6525 27.5654 36.0785V37.7228H27.8133V38.0933H26.1735C25.8281 38.0933 25.6025 37.8561 25.6025 37.5643V37.2313C25.6025 36.944 25.7493 36.6934 26.2631 36.6907H26.9039V36.1903C26.9039 35.9289 26.886 35.8976 26.6239 35.8976H26.6211C26.307 35.8976 26.2864 35.9388 26.2864 36.1903V36.3765H25.6777M26.4386 36.9664C26.3097 36.9664 26.2336 37.0702 26.2336 37.1991V37.5168C26.2336 37.6449 26.2882 37.7469 26.4386 37.7487H26.6695C26.7966 37.7487 26.9005 37.7093 26.9005 37.5168L26.9022 36.9664H26.6838C26.6784 36.9664 26.4386 36.9664 26.4386 36.9664Z" fill="black"/>
<path d="M24.1183 36.1841V35.6095H23.2036V35.9514H23.4475V37.7218H23.2036V38.0933H24.3493V37.7218H24.1183V36.7731C24.1183 36.6846 24.6576 36.0034 24.6576 36.0821V37.0246H25.2914V35.964C25.2914 35.7214 25.1329 35.5648 24.8438 35.5648C24.5001 35.5648 24.2678 35.9971 24.1183 36.1841Z" fill="black"/>
<path d="M31.4097 37.7201V35.6095H30.4761V35.9514H30.7375V37.7201H30.4761V38.0933H31.6549V37.7201H31.4097Z" fill="black"/>
<path d="M21.7648 36.1841V35.6095H20.8501V35.9514H21.094V37.7218H20.8501V38.0933H21.9949V37.7218H21.7648V36.7731C21.7648 36.6846 22.3037 36.0034 22.3037 36.0821V37.0246H22.9369V35.964C22.9369 35.7214 22.7793 35.5648 22.4898 35.5648C22.147 35.5648 21.9143 35.9971 21.7648 36.1841Z" fill="black"/>
<path fill-rule="evenodd" clip-rule="evenodd" d="M20.5001 37.2797H19.8584V37.4659C19.8584 37.7183 19.8163 37.7291 19.5034 37.7326H19.499C19.1405 37.7344 19.1606 37.6986 19.1647 37.4659V37.0246H20.5V36.066C20.5 35.7186 20.2378 35.5728 19.5459 35.5702H19.4466C18.6997 35.5737 18.501 35.7438 18.501 36.1734V37.5769C18.501 38.0494 18.7802 38.1291 19.4605 38.1479H19.5347C20.2772 38.1309 20.5 38.0798 20.5 37.6386V37.2797M19.1719 36.1018C19.1719 35.9711 19.2113 35.9066 19.3607 35.9048H19.6422C19.7586 35.9048 19.8234 35.9568 19.8234 36.0498V36.7686H19.1718V36.1018H19.1719Z" fill="black"/>
<path d="M31.0718 35.0993V34.65" stroke="black" stroke-width="0.74" stroke-miterlimit="10"/>
<path d="M28.9772 36.1841V35.6095H28.0615V35.9514H28.305V37.7218H28.0615V38.0933H29.2072V37.7218H28.9772V36.7731C28.9772 36.6846 29.5151 36.0034 29.5151 36.0821V37.0246H30.1497V35.964C30.1497 35.7214 29.9903 35.5648 29.7003 35.5648C29.3585 35.5648 29.1257 35.9971 28.9772 36.1841Z" fill="black"/>
<path d="M17.7006 36.8859V36.5547H17.3439V37.7228H17.9619V38.0933H16.1499V37.7228H16.6319V35.0993H16.2533V34.6482H30.367V35.0993H17.3439V36.1528H17.7006V35.8413H18.111V36.8859H17.7006Z" fill="black"/>
<path d="M31.4006 34.6321H30.7275V35.0761H31.4006V34.6321Z" fill="black"/>
</g>
<defs>
<clipPath id="clip0_1_75753">
<rect width="20.0145" height="32" fill="white" transform="translate(14 8)"/>
</clipPath>
</defs>
</svg>
