<svg width="48" height="48" viewBox="0 0 48 48" fill="none" xmlns="http://www.w3.org/2000/svg">
<g clip-path="url(#clip0_1_99412)">
<path d="M39.7333 23.9998C39.7333 32.6894 32.6891 39.7333 23.9999 39.7333C15.3106 39.7333 8.2666 32.6894 8.2666 23.9998C8.2666 15.3108 15.3106 8.26666 23.9999 8.26666C32.6891 8.26666 39.7333 15.3108 39.7333 23.9998Z" fill="#231F20"/>
<path d="M39.1811 23.9998C39.1811 32.3846 32.3844 39.1814 23.9999 39.1814C15.6154 39.1814 8.81836 32.3846 8.81836 23.9998C8.81836 15.6156 15.6154 8.81863 23.9999 8.81863C32.3844 8.81863 39.1811 15.6156 39.1811 23.9998Z" fill="#BDBCBC"/>
<path d="M11.7901 16.3535C11.7901 16.3661 10.1058 16.6222 10.1074 16.6302C10.1156 16.6721 10.0202 25.2951 11.5584 24.8611C12.5712 24.3845 12.0262 18.7659 12.0262 19.5216C12.0262 20.575 12.1285 22.3027 12.5326 25.0161C12.9881 28.0726 12.7961 28.4534 13.0085 29.1116C12.5145 28.6318 11.7458 28.4159 11.7458 28.4159L12.8357 32.0999L13.6384 32.0917C13.6384 32.0917 13.65 31.8442 13.6605 31.8325C13.6821 31.8323 14.4533 31.8896 14.9832 32.8593C18.0492 38.4707 26.1213 36.3129 24.0083 36.4345L27.3345 36.0341C17.5929 37.7008 15.7654 33.2092 15.2756 32.3125C14.9687 31.8628 14.0865 31.3916 13.5318 31.6599C13.5318 31.6599 14.8857 31.7139 14.8255 31.3549C15.2485 31.7658 13.7735 30.69 13.7735 30.69L13.8477 30.9232C14.0765 30.9463 13.9734 30.6994 14.2145 30.659L13.9153 30.5221C13.877 30.4751 14.0816 30.2309 13.3512 25.3297C12.95 22.6366 13.0308 20.5401 13.0308 19.4968C13.0308 18.4861 12.9649 18.4146 12.9667 18.4071L12.3731 18.0195L12.2592 17.9964C12.0955 17.9632 11.9335 17.9108 11.8632 17.8718C11.8997 17.8176 11.9207 17.7453 11.9207 17.6259C11.9207 17.5104 11.9083 17.3599 11.8922 17.1655C11.871 16.9055 11.8815 15.9739 11.8456 16.285C9.95408 32.7011 12.5725 14.4477 12.2508 14.7984L12.4347 14.59C13.3257 13.5615 16.4383 11.1596 24.4694 10.9718C32.9623 10.7728 33.0008 13.8749 33.0299 13.9203L35.2299 15.01C35.2009 14.9634 32.3433 10.2206 23.7184 10.4225C15.5909 10.6128 13.1783 13.397 12.27 14.4452L12.0904 14.6492C11.717 15.0564 11.2885 15.0601 11.2885 15.6601C11.2885 15.9805 10.9293 16.4073 10.9512 16.6723C11.9996 18.5142 11.6377 17.6037 11.7902 16.3535L11.7901 16.3535ZM35.015 15.5638C34.8298 15.6434 34.8577 15.944 34.8963 16.3597C34.9248 16.6696 34.9575 17.0209 34.8963 17.2661L35.1085 17.3195C35.1787 17.0381 35.1438 16.6669 35.1138 16.3393C35.0948 16.1311 35.0652 15.816 35.1095 15.7601C35.1148 15.7673 35.176 18.1061 35.658 18.6636C36.4244 19.5509 36.0422 19.0404 36.0422 20.5866C36.0422 21.3487 36.6123 22.2369 36.5896 22.548C36.3056 22.1885 36.2249 21.2635 36.1525 20.4338C36.0681 19.4678 35.9958 18.6338 35.6522 18.3566C36.0756 17.9853 34.6042 16.0398 34.7047 17.3572C34.7738 17.8181 34.5484 16.3226 34.2212 15.8135C33.2188 14.2535 31.1423 12.4308 23.9262 12.1803C17.3115 11.9506 14.0331 14.6657 13.1904 15.494C13.1914 15.4922 13.2998 15.3051 13.2998 15.3051L12.225 14.751L11.9208 17.9691L12.3809 17.2431C12.3809 17.2431 13.1235 15.8964 13.1372 15.8649C13.2531 15.7282 16.3875 12.1386 23.9186 12.4001C31.9464 12.6787 33.412 14.9591 34.038 15.9329C34.3394 16.4024 34.4186 16.9272 34.4888 17.3901C34.5806 17.9997 34.6683 18.5754 35.3529 18.4834C35.4157 18.4752 35.4674 18.4892 35.5154 18.5282C35.7868 18.7468 35.8617 19.6142 35.9351 20.4528C36.0311 21.5624 36.123 22.6103 36.6329 22.8672L36.7749 22.9388L36.7902 22.7794C36.8092 22.5757 37.2489 17.7791 35.8907 16.2065C35.356 15.5873 35.1592 15.5018 35.015 15.5638H35.015ZM37.9187 19.5397C37.7947 18.961 37.5967 18.3298 37.3032 17.6878C37.4574 18.0433 37.7039 18.677 37.9187 19.5397ZM37.3032 17.6878C37.2658 17.6008 37.232 17.5257 37.2072 17.4736C37.2425 17.5453 37.2711 17.6162 37.3032 17.6878ZM36.6192 16.0997C38.4138 17.8302 38.0919 22.2957 38.0919 22.2957L37.2188 21.2814V25.6081L36.6144 26.8248C35.5397 32.5712 32.9881 37.6416 22.9821 37.3711C12.9763 37.1007 11.432 31.7601 10.4917 26.6897C9.55155 21.6195 10.8947 16.076 10.8947 16.076C7.93973 24.8643 11.432 31.4896 11.432 31.4896C11.432 31.4896 13.1105 37.709 23.4524 37.6416C33.7936 37.5741 35.4056 31.8277 35.4056 31.8277L35.5936 33.2781C35.5936 33.2781 37.9958 31.0807 38.7342 26.4835C39.1085 24.1561 37.6622 17.1053 36.6192 16.0997ZM37.2072 17.4736C37.1723 17.4006 37.1512 17.3603 37.1512 17.3603C37.1708 17.3983 37.1887 17.436 37.2072 17.4736Z" fill="#231F20"/>
<path d="M37.8781 21.6383C37.8781 21.6383 37.8901 21.6559 37.8781 21.6383V21.6383ZM12.1805 14.4288C12.1805 14.4288 13.5479 13.1677 14.5243 12.2387C14.5243 12.2387 13.2222 12.9686 12.1805 14.4288ZM11.8166 31.1644C12.5908 32.7263 13.3527 33.7426 13.3527 33.7426C13.3527 33.7426 12.6267 32.6475 11.8166 31.1644ZM37.1793 16.1543L36.9248 15.4129L39.1972 16.2207L36.9987 15.094L39.2315 13.769L36.7776 14.775L37.1703 12.3213L36.3738 14.6915L35.7963 14.5284C34.5854 12.7281 32.9217 11.8271 30.8282 10.823C26.9371 8.95592 21.7506 9.45099 21.7506 9.45099C21.7506 9.45099 27.8736 9.52895 32.5571 12.3051C33.5245 12.8785 34.331 13.6735 35.0003 14.5721L33.9895 14.6278L35.1481 14.7756C35.2574 14.9296 35.363 15.0861 35.4643 15.2449L34.1194 16.0218L35.5704 15.4127C35.7198 15.6548 35.8618 15.9012 35.9953 16.1504L35.4215 17.9466L36.0998 16.348C37.1048 18.2919 37.6343 20.3569 37.8781 21.6383C37.5968 18.9561 37.1059 17.0441 36.4123 15.6098L36.463 15.4909C36.463 15.4909 39.0019 18.8092 38.5464 24.2518C38.0909 29.6943 36.7887 31.6191 35.4865 32.9465L35.4215 32.2826C35.4215 32.2826 33.534 37.9245 24.1593 37.7915C14.7847 37.6585 14.0686 34.6059 14.0686 34.6059L13.5478 34.3399C13.5478 34.3399 11.3345 32.6147 9.96729 28.0349C8.60001 23.4553 9.9021 19.7385 9.9021 19.7385C9.9021 19.7385 9.18602 22.7916 9.70685 25.9109C9.97674 27.5275 10.9452 29.5701 11.8166 31.1644C11.177 29.8749 10.5285 28.2134 10.2929 26.4419C9.77177 22.526 9.9021 19.8711 10.553 17.8802C11.204 15.8892 11.5947 15.0261 11.5947 15.0261C11.5947 15.0261 8.86066 18.2121 8.79547 24.9819C8.73034 31.7518 14.4591 36.3977 16.9979 37.3933C19.5369 38.3888 27.5443 39.716 32.3617 36.3315C37.1793 32.9465 36.8536 32.0838 38.416 28.964C39.979 25.8445 39.3276 19.5393 37.1793 16.1543ZM36.0391 14.9129C36.0338 14.9043 36.0291 14.8956 36.0238 14.8873L36.0724 14.8935L36.0391 14.9129ZM36.2629 15.3125C36.2355 15.2606 36.208 15.2076 36.1801 15.1568L36.3331 15.0925L36.2629 15.3125ZM13.3527 15.0261C13.743 14.3624 15.7612 13.1677 15.7612 13.1677C15.7612 13.1677 14.6543 13.8316 13.4177 15.2917C12.1805 16.7517 13.8733 15.1589 16.1519 13.6323C18.4303 12.1059 21.6202 12.2387 21.6202 12.2387C21.6202 12.2387 20.5788 11.4422 16.6076 12.7034L20.4485 11.044C20.4485 11.044 14.5896 12.3051 12.8968 14.6943C11.204 17.0837 12.9618 15.6898 13.3527 15.0261ZM32.9491 14.8162C33.6675 15.5622 34.1848 16.2207 34.1848 16.2207C34.1848 16.2207 33.9731 15.5498 32.9491 14.8162ZM10.6834 24.5837C11.3994 31.6191 14.3942 34.6059 14.3942 34.6059C14.3942 34.6059 16.6726 36.8624 23.7685 37.1942C30.8643 37.5259 33.1434 34.7385 33.3387 34.2739C33.534 33.8094 32.4269 34.5393 32.1015 34.4065C31.7759 34.2739 33.1434 31.818 33.1434 31.818C32.4271 34.4729 33.534 31.4199 34.2497 31.7518C34.966 32.0834 32.8176 32.9465 33.534 33.6102C34.2497 34.2739 35.7467 29.5615 36.7237 27.4376C37.7003 25.3139 37.3746 23.1235 37.3096 21.7297C37.2447 20.3358 36.919 19.7385 36.919 19.7385L36.7237 23.0573C36.7237 23.0573 36.8541 23.5217 35.8121 21.1985L34.966 18.942C34.3801 29.2961 32.0361 33.2122 32.0361 33.2122C32.0361 33.2122 31.1899 35.8004 24.3543 35.8669C17.5189 35.9329 16.5422 34.1409 16.5422 34.1409C14.329 31.2207 13.0269 24.9819 13.3527 20.867C13.678 16.7519 13.3527 15.6234 16.282 14.3624C19.2115 13.1015 23.6383 12.9686 23.6383 12.9686C28.9554 12.8191 31.6285 13.8698 32.9491 14.8162C32.7844 14.6453 32.6091 14.4692 32.4269 14.2962C31.4504 13.3671 22.4013 11.4422 17.6491 13.3005C12.8968 15.1589 12.5713 16.9509 12.8968 22.3934C13.2224 27.8359 14.915 32.349 16.0867 34.0747C17.2585 35.8004 21.425 36.3315 21.425 36.3315C15.7612 36.1985 15.1102 33.2122 14.7847 32.6807C14.4591 32.1498 13.4826 31.0877 13.2873 31.9508C13.0921 32.8135 11.3417 27.5376 11.6673 27.272C11.9927 27.0064 14.0034 29.9599 14.0034 29.9599C14.0034 29.9599 13.2873 28.4994 12.5713 24.3845C11.8551 20.2697 12.9618 18.2121 12.2457 18.0793C11.5296 17.9466 13.1362 24.1513 11.0852 24.4272C10.5009 24.506 10.9858 18.9395 11.2465 17.8113C11.5067 16.6828 11.7902 16.3536 11.7902 16.3536C11.7902 16.3536 9.96729 17.5484 10.6834 24.5837Z" fill="url(#paint0_linear_1_99412)"/>
<path d="M24.9665 35.4301C24.9776 35.4295 26.5978 35.35 28.0113 35.0316C29.2393 34.755 30.3262 34.2266 30.337 34.2214L30.341 34.2193L30.3454 34.2174C30.3514 34.2148 30.957 33.9534 31.3295 33.5975C31.707 33.2364 31.8787 32.764 31.8805 32.7593C31.8881 32.7388 32.5492 30.9768 33.0492 29.0947C33.5094 27.3627 33.8251 25.448 33.8282 25.4289C33.8332 25.4036 34.2145 23.469 34.3214 21.411C34.4114 19.6814 34.2326 17.7177 34.2307 17.698C34.2296 17.6832 34.1375 16.5203 33.6708 15.7599C33.2514 15.0767 32.4416 14.7411 32.4335 14.7377L32.4264 14.7349L32.4195 14.7312C32.4102 14.7265 31.4699 14.2555 29.6864 13.8675C28.264 13.558 26.2868 13.3371 24.6496 13.3051C22.7779 13.2684 20.7685 13.3989 19.2751 13.6542C17.4841 13.9604 16.3205 14.4152 16.3088 14.4197L16.2991 14.4234L16.289 14.4261C16.2774 14.4293 15.1169 14.7474 14.5068 15.5221C13.887 16.309 13.7866 17.6017 13.7857 17.6147L13.7849 17.6225C13.7832 17.6356 13.6533 18.7505 13.6533 20.1169C13.6533 20.3618 13.6574 20.6149 13.6674 20.8713C13.7373 22.6911 14.0554 24.7082 14.0586 24.7284C14.0623 24.7483 14.4934 27.1164 14.9849 29.1121C15.3491 30.5916 15.8234 31.9004 15.8281 31.9133L15.8313 31.9227L15.8338 31.9323C15.8356 31.9389 15.9972 32.6029 16.2601 33.0665C16.4889 33.4697 16.8259 33.7067 16.8295 33.7088L16.8349 33.7126L16.8404 33.7172C16.8429 33.7189 17.0722 33.9041 17.4242 34.097C17.8295 34.319 18.3726 34.5569 18.3957 34.5667C18.434 34.5816 19.6313 35.0399 21.2098 35.2483C22.8581 35.4659 24.9454 35.4304 24.9664 35.4301L24.9665 35.4301Z" fill="url(#paint1_radial_1_99412)" stroke="#6D0115" stroke-width="2"/>
<path d="M17.8133 34.1619C17.7418 34.1292 17.7028 34.1102 17.7028 34.1102C17.6988 34.1085 17.6785 34.0996 17.6455 34.0845L17.6335 34.0135C17.3508 32.4549 16.9194 29.6073 16.7783 26.1349C16.6038 22.0514 16.6105 17.0468 16.6271 14.6227V14.4474C16.6747 14.4314 16.7241 14.4152 16.7751 14.3988L16.7758 14.5745C16.759 16.9779 16.7511 22.0204 16.9267 26.1288C17.0701 29.6617 17.5147 32.545 17.7958 34.0769L17.8133 34.1619Z" fill="#6D0115"/>
<path d="M18.2798 34.3618C18.2226 34.3386 18.1688 34.3164 18.1189 34.2955L18.1051 34.1861C17.8992 32.7183 17.5348 29.7259 17.3618 25.898C17.1779 21.8286 17.2111 16.7136 17.2398 14.3883L17.2402 14.2576C17.2885 14.2437 17.3379 14.2298 17.3884 14.2159L17.3887 14.3601C17.36 16.6694 17.3258 21.8079 17.5101 25.8915C17.6871 29.8061 18.0643 32.8444 18.2667 34.2684L18.2798 34.3618Z" fill="#6D0115"/>
<path d="M21.7701 13.6274C21.8075 18.1351 21.9153 31.1384 21.9467 34.9053L21.9495 35.2234C21.9014 35.2184 21.8519 35.2128 21.802 35.2071L21.7983 34.9048C21.7669 31.1407 21.6593 18.1711 21.6219 13.6471L21.6182 13.5153C21.6681 13.5111 21.718 13.5069 21.768 13.5031L21.7701 13.6274Z" fill="#6D0115"/>
<path d="M23.7027 13.5688C23.7155 17.5189 23.7586 30.5938 23.7731 35.0125L23.7741 35.3132C23.7221 35.3139 23.6721 35.3144 23.6245 35.3146V34.9733C23.6097 30.498 23.5666 17.3982 23.5539 13.5201L23.5532 13.4193C23.6014 13.4186 23.6497 13.418 23.6983 13.4175L23.7027 13.5688Z" fill="#6D0115"/>
<path d="M24.4444 13.5885C24.4226 17.9749 24.3573 31.1391 24.338 35.0128L24.3377 35.3029C24.2863 35.3043 24.2364 35.3055 24.187 35.3066L24.1891 35.0711C24.2078 31.2656 24.274 17.9393 24.2959 13.5593L24.2923 13.4178C24.344 13.4184 24.3956 13.4189 24.4471 13.4198L24.4444 13.5885Z" fill="#6D0115"/>
<path d="M26.4505 34.9357C26.5571 33.1728 26.7582 29.4353 26.8408 25.2062C26.9251 20.896 26.8875 15.9909 26.8616 13.6871L26.8531 13.5389C26.9133 13.5441 26.9729 13.5495 27.0324 13.5551L27.0405 13.745C27.0663 16.0742 27.1026 20.9341 27.0192 25.2095C26.9371 29.4034 26.7386 33.1145 26.6315 34.8983L26.616 35.1532C26.5535 35.1606 26.4996 35.1678 26.436 35.1746L26.4505 34.9357Z" fill="#6D0115"/>
<path d="M31.5193 33.1884C31.4399 33.2966 31.3566 33.3867 31.2856 33.4554L31.3569 33.0771C31.6671 31.4703 32.0682 28.9848 32.2684 26.0662C32.5063 22.5965 32.5368 17.8523 32.5317 15.1565L32.5348 14.8982C32.5927 14.9302 32.6513 14.9641 32.7099 15.0007L32.7102 15.3449C32.7136 18.0716 32.679 22.6832 32.4463 26.0782C32.2499 28.9434 31.8601 31.3934 31.5515 33.0084L31.5193 33.1884Z" fill="#6D0115"/>
<path d="M33.2341 27.3679C33.3626 26.3523 33.4811 25.2125 33.5628 24.0085C33.7423 21.3625 33.7469 18.3647 33.7241 16.457L33.72 16.1385C33.7949 16.3055 33.8552 16.4766 33.9039 16.641L33.9074 16.9369C33.9235 18.847 33.9062 21.5823 33.7409 24.0203C33.7063 24.5336 33.6646 25.0352 33.6186 25.5207L33.5641 26.0569C33.4497 26.6302 33.3045 27.3293 33.145 28.0387L33.2341 27.3679Z" fill="#6D0115"/>
<path d="M30.8878 33.7685C30.8313 33.8069 30.7637 33.8506 30.6875 33.8967L30.7417 33.5923C31.0391 31.9556 31.502 28.9848 31.6839 25.5325C31.8834 21.7403 31.8841 17.2324 31.8674 14.9247L31.8605 14.5978C31.9113 14.6158 31.9713 14.6378 32.0378 14.6645L32.0461 14.9688C32.0625 17.2921 32.0606 21.7702 31.8619 25.5418C31.6851 28.8989 31.2429 31.8027 30.9444 33.4728L30.8878 33.7685Z" fill="#6D0115"/>
<path d="M28.6984 34.519C28.839 32.9939 29.0968 29.8369 29.2206 26.0282C29.3597 21.7526 29.3602 16.6859 29.35 14.2383L29.3445 13.8903C29.4066 13.903 29.4678 13.9158 29.5278 13.9289L29.5285 14.2658C29.5386 16.7254 29.5375 21.7721 29.3989 26.034C29.2759 29.8176 29.0207 32.9593 28.8794 34.5002L28.8612 34.6874C28.8021 34.7048 28.7432 34.7227 28.6777 34.7409L28.6984 34.519Z" fill="#6D0115"/>
<path d="M28.0823 34.663C28.2367 33.3679 28.4897 30.8575 28.594 27.5924C28.7461 22.8418 28.7274 16.8508 28.7075 14.0785L28.7041 13.7701C28.7632 13.7802 28.8214 13.7903 28.8791 13.8009L28.8858 14.1232C28.9056 16.9165 28.9236 22.8708 28.772 27.5984C28.6692 30.8132 28.4227 33.2985 28.2671 34.6168L28.2383 34.8554C28.179 34.8698 28.1157 34.8858 28.0532 34.9003L28.0823 34.663Z" fill="#6D0115"/>
<path d="M27.5828 34.7681C27.7035 33.3987 27.9119 30.6864 28.0098 27.3867C28.1466 22.7752 28.1113 16.9357 28.0785 13.8911L28.0749 13.6736C28.1356 13.6817 28.1956 13.6903 28.2549 13.6989L28.2581 13.9899C28.2905 17.0627 28.3235 22.828 28.1882 27.3919C28.0919 30.6406 27.8884 33.321 27.7669 34.7142L27.7446 34.9669C27.6832 34.9796 27.6254 34.9914 27.562 35.0036L27.5828 34.7681Z" fill="#6D0115"/>
<path d="M27.0032 34.8844C27.1055 33.2849 27.2991 29.943 27.3836 26.3582C27.496 21.5929 27.5015 16.2773 27.4965 13.789L27.4914 13.6017C27.5519 13.6085 27.6119 13.6153 27.6714 13.6222L27.6751 13.8334C27.6799 16.341 27.6739 21.6235 27.562 26.3622C27.4784 29.9042 27.2887 33.2095 27.1853 34.8338L27.1698 35.0735C27.1061 35.0841 27.0547 35.0932 26.9893 35.1031L27.0032 34.8844Z" fill="#6D0115"/>
<path d="M26.3899 13.7057C26.3823 16.2523 26.3568 22.0295 26.2742 26.9574C26.217 30.3686 26.1085 33.3503 26.0453 34.8968L26.0316 35.2123C25.9813 35.2165 25.9307 35.2208 25.8804 35.2248L25.8948 34.9444C25.9575 33.415 26.0678 30.4048 26.1258 26.955C26.2089 22.0029 26.2343 16.1926 26.2417 13.6667L26.2428 13.4919C26.2929 13.4954 26.3428 13.4987 26.3926 13.5024L26.3899 13.7057Z" fill="#6D0115"/>
<path d="M25.6559 13.5885C25.6765 15.8359 25.7072 20.2342 25.6799 24.3788C25.65 28.8655 25.5528 33.1493 25.5068 34.9937L25.5013 35.2518C25.4507 35.2551 25.4004 35.2581 25.3501 35.261L25.357 35.042C25.4027 33.2277 25.5013 28.9062 25.5313 24.3776C25.5587 20.2573 25.5285 15.8856 25.5078 13.6275L25.5061 13.4506C25.5557 13.4528 25.6051 13.4551 25.6545 13.4575L25.6559 13.5885Z" fill="#6D0115"/>
<path d="M25.0734 13.5787C25.1039 16.1563 25.1462 20.7697 25.1256 25.1206C25.1064 29.1686 25.0197 33.0456 24.9675 35.0712L24.9631 35.2808C24.9128 35.2831 24.8631 35.2852 24.8135 35.2873L24.8197 35.0418C24.8719 33.0098 24.9576 29.1497 24.977 25.12C24.9975 20.7907 24.9557 16.2018 24.9252 13.6177L24.9218 13.4295C24.9717 13.4309 25.0217 13.4325 25.0714 13.4339L25.0734 13.5787Z" fill="#6D0115"/>
<path d="M19.824 34.8719C19.7723 34.859 19.7209 34.8458 19.6699 34.8321L19.6611 34.7357C19.5364 33.3898 19.2855 30.3632 19.1817 26.8104C19.0492 22.2782 19.0933 16.6137 19.1258 13.9464L19.1245 13.8296C19.1741 13.821 19.2239 13.8125 19.2743 13.8042L19.2747 13.9224C19.2422 16.5775 19.1974 22.2619 19.3303 26.8063C19.4354 30.4049 19.6916 33.4627 19.8143 34.7775L19.824 34.8719Z" fill="#6D0115"/>
<path d="M18.8172 34.566C18.7636 34.5468 18.7112 34.5279 18.6602 34.5091L18.648 34.3978C18.421 32.5033 17.9818 28.411 17.8426 24.0694C17.7247 20.3963 17.8265 16.2966 17.8952 14.2348L17.8978 14.0837C17.947 14.0717 17.997 14.0597 18.0476 14.0479L18.0457 14.1781C17.9772 16.217 17.872 20.3583 17.991 24.0649C18.1321 28.4677 18.5822 32.6139 18.8058 34.4656L18.8172 34.566Z" fill="#6D0115"/>
<path d="M14.5893 27.0151C14.4079 26.1319 14.3019 25.4868 14.3 25.4755L14.2746 25.0886C14.1699 23.7671 14.0759 22.2866 14.054 21.0242C14.0281 19.5315 14.039 18.0389 14.0563 16.9226L14.0501 16.7803C14.0937 16.6109 14.148 16.4333 14.2156 16.2608L14.2029 17.0545C14.1869 18.1541 14.1777 19.5876 14.2027 21.0219C14.2304 22.619 14.3739 24.5667 14.5082 26.0973L14.5893 27.0151Z" fill="#6D0115"/>
<path d="M15.8806 31.7284C15.7778 31.4266 15.6599 31.0706 15.5376 30.6817L15.4471 30.1595C15.2156 28.7908 15.0102 27.3371 14.952 26.2205C14.6492 22.5085 14.6339 18.2237 14.653 15.9429L14.6567 15.5232C14.7038 15.4717 14.7525 15.4232 14.802 15.3774L14.8029 15.7743C14.7818 18.0042 14.79 22.4083 15.1002 26.2107C15.168 27.5126 15.4369 29.2749 15.7132 30.8243L15.8806 31.7284Z" fill="#6D0115"/>
<path d="M16.6106 32.5094C16.3053 31.0047 15.9288 28.7854 15.734 26.2479C15.4316 22.3104 15.442 17.677 15.4718 15.3847L15.4754 14.9113C15.4319 14.9335 15.3803 14.9615 15.3229 14.9951L15.3231 15.3897C15.2934 17.6872 15.2834 22.3203 15.5858 26.2591C15.7799 28.7867 16.1539 30.9998 16.459 32.509L16.6489 33.4044C16.6817 33.4415 16.7164 33.478 16.7533 33.5133C16.7801 33.5387 16.8082 33.5639 16.8371 33.5886L16.6106 32.5094Z" fill="#6D0115"/>
<path d="M19.298 34.6437C19.1598 33.4025 18.9158 30.8888 18.8147 27.8551C18.6483 22.8637 18.6365 16.6337 18.6398 14.0459L18.6384 13.9198C18.5878 13.9299 18.5377 13.94 18.4883 13.9503L18.4913 14.0602C18.4879 16.6577 18.5001 22.8757 18.6661 27.8599C18.7651 30.8264 19.0005 33.2968 19.1404 34.5698L19.1521 34.6794C19.2029 34.6959 19.2544 34.7121 19.3066 34.7279L19.298 34.6437Z" fill="#6D0115"/>
<path d="M16.1413 14.6213C16.0865 14.6424 16.036 14.6622 15.99 14.6808L15.9871 14.904C15.9374 17.2334 15.8721 21.8911 16.0572 24.9516C16.3197 29.2916 16.8637 32.368 17.1326 33.6893L17.1576 33.8194C17.2146 33.8553 17.2796 33.8935 17.333 33.9238L17.2997 33.7641C17.0405 32.5115 16.475 29.3944 16.2056 24.9429C16.0192 21.862 16.0872 17.1574 16.1369 14.85L16.1413 14.6156" fill="#6D0115"/>
<path d="M19.9134 13.7059C19.8631 13.713 19.8132 13.7203 19.7632 13.7275L19.7657 13.8522C19.7399 16.2786 19.707 21.077 19.7855 25.2781C19.8601 29.2728 20.1052 32.9155 20.2433 34.719L20.261 34.9699C20.3116 34.9801 20.3623 34.9902 20.4131 34.9999L20.3968 34.7785C20.2599 33.0028 20.0095 29.3196 19.9339 25.2753C19.8552 21.0694 19.8885 16.2643 19.9143 13.8424L19.9134 13.7059Z" fill="#6D0115"/>
<path d="M20.5446 13.6241C20.4937 13.6302 20.4433 13.6363 20.3928 13.6426L20.3925 13.7642C20.354 15.7425 20.297 19.8357 20.3803 23.9111C20.4703 28.5458 20.7129 32.9214 20.83 34.8436L20.8435 35.0761C20.8946 35.0843 20.9453 35.0925 20.9959 35.1001L20.9791 34.846C20.8622 32.9312 20.6188 28.5498 20.5289 23.9082C20.4456 19.8265 20.5029 15.7268 20.5414 13.7546L20.5446 13.6241Z" fill="#6D0115"/>
<path d="M21.1521 13.558C21.1027 13.5627 21.0532 13.568 21.0038 13.573L21.0027 13.6961C20.9861 15.8194 20.9632 20.283 21.0142 24.6138C21.0637 28.8134 21.1904 32.9654 21.2539 34.8669L21.2629 35.1394C21.3132 35.1464 21.3632 35.1532 21.4124 35.1596L21.4025 34.866C21.339 32.9668 21.2121 28.8131 21.1627 24.6119C21.1114 20.2613 21.1348 15.7764 21.1514 13.6664L21.1521 13.558Z" fill="#6D0115"/>
<path d="M22.4407 13.4577C22.389 13.4607 22.3373 13.4636 22.2856 13.4667L22.2894 13.5497C22.3151 17.4418 22.4032 30.712 22.4316 35.0126L22.434 35.2701C22.4866 35.2746 22.5365 35.2788 22.5835 35.2824L22.5803 35.0224C22.5517 30.7297 22.4637 17.4239 22.4379 13.5396L22.4407 13.4577Z" fill="#6D0115"/>
<path d="M23.0661 13.4299C23.0158 13.4314 22.9652 13.4333 22.9146 13.4351L22.9183 13.5786C22.9258 17.6977 22.9498 30.9682 22.9571 34.9537L22.9548 35.3082C22.9934 35.3106 23.0215 35.312 23.0375 35.3128C23.046 35.3128 23.0691 35.3134 23.1055 35.3137L23.1058 34.9441C23.0984 30.9473 23.0744 17.6953 23.0668 13.5788L23.0661 13.4299Z" fill="#6D0115"/>
<path d="M29.2024 34.3169C29.4171 32.5103 29.8069 28.7764 29.9718 24.299C30.0948 20.9659 29.9972 16.4946 29.933 14.2587L29.9216 14.0179C29.984 14.0327 30.0445 14.0475 30.1038 14.0623L30.1128 14.3096C30.1769 16.5657 30.2721 20.9953 30.15 24.3054C29.9852 28.7771 29.5965 32.5087 29.3811 34.324L29.3554 34.531C29.3022 34.5491 29.2398 34.57 29.168 34.5928L29.2024 34.3169Z" fill="#6D0115"/>
<path d="M29.9477 34.0588C30.1213 32.4861 30.426 29.3775 30.6097 25.5002C30.7859 21.7771 30.7768 16.9703 30.7554 14.4218L30.7517 14.2364C30.6942 14.2197 30.6342 14.2028 30.5717 14.1854L30.5769 14.4053C30.5984 16.947 30.6079 21.7642 30.4315 25.492C30.2457 29.4163 29.9358 32.5515 29.7636 34.1009L29.7305 34.3818C29.7839 34.3574 29.8469 34.3284 29.9156 34.2964L29.9477 34.0588Z" fill="#6D0115"/>
<path d="M30.4935 33.7137C30.7037 32.3062 30.9899 30.0046 31.152 27.0647C31.3934 22.6919 31.437 17.1133 31.4438 14.6194L31.4403 14.4538C31.39 14.4363 31.3311 14.4164 31.2637 14.3942L31.2656 14.5615C31.2593 17.0246 31.2169 22.6522 30.9738 27.0552C30.8049 30.1147 30.502 32.4802 30.2906 33.8628L30.2495 34.1346C30.3153 34.1018 30.3811 34.0678 30.4445 34.0343L30.4935 33.7137Z" fill="#6D0115"/>
<path d="M32.0542 31.8895C32.0542 31.8895 32.2142 31.4485 32.4117 30.8179L32.4865 30.3277C32.7296 28.7011 32.9862 26.6721 33.1564 24.4738C33.3828 21.5474 33.3334 17.9828 33.2704 15.8369L33.2566 15.432C33.1974 15.3711 33.1351 15.3136 33.0702 15.2596L33.0846 15.5892C33.1504 17.6947 33.2134 21.4233 32.9784 24.4606C32.7808 27.0134 32.4665 29.3368 32.1924 31.0652L32.0542 31.8895Z" fill="#6D0115"/>
<path fill-rule="evenodd" clip-rule="evenodd" d="M19.4609 25.4919V23.9477H18.1364L18.1413 20.0606H19.8705L19.8612 18.4998H16.2666L16.5915 30.4457H18.171L18.1364 25.4919H19.4609Z" fill="#1A1A1A"/>
<path fill-rule="evenodd" clip-rule="evenodd" d="M20.4854 18.4998L20.6852 30.4457H22.3162L22.3493 18.4998H20.4854Z" fill="#1A1A1A"/>
<path fill-rule="evenodd" clip-rule="evenodd" d="M30.9611 30.4457L31.2962 20.0049H32.574L32.5642 18.4998H28.1318V20.0066H29.4202L29.3831 30.4457H30.9611Z" fill="#1A1A1A"/>
<path fill-rule="evenodd" clip-rule="evenodd" d="M24.8091 24.0286L24.8269 19.971H25.7376C26.1504 20.8747 26.4157 22.0698 26.6237 24.0286H24.8091ZM23.354 30.4454H23.514H24.6911H24.8639L24.8807 25.5056H26.6899C26.8321 26.3776 26.867 29.0689 26.8755 30.4454H27.0251H28.2068H28.3402C28.4784 24.3467 28.0491 20.8995 26.863 18.4997H23.2158L23.354 30.4454Z" fill="#1A1A1A"/>
<path fill-rule="evenodd" clip-rule="evenodd" d="M19.6539 23.7336H18.3261L18.3311 19.8466H20.0646L20.0553 18.2858H16.4517L16.7774 30.2315H18.3609L18.3261 25.2778H19.6539V23.7336Z" fill="url(#paint2_radial_1_99412)"/>
<path fill-rule="evenodd" clip-rule="evenodd" d="M22.5498 18.2858H20.6812L20.8815 30.2315H22.5166L22.5498 18.2858Z" fill="url(#paint3_radial_1_99412)"/>
<path fill-rule="evenodd" clip-rule="evenodd" d="M29.6011 30.2315H31.183L31.519 19.7908H32.8L32.7902 18.2858H28.3467V19.7926H29.6383L29.6011 30.2315Z" fill="url(#paint4_radial_1_99412)"/>
<path fill-rule="evenodd" clip-rule="evenodd" d="M25.0157 23.8145L25.0336 19.7569H25.9465C26.3604 20.6607 26.6264 21.8557 26.8349 23.8145H25.0157ZM23.557 30.2312H23.7173H24.8975H25.0707L25.0875 25.2915H26.9013C27.0439 26.1634 27.0788 28.8547 27.0873 30.2312H27.2373H28.4219H28.5557C28.6942 24.1326 28.2639 20.6855 27.0748 18.2857H23.4185L23.557 30.2312Z" fill="url(#paint5_radial_1_99412)"/>
</g>
<defs>
<linearGradient id="paint0_linear_1_99412" x1="9.04155" y1="38.1917" x2="38.9695" y2="9.58263" gradientUnits="userSpaceOnUse">
<stop stop-color="#8C8C8C"/>
<stop offset="0.5" stop-color="#464646"/>
<stop offset="0.75" stop-color="white"/>
<stop offset="1" stop-color="white"/>
</linearGradient>
<radialGradient id="paint1_radial_1_99412" cx="0" cy="0" r="1" gradientUnits="userSpaceOnUse" gradientTransform="translate(24 24.3657) scale(10.4534 11.1734)">
<stop stop-color="#E60A47"/>
<stop offset="1" stop-color="#7C0626"/>
</radialGradient>
<radialGradient id="paint2_radial_1_99412" cx="0" cy="0" r="1" gradientUnits="userSpaceOnUse" gradientTransform="translate(24.6257 24.2586) scale(8.17405 5.9729)">
<stop stop-color="#D3D1D2"/>
<stop offset="0.5" stop-color="#C9C7C8"/>
<stop offset="1" stop-color="#8D8B8C"/>
</radialGradient>
<radialGradient id="paint3_radial_1_99412" cx="0" cy="0" r="1" gradientUnits="userSpaceOnUse" gradientTransform="translate(24.6257 24.2586) scale(8.17405 5.9729)">
<stop stop-color="#D3D1D2"/>
<stop offset="0.5" stop-color="#C9C7C8"/>
<stop offset="1" stop-color="#8D8B8C"/>
</radialGradient>
<radialGradient id="paint4_radial_1_99412" cx="0" cy="0" r="1" gradientUnits="userSpaceOnUse" gradientTransform="translate(24.6259 24.2586) scale(8.17405 5.9729)">
<stop stop-color="#D3D1D2"/>
<stop offset="0.5" stop-color="#C9C7C8"/>
<stop offset="1" stop-color="#8D8B8C"/>
</radialGradient>
<radialGradient id="paint5_radial_1_99412" cx="0" cy="0" r="1" gradientUnits="userSpaceOnUse" gradientTransform="translate(24.6258 24.2586) scale(8.17405 5.9729)">
<stop stop-color="#D3D1D2"/>
<stop offset="0.5" stop-color="#C9C7C8"/>
<stop offset="1" stop-color="#8D8B8C"/>
</radialGradient>
<clipPath id="clip0_1_99412">
<rect width="32" height="32" fill="white" transform="translate(8 8)"/>
</clipPath>
</defs>
</svg>
