<svg width="48" height="48" viewBox="0 0 48 48" fill="none" xmlns="http://www.w3.org/2000/svg">
<g clip-path="url(#clip0_1_75823)">
<path fill-rule="evenodd" clip-rule="evenodd" d="M16.5396 20.4491C15.2186 20.4491 14.477 22.0153 14.477 23.9482C14.477 25.8791 15.2186 27.4454 16.5396 27.4454C17.8627 27.4454 18.5596 25.8789 18.5596 23.9482C18.5596 22.0153 17.8627 20.4491 16.5396 20.4491ZM16.5396 26.5782C15.8061 26.5782 15.5264 25.4011 15.5264 23.9482C15.5264 22.4956 15.8061 21.3184 16.5396 21.3184C17.2752 21.3184 17.5101 22.4956 17.5101 23.9482C17.5101 25.4011 17.2752 26.5782 16.5396 26.5782ZM29.0206 20.4491C27.6996 20.4491 26.96 22.0153 26.96 23.9482C26.96 25.8791 27.6996 27.4454 29.0206 27.4454C30.3439 27.4454 31.0406 25.8789 31.0406 23.9482C31.0406 22.0153 30.3439 20.4491 29.0206 20.4491ZM29.0206 26.5782C28.2871 26.5782 28.0096 25.4011 28.0096 23.9482C28.0096 22.4956 28.2871 21.3184 29.0206 21.3184C29.756 21.3184 29.9911 22.4956 29.9911 23.9482C29.9911 25.4011 29.756 26.5782 29.0206 26.5782ZM12.1449 28.7036C10.6353 28.7036 9.41162 27.3058 9.41162 23.9988C9.41162 21.2819 10.6355 19.2962 12.1449 19.2962C12.6696 19.2962 12.7161 19.4522 13.0141 19.4786C13.2389 19.4989 13.4598 19.428 13.5712 19.3166L13.6685 21.286C13.2148 20.5829 12.5987 20.3195 12.3394 20.3195C11.4924 20.3195 10.5767 21.1623 10.5767 24.0312C10.5706 26.8762 11.3548 27.7431 12.1125 27.7431C12.4365 27.7431 12.619 27.6805 12.7872 27.5304V24.1165C12.7872 23.8531 12.6351 23.6241 12.4184 23.5187H14.1994C13.9806 23.624 13.8307 23.8531 13.8307 24.1165V27.2001C13.8307 27.4861 13.9179 27.7393 14.0454 27.8528C13.7192 27.9783 13.1946 28.7036 12.1449 28.7036ZM24.4253 27.2772C25.6166 27.2772 26.5994 26.0655 26.5994 23.9341C26.5994 21.8046 25.6248 20.6173 24.4315 20.6173H22.6261C22.8429 20.7226 22.9928 20.9495 22.9928 21.215V26.6796C22.9928 26.9671 22.9116 27.1232 22.778 27.2791C22.9706 27.2772 24.4253 27.2772 24.4253 27.2772ZM24.4396 21.3954C25.0434 21.3954 25.5336 22.1856 25.5336 23.9482C25.5336 25.7111 25.0434 26.5013 24.4396 26.5013H23.9796V21.3954H24.4396ZM37.0197 23.0366C37.5304 23.5675 38.5881 24.4794 38.5881 25.6707C38.5881 26.6288 37.8465 27.4071 37.0015 27.4071C36.568 27.4071 36.3676 27.2387 35.938 27.2387C35.7941 27.2387 35.6686 27.2693 35.5632 27.3197L35.5651 25.6058C35.5651 25.6058 35.9461 26.3393 36.5317 26.5338C37.0239 26.6979 37.5971 26.3961 37.5971 25.7232C37.5971 25.0098 36.6248 24.157 36.497 24.0254C35.9785 23.4945 35.4921 22.9109 35.4921 22.1471C35.4921 21.2334 36.1769 20.4958 37.0219 20.4958C37.4554 20.4958 37.4818 20.6234 37.7754 20.6234C37.9194 20.6234 38.053 20.5951 38.1564 20.5444L38.1544 21.9789C38.1544 21.9789 37.6561 21.3307 37.1839 21.3307C36.793 21.3307 36.4767 21.6549 36.4767 22.056C36.4769 22.522 36.8497 22.846 37.0197 23.0366ZM33.2981 20.6173C33.5165 20.7226 33.6668 20.9495 33.6668 21.215V24.167L32.6435 21.215C32.5342 20.9354 32.52 20.7611 32.682 20.6173H31.1421C31.2534 20.6724 31.3469 20.7576 31.4121 20.8632C31.4773 20.9689 31.5115 21.0908 31.5108 21.215V26.6816C31.511 26.8062 31.4764 26.9284 31.4108 27.0344C31.3453 27.1403 31.2515 27.2259 31.1399 27.2814H32.7245C32.5075 27.1738 32.372 26.9449 32.372 26.6816V23.1379L33.5776 26.6554C33.5977 26.7121 33.6161 26.7769 33.6161 26.8395C33.6161 27.0279 33.5247 27.1899 33.3769 27.2814H34.8805C34.6635 27.1738 34.5301 26.9449 34.5301 26.6816V21.2151C34.5301 20.9497 34.6859 20.7227 34.9049 20.6175H33.2981V20.6173ZM35.8832 20.2121C35.8832 20.3286 35.8603 20.444 35.8157 20.5517C35.7711 20.6594 35.7057 20.7573 35.6233 20.8397C35.5409 20.9221 35.4431 20.9875 35.3354 21.0321C35.2277 21.0767 35.1123 21.0996 34.9957 21.0996C35.174 20.9739 35.3239 20.8037 35.3968 20.5931C35.1436 20.5931 34.9633 20.3945 34.9633 20.1392C34.9636 20.0173 35.0122 19.9004 35.0984 19.8143C35.1846 19.7281 35.3015 19.6796 35.4234 19.6793C35.6767 19.6793 35.8952 19.8616 35.8832 20.2121ZM20.0306 23.5209V21.3954H20.525C21.0073 21.3954 21.3963 21.673 21.3963 22.461C21.3963 23.1176 21.0073 23.5207 20.525 23.5207H20.0306V23.5209ZM20.0306 24.3496H20.4258L21.2787 26.6796C21.3516 26.9286 21.2787 27.1718 21.0601 27.2772H22.687C22.531 27.1476 22.3751 26.8639 22.2657 26.5843L21.3639 24.1814C21.9981 23.8815 22.4397 23.2352 22.4397 22.4874C22.4397 21.454 21.8057 20.5464 20.5554 20.6173H18.6833C18.7946 20.6723 18.8882 20.7575 18.9534 20.8632C19.0186 20.9689 19.0528 21.0908 19.052 21.215V26.6796C19.052 26.9429 18.9001 27.1718 18.6833 27.2772H20.3833C20.1644 27.1718 20.0306 26.9411 20.0306 26.6774V24.3496Z" fill="#CC2229"/>
</g>
<defs>
<clipPath id="clip0_1_75823">
<rect width="32" height="32" fill="white" transform="translate(8 8)"/>
</clipPath>
</defs>
</svg>
