<svg width="48" height="48" viewBox="0 0 48 48" fill="none" xmlns="http://www.w3.org/2000/svg">
<path fill-rule="evenodd" clip-rule="evenodd" d="M24.4317 26.901C24.8502 27.2672 24.6061 27.9996 25.0246 28.3484C25.8093 29.0285 27.8148 28.2263 28.7739 28.5926C28.9483 28.6449 29.0878 28.7495 29.175 28.9065C29.9597 30.4062 25.757 31.9931 24.7979 32.2024C23.769 32.4291 22.8796 32.3942 21.7984 32.3942C21.7984 32.3419 21.781 32.2896 21.8508 32.2896C22.1472 31.9408 22.4088 31.592 22.6181 31.1909C22.7924 30.8073 22.9843 30.4062 23.1587 30.0225C23.2458 29.9702 23.333 29.9005 23.4202 29.8307C23.4202 29.8481 23.4202 29.8656 23.4202 29.883C23.4377 29.9353 23.5597 30.2841 23.4725 30.2841C23.4725 30.3015 23.4725 30.319 23.4725 30.3364C23.5074 30.3364 23.5423 30.3364 23.5772 30.3364C23.5772 30.319 23.5772 30.3015 23.5772 30.2841C24.2573 29.6738 24.2398 27.8776 24.4317 26.901ZM20.351 22.0356C20.6824 23.4133 21.8159 24.355 23.2982 24.355C23.2982 24.3724 23.2982 24.3898 23.2982 24.4073C22.0426 24.634 21.7112 24.6514 20.6998 24.1108C20.7521 24.3026 20.8742 24.5468 20.9091 24.7386C20.5952 24.7212 20.1418 23.8841 20.0197 23.1343C19.9499 22.646 20.0197 22.1926 20.351 22.0356ZM22.2518 20.7452C23.49 21.5997 23.6644 23.3958 25.9488 23.7272C26.3325 23.7097 26.7161 23.7097 27.0998 23.6923C26.3674 24.198 25.7396 24.3898 25.1815 24.355C23.6295 24.2678 22.7227 22.4716 22.2518 20.7452ZM23.7341 19.1059C25.8616 19.1757 26.2802 21.6694 27.6753 22.7506C27.8322 22.8378 27.9717 22.925 28.1287 23.0122C28.1287 23.0471 28.1287 23.0819 28.1287 23.1168C25.9488 23.0471 25.7396 21.6868 24.763 20.222C24.7107 19.6465 24.1701 19.4373 23.7341 19.1059ZM21.1881 15.095C21.2927 15.095 21.3799 15.095 21.4845 15.095C21.4845 15.1125 21.4845 15.1299 21.4845 15.1473C21.2578 15.3392 20.7696 15.9321 20.4557 15.8972C20.4731 15.7577 20.3336 15.5833 19.8976 15.7054C19.8976 15.6705 19.8976 15.6356 19.8976 15.6007C19.9151 15.6007 19.9325 15.6007 19.9499 15.6007C20.2813 15.3217 20.787 15.2694 21.1881 15.095ZM18.8687 30.7898C18.8687 30.7898 18.6246 30.8247 18.5548 30.8945C18.5025 30.9817 18.1712 31.4874 18.1712 31.4874C18.1712 31.4874 17.5085 31.0863 17.5608 31.0689C17.6132 31.0514 17.8922 30.5282 18.0142 30.4934C18.1363 30.4411 19.2524 30.3364 19.2524 30.3364L19.9674 30.4585L20.1766 30.4759C20.3336 29.5343 20.508 28.6798 20.1592 27.7206C19.3221 24.7909 15.8518 23.4133 13.2186 25.07C13.1314 25.1397 12.9745 25.2443 12.8698 25.2967C12.6083 24.3898 12.4688 23.4656 12.4688 22.5239C12.4688 17.0482 16.933 12.5839 22.4088 12.5839C27.8845 12.5839 32.3488 17.0482 32.3488 22.5239C32.3488 23.3435 32.2268 24.2678 32.0349 25.0525L32.0001 25.0176C31.442 24.7212 28.8611 23.9016 28.8437 23.1691C29.1576 23.0819 29.4714 23.0122 29.8028 22.925C29.9946 22.8204 30.3259 22.6111 30.5352 22.5065C29.0006 22.0879 28.4077 20.0825 27.9717 19.2803C27.6578 18.7223 27.1347 18.3386 27.0126 17.9027C27.2219 17.955 27.6578 18.0422 27.8671 18.0945C27.8322 18.0247 27.7973 17.955 27.7799 17.8852C27.5358 17.1528 26.3151 16.9958 25.7745 16.5599C25.7047 16.5076 25.3734 16.2111 25.5129 16.2111C25.7221 16.1588 25.9837 16.1588 26.2104 16.1065C25.5129 15.4961 24.7107 15.1822 24.7107 14.0661C24.6584 14.0661 24.6061 14.0836 24.6061 14.0138C23.5249 14.5021 22.2344 14.38 21.0486 14.6939C20.4905 14.9032 19.9151 15.1125 19.357 15.3043C19.357 15.3217 19.357 15.3392 19.357 15.3566C19.4093 15.5136 19.357 15.6705 19.2698 15.7751C19.1652 15.8623 19.0431 15.967 18.9385 16.0542C18.3979 16.3157 17.8573 16.525 17.5085 16.7691C17.1249 17.0482 17.0028 17.3621 17.805 18.1119C17.9445 18.2689 18.084 18.4433 18.2235 18.6002C18.2584 18.6351 18.2409 18.6176 18.2758 18.6525C18.2409 18.3735 18.1189 17.8329 18.3456 17.6236C19.1129 16.9087 20.3336 18.2689 20.072 19.1408C19.8279 19.9255 18.7467 19.4198 18.7467 19.2803C18.7292 19.2803 18.7118 19.2803 18.6944 19.2803C18.7292 19.6116 19.2175 20.0476 19.1303 20.5533C19.3221 20.5533 20.508 19.507 20.63 19.2977C20.9614 18.7746 20.9265 18.077 21.3625 17.5888C21.8856 16.9958 22.8796 16.804 23.2633 16.1413C23.2284 15.9844 22.3565 14.9381 22.5309 14.9381C22.5309 14.9206 22.5309 14.9032 22.5309 14.8858C22.775 14.8683 23.0366 14.8509 23.2807 14.8334C23.5597 14.7637 23.8562 14.6939 24.1352 14.6416C24.1352 14.6591 24.1352 14.6765 24.1352 14.6939C24.1178 14.6939 24.1003 14.6939 24.0829 14.6939C24.0829 14.7114 24.0829 14.7288 24.0829 14.7463C23.9783 14.7986 23.1412 15.2171 23.1412 15.252C23.3854 15.6356 24.1352 16.0716 24.0306 16.4901C23.8911 17.0307 22.3565 17.3969 21.9205 17.7806C21.2927 18.3386 21.3973 19.228 20.9963 19.9081C20.7521 20.3092 20.3859 20.5185 20.0371 20.7975C19.1303 21.5125 18.8687 22.0356 18.9211 22.4193C18.9908 23.0122 19.235 23.4656 19.7407 24.2155C18.9385 23.9016 18.1014 23.0645 18.1014 22.1228C17.2644 21.8787 15.7123 21.7915 14.8753 22.1054C14.5091 22.3321 14.1254 22.5413 13.7592 22.768C13.6197 22.8378 13.114 23.1343 13.114 23.3261C13.2186 23.3261 13.2012 23.5005 13.1663 23.5702C13.3232 23.7446 13.6371 24.1806 13.8813 24.1806C14.108 24.0759 14.23 23.6225 14.2824 23.4133C14.3172 23.4133 14.3347 23.4133 14.3521 23.4133C14.4219 23.5353 14.5963 23.7969 14.5963 23.8144C15.0671 23.9364 15.66 23.7621 16.2006 23.7621C17.369 23.7795 18.4328 24.198 19.3047 24.7561C19.793 25.0699 19.8802 25.628 20.1941 26.0814C20.4905 26.5174 20.9614 26.901 21.1706 27.4067C21.502 28.2263 21.0835 30.4934 20.3162 30.8247C19.7756 30.8073 19.3221 30.8073 18.8687 30.7898Z" fill="#ED1C24"/>
<path fill-rule="evenodd" clip-rule="evenodd" d="M22.4262 11.1016C28.7216 11.1016 33.8486 16.2285 33.8486 22.5239C33.8486 28.8193 28.7216 33.9288 22.4262 33.9288C16.1309 33.9288 11.0039 28.8018 11.0039 22.5065C11.0039 16.2111 16.1483 11.1016 22.4262 11.1016ZM22.4262 11.6247C28.4251 11.6247 33.308 16.5075 33.308 22.5065C33.308 28.5054 28.4251 33.3882 22.4262 33.3882C16.4273 33.3882 11.5445 28.5054 11.5445 22.5065C11.5445 16.525 16.4273 11.6247 22.4262 11.6247Z" fill="#ED1C24"/>
<path fill-rule="evenodd" clip-rule="evenodd" d="M6.3999 36.9803H6.99281H7.56828V38.4975H9.92251V36.9803H10.5154H11.1083V40.7645H10.5154H9.92251V39.0904H7.56828V40.7645H6.99281H6.3999V36.9803Z" fill="black"/>
<path fill-rule="evenodd" clip-rule="evenodd" d="M14.8403 40.8519C13.9858 40.8519 13.3231 40.6775 12.8871 40.3462C12.4337 40.0148 12.207 39.5266 12.207 38.8813C12.207 38.2361 12.4337 37.7478 12.8871 37.4165C13.3405 37.0852 13.9858 36.9108 14.8403 36.9108C15.6948 36.9108 16.3574 37.0852 16.8108 37.4165C17.2642 37.7478 17.4735 38.2361 17.4735 38.8813C17.4735 39.5266 17.2468 40.0148 16.8108 40.3462C16.3574 40.6775 15.7122 40.8519 14.8403 40.8519ZM14.8403 40.259C15.3285 40.259 15.6948 40.1369 15.9389 39.9102C16.183 39.6835 16.3226 39.3347 16.3226 38.8813C16.3226 38.4279 16.2005 38.0792 15.9389 37.8525C15.6948 37.6083 15.3285 37.5037 14.8403 37.5037C14.352 37.5037 14.0032 37.6258 13.7416 37.8525C13.4975 38.0966 13.358 38.4279 13.358 38.8813C13.358 39.3347 13.4801 39.6835 13.7416 39.9102C14.0032 40.1369 14.3694 40.259 14.8403 40.259Z" fill="black"/>
<path fill-rule="evenodd" clip-rule="evenodd" d="M18.5894 40.7645V36.9803H19.1823H19.7577V40.189H22.1294V40.4855V40.7645H18.5894Z" fill="black"/>
<path fill-rule="evenodd" clip-rule="evenodd" d="M23.0015 36.9803H23.5944H25.2685C26.1055 36.9803 26.7682 37.1547 27.2565 37.486C27.7448 37.8173 27.9715 38.2882 27.9715 38.8811C27.9715 39.5089 27.7099 39.9797 27.1693 40.2936C26.6287 40.625 25.844 40.7819 24.8151 40.7819H23.5944H23.0015V36.9803ZM24.1699 40.189H24.9895C25.5824 40.189 26.0358 40.0844 26.3323 39.8577C26.6462 39.631 26.7857 39.3171 26.7857 38.8811C26.7857 38.4626 26.6287 38.1312 26.3148 37.9045C26.0009 37.6778 25.5475 37.5558 24.9546 37.5558H24.1699V40.189Z" fill="black"/>
<path fill-rule="evenodd" clip-rule="evenodd" d="M28.9307 40.7645V36.9803H32.6625V37.2593V37.5558H30.0991V38.4975H32.523V38.7939V39.0904H30.0991V40.189H32.7497V40.4855V40.7645H28.9307Z" fill="black"/>
<path fill-rule="evenodd" clip-rule="evenodd" d="M34.7029 40.7645H34.1623H33.6392V36.9803H34.4588H35.2784L37.3362 39.8402V36.9803H37.8593H38.3999V40.7645H37.5977H36.7956L34.7029 37.8697V40.7645Z" fill="black"/>
</svg>
