<svg width="48" height="48" viewBox="0 0 48 48" fill="none" xmlns="http://www.w3.org/2000/svg">
<path d="M11.6874 30.983L12.1759 31.0412C12.3969 31.0644 12.4202 31.2505 12.4202 31.3669V31.9368H10.1752V31.3669C10.1752 31.2505 10.1985 31.0644 10.4195 31.0412L10.908 30.983V30.4944H8V30.983L8.48855 31.0412C8.70956 31.0644 8.73282 31.2505 8.73282 31.3669V33.2513C8.73282 33.3676 8.70956 33.5537 8.48855 33.577L8 33.6351V34.1237H10.908V33.6351L10.4195 33.577C10.1985 33.5537 10.1752 33.3676 10.1752 33.2513V32.6813H12.4086V33.2513C12.4086 33.3676 12.3853 33.5537 12.1643 33.577L11.6758 33.6351V34.1237H14.5838V33.6351L14.0952 33.577C13.8742 33.5537 13.851 33.3676 13.851 33.2513V31.3669C13.851 31.2505 13.8742 31.0644 14.0952 31.0412L14.5838 30.983V30.4944H11.6758V30.983H11.6874Z" fill="black"/>
<path d="M31.055 30.4944H27.4723V30.983L27.9027 31.0295C28.0539 31.0528 28.1586 31.1109 28.1586 31.3203V33.2396C28.1586 33.3559 28.1353 33.5421 27.9143 33.5653L27.4258 33.6235V34.112H31.055C32.3578 34.112 33.428 33.5886 33.428 32.2974C33.428 31.0063 32.3578 30.4944 31.055 30.4944ZM30.7875 33.4257H29.5661V31.1924H30.7875C31.5087 31.1924 31.7529 31.5297 31.7529 32.3091C31.7529 33.0768 31.5087 33.4257 30.7875 33.4257Z" fill="black"/>
<path d="M39.5232 33.577C39.2906 33.5537 39.2208 33.4025 39.151 33.2978L37.476 30.7387C37.3597 30.5526 37.2666 30.4944 37.0921 30.4944H34.3469V30.983L35.01 31.0528C35.103 31.0644 35.231 31.1924 35.1263 31.3552L33.8817 33.3676C33.8351 33.449 33.7653 33.5421 33.6258 33.5653L33.1372 33.6235V34.112H35.452V33.6235L35.0565 33.5886C34.882 33.5653 34.789 33.449 34.882 33.3094L35.0681 33.007H37.3015L37.4644 33.2513C37.6156 33.4723 37.4295 33.5653 37.2666 33.577L36.8595 33.6235V34.112H40.0002V33.6235L39.5232 33.577ZM35.452 32.3672L36.1383 31.2505L36.8711 32.3672H35.452Z" fill="black"/>
<path d="M24.8781 30.9828L25.3666 31.041C25.5876 31.0643 25.6109 31.2504 25.6109 31.3667V33.1813L23.6916 30.6455C23.6102 30.5292 23.5287 30.4943 23.3194 30.4943H20.8301V30.9828L21.3186 31.041C21.5396 31.0643 21.5629 31.2504 21.5629 31.3667V33.2511C21.5629 33.3674 21.5396 33.5536 21.3186 33.5768L20.8301 33.635V34.1235H23.1565V33.635L22.668 33.5768C22.4469 33.5536 22.4237 33.3674 22.4237 33.2511V31.4365L24.343 33.9607C24.436 34.077 24.5058 34.1119 24.7152 34.1119H24.7385H26.4833V31.3551C26.4833 31.2388 26.5066 31.0526 26.7276 31.0294L27.2161 30.9712V30.4827H24.9013L24.8781 30.9828Z" fill="black"/>
<path d="M17.7011 30.3663C15.3397 30.3663 14.7349 31.4016 14.7349 32.2973C14.7349 33.1929 15.3397 34.2398 17.7011 34.2398C20.0624 34.2398 20.6673 33.2046 20.6673 32.3089C20.6673 31.4016 20.0624 30.3663 17.7011 30.3663ZM17.7011 33.5535C16.7821 33.5535 16.4099 33.1697 16.4099 32.3089C16.4099 31.4481 16.7938 31.0643 17.7011 31.0643C18.62 31.0643 18.9922 31.4481 18.9922 32.3089C18.9922 33.1697 18.62 33.5535 17.7011 33.5535Z" fill="black"/>
<path d="M28.0188 15.1982C27.6233 16.9779 27.4605 17.8038 27.1348 19.0833C26.8207 20.3163 26.5764 21.4679 26.1577 22.0262C25.7389 22.5962 25.1689 22.7125 24.7851 22.7591C24.5873 22.7823 24.4361 22.794 24.0057 22.794C23.5753 22.794 23.4241 22.7823 23.2264 22.7591C22.8425 22.7125 22.2725 22.5962 21.8538 22.0262C21.435 21.4679 21.1907 20.3163 20.8883 19.0833C20.5626 17.7921 20.3998 16.9779 20.0043 15.1982C20.0043 15.1982 19.6088 15.2098 19.4343 15.2214C19.19 15.2331 19.0039 15.2563 18.8062 15.2796C18.8062 15.2796 19.0388 18.9437 19.1435 20.5024C19.2482 22.1309 19.4459 24.8877 19.6204 26.9699C19.6204 26.9699 19.9577 27.0281 20.5161 27.0513C21.0977 27.0862 21.3652 27.0862 21.3652 27.0862C21.6095 26.1673 21.9003 24.8994 22.2376 24.3527C22.5168 23.9106 22.9356 23.8641 23.1798 23.8292C23.5521 23.7827 23.8778 23.7711 24.0173 23.7711C24.1686 23.7711 24.4826 23.7711 24.8549 23.8292C25.0991 23.8641 25.5179 23.9106 25.7971 24.3527C26.1344 24.8994 26.4368 26.1673 26.6695 27.0862C26.6695 27.0862 26.9254 27.0862 27.507 27.0513C28.0653 27.0164 28.4027 26.9699 28.4027 26.9699C28.5771 24.8877 28.7749 22.1426 28.8796 20.5024C28.9843 18.9554 29.2169 15.2796 29.2169 15.2796C29.0192 15.2563 28.8214 15.2331 28.5888 15.2214C28.4143 15.2098 28.0188 15.1982 28.0188 15.1982Z" fill="black"/>
<path d="M32.6368 17.3617C32.4041 15.0353 30.8454 14.5467 29.4845 14.3141C28.7982 14.1977 27.5768 14.1047 26.7974 14.0698C26.1111 14.0233 24.5059 14 24.0174 14C23.5288 14 21.9236 14.0233 21.2373 14.0698C20.4579 14.1047 19.2365 14.1977 18.5502 14.3141C17.1893 14.5467 15.6306 15.0353 15.3979 17.3617C15.3281 18.0015 15.3165 18.8273 15.3281 19.7114C15.3514 21.1887 15.4794 22.1774 15.5492 22.8753C15.5957 23.3522 15.7934 24.7714 16.0493 25.5042C16.3983 26.5162 16.7124 26.807 17.0846 27.1094C17.7593 27.6561 18.8759 27.8306 19.1086 27.8771C20.3649 28.0981 22.9007 28.1447 24.029 28.1447C25.1457 28.1447 27.6931 28.1098 28.9494 27.8771C29.182 27.8306 30.2987 27.6678 30.9734 27.1094C31.3456 26.807 31.6597 26.5162 32.0086 25.5042C32.2645 24.7714 32.4623 23.3406 32.5088 22.8753C32.5786 22.189 32.7066 21.1887 32.7298 19.7114C32.7182 18.8157 32.6949 17.9898 32.6368 17.3617ZM31.776 21.2701C31.6364 23.1312 31.4735 24.2479 31.2409 25.0505C31.0315 25.7601 30.7756 26.2254 30.4034 26.5627C29.7753 27.1327 28.9145 27.249 28.4027 27.3304C27.3092 27.4933 25.4597 27.5514 24.0174 27.5514C22.5633 27.5514 20.7255 27.4933 19.632 27.3304C19.1202 27.249 18.2594 27.1327 17.6313 26.5627C17.2591 26.2254 17.0032 25.7485 16.7938 25.0505C16.5612 24.2479 16.3867 23.1312 16.2587 21.2701C16.1773 20.1534 16.1889 18.3388 16.3169 17.3617C16.4914 15.896 17.2126 15.1632 18.7596 14.8957C19.4808 14.7677 20.4579 14.6747 21.3769 14.6281C22.1213 14.5816 23.3311 14.5583 24.0174 14.5583C24.692 14.5467 25.9134 14.5816 26.6462 14.6281C27.5652 14.6747 28.5423 14.7677 29.2634 14.8957C30.8105 15.1748 31.5317 15.9077 31.7178 17.3617C31.8458 18.3272 31.8574 20.1418 31.776 21.2701Z" fill="black"/>
</svg>
