<svg width="48" height="48" viewBox="0 0 48 48" fill="none" xmlns="http://www.w3.org/2000/svg">
<g clip-path="url(#clip0_1_99329)">
<path d="M13.7598 27.6587V30.6134L12.7571 27.7654C12.7358 27.6907 12.6824 27.6587 12.5758 27.6587H11.6478V31.2534H12.2878V28.3307L13.2798 31.136C13.3011 31.2107 13.3651 31.2427 13.4398 31.2427H14.3998V27.648H13.7598V27.6587ZM17.0664 27.6587V31.2534H17.8131V29.7174H19.1464V29.056H17.8131V28.3094H19.1678V27.648H17.0664V27.6587ZM34.1651 27.6587V28.352H34.9864V31.2534H35.7331V28.3414H36.5544V27.648H34.1544L34.1651 27.6587ZM21.7598 31.2534H22.5598V27.6587H21.7598V31.2534ZM30.8264 31.2534H31.6264V27.6587H30.8264V31.2534ZM39.0931 31.2534H39.8824V27.6587H39.0931V31.2534ZM8.10645 31.2534H8.90645V27.6587H8.10645V31.2534ZM28.0851 27.6587H27.4451V30.6134L26.4424 27.7654C26.4211 27.6907 26.3678 27.6587 26.2718 27.6587H25.3331V31.2534H25.9731V28.3307L26.9651 31.136C26.9864 31.2107 27.0504 31.2427 27.1251 31.2427H28.0851V27.648V27.6587ZM27.2531 21.76L23.9998 17.3867L20.7464 21.76C19.6478 21.6534 17.7598 20.9387 17.7598 19.6694C17.7598 18.0694 20.5331 16.576 24.0104 16.576C27.6691 16.576 30.2611 18.0694 30.2611 19.6694C30.2611 20.9494 28.3624 21.664 27.2744 21.7494M23.9998 16.1067C19.4984 16.1067 16.3624 17.8667 16.3624 20.1387C16.3624 21.2054 17.0451 22.4 18.4958 23.1254C19.8504 23.7974 21.7491 24.032 22.0158 24.064L23.9998 18.272L25.9838 24.064C27.1973 23.9281 28.3837 23.6117 29.5038 23.1254C30.9544 22.4 31.6371 21.2054 31.6371 20.1387C31.6264 17.856 28.5011 16.1067 23.9998 16.1067Z" fill="#231F20"/>
</g>
<defs>
<clipPath id="clip0_1_99329">
<rect width="32" height="15.3707" fill="white" transform="translate(8 16)"/>
</clipPath>
</defs>
</svg>
