<svg width="48" height="48" viewBox="0 0 48 48" fill="none" xmlns="http://www.w3.org/2000/svg">
<g clip-path="url(#clip0_1_99337)">
<path fill-rule="evenodd" clip-rule="evenodd" d="M36.2864 21.6827C36.8087 21.7117 37.1856 22.0888 37.2438 22.5821C37.2728 22.8431 37.2728 23.2493 37.2728 23.5103C37.2728 23.8295 37.2728 24.0905 37.2438 24.3516C37.1567 24.9609 36.7215 25.3091 36.2864 25.3091H35.9382H35.5319C35.1258 25.3091 34.6615 24.9609 34.5745 24.3516C34.5456 24.0905 34.5456 23.8293 34.5456 23.5393C34.5456 23.2493 34.5456 22.8431 34.5745 22.5819C34.6325 22.0886 35.0386 21.7115 35.5609 21.6825C35.6768 21.6535 35.764 21.6535 35.9091 21.6535L36.2864 21.6827ZM35.996 20C36.5473 20 37.0695 20.029 37.5048 20.0869C38.7232 20.2321 39.7098 21.1894 39.9126 22.379C39.9416 22.5821 39.9998 23.0462 39.9998 23.5105C39.9998 24.0038 39.9416 24.4679 39.9126 24.6419C39.7098 25.8605 38.7232 26.7889 37.5048 26.963C37.0695 26.992 36.5473 27.05 35.996 27.05H35.8219C35.2417 27.05 34.7486 26.992 34.2843 26.963C33.0659 26.7889 32.1086 25.8605 31.9053 24.6419C31.8763 24.4679 31.8184 24.0038 31.8184 23.5105C31.8184 23.0464 31.8763 22.5823 31.9053 22.379C32.1084 21.1894 33.0659 20.2322 34.2843 20.0869C34.7486 20.029 35.2419 20 35.793 20H35.996Z" fill="#003A80"/>
<path fill-rule="evenodd" clip-rule="evenodd" d="M25.5229 23.5103C25.5229 23.1332 25.5519 22.7562 25.6389 22.3788C25.8419 21.1892 26.7993 20.2321 28.0179 20.0868C28.4532 20.029 28.9755 20 29.5265 20C30.1359 20 30.6872 20.029 31.1513 20.0869C31.3253 20.1159 31.4413 20.261 31.4413 20.4351V21.4794C31.4413 21.6825 31.2962 21.8276 31.1221 21.8276C31.1221 21.8276 30.5708 21.7984 30.2808 21.7984C29.9327 21.7984 29.6426 21.7984 29.3233 21.8276C28.8012 21.8566 28.4241 22.2337 28.3659 22.727C28.3369 22.988 28.3077 23.2493 28.3077 23.5103V23.5393C28.3077 23.8005 28.3367 24.0615 28.3659 24.3226C28.4241 24.8158 28.7722 25.193 29.3233 25.251C29.6135 25.2799 29.9616 25.3091 30.2808 25.3091C30.5708 25.3091 31.1221 25.2801 31.1221 25.2801C31.2962 25.2801 31.4413 25.4252 31.4413 25.6283V26.6728C31.4413 26.8469 31.3253 26.992 31.1513 27.021C30.6872 27.021 30.1359 27.0498 29.5265 27.0498C28.9755 27.0498 28.4532 26.9918 28.0179 26.9628C26.7993 26.7887 25.8421 25.8604 25.6389 24.6418C25.5519 24.2938 25.5229 23.9166 25.5229 23.5395C25.5229 22.3499 25.5229 24.7001 25.5229 23.5103Z" fill="#003A80"/>
<path fill-rule="evenodd" clip-rule="evenodd" d="M24.7399 25.222C24.9428 25.222 25.0879 25.3961 25.0879 25.5702V26.6147C25.0879 26.8178 24.9428 26.9629 24.7399 26.9629H20.591C19.8367 26.9629 19.2275 26.3537 19.2275 25.5994V21.4797C19.2275 20.7255 19.8367 20.1161 20.591 20.1161H24.7397C24.9426 20.1161 25.0877 20.2613 25.0877 20.4353V21.4507C25.0877 21.6539 24.9426 21.7988 24.7397 21.7988H22.1868C21.9837 21.7988 21.8386 21.915 21.8386 22.118V22.7564L24.0146 22.7274C24.1885 22.7274 24.3626 22.9015 24.3626 23.0756V23.946C24.3626 24.1491 24.1885 24.2942 24.0146 24.2942H21.8386V24.8744C21.8386 25.0775 21.9837 25.2226 22.1868 25.2226H24.7399V25.222Z" fill="#003A80"/>
<path fill-rule="evenodd" clip-rule="evenodd" d="M14.1797 26.9629C13.5704 26.9629 13.0482 26.5565 12.8741 26.0053L11.4526 20.5223C11.4526 20.4933 11.4526 20.4643 11.4526 20.4353C11.4526 20.2613 11.5977 20.1161 11.8008 20.1161H13.9186C14.0927 20.1161 14.2378 20.2323 14.2666 20.3772L15.3691 24.9612C15.3691 25.0193 15.4272 25.0771 15.5142 25.0771C15.5721 25.0771 15.6301 25.0191 15.6301 24.9612L16.7616 20.3772C16.7905 20.2321 16.9357 20.1161 17.0808 20.1161H18.2702C18.4732 20.1161 18.6183 20.2613 18.6183 20.4353C18.6183 20.4643 18.6183 20.4933 18.6183 20.5223L17.2548 25.8896C17.1097 26.4988 16.6165 26.9629 15.9203 26.9629H14.1797Z" fill="#003A80"/>
<path fill-rule="evenodd" clip-rule="evenodd" d="M8.34817 20.1159H10.408C10.6111 20.1159 10.7562 20.261 10.7562 20.4351V26.6146C10.7562 26.8177 10.6111 26.9628 10.408 26.9628H8.34817C8.17408 26.9628 8 26.8177 8 26.6146V20.4351C8 20.261 8.17408 20.1159 8.34817 20.1159Z" fill="#003A80"/>
</g>
<defs>
<clipPath id="clip0_1_99337">
<rect width="32" height="7.04978" fill="white" transform="translate(8 20)"/>
</clipPath>
</defs>
</svg>
