<svg width="48" height="48" viewBox="0 0 48 48" fill="none" xmlns="http://www.w3.org/2000/svg">
<g clip-path="url(#clip0_1_99345)">
<path d="M28.2792 30.305C28.0871 31.1018 27.486 31.4375 26.4797 31.4375C25.7968 31.4375 25.1961 31.3003 24.887 30.9905C24.5519 30.6618 24.5015 30.2084 24.5015 29.7239V27.3478H25.2661V29.6832C25.2661 30.2109 25.3095 30.5255 25.5156 30.7573C25.7497 31.029 26.1541 31.1085 26.4951 31.1085C27.2164 31.1085 27.6969 30.8749 27.8274 30.2402C27.8575 30.094 27.8809 29.9148 27.8809 29.6383V27.3477H28.3516V29.4782C28.3516 29.8761 28.3286 30.1007 28.2792 30.305Z" fill="#01422D"/>
<path d="M28.2792 30.305C28.0871 31.1018 27.486 31.4375 26.4797 31.4375C25.7968 31.4375 25.1961 31.3003 24.887 30.9905C24.5519 30.6618 24.5015 30.2084 24.5015 29.7239V27.3478H25.2661V29.6832C25.2661 30.2109 25.3095 30.5255 25.5156 30.7573C25.7497 31.029 26.1541 31.1085 26.4951 31.1085C27.2164 31.1085 27.6969 30.8749 27.8274 30.2402C27.8575 30.094 27.8809 29.9148 27.8809 29.6383V27.3477H28.3516V29.4782C28.3516 29.8761 28.3286 30.1007 28.2792 30.305" stroke="#01422D" stroke-width="0.575339"/>
<path d="M32.153 28.1063L31.2674 29.953H32.995L32.153 28.1063ZM33.6255 31.3488L33.1213 30.2251H31.1367L30.5966 31.3488H30.1113L32.1072 27.3477H32.5828L34.5357 31.3488H33.6255Z" fill="#01422D"/>
<path d="M32.153 28.1063L31.2674 29.953H32.995L32.153 28.1063ZM33.6255 31.3488L33.1213 30.2251H31.1367L30.5966 31.3488H30.1113L32.1072 27.3477H32.5828L34.5357 31.3488H33.6255Z" stroke="#01422D" stroke-width="0.575339"/>
<path d="M13.9381 28.1063L13.0532 29.953H14.7812L13.9381 28.1063ZM15.4113 31.3488L14.9078 30.2251H12.9228L12.382 31.3488H11.897L13.8929 27.3477H14.3681L16.3219 31.3488H15.4113Z" fill="#01422D"/>
<path d="M13.9381 28.1063L13.0532 29.953H14.7812L13.9381 28.1063M15.4113 31.3488L14.9078 30.2251H12.9228L12.382 31.3488H11.897L13.8929 27.3477H14.3681L16.3219 31.3488H15.4113Z" stroke="#01422D" stroke-width="0.575339"/>
<path d="M20.4867 31.4371C19.1654 31.4371 17.9097 30.9826 17.9097 29.446C17.9097 28.9467 18.1313 28.4349 18.466 28.0686C18.9906 27.4991 19.7872 27.272 20.5395 27.272C20.9944 27.272 21.5213 27.3752 21.9313 27.5836V28.0588C21.5597 27.7817 21.0705 27.5906 20.5935 27.5906C19.5065 27.5906 18.7569 28.2706 18.7569 29.3955C18.7569 30.4138 19.4184 31.1107 20.4359 31.1107C20.6949 31.1107 21.0532 31.0646 21.2997 30.9701V29.5094H22.0644V31.1405C21.6158 31.3425 20.9792 31.4371 20.4867 31.4371Z" fill="#01422D"/>
<path d="M20.4867 31.4371C19.1654 31.4371 17.9097 30.9826 17.9097 29.446C17.9097 28.9467 18.1313 28.4349 18.466 28.0686C18.9906 27.4991 19.7872 27.272 20.5395 27.272C20.9944 27.272 21.5213 27.3752 21.9313 27.5836V28.0588C21.5597 27.7817 21.0705 27.5906 20.5935 27.5906C19.5065 27.5906 18.7569 28.2706 18.7569 29.3955C18.7569 30.4138 19.4184 31.1107 20.4359 31.1107C20.6949 31.1107 21.0532 31.0646 21.2997 30.9701V29.5094H22.0644V31.1405C21.6158 31.3425 20.9792 31.4371 20.4867 31.4371" stroke="#01422D" stroke-width="0.575339"/>
<path d="M37.8098 27.6255H37.2475V29.5396H37.7393C38.1516 29.5396 38.3981 29.4626 38.5903 29.3078C38.7931 29.1449 38.9144 28.8951 38.9144 28.5575C38.9144 27.8813 38.4229 27.6255 37.8098 27.6255ZM39.1093 31.3488L38.049 29.8124H37.2475V31.3488H36.4824V27.3477H37.9296C38.5167 27.3477 39.1043 27.4329 39.4315 27.7943C39.6026 27.9832 39.6956 28.2458 39.6956 28.5839C39.6956 29.2023 39.2294 29.5768 38.8141 29.7242L39.99 31.3489L39.1093 31.3488Z" fill="#01422D"/>
<path d="M37.8098 27.6255H37.2475V29.5396H37.7393C38.1516 29.5396 38.3981 29.4626 38.5903 29.3078C38.7931 29.1449 38.9144 28.8951 38.9144 28.5575C38.9144 27.8813 38.4229 27.6255 37.8098 27.6255M39.1093 31.3488L38.049 29.8124H37.2475V31.3488H36.4824V27.3477H37.9296C38.5167 27.3477 39.1043 27.4329 39.4315 27.7943C39.6026 27.9832 39.6956 28.2458 39.6956 28.5839C39.6956 29.2023 39.2294 29.5768 38.8141 29.7242L39.99 31.3489L39.1093 31.3488V31.3488Z" stroke="#01422D" stroke-width="0.575339"/>
<path d="M8.66501 32.1713C8.46307 32.2663 8.24182 32.3292 8.01416 32.3292C8.53838 31.9501 8.75999 31.5646 8.83574 30.9261C8.88021 30.5719 8.88021 30.2176 8.88021 29.8637V27.3478H9.64526V30.3759C9.64534 31.1153 9.36076 31.8302 8.66501 32.1713Z" fill="#01422D"/>
<path d="M8.66501 32.1713C8.46307 32.2663 8.24182 32.3292 8.01416 32.3292C8.53838 31.9501 8.75999 31.5646 8.83574 30.9261C8.88021 30.5719 8.88021 30.2176 8.88021 29.8637V27.3478H9.64526V30.3759C9.64534 31.1153 9.36076 31.8302 8.66501 32.1713" stroke="#01422D" stroke-width="0.575339"/>
<path d="M13.475 16.6665C13.7497 16.6748 13.9856 16.5723 13.9864 16.5576C13.9872 16.5429 13.6822 16.5139 13.6822 16.5139C13.403 16.5255 13.2891 16.6291 13.2876 16.6412C13.2858 16.6529 13.3604 16.6627 13.475 16.6665Z" fill="#241F20"/>
<path d="M11.6076 17.1394C11.6076 17.1394 11.6242 17.081 11.6314 17.0682C11.6386 17.055 11.6785 16.9201 11.8714 16.9054C11.8714 16.9054 11.9687 16.8967 12.0806 16.9314C12.0806 16.9314 12.0162 17.0976 11.7524 17.1251C11.7524 17.1251 11.6487 17.1406 11.6076 17.1394ZM37.4357 24.632C37.3702 24.794 37.0894 25.0002 36.7597 25.1105C36.4115 25.2269 35.6844 25.23 35.3125 25.1064C35.3125 25.1064 35.2341 25.0212 34.9725 24.9444C34.3643 24.7654 34.1676 24.6407 33.8589 24.3531C33.6407 24.15 33.4005 23.8952 33.1677 23.6551C33.0641 23.5481 32.8119 23.2956 32.3688 23.2187C31.9064 23.1388 30.7716 23.0521 30.3537 22.9044C30.0725 22.8046 29.7393 22.615 29.3211 21.9894C29.1206 21.689 28.9687 21.6016 28.6792 21.4169C28.6792 21.4169 28.9001 21.5914 29.0162 21.8032C29.1839 22.1108 29.2642 22.332 29.3557 22.4955C29.448 22.6602 29.5547 22.8069 29.7213 22.9406C29.9278 23.1065 30.0613 23.143 30.2945 23.1901C30.5176 23.2353 31.2793 23.2689 31.9328 23.2945C32.5753 23.3194 32.8501 23.5184 33.0509 23.6869C33.2356 23.8428 33.5299 24.2884 33.7365 24.4707C34.0127 24.7135 34.0199 24.7169 34.3406 24.9181C34.5026 25.0198 34.6455 25.0864 34.7771 25.1337C35.0714 25.3066 34.9497 25.6085 34.9497 25.6085C34.8653 25.849 34.5615 25.9352 34.2069 25.885C33.6709 25.8377 33.2096 25.3906 32.82 25.0699C32.6055 24.8931 32.5297 24.8049 32.1163 24.5177C31.4873 24.0814 30.0093 24.1175 30.0093 24.1175L28.9261 24.1107C26.8164 24.1416 26.0445 22.4442 25.8338 22.088C25.7611 21.9641 25.6937 21.8642 25.6295 21.7824C25.5312 21.6497 25.0017 20.9586 24.4345 20.7117C24.4345 20.7117 24.9791 21.1828 24.9244 21.4406C24.8076 21.4391 24.6749 21.4466 24.5166 21.4511C22.3911 21.5134 21.9494 21.3957 21.6136 21.3287C21.2774 21.2612 20.714 21.0939 20.1665 20.8417C20.1665 20.8417 20.2275 20.3179 20.0101 19.8826C20.0101 19.8826 21.7645 20.5022 23.1603 20.3266C23.1603 20.3266 20.9074 20.2165 19.5021 19.0965C19.5021 19.0965 19.8489 20.2803 19.5748 20.7774C19.5748 20.7774 19.2055 21.68 17.3117 21.0777C17.3117 21.0777 16.4407 20.7389 15.7635 20.7389C15.7635 20.7389 15.2536 20.76 15.1926 21.0257C15.1926 21.0257 15.1594 21.1527 15.2924 21.213C15.2924 21.213 15.4402 21.2553 15.3704 21.3649C15.2555 21.5462 15.096 21.6864 14.9378 21.7655C14.4094 21.7395 14.4486 21.3057 14.4486 21.3057C14.458 21.1519 14.5078 21.0445 14.5549 20.9386C14.8868 20.1958 16.0536 20.088 16.0536 20.088C17.2951 19.9641 18.5964 20.2621 18.5964 20.2621C17.6655 20.0401 17.349 19.8773 17.0829 19.6554C16.7244 19.3561 16.3894 18.3507 16.3894 18.3507C16.2466 18.8436 16.4234 19.3418 16.5429 19.5977C16.3664 19.3162 16.1151 19.0784 15.8909 18.8986C15.3176 18.4392 14.4855 18.2907 14.4855 18.2907C14.245 18.2496 14.1497 18.0005 14.1497 18.0005C13.8413 17.433 13.4924 17.4062 13.4924 17.4062C13.6642 17.6418 13.6461 17.964 13.6461 17.964C13.6461 18.558 12.8823 18.7551 12.8823 18.7551C12.3109 19.323 12.2118 19.3109 12.1002 19.3192C11.9886 19.3272 11.9062 19.2114 11.9062 19.2114C11.8699 19.1571 11.9302 19.1085 11.9302 19.1085C12.0267 19.0482 12.1179 18.9695 12.1179 18.9695C12.675 18.5221 12.7533 18.2934 12.7081 17.9813C12.6173 17.3579 12.1145 17.4039 12.1145 17.4039C11.8782 17.4039 11.7614 17.5841 11.7614 17.5841C11.6702 17.6926 11.4708 18.0321 11.4708 18.0321C11.2952 18.3224 11.1381 18.2797 11.1381 18.2797C10.9444 18.2922 10.8042 18.1203 10.8042 18.1203C10.7966 18.1136 10.791 18.1056 10.7846 18.0989C10.641 17.9447 10.7646 17.7585 10.7646 17.7585C11.001 17.341 11.4087 17.2999 11.4641 17.2965C11.5198 17.2931 11.7079 17.2791 11.7079 17.2791C12.1684 17.2456 12.4692 16.8054 12.4692 16.8054C12.2751 16.7116 11.9284 16.7614 11.9284 16.7614C11.5907 16.784 11.5018 17.1424 11.501 17.1424C11.2086 17.1854 11.2233 16.9607 11.2858 16.9016C11.3352 16.8435 11.5093 16.5616 12.629 16.3936C12.629 16.3936 13.2229 16.276 14.2778 16.3917C14.3166 16.3958 14.3543 16.4298 14.3045 16.4885C14.1719 16.6442 13.757 16.9894 13.0914 16.8224C13.0914 16.8224 13.0794 17.0885 13.8052 17.2215C13.8052 17.2215 14.4598 17.361 15.5286 18.2195C15.5286 18.2195 15.0104 17.2611 14.1146 16.969C14.1146 16.969 14.0483 16.9268 14.1086 16.8661C14.1086 16.8661 14.5325 16.4862 15.2806 16.5262C15.2806 16.5262 17.7544 16.6532 19.1451 18.1045C19.1451 18.1045 19.0969 17.8626 18.885 17.5117C18.885 17.5117 18.8425 17.4699 18.8669 17.4394C18.8669 17.4394 18.885 17.3787 19.127 17.4273C19.127 17.4273 20.01 17.5724 22.0598 18.3223C22.0598 18.3223 23.5963 18.8609 24.4341 19.2084C25.6936 19.7303 28.849 21.0102 30.842 22.1133C31.1978 22.31 32.6801 23.0423 32.6801 23.0423C33.788 23.73 34.8075 24.2279 34.8075 24.2279C35.8115 24.6919 36.5415 24.4793 36.5415 24.4793C36.7747 24.3914 37.2203 24.1496 37.3939 24.3213C37.4824 24.4093 37.4877 24.5238 37.4357 24.632ZM37.6856 24.2427C37.5543 23.9371 37.1319 24.012 37.1319 24.012C36.9387 24.0237 36.6949 24.226 36.356 24.2957C35.6271 24.4461 35.0697 24.1982 35.0697 24.1982C33.9957 23.7173 33.2687 23.1935 32.7957 22.9229C32.3228 22.6523 30.5722 21.7327 28.8213 20.8527C28.8213 20.8527 26.8155 19.8246 23.848 18.5979C23.848 18.5979 18.1226 16.0001 14.0046 16.0001C14.0046 16.0001 11.8715 15.9733 11.1491 16.7942C11.1491 16.7942 11.0217 16.8997 11.0838 17.0297C11.0838 17.0297 11.0925 17.0655 11.0657 17.0885C11.0657 17.0885 10.748 17.2973 10.4895 17.5969C10.4895 17.5969 10.3508 17.7386 10.4623 17.95C10.4623 17.95 10.6002 18.1905 10.6873 18.2938C10.7752 18.3966 10.9507 18.5768 11.219 18.55C11.3377 18.538 11.3411 18.5082 11.3411 18.5082C11.4644 18.6326 11.6796 18.6401 11.6796 18.6401C11.6581 18.5636 11.5759 18.4121 11.5687 18.3239C11.5608 18.2252 11.5992 18.1336 11.5992 18.1336C11.6441 18.0251 11.7282 17.8905 11.8138 17.8234C11.8899 17.7639 12.0786 17.7021 12.2196 17.8008C12.3327 17.88 12.4529 18.1336 12.3172 18.4675C12.3172 18.4675 12.1646 18.7313 12.0237 18.7607L11.9845 18.7626C11.9038 18.7611 11.7241 18.662 11.7241 18.662C11.7241 18.662 11.7166 18.6835 11.7365 18.7743C11.7482 18.8259 11.7648 18.8832 11.7788 18.9273L11.7414 18.9574C11.7414 18.9574 11.628 19.0487 11.6781 19.1802C11.6781 19.1802 11.7886 19.5955 12.0968 19.5955C12.3694 19.6046 12.5962 19.346 12.5962 19.346C13.1807 18.7155 14.0046 18.6307 14.0046 18.6307C14.9177 18.5685 16.2225 19.5035 16.5779 19.7734C15.2256 19.7587 14.6799 20.2776 14.6799 20.2776C13.9183 20.8705 14.2148 21.5858 14.2148 21.5858C14.2703 21.7414 14.4263 21.8548 14.5258 21.8985C14.6693 21.9611 14.7873 21.9637 14.8985 21.9513C14.9788 21.9426 15.0669 21.9128 15.1118 21.8819C15.2154 21.8208 15.4004 21.6999 15.4898 21.5714C15.5494 21.5069 15.6092 21.349 15.5697 21.1987C15.5697 21.1987 15.5456 21.0777 15.6545 21.0532C15.6545 21.0532 16.0128 20.9624 16.7365 21.282C16.7365 21.282 17.5226 21.7402 18.5424 21.8311C18.5424 21.8311 19.7021 21.9487 19.9821 21.3208C19.9821 21.3208 20.6484 21.5933 21.6234 21.7048C21.6234 21.7048 22.5734 21.8032 24.1145 21.6871C24.4178 21.6641 24.774 21.6894 24.774 21.6894C25.2673 21.7485 25.5809 22.0052 25.7045 22.2061C26.2095 23.0261 26.8121 24.635 29.2795 24.5714L30.3962 24.5407C31.075 24.5407 31.6277 24.5464 32.1705 24.8366C32.4075 24.9636 33.0336 25.585 33.419 25.7949C34.5606 26.5642 35.2201 26.2065 35.2201 26.2065C35.6086 25.9801 35.5781 25.5771 35.4835 25.3515C35.3666 25.3144 36.8979 25.576 37.5507 24.7187C37.7052 24.5276 37.7322 24.3524 37.6856 24.2427Z" fill="#241F20"/>
</g>
<defs>
<clipPath id="clip0_1_99345">
<rect width="32" height="16.3328" fill="white" transform="translate(8 16)"/>
</clipPath>
</defs>
</svg>
