<svg width="48" height="48" viewBox="0 0 48 48" fill="none" xmlns="http://www.w3.org/2000/svg">
<g clip-path="url(#clip0_1_99483)">
<path d="M26.5645 26.6649C26.5645 26.7257 26.5836 26.7609 26.6189 26.7609C26.6486 26.7609 26.6733 26.7449 26.6957 26.7289L36.6691 20.256C36.8376 20.1382 37.0395 20.0776 37.245 20.0831H39.4368C39.7728 20.0831 39.9999 20.3071 39.9999 20.6431V24.8282C39.9999 25.3338 39.8879 25.6282 39.44 25.8969L36.7811 27.4968C36.7545 27.5152 36.7232 27.5288 36.6915 27.5288C36.6598 27.5288 36.6275 27.5032 36.6275 27.4104V22.5277C36.6275 22.4701 36.6116 22.4317 36.5731 22.4317C36.545 22.4317 36.5184 22.4461 36.4963 22.4638L29.2074 27.1993C29.041 27.3113 28.8458 27.3721 28.6474 27.3689H23.8159C23.4767 27.3689 23.2527 27.145 23.2527 26.8058V20.7744C23.2527 20.7296 23.2336 20.6881 23.1951 20.6881C23.1671 20.6881 23.1406 20.7027 23.1183 20.7201L18.3093 23.606C18.2613 23.6381 18.2486 23.6605 18.2486 23.6829C18.2486 23.702 18.2582 23.7212 18.2901 23.7565L21.7266 27.1897C21.7714 27.2345 21.8034 27.2697 21.8034 27.3081C21.8034 27.3401 21.7522 27.3657 21.6914 27.3657H18.5877C18.3445 27.3657 18.1557 27.3305 18.0245 27.1993L15.9415 25.1196C15.9256 25.1005 15.9026 25.0875 15.8776 25.0875C15.855 25.0875 15.833 25.0952 15.8136 25.1067L12.3324 27.1993C12.1212 27.3274 11.9772 27.3625 11.7692 27.3625H8.56636C8.22403 27.3657 8 27.1386 8 26.8026V22.6973C8 22.1886 8.11197 21.8974 8.56315 21.6287L11.2381 20.0225C11.2589 20.0083 11.2834 20.0006 11.3085 20.0001C11.3501 20.0001 11.3725 20.0417 11.3725 20.1345V25.6315C11.3725 25.6891 11.3852 25.7146 11.4269 25.7146C11.4552 25.7146 11.4813 25.6987 11.5069 25.6826L20.5428 20.2463C20.7156 20.1279 20.9268 20.0704 21.138 20.0799H26.0015C26.3375 20.0799 26.5646 20.3039 26.5646 20.6399L26.5614 26.6649H26.5645Z" fill="#131E29"/>
</g>
<defs>
<clipPath id="clip0_1_99483">
<rect width="32" height="7.52882" fill="white" transform="translate(8 20)"/>
</clipPath>
</defs>
</svg>
