<svg width="48" height="48" viewBox="0 0 48 48" fill="none" xmlns="http://www.w3.org/2000/svg">
<path d="M24.2526 32.465C28.5416 29.0904 30.5571 24.7228 31.4544 21.2889C32.3723 17.7724 32.5119 14.3938 32.5088 14.273L32.5029 14.0827L32.3611 13.9664C28.8666 10.7341 24.3545 9.00635 24.1417 8.93633L24.0286 8.89862L23.916 8.93633C23.7032 9.00635 19.3002 10.7341 15.6966 13.9664L15.5543 14.0827L15.5489 14.273C15.5453 14.3938 15.645 17.7823 16.5997 21.2889C17.4831 24.5321 19.3581 29.2188 23.8051 32.465L24.0286 32.6284L24.2526 32.465Z" fill="#1A377A"/>
<path fill-rule="evenodd" clip-rule="evenodd" d="M24.0336 12.1115C23.2831 12.3557 18.9447 13.811 16.3018 15.7811C16.3098 17.1838 16.7771 26.2794 24.0336 31.9294C31.1218 26.2794 31.7462 17.1834 31.7543 15.7811C29.1113 13.811 24.7842 12.3557 24.0336 12.1115Z" fill="#CB9F18"/>
<path d="M23.8542 9.50458L23.8654 9.93101C23.7079 9.82103 23.4942 9.76268 23.2482 9.76268C23.1329 9.76268 22.9829 9.79141 22.8555 9.84123L22.8779 10.133C23.0103 10.058 23.1338 10.0432 23.2595 10.0432C23.6203 10.0432 23.8767 10.3135 23.8767 10.6717C23.8767 11.0276 23.6217 11.3001 23.2482 11.3001C23.1104 11.3001 22.9493 11.2754 22.8667 11.2327L22.8555 11.5245C22.9834 11.5546 23.1154 11.5806 23.2482 11.5806C23.4879 11.5806 23.7043 11.5272 23.8654 11.4235L23.8542 11.8051H24.0225H24.2021V11.4347C24.3587 11.5268 24.5598 11.5806 24.7856 11.5806C24.9185 11.5806 25.0505 11.5546 25.1784 11.5245L25.1672 11.2327C25.0846 11.2754 24.9234 11.3001 24.7856 11.3001C24.4126 11.3001 24.1909 11.0272 24.1909 10.6717C24.1909 10.313 24.414 10.0432 24.7744 10.0432C24.9001 10.0432 25.0231 10.0576 25.156 10.133L25.1784 9.84123C25.0509 9.79096 24.901 9.76268 24.7856 9.76268C24.5545 9.76268 24.3561 9.82238 24.2021 9.91979V9.50458H24.0225H23.8542Z" fill="#CB9F18"/>
<path d="M24.0225 12.1081V13.2527L26.6933 13.0956C25.4014 12.5659 24.3578 12.2167 24.0225 12.1081ZM24.0225 13.2527V15.4634L28.2643 15.0707L31.7207 16.4061C31.7359 16.1314 31.7422 15.915 31.7431 15.7776C31.3486 15.4836 30.9158 15.2049 30.4638 14.936L28.2643 15.0594L24.0225 13.2527ZM24.0225 15.4634V15.4747V17.6854L28.2643 17.1243L31.5299 18.2689C31.6121 17.7033 31.6556 17.2042 31.687 16.7988L28.2643 17.1131L24.0225 15.4634ZM24.0225 17.6854V19.9073L28.2643 19.1891L31.1932 20.0981C31.2992 19.6263 31.3822 19.1797 31.4513 18.7627L28.2643 19.1667L24.0225 17.6854ZM24.0225 19.9073V22.118L28.2643 21.2427L30.7107 21.916C30.831 21.5241 30.9311 21.1422 31.0249 20.7714L28.2643 21.2315L24.0225 19.9073ZM24.0225 22.118V24.3399L28.2643 23.2963L30.0711 23.7227C30.1896 23.4269 30.2941 23.137 30.3965 22.8474L28.2643 23.2851L24.0225 22.118ZM24.0225 24.3399V26.5507L28.2643 25.3611L29.2406 25.5519C29.3273 25.3822 29.4067 25.2157 29.4875 25.0469L28.2643 25.3387L24.0225 24.3399ZM24.0225 26.5507V26.5619V28.7726L28.1297 27.4596C28.1458 27.4354 28.1588 27.4058 28.1746 27.3811L24.0225 26.5507ZM24.0225 28.7726V30.9945L25.7843 30.3549C26.1506 29.9846 26.494 29.607 26.8167 29.2215L24.0225 28.7726ZM24.0225 30.9945V31.9259C24.3641 31.6598 24.6868 31.3868 24.9988 31.1067L24.0225 30.9945Z" fill="#CB9F18"/>
<path d="M24.0226 12.1081C23.6877 12.2167 22.6315 12.5659 21.3406 13.0956L24.0226 13.2527V12.1081ZM24.0226 13.2527L19.7807 15.0594L17.5813 14.936C17.1288 15.2053 16.6965 15.4832 16.302 15.7776C16.3029 15.9155 16.2975 16.13 16.3132 16.4061L19.7807 15.0707L24.0226 15.4634V13.2527ZM24.0226 15.4634L19.7807 17.1131L16.3468 16.7988C16.3783 17.2051 16.4326 17.702 16.5152 18.2689L19.7807 17.1243L24.0226 17.6854V15.4634ZM24.0226 17.6854L19.7807 19.1667L16.5825 18.7627C16.6521 19.1806 16.7459 19.6245 16.8518 20.0981L19.7807 19.1891L24.0226 19.9073V17.6854ZM24.0226 19.9073L19.7807 21.2315L17.0089 20.7602C17.1032 21.1318 17.2136 21.5228 17.3344 21.916L19.7807 21.2427L24.0226 22.118V19.9073ZM24.0226 22.118L19.7807 23.2851L17.6374 22.8474C17.7402 23.1383 17.8551 23.4256 17.974 23.7227L19.7807 23.2963L24.0226 24.3399V22.118ZM24.0226 24.3399L19.7807 25.3387L18.5463 25.0469C18.6276 25.217 18.7057 25.3809 18.7932 25.5519L19.7807 25.3611L24.0226 26.5507V24.3399ZM24.0226 26.5619L19.8593 27.3811C19.8741 27.4035 19.8894 27.426 19.9042 27.4484L24.0226 28.7726V26.5619ZM24.0226 28.7726L21.2171 29.2215C21.5381 29.6048 21.8855 29.9868 22.2496 30.3549L24.0226 30.9945V28.7726ZM24.0226 30.9945L23.0351 31.118C23.3466 31.3976 23.6815 31.6602 24.0226 31.9259V30.9945Z" fill="#E3B80F"/>
<path d="M21.3516 13.0991C20.1801 13.5794 18.8069 14.2105 17.5811 14.9394L19.7806 15.0629L24.0224 13.2562L21.3516 13.0991ZM19.7806 15.0741L16.3242 16.4095C16.331 16.528 16.3354 16.6613 16.3467 16.8023L19.7806 17.1165L24.0224 15.4669L19.7806 15.0741ZM19.7806 17.1277L16.515 18.2723C16.5379 18.4299 16.5545 18.5982 16.5823 18.7661L19.7806 19.1701L24.0224 17.6888L19.7806 17.1277ZM19.7806 19.1925L16.8516 20.1015C16.9001 20.3183 16.9513 20.5369 17.0088 20.7636L19.7806 21.2349L24.0224 19.9107L19.7806 19.1925ZM19.7806 21.2461L17.3342 21.9195C17.4276 22.2247 17.5254 22.5353 17.6372 22.8509L19.7806 23.2885L24.0224 22.1215L19.7806 21.2461ZM19.7806 23.2998L17.9738 23.7262C18.1476 24.1598 18.3352 24.6091 18.5462 25.0504L19.7806 25.3421L24.0224 24.3434L19.7806 23.2998ZM19.7806 25.3646L18.793 25.5553C19.1059 26.1667 19.4637 26.7772 19.8591 27.3845L24.0224 26.5541L19.7806 25.3646ZM19.904 27.4518C20.2981 28.052 20.7322 28.6459 21.217 29.2249L24.0224 28.776L19.904 27.4518ZM22.2494 30.3583C22.5034 30.6155 22.7584 30.8736 23.0349 31.1214L24.0224 30.998L22.2494 30.3583Z" fill="#DA442D"/>
<path d="M26.6933 13.0991L24.0225 13.2562L28.2643 15.0629L30.4638 14.9394C29.2384 14.2105 27.8648 13.5798 26.6933 13.0991ZM28.2643 15.0741L24.0225 15.4669L28.2643 17.1165L31.6982 16.8023C31.7095 16.6595 31.7144 16.5294 31.7207 16.4095L28.2643 15.0741ZM28.2643 17.1277L24.0225 17.6888L28.2643 19.1701L31.4513 18.7661C31.4792 18.5969 31.507 18.4312 31.5299 18.2723L28.2643 17.1277ZM28.2643 19.1925L24.0225 19.9107L28.2643 21.2349L31.0249 20.7748C31.0828 20.5468 31.1443 20.3197 31.1932 20.1015L28.2643 19.1925ZM28.2643 21.2461L24.0225 22.1215L28.2643 23.2885L30.3965 22.8509C30.5083 22.5344 30.6164 22.2265 30.7107 21.9195L28.2643 21.2461ZM28.2643 23.2998L24.0225 24.3434L28.2643 25.3421L29.4875 25.0504C29.6994 24.6078 29.8973 24.1611 30.0711 23.7262L28.2643 23.2998ZM28.2643 25.3646L24.0225 26.5541L28.1746 27.3845C28.57 26.7772 28.9282 26.1667 29.2406 25.5553L28.2643 25.3646ZM28.1297 27.4631L24.0225 28.776L26.8167 29.2249C27.3001 28.6472 27.7365 28.0614 28.1297 27.4631ZM25.7843 30.3583L24.0225 30.998L24.9988 31.1102C25.273 30.8642 25.532 30.6137 25.7843 30.3583Z" fill="#C83E29"/>
<path d="M22.3169 34.6114L22.2608 35.0603L23.3493 35.049L23.3942 34.6114H22.3169ZM9.43417 34.6226L9.01896 37.9443H10.1075L10.2758 36.564H10.287L10.9603 37.9331H12.1611L11.2858 36.2049L12.4641 34.6226H11.3307L10.3656 35.9468H10.3544L10.5115 34.6226H9.43417ZM30.7333 35.2398C30.2521 35.2407 29.9527 35.3875 29.8917 35.8795L29.7121 37.3159C29.6452 37.8545 29.9532 37.9447 30.3405 37.9443H31.732C32.1661 37.9434 32.457 37.8033 32.5176 37.3159L32.54 37.1139H31.4515C31.4097 37.3379 31.2203 37.4052 31.1036 37.4056C30.819 37.4056 30.8172 37.1843 30.8343 37.0465L30.8567 36.8558H32.5737L32.6971 35.8682C32.76 35.3637 32.4803 35.2394 32.0463 35.2398H30.7333ZM33.8081 35.2398C33.4019 35.2403 33.1159 35.3853 33.0562 35.8682L32.8879 37.2822C32.8269 37.7737 33.0742 37.9111 33.4714 37.9106H33.8305C34.0123 37.9102 34.2175 37.8873 34.3692 37.7535C34.4482 37.6844 34.4549 37.6575 34.56 37.4505H34.5712L34.4814 38.1687H32.843L32.7757 38.8308H34.7058C35.0281 38.8308 35.4995 38.7783 35.5699 38.2136L35.929 35.2623H34.8405L34.7956 35.6438H34.7844C34.7153 35.4108 34.5698 35.2394 34.2009 35.2398H33.8081ZM36.8156 35.2398C36.4882 35.2748 36.273 35.4456 36.2208 35.8682L36.0412 37.2822C35.9802 37.7737 36.2388 37.9111 36.636 37.9106H36.9839C37.1657 37.9106 37.3704 37.8761 37.5225 37.7423C37.6011 37.6732 37.6195 37.6575 37.7245 37.4505L37.646 38.1575L36.0076 38.1687L35.929 38.8308L37.8704 38.8196C38.1927 38.8191 38.664 38.7783 38.7345 38.2136L39.0936 35.2623H38.0051L37.949 35.6326C37.8798 35.3996 37.7232 35.2394 37.3542 35.2398H36.9727C36.9219 35.2399 36.8623 35.2348 36.8156 35.2398ZM20.858 35.251C20.5407 35.251 20.4276 35.3247 20.3082 35.4194C20.2085 35.51 20.1906 35.5406 20.1286 35.6999H20.1174L20.1623 35.2847H19.0738L18.7483 37.9331H19.8369L20.0501 36.1937C20.0626 36.09 20.1008 35.7901 20.4092 35.7897C20.7265 35.7892 20.6924 36.0478 20.6785 36.16L20.4653 37.9331L21.5538 37.9218L21.8007 35.8907C21.8658 35.3691 21.5888 35.2506 21.2059 35.251H20.858ZM24.3256 35.251C23.9194 35.2515 23.6334 35.3965 23.5737 35.8795L23.4054 37.2934C23.3444 37.7849 23.6029 37.9223 24.0002 37.9218H24.348C24.5298 37.9218 24.735 37.8985 24.8867 37.7647C24.9657 37.6956 24.9724 37.6687 25.0775 37.4617H25.0887L24.9989 38.1799H23.3717L23.2932 38.842H25.2346C25.5569 38.842 26.0174 38.7895 26.0874 38.2248L26.4465 35.2735H25.358L25.3131 35.655H25.3019C25.2328 35.4221 25.0873 35.2506 24.7184 35.251H24.3256ZM27.3443 35.251C27.0168 35.2869 26.7905 35.4572 26.7383 35.8795L26.6934 36.2386C26.6126 36.8899 27.0054 36.9033 27.4341 36.9119L28.343 36.9343L28.3318 37.0129C28.3219 37.0905 28.2779 37.394 27.9278 37.3944C27.8529 37.3944 27.781 37.3814 27.7258 37.3383C27.6702 37.2993 27.6343 37.2382 27.6361 37.1475H26.5588L26.5363 37.3046C26.4622 37.9039 26.8676 37.9447 27.2321 37.9443H28.5675C29.0249 37.9438 29.3175 37.7701 29.3755 37.3046L29.4203 36.9568C29.4953 36.353 29.059 36.3364 28.6909 36.3283L27.7707 36.3171L27.7932 36.1151C27.834 35.7874 28.1244 35.7897 28.1523 35.7897C28.1944 35.7897 28.2604 35.8027 28.3206 35.8458C28.3807 35.8889 28.4324 35.9567 28.4216 36.0815H29.5101L29.5326 35.8795C29.5914 35.405 29.3535 35.2506 28.9378 35.251H27.4902C27.4394 35.2511 27.3911 35.2459 27.3443 35.251ZM13.5077 35.2623C13.1993 35.2627 12.7621 35.2959 12.6885 35.8907L12.509 37.3271C12.4403 37.8787 12.7675 37.9672 13.1598 37.9667L14.5065 37.9555C14.9549 37.9551 15.2561 37.7966 15.3144 37.3271L15.494 35.8907C15.5555 35.3951 15.314 35.2618 14.8656 35.2623H13.5077ZM16.6835 35.2623C16.2027 35.2632 15.9029 35.3996 15.8419 35.8907L15.6623 37.3271C15.5954 37.8657 15.9034 37.956 16.2907 37.9555H17.6822C18.1163 37.9546 18.4072 37.8141 18.4678 37.3271L18.4902 37.1363H17.4017C17.36 37.3607 17.1705 37.4164 17.0538 37.4169C16.7692 37.4169 16.7674 37.196 16.7845 37.0578L16.8069 36.8782H18.5239L18.6473 35.8907C18.7102 35.3861 18.4305 35.2618 17.9965 35.2623H16.6835ZM23.3156 35.2735L22.2271 35.2847L21.9017 37.9218H22.9902L23.3156 35.2735ZM34.4702 35.7336C34.7831 35.7331 34.7521 36.0159 34.7395 36.1151L34.6273 37.0017C34.6188 37.0708 34.5811 37.3715 34.2682 37.372C34.0114 37.372 33.9809 37.1664 33.9989 37.0241L34.1223 36.0815C34.1421 35.9221 34.2273 35.734 34.4702 35.7336ZM37.545 35.7336C37.5707 35.728 37.6044 35.7336 37.6348 35.7336C37.9476 35.7336 37.9054 36.0159 37.8929 36.1151L37.7806 36.9904C37.7721 37.0596 37.7344 37.3715 37.4215 37.372C37.1648 37.3724 37.1455 37.1664 37.1634 37.0241L37.2757 36.0815C37.2929 35.942 37.365 35.7724 37.545 35.7336ZM24.9877 35.7448C25.3006 35.7448 25.2696 36.0271 25.257 36.1263L25.1448 37.0129C25.1363 37.082 25.0986 37.3827 24.7857 37.3832C24.529 37.3836 24.4989 37.1776 24.5164 37.0353L24.6398 36.0927C24.6596 35.9329 24.7449 35.7452 24.9877 35.7448ZM31.2944 35.7785C31.4762 35.7785 31.6077 35.8857 31.5749 36.1488L31.5525 36.3283H30.9241L30.9465 36.1039C30.9712 35.9055 31.1166 35.7789 31.2944 35.7785ZM14.1025 35.7897C14.4153 35.7892 14.3808 36.0644 14.3718 36.1376L14.2596 37.069C14.2434 37.2027 14.2133 37.4169 13.9005 37.4169C13.5876 37.4173 13.6145 37.2027 13.6312 37.069L13.7434 36.1376C13.7523 36.0644 13.7901 35.7897 14.1025 35.7897ZM17.2446 35.8009C17.4264 35.8009 17.5579 35.897 17.5251 36.16L17.5027 36.3396H16.8743L16.8967 36.1263C16.9214 35.9284 17.0668 35.8014 17.2446 35.8009ZM32.4502 38.1575L26.4914 38.1687C26.4914 38.1687 26.4582 38.6194 26.2445 38.8308L32.3717 38.8196L32.4502 38.1575ZM22.9565 38.1687L8.99651 38.1912L8.90674 38.8533L22.878 38.8308L22.9565 38.1687Z" fill="#181A21" fill-opacity="0.941176"/>
<path d="M24.0225 9.50806V11.8085H24.202V11.4382C24.3587 11.5302 24.5598 11.5841 24.7855 11.5841C24.9184 11.5841 25.0504 11.5581 25.1783 11.528L25.1671 11.2362C25.0845 11.2789 24.9234 11.3036 24.7855 11.3036C24.4125 11.3036 24.1908 11.0306 24.1908 10.6751C24.1908 10.3165 24.4139 10.0467 24.7743 10.0467C24.9 10.0467 25.023 10.0611 25.1559 10.1365L25.1783 9.84471C25.0508 9.79444 24.9009 9.76616 24.7855 9.76616C24.5544 9.76616 24.356 9.82586 24.202 9.92327V9.50806H24.0225Z" fill="#CB9F18"/>
<path d="M23.8542 9.50806L23.8654 9.93449C23.7079 9.82451 23.4942 9.76616 23.2482 9.76616C23.1329 9.76616 22.9829 9.79489 22.8555 9.84471L22.8779 10.1365C23.0103 10.0615 23.1338 10.0467 23.2595 10.0467C23.6203 10.0467 23.8767 10.3169 23.8767 10.6751C23.8767 11.0311 23.6217 11.3036 23.2482 11.3036C23.1104 11.3036 22.9493 11.2789 22.8667 11.2362L22.8555 11.528C22.9834 11.5581 23.1154 11.5841 23.2482 11.5841C23.4879 11.5841 23.7043 11.5307 23.8654 11.427L23.8542 11.8085H24.0225V9.50806H23.8542Z" fill="#E3B80F"/>
</svg>
