<svg width="48" height="48" viewBox="0 0 48 48" fill="none" xmlns="http://www.w3.org/2000/svg">
<g clip-path="url(#clip0_1_75881)">
<path d="M23.9416 39.9424C23.6235 39.8225 21.3053 38.6935 20.6799 38.3535C16.354 36.0027 13.4756 33.1778 11.1294 28.9807C9.54429 26.1445 8.69945 23.1208 8.42221 19.2889C8.35962 18.4263 8.391 15.5788 8.47384 14.5744L8.51003 14.136L9.14038 13.6541C11.435 11.8998 14.1624 10.4029 16.5622 9.58059C17.9346 9.11028 19.5794 8.73359 21.2557 8.50566C22.4877 8.33815 25.4565 8.32404 26.6554 8.47976C29.5356 8.85395 31.7357 9.50007 34.1655 10.6852C36.0039 11.582 37.9476 12.8183 39.4178 14.0261L39.618 14.1906L39.6806 15.3145C39.7583 16.7037 39.7148 19.3981 39.5983 20.4314C39.4064 22.1343 39.172 23.2833 38.6827 24.9207C38.267 26.3124 38.0125 26.9567 37.3983 28.1696C36.1746 30.5867 34.856 32.4228 33.0459 34.2299C30.9342 36.3381 28.9074 37.7012 25.4399 39.3454C24.1533 39.9553 24.0671 39.9897 23.9416 39.9424ZM12.8249 28.8441C12.7639 28.7443 12.5403 28.3148 12.3277 27.8895C11.1553 25.5436 10.4534 23.1317 10.1522 20.4124C10.0471 19.4632 9.98953 16.5477 10.0579 15.6432L10.1057 15.0127L9.95218 14.7989C9.76143 14.5334 9.76143 14.513 9.95401 14.4745C10.0397 14.4574 10.2308 14.3488 10.3788 14.2333C11.0945 13.6748 12.5343 12.7295 13.302 12.3143C14.6465 11.587 14.7496 11.55 17.6925 10.7345C18.8676 10.409 19.8675 10.1661 20.6253 10.0222C21.123 9.92772 21.3508 9.8321 21.0782 9.8321C20.9985 9.8321 20.917 9.8057 20.8971 9.7735C20.8398 9.6807 21.0282 9.57511 21.5298 9.41906C21.7861 9.33921 22.0178 9.25288 22.0449 9.22715C22.1447 9.13186 21.7809 9.10712 21.1522 9.16689C17.9284 9.47285 14.4023 10.7981 11.3062 12.8673C10.8538 13.1695 10.1926 13.6117 9.8363 13.8499L9.18885 14.2831L9.41181 14.4888C9.61551 14.6769 9.63095 14.7102 9.59326 14.8807C9.52885 15.1704 9.55392 18.4279 9.62713 19.3158C9.7855 21.2329 10.0691 22.6822 10.6561 24.5784C11.1784 26.2641 12.0222 28.0097 12.7283 28.864C12.9276 29.106 12.9784 29.0952 12.8249 28.8441ZM36.5928 27.594C37.3305 26.1304 37.6785 25.2298 37.9803 24.0033C38.1341 23.3779 38.2531 22.4838 38.1724 22.5577C38.1516 22.5768 38.0266 23.0084 37.8945 23.517C37.3691 25.5384 36.9778 26.6266 36.24 28.1146C36.0157 28.567 35.8824 28.8753 35.9433 28.7999C36.0044 28.7245 36.2966 28.1818 36.5928 27.594ZM15.0063 17.0161C15.0063 16.9868 15.0533 16.9376 15.1109 16.9067C15.1685 16.8759 15.2729 16.758 15.3426 16.6443C15.4125 16.5309 15.6574 16.2284 15.8868 15.9721C17.0575 14.6644 18.1577 13.8322 19.5921 13.1691C20.239 12.87 20.6464 12.7272 21.5296 12.4895C21.9367 12.3799 22.2931 12.2677 22.3218 12.24C22.3504 12.2122 22.4367 12.188 22.5137 12.186C22.6474 12.1825 22.6457 12.1787 22.4709 12.0917C22.2982 12.0059 22.2564 12.0075 21.7034 12.1216C19.6387 12.5479 17.6124 13.665 16.1735 15.1701C15.6335 15.7352 15.0159 16.5314 14.8286 16.9041C14.7604 17.0397 14.6699 17.1939 14.6278 17.2467C14.5758 17.3113 14.5713 17.3427 14.614 17.3427C14.6487 17.3427 14.6772 17.3834 14.6772 17.4332C14.6772 17.4868 14.7441 17.4313 14.8418 17.2965C14.9321 17.1719 15.0063 17.0455 15.0063 17.0161Z" fill="#E6E7E8"/>
<path d="M23.1195 39.4696C21.0393 38.4886 19.7501 37.7842 18.487 36.9389C15.2734 34.7879 12.8356 32.038 10.93 28.4141C9.91296 26.4794 9.15827 24.1363 8.78407 21.7519C8.52194 20.0814 8.46533 19.0684 8.50517 16.7671C8.52476 15.6213 8.55531 14.5774 8.57274 14.4471C8.60246 14.2257 8.63881 14.183 9.13303 13.7895C11.6511 11.7841 14.9282 10.0981 17.8796 9.28926C19.9853 8.71236 21.8825 8.45604 24.0515 8.45587C26.0776 8.45571 27.7789 8.6697 29.8349 9.18334C33.0348 9.98269 36.5195 11.7985 39.4908 14.2152C39.6615 14.354 39.6988 18.5549 39.5435 20.1387C39.3663 21.9469 39.1198 23.1834 38.5778 24.9886C37.9534 27.0678 37.197 28.6356 35.8135 30.719C34.8707 32.1385 34.1666 33.0024 33.0191 34.148C31.1298 36.0344 29.2233 37.3697 26.4153 38.7737C25.1994 39.3814 24.1343 39.8742 24.0408 39.8722C24.0013 39.8712 23.5868 39.6901 23.1195 39.4696ZM25.4347 38.653C26.9144 37.9046 27.4962 37.5641 27.8286 37.2522L29.6419 36.2616L32.6733 34.0466L36.7299 28.5595L38.8656 22.5922L39.2534 17.7322L39.03 14.5079L35.8387 12.1022L31.9145 10.2443C30.8135 9.74048 28.4384 9.13586 26.5182 8.87041C25.5306 8.73411 23.0285 8.70207 21.9305 8.81197C19.6503 9.04024 17.5265 9.54957 15.8177 10.2779C13.7426 11.1622 12.6102 11.7831 10.5385 13.1716C9.11627 14.1249 9.05683 14.1715 9.02048 14.3688C8.99989 14.4816 8.96619 15.2153 8.9456 15.9993C8.82408 20.6261 9.60219 24.5756 11.3048 27.9753C13.9901 33.1136 18.4889 37.3249 24.0093 39.2677C24.1643 39.27 24.5102 39.1206 25.4347 38.653Z" fill="#ACAFB2"/>
<path d="M23.0643 37.291C20.1462 35.776 18.4132 34.5689 16.7017 32.8593C15.119 31.2783 14.0806 29.8903 12.9827 27.8888C11.1102 24.4753 10.3897 20.6794 10.712 15.9268L10.7467 15.4153L11.2728 15.0184C13.7115 13.1779 16.2874 11.8747 18.7608 11.2298C20.6472 10.7379 21.9564 10.5739 23.9962 10.5739C25.8768 10.5739 26.8938 10.6851 28.6832 11.0868C30.9247 11.5899 33.3558 12.6684 35.5357 14.1269C36.4337 14.7277 37.2892 15.3778 37.3398 15.4978C37.3672 15.5629 37.3918 16.6275 37.3944 17.8635C37.3991 19.9146 37.3888 20.1903 37.2752 21.0157C36.8122 24.381 35.8772 26.875 34.0488 29.6224C32.2146 32.3782 29.8458 34.578 26.874 36.2841C26.291 36.6188 24.2439 37.71 24.1056 37.7596C24.0606 37.7759 23.5918 37.5649 23.0643 37.291Z" fill="#01336B"/>
<path d="M25.2455 33.9498C27.2393 33.7327 29.1569 32.9848 30.7539 31.801C31.3024 31.3946 32.2759 30.4554 32.7285 29.8965C33.8728 28.4825 34.6657 26.8076 35.0517 24.9899C35.1938 24.3199 35.2031 24.1939 35.2044 22.8794C35.2057 21.6614 35.1906 21.4006 35.0851 20.8511C34.4504 17.5409 32.4642 14.7664 29.5248 13.0838C28.4943 12.4936 27.1664 12.0255 25.8876 11.8009C25.0341 11.6511 23.3581 11.6216 22.5434 11.7419C19.7709 12.152 17.3247 13.4721 15.5684 15.5063C13.0603 18.4112 12.2183 22.2532 13.2799 25.9495C14.1423 28.9525 16.355 31.5574 19.1994 32.9186C20.2307 33.4123 21.6531 33.8197 22.7901 33.9473C23.3929 34.0152 24.6347 34.0164 25.2455 33.9498ZM22.4065 32.5567C19.0107 31.9839 16.0613 29.6274 14.8384 26.51C14.3673 25.3089 14.1862 24.4355 14.1438 23.1613C14.1093 22.1154 14.1812 21.3729 14.4022 20.4946C15.3627 16.6788 18.3101 13.8563 22.097 13.1255C22.9382 12.9631 22.997 12.9683 23.0992 13.213C23.329 13.7628 23.539 14.9017 23.7495 16.7388C23.838 16.9063 23.7263 18.1754 24.094 18.0209C24.1634 17.9772 24.1994 17.8467 24.2303 17.5287C24.4521 15.2373 24.8095 13.3372 25.0692 13.0692C25.1364 12.9998 25.2174 13.0012 25.709 13.0805C27.7289 13.4064 29.5711 14.3628 31.0682 15.8626C31.8533 16.6488 32.3487 17.3172 32.8193 18.2244C33.6715 19.8673 34.0247 21.4006 33.9578 23.1665C33.9236 24.0643 33.8411 24.6124 33.6147 25.4435C32.6656 28.9274 29.7829 31.6603 26.2399 32.4356C25.8954 32.511 25.4961 32.5889 25.3519 32.6084L25.0902 32.6443L25.0026 32.4353C24.7408 31.8114 24.4079 29.9722 24.2705 28.3886C24.2366 27.9969 24.1963 27.6329 24.1812 27.5802C24.1531 27.4823 23.9711 27.4473 23.92 27.5298C23.9047 27.5548 23.8287 28.1351 23.7513 28.8192C23.5198 30.8701 23.2038 32.4607 23.0023 32.5882C22.9136 32.6443 22.9301 32.6453 22.4065 32.5567Z" fill="#E6E7E8"/>
<path d="M23.1191 33.2632C23.0738 33.2527 22.7407 33.2199 22.379 33.1903C21.7347 33.1379 21.0152 32.9662 20.3374 32.7044C20.0253 32.5839 19.5344 32.3116 19.5681 32.2779C19.5795 32.2666 19.785 32.3337 20.0246 32.4273C21.0826 32.8409 21.477 32.9239 22.5709 32.964C23.3628 32.9933 23.6324 33.0226 23.8001 33.098C23.9641 33.1719 23.9965 33.2064 23.9369 33.2441C23.8631 33.2909 23.295 33.3042 23.1191 33.2632ZM24.1068 33.2421C24.0375 33.1981 24.028 32.9259 24.0411 31.3379C24.0496 30.3188 24.1153 29.2648 24.1115 28.9917C24.1035 28.4113 24.1274 27.5939 24.0458 27.5939C24.0977 27.5784 24.1608 27.6388 24.1691 27.7665C24.2086 28.3886 24.2418 31.1349 24.4276 32.2435C24.5423 32.9308 24.7065 32.9743 25.4814 33.013C26.433 32.9732 26.954 32.8615 27.9665 32.4795C28.2957 32.3556 28.5753 32.264 28.5875 32.2763C28.635 32.3239 28.0872 32.5995 27.6019 32.7723C26.9123 33.0178 26.1913 33.1658 25.3395 33.2363C24.4754 33.3082 24.2131 33.3097 24.1068 33.2421Z" fill="#8D9093"/>
<path d="M24.0464 17.9457C24.1282 17.9457 24.1716 17.0102 24.1121 16.5204C24.0237 15.7896 24.0077 12.4304 24.0922 12.3459C24.2103 12.2278 25.5364 12.3701 26.4357 12.5972C27.3682 12.8328 27.8846 13.0279 28.7107 13.4563C29.3155 13.7701 29.8969 14.1466 29.8491 14.1941C29.8368 14.2065 29.483 14.0445 29.063 13.8342C28.0726 13.338 27.578 13.1625 26.5884 12.9568C26.1423 12.864 25.5887 12.7398 25.3576 12.6809C24.8167 12.5428 24.6792 12.5458 24.5139 12.699C24.3944 12.8097 24.3726 12.8937 24.325 13.4253C24.2851 13.8719 24.2891 14.1376 24.3409 14.4599C24.3278 15.2911 24.5154 15.7674 24.0464 17.9457Z" fill="#8D9093"/>
<path d="M23.0645 39.3605C21.0484 38.4025 19.8782 37.7678 18.6789 36.9821C15.7614 35.0704 13.5021 32.6559 11.6121 29.4306C9.86328 26.446 8.91817 23.2885 8.64209 19.5082C8.57519 18.591 8.60905 14.9684 8.68907 14.4921C8.76992 14.0118 8.80428 14.3727 8.75481 15.1807C8.45383 20.1004 9.32922 24.8352 11.1823 28.3066C12.9209 31.5641 15.0215 34.0174 17.8131 36.0516C18.9351 36.869 20.889 38.0143 22.9549 39.0649C23.8416 39.5161 24.0542 39.6037 24.2027 39.58C24.3008 39.5644 24.6955 39.4088 25.0797 39.2344C26.5688 38.5585 27.852 37.8417 28.3609 37.4014C28.4979 37.2827 29.117 36.8255 29.736 36.3856C30.3551 35.9455 31.1506 35.3433 31.5039 35.0473C34.5863 32.4645 37.0969 28.7103 38.2472 24.9635C38.9692 22.6126 39.3482 19.8563 39.3444 16.9863C39.3427 15.7907 39.2756 14.4939 39.2059 14.3123C39.1777 14.2384 39.1996 14.2179 39.3073 14.2179C39.4305 14.2179 39.4488 14.2456 39.4785 14.4783C39.5617 15.1293 39.6113 17.5517 39.5638 18.635C39.4559 21.0863 39.1915 22.6998 38.5447 24.8483C38.1044 26.3116 37.863 26.9258 37.2604 28.1148C35.9466 30.7086 34.1802 33.0859 32.335 34.7447C30.5392 36.359 29.0333 37.3572 26.4325 38.6583C25.439 39.1552 24.0551 39.8229 24.0297 39.8176C24.0267 39.8169 23.5919 39.6114 23.0645 39.3605ZM23.0243 38.3953C21.5702 37.638 19.6507 36.4093 19.0299 35.8381C18.787 35.6146 18.7886 35.6156 19.6395 36.1463C20.4606 36.6588 21.5461 37.2538 22.8035 37.8802L23.9955 38.474L24.7497 38.0997C27.2568 36.8556 28.8362 35.8792 30.3377 34.6464C32.6618 32.7379 34.4176 30.6023 35.8576 27.9319C37.4339 25.0089 38.1922 21.7505 38.1946 17.8907C38.1952 16.842 38.0951 15.0267 38.0264 14.8416C37.9515 14.64 35.7601 13.1122 34.581 12.4394C33.3266 11.7237 31.7622 11.0248 30.1378 10.4538C29.6715 10.29 29.2767 10.1426 29.2606 10.1263C29.1704 10.0352 30.5947 10.3707 31.4015 10.6307C32.7621 11.0693 34.262 11.767 35.5081 12.5413C36.0766 12.8944 37.7043 14.0794 38.1844 14.4895C38.2998 14.5881 38.3169 14.6683 38.3684 15.3539C38.4429 16.3407 38.3915 19.2907 38.283 20.2533C38.0701 22.1461 37.5557 24.3417 36.9234 26.0591C36.5975 26.9439 35.718 28.7569 35.208 29.595C34.7978 30.269 33.732 31.8036 33.2665 32.391C32.4356 33.4387 30.3563 35.3819 29.4659 35.9428C28.8079 36.3572 26.0197 37.7932 24.8612 38.3138C24.508 38.4729 24.1465 38.6545 24.0579 38.7176C23.9692 38.7808 23.8882 38.8318 23.8778 38.8313C23.8678 38.8304 23.4835 38.6346 23.0243 38.3953ZM24.1607 33.1867C24.0908 33.1418 24.0813 32.94 24.0966 31.8039C24.1167 30.3356 24.2091 29.7993 24.2176 31.1024C24.2242 32.1496 24.288 32.803 24.3907 32.8794C24.5028 32.9626 24.5546 33.1855 24.4618 33.1855C24.422 33.1855 24.3564 33.1975 24.316 33.2124C24.2759 33.2272 24.206 33.2156 24.1607 33.1867ZM23.1466 33.1307C23.1023 33.0592 23.5569 33.0592 23.6674 33.1307C23.7265 33.1687 23.6691 33.184 23.4651 33.1847C23.3085 33.1853 23.1652 33.1609 23.1466 33.1307ZM16.2669 15.9298C16.2674 15.8456 16.8828 15.2055 17.3183 14.8366C18.2557 14.0419 19.5588 13.3066 20.6355 12.9645C21.695 12.6278 23.6674 12.2637 23.6674 12.4047C23.6674 12.4372 23.6585 12.4638 23.6472 12.4638C23.4589 12.4638 22.4965 12.6857 21.7488 12.9017C20.3468 13.3066 18.9366 14.0155 17.6923 14.9407C16.8714 15.5511 16.2667 15.9708 16.2669 15.9298ZM24.1465 15.0951C24.0845 14.679 24.0444 12.7206 24.0946 12.5459L24.1417 12.3814L24.7407 12.4003C25.4023 12.4211 26.1779 12.5521 26.9271 12.7692C27.3936 12.9044 28.1076 13.1952 28.1076 13.2498C28.1076 13.2638 27.9904 13.2395 27.8475 13.196C27.2578 13.0166 25.1393 12.5161 24.8343 12.4842C24.5455 12.454 24.5018 12.4621 24.4693 12.5527C24.449 12.6094 24.3941 12.7246 24.3474 12.8087C24.2818 12.9264 24.2535 13.2362 24.2229 14.1518C24.1977 14.9111 24.1699 15.2526 24.1465 15.0951ZM10.3522 20.6751C10.2421 19.7869 10.1898 19.0983 10.1533 18.0552C10.1148 16.9567 10.1938 15.116 10.2833 15.0263C10.321 14.9888 10.3766 15.031 10.4553 15.1563C10.5504 15.3082 10.566 15.3966 10.5411 15.6434C10.3529 17.5137 10.312 18.9147 10.4058 20.2714C10.4383 20.6605 10.4915 21.7246 10.3522 20.6751ZM38.3551 13.6833C37.7946 13.3076 37.323 12.9455 37.3198 12.8886C37.315 12.8008 37.4458 12.8574 37.8255 13.1076C38.169 13.3338 38.9288 13.9917 38.8526 13.9966C38.8374 13.9976 38.6134 13.8566 38.3551 13.6833Z" fill="#5F6269"/>
<path d="M22.7852 39.2795C19.7239 37.8194 17.9455 36.6973 16.072 35.0442C13.3227 32.6177 10.9661 29.0946 9.78093 25.6394C8.78137 22.7245 8.38045 19.6086 8.53434 15.9447C8.57701 14.9255 8.62399 14.3221 8.66516 14.2633C8.76543 14.1196 9.59799 13.4595 10.307 12.9616C12.0264 11.754 14.0961 10.6598 15.9963 9.95362C20.7371 8.1914 25.9157 8.03485 30.794 9.50638C33.3827 10.2871 36.6765 12.028 38.8251 13.7507C39.0963 13.9683 39.3591 14.1607 39.4091 14.1783C39.5499 14.228 39.5927 15.0017 39.5916 17.4523C39.5901 19.767 39.5477 20.354 39.26 22.0571C39.0882 23.0736 38.9313 23.7203 38.5477 24.9942C37.9299 27.0457 37.1279 28.7051 35.7671 30.7459C33.5135 34.1263 30.8822 36.4292 26.9294 38.4806C25.7331 39.1014 24.1806 39.8189 24.0343 39.8182C23.9681 39.8179 23.406 39.5753 22.7852 39.2795ZM25.1438 39.0786C26.0261 38.6664 26.5466 38.3807 26.7373 38.2034C26.8129 38.1337 27.2321 37.8601 27.6693 37.5958C30.0631 36.149 31.6314 34.9479 33.0415 33.4813C34.4978 31.9668 35.6018 30.4531 36.6745 28.4986C38.4197 25.3201 39.2459 21.6217 39.259 16.9316C39.2615 16.0573 39.2434 15.1316 39.2185 14.8742C39.1747 14.4175 39.1692 14.4041 38.9859 14.2987C34.9339 11.287 31.4983 9.48497 26.5456 8.75435C25.4632 8.6134 22.5445 8.61207 21.4746 8.75186C19.1676 9.05317 17.181 9.56017 15.8017 10.1997C13.2458 11.3843 12.5241 11.7768 10.7848 12.9286C10.1367 13.3577 9.45521 13.8003 9.27077 13.912L8.93526 14.1152L8.90173 14.482C8.82121 15.359 8.79797 17.9007 8.86155 18.8778C9.16486 23.5459 10.2707 26.9643 12.6211 30.4996C13.4316 31.7189 14.2321 32.6913 15.3321 33.7938C17.3466 35.8121 19.1366 37.03 22.748 38.8387C23.9153 39.4234 24.0886 39.4941 24.2624 39.4576C24.333 39.4423 24.7297 39.2718 25.1438 39.0786ZM22.9823 38.4547C21.3808 37.6167 19.8929 36.6595 18.657 35.6719C17.9514 35.1081 16.7055 33.9707 16.7055 33.8905C16.7055 33.8597 16.8103 33.9239 16.9384 34.0336C18.0012 34.9421 19.5566 36.0296 20.8168 36.7456C21.743 37.2716 23.8557 38.3387 23.9712 38.3387C24.0874 38.3387 26.2715 37.245 27.121 36.7616C30.9722 34.5695 33.7152 31.7661 35.8496 27.8409C36.7655 26.1565 37.4654 24.1066 37.8061 22.1122C38.0465 20.7036 38.1944 18.1508 38.1145 16.7811C38.0438 15.4895 38.3704 15.1448 37.3037 14.3387C34.2099 12.0773 31.595 10.8494 28.0605 9.99878C27.5372 9.87278 27.0561 9.74843 26.9917 9.72237C26.7929 9.64218 27.3239 9.65862 28.01 9.75408C31.0157 10.1721 33.4707 11.0971 35.9745 12.7558C36.6896 13.2294 38.0842 14.2852 38.3043 14.5196L38.4412 14.6656L38.4406 17.0595C38.4398 19.69 38.4041 20.1762 38.0823 21.926C37.5674 24.7281 36.6802 27.1889 35.3937 29.3823C35.0518 29.9655 34.1282 31.3286 33.4873 32.1965C32.7201 33.235 30.7182 35.2083 29.6811 35.9484C29.2851 36.2308 26.304 37.7508 24.9925 38.3389C24.5602 38.5326 24.1834 38.7351 24.1547 38.7889C24.0614 38.9627 23.8235 38.895 22.9823 38.4547ZM10.5124 19.6725L10.5391 20.315C10.6291 22.4771 11.2721 25.0276 12.2525 27.1104C12.7741 28.2187 13.5368 29.4895 14.4175 30.7187C14.6443 31.0353 14.962 31.4785 15.1234 31.7038C15.2849 31.9289 15.8831 32.5827 16.4525 33.1566C17.0223 33.7303 17.4169 34.1369 17.3297 34.0599C15.2023 32.1824 13.627 30.1466 12.4332 27.7311C11.1939 25.2235 10.5909 23.191 10.2542 20.385C10.1287 19.3402 10.1055 15.2074 10.224 15.0001C10.4697 14.5701 13.1208 12.8026 14.4575 12.1774C14.9927 11.927 16.0162 11.5304 16.1165 11.5344C16.154 11.5359 15.8874 11.6797 15.5243 11.854C14.295 12.444 13.2772 13.0561 11.9082 14.0282C11.637 14.221 11.1992 14.5082 10.9352 14.6666C10.6714 14.8249 10.4554 14.9807 10.4554 15.0125L10.5124 19.6725ZM17.5754 34.2408C17.5073 34.154 17.5092 34.152 17.5962 34.2202C17.6875 34.2918 17.7167 34.3366 17.6714 34.3366C17.6599 34.3366 17.6169 34.2936 17.5754 34.2408Z" fill="#8D9093"/>
<path d="M22.955 37.1808C19.1338 35.2039 16.7192 33.2508 14.6611 30.472C12.7804 27.9325 11.6081 25.2904 11.038 22.304C10.75 20.7951 10.7024 20.1658 10.7052 17.8909C10.7065 16.7301 10.7258 15.6941 10.7475 15.5885C10.7819 15.423 10.8724 15.335 11.4028 14.9495C13.2219 13.6284 14.5922 12.8337 16.3536 12.0785C18.841 11.0122 22.153 10.4414 24.9333 10.6001C29.3523 10.8525 32.7831 12.1283 36.6326 14.9508C37.2933 15.4352 37.3211 15.4618 37.2791 15.5715C37.255 15.6341 37.2399 15.6343 37.1881 15.5732C37.1541 15.533 37.0151 15.4206 36.8795 15.3235C36.7438 15.2264 36.4198 14.9912 36.1591 14.8004C35.8988 14.6098 35.5902 14.397 35.4738 14.3274C35.3575 14.2581 35.1275 14.1125 34.9628 14.0041C34.5709 13.7461 34.2075 13.5522 33.0147 12.964C31.5011 12.2178 31.1646 12.061 30.9863 12.019C30.8959 11.9978 30.5999 11.9018 30.3286 11.806C28.492 11.1578 26.2528 10.799 24.0516 10.8003C21.3934 10.802 18.8973 11.2799 16.6018 12.2269C15.9673 12.4885 14.5424 13.1992 13.9493 13.5497C12.8667 14.1895 11.2799 15.3001 11.0955 15.5475C10.9555 15.7349 10.9032 16.3945 10.8983 18.0337C10.8891 21.0989 11.3729 23.667 12.4321 26.1761C13.5968 28.9354 15.9925 32.08 18.505 34.1471C19.3905 34.876 19.4737 34.9401 19.7768 35.1317C19.9199 35.2222 20.228 35.4257 20.4621 35.5839C20.6959 35.7423 20.9208 35.8718 20.9618 35.8718C21.0028 35.8718 21.0363 35.8965 21.0363 35.9271C21.0363 35.9576 21.1439 36.0376 21.2754 36.1052C21.8561 36.4037 22.1807 36.5858 22.4604 36.7702C22.6258 36.8791 22.8029 36.9681 22.8547 36.9681C22.9063 36.9681 22.9634 36.9922 22.9815 37.0213C22.9996 37.0506 23.1183 37.124 23.2451 37.1841C23.3721 37.2445 23.5129 37.3166 23.5583 37.3438C23.6034 37.3712 23.7578 37.4476 23.9014 37.5136C24.045 37.5799 24.1483 37.6568 24.131 37.6846C24.1139 37.7125 24.0827 37.7349 24.0618 37.7344C24.0412 37.7343 23.543 37.4849 22.955 37.1808ZM23.1195 34.3054C23.0441 34.2927 22.7109 34.2409 22.3794 34.1904C22.0479 34.1399 21.7097 34.0657 21.6282 34.0259C21.5468 33.9859 21.4112 33.953 21.3269 33.9527C21.1162 33.9517 19.9807 33.5564 19.4561 33.3016C19.4056 33.2768 19.2657 33.2108 19.145 33.1545C19.0244 33.0982 18.7691 32.9589 18.5775 32.845C18.3859 32.7308 18.2166 32.6375 18.2012 32.6375C18.15 32.6375 17.5257 32.1753 17.2941 31.966C17.1691 31.8529 17.0479 31.7605 17.0251 31.7605C17.0021 31.7605 16.9119 31.6927 16.8246 31.6099C16.0704 30.894 15.7186 30.5363 15.7442 30.5109C15.7608 30.4943 15.953 30.6563 16.1713 30.871C19.1289 33.7785 23.6212 34.795 27.6136 33.4604C30.0143 32.6578 31.9509 31.1671 33.3819 29.0196C35.3251 26.1037 35.7992 22.6344 34.7075 19.3166C33.7793 16.4947 31.6542 14.0607 28.9303 12.6989C28.734 12.6009 28.6042 12.5204 28.6416 12.5197C28.7387 12.5184 30.0646 13.1599 30.1071 13.2288C30.1267 13.2605 30.1807 13.2864 30.2275 13.2864C30.2743 13.2864 30.4021 13.3549 30.5122 13.4388C30.6218 13.5226 30.7833 13.6274 30.8705 13.6715C31.3154 13.8968 32.8453 15.3705 33.4018 16.1098C35.1159 18.3873 35.8738 21.0271 35.6435 23.9215C35.6017 24.4491 35.5411 24.9918 35.5089 25.1274C35.4767 25.2632 35.4232 25.4976 35.3898 25.6484C35.2608 26.2334 34.8035 27.5062 34.5629 27.9508C33.8705 29.2308 33.4516 29.8427 32.7476 30.6034C31.5151 31.9349 30.0266 32.9597 28.4641 33.5532C26.9044 34.1456 26.1668 34.2852 24.4622 34.3109C23.7991 34.3206 23.1948 34.3184 23.1195 34.3054ZM25.0075 32.3918C24.7087 31.6766 24.2731 29.0085 24.2711 27.8817C24.2704 27.4994 24.3589 27.4272 24.5225 27.6765C24.6292 27.8394 24.7637 28.5031 24.764 28.8679C24.764 29.0105 24.7879 29.2326 24.8168 29.3612C24.846 29.4897 24.922 29.9974 24.9858 30.4893C25.104 31.403 25.3137 32.2656 25.4563 32.425C25.527 32.504 25.5217 32.5178 25.4103 32.5475C25.1621 32.6138 25.0886 32.5854 25.0075 32.3918ZM22.4951 32.483C22.48 32.4582 22.5401 32.4486 22.6291 32.4617C22.7179 32.4747 22.7906 32.4949 22.7906 32.5067C22.7906 32.5485 22.5223 32.5268 22.4951 32.483ZM22.2024 32.44C22.2205 32.4217 22.268 32.4195 22.3073 32.4355C22.3512 32.4529 22.3382 32.4662 22.2743 32.4687C22.2165 32.471 22.1842 32.4581 22.2024 32.44ZM21.5296 32.3015C20.8139 32.1101 20.314 31.9273 19.693 31.6296C14.7217 29.2474 12.7103 23.2535 15.2299 18.3294C16.598 15.6557 19.0656 13.774 21.9891 13.1751C22.699 13.0299 23.0298 13.0428 23.0544 13.2171C23.0678 13.3106 23.0509 13.3322 22.985 13.3068C22.8849 13.2684 21.9373 13.4237 21.6117 13.5319C21.4912 13.5721 21.2198 13.6592 21.0088 13.7256C20.4747 13.8937 19.2884 14.4783 18.7465 14.8403C16.6119 16.2661 15.1723 18.4212 14.6208 21.0154C14.4684 21.7325 14.4144 23.1534 14.5085 23.9645C14.6367 25.0668 14.94 26.0931 15.4253 27.0666C15.7097 27.6372 15.8966 27.9417 16.4614 28.7551C16.6895 29.0837 17.5879 30.0012 18.08 30.4078C18.4153 30.685 19.2507 31.2667 19.3135 31.2667C19.3473 31.2667 19.4194 31.3161 19.474 31.3765C19.5283 31.4366 19.6088 31.4859 19.6521 31.4859C19.6955 31.4859 19.7981 31.5337 19.8801 31.592C19.9619 31.6504 20.1012 31.7155 20.19 31.7367C20.2785 31.758 20.3768 31.7952 20.4078 31.8194C20.4777 31.8739 21.1139 32.0971 21.5571 32.2228C21.7379 32.2741 21.9353 32.3372 21.9956 32.3634C22.1896 32.4471 21.9599 32.4167 21.5296 32.3015ZM26.1577 26.0362C25.9663 25.9527 25.3786 25.4264 25.4249 25.3799C25.4417 25.3632 25.5497 25.4272 25.665 25.5222C25.9608 25.7662 26.3302 25.8537 26.6795 25.7632C27.2454 25.6163 27.5756 25.1893 27.7823 24.337C27.8487 24.0629 27.9192 23.8204 27.9392 23.7982C27.9589 23.7759 28.0316 23.7968 28.1 23.8448C28.2111 23.9227 28.2232 23.972 28.2116 24.295C28.2043 24.4947 28.1659 24.7205 28.1261 24.7966C28.0863 24.8729 28.0535 24.9898 28.0534 25.0567C28.0532 25.1233 28.0049 25.2038 27.9458 25.2352C27.8869 25.2669 27.8236 25.3726 27.805 25.4702C27.7692 25.6585 27.4733 25.917 27.1513 26.041C26.9238 26.1288 26.3637 26.1258 26.1577 26.0362ZM17.0562 26.0043C16.1564 25.9829 15.8785 25.9593 15.8039 25.8972C15.7131 25.8215 15.7133 25.8155 15.8094 25.7775C15.8649 25.7558 16.4811 25.736 17.1785 25.7339C18.1738 25.7307 18.4597 25.7141 18.508 25.6558C18.542 25.615 18.6385 25.2453 18.7225 24.8341C18.8065 24.4229 18.9016 24.0605 18.9333 24.0284C18.9665 23.9954 19.1538 23.9774 19.3697 23.9869L19.7481 24.0033L19.7644 24.1725C19.78 24.3311 19.771 24.3402 19.6199 24.3181C19.3518 24.2786 19.2502 24.376 19.1523 24.7665C19.103 24.9622 19.0626 25.1666 19.0625 25.2206C19.0621 25.3967 18.9527 25.7184 18.8511 25.8441C18.7145 26.0126 18.4409 26.037 17.0562 26.0043ZM20.0222 26.0221C19.8588 25.9786 19.7091 25.8295 19.769 25.7696C19.7969 25.7415 20.3715 25.7139 21.0456 25.7081C21.72 25.7025 22.302 25.6787 22.3394 25.656C22.3764 25.6329 22.4069 25.5275 22.4069 25.4213C22.4069 25.2318 22.4033 25.229 22.2013 25.2463L21.9956 25.2637L21.9833 23.2083C21.9751 21.8691 21.9894 21.1841 22.0238 21.2425C22.0527 21.292 22.1599 21.581 22.262 21.885C22.4302 22.3865 22.4423 22.4641 22.393 22.727C22.3618 22.8945 22.3518 23.4645 22.3701 24.0799L22.4011 25.1432L22.5686 25.316C22.7899 25.5444 22.7977 25.7968 22.5879 25.9344C22.4591 26.0189 22.2876 26.0329 21.2859 26.0415C20.651 26.0466 20.0824 26.0378 20.0222 26.0221ZM23.9829 25.9998C23.8456 25.9198 23.8645 25.8396 24.0208 25.8396C24.0945 25.8396 24.1683 25.8175 24.1848 25.7906C24.2067 25.7553 24.2748 21.3176 24.2709 20.1829C24.2708 20.1153 24.3264 20.0856 24.4761 20.0732C24.6639 20.0577 24.6832 20.0406 24.6989 19.8779C24.7164 19.696 24.7452 19.6706 24.8518 19.7418C24.9215 19.7883 25.0381 19.9965 25.0381 20.0746C25.0381 20.1039 24.9518 20.2312 24.8467 20.3572L24.6548 20.5866L24.6805 22.1576C24.7109 24.0093 24.7124 23.7221 24.6652 24.8988C24.6285 25.8092 24.6214 25.8537 24.4976 25.954C24.3564 26.0682 24.1341 26.0881 23.9829 25.9998ZM28.1764 25.95C28.0785 25.8904 27.9984 25.8164 27.9984 25.7858C27.9984 25.7498 28.4319 25.7302 29.2253 25.7302C30.5452 25.7302 30.6042 25.7178 30.5653 25.4455C30.5524 25.3539 30.5061 25.3143 30.3968 25.3019C30.2921 25.2898 30.2461 25.2531 30.2461 25.182C30.2461 25.0931 30.3518 24.5286 30.4388 24.1543C30.4654 24.039 30.4961 24.0309 30.905 24.0309H31.3424V24.2212C31.3424 24.4006 31.3335 24.4101 31.1897 24.3812C30.9533 24.334 30.8042 24.4936 30.7367 24.8656C30.6844 25.1535 30.6897 25.1935 30.8017 25.3447C30.9055 25.485 30.9159 25.5403 30.8728 25.7146C30.7933 26.0348 30.6986 26.0576 29.4512 26.0583C28.454 26.0586 28.3386 26.0488 28.1764 25.95ZM31.452 25.9397L31.2603 25.8205L31.3974 25.7808C31.4726 25.7589 31.8586 25.7385 32.2548 25.7357C33.0301 25.7297 33.0417 25.7251 33.0417 25.4242C33.0417 25.2521 33.1155 25.2561 33.2571 25.436C33.4071 25.6268 33.4003 25.7206 33.2235 25.9052C33.0769 26.0584 33.0733 26.0591 32.3601 26.0588C31.7206 26.0586 31.6233 26.046 31.452 25.9397ZM16.8404 25.223C16.8258 25.1854 16.8204 24.0321 16.8281 22.6601L16.8425 20.166L17.0507 20.1487C17.2142 20.1352 17.2702 20.102 17.311 19.9946C17.3396 19.9194 17.3875 19.8731 17.4179 19.8917C17.5212 19.9556 17.4729 20.1512 17.3075 20.3398L17.1422 20.528L17.149 22.1847C17.1525 23.0959 17.1736 24.1493 17.1955 24.5255C17.2232 24.9983 17.2171 25.2219 17.1759 25.2496C17.0806 25.3142 16.8689 25.2976 16.8404 25.223ZM20.9965 25.2207C20.9693 25.1844 20.8572 24.7351 20.747 24.2226C20.6368 23.7102 20.3995 22.6123 20.2194 21.7831C20.0394 20.9537 19.8746 20.1434 19.8532 19.9815C19.8158 19.6991 19.8186 19.6898 19.9244 19.7464C19.9848 19.7788 20.0615 19.8741 20.0946 19.9581C20.1684 20.1454 20.5172 21.5304 20.651 22.1667C20.8673 23.1954 21.2513 24.7086 21.3709 25.0016C21.4102 25.0984 21.4313 25.1873 21.4175 25.1991C21.3428 25.2644 21.0403 25.2795 20.9965 25.2207ZM29.2294 25.223C29.2151 25.1854 29.2097 24.0198 29.2176 22.6329L29.2319 20.1112L29.4132 20.1093C29.5971 20.1075 29.6956 20.02 29.6969 19.8567C29.6982 19.7214 29.8518 19.6873 29.9164 19.8082C30.0215 20.0049 29.9803 20.2197 29.8047 20.3879L29.6376 20.5481L29.6541 22.8896C29.6702 25.192 29.6685 25.2318 29.5608 25.2607C29.3793 25.3094 29.2575 25.2954 29.2294 25.223ZM32.5264 25.1958C32.5103 25.1429 32.2598 24.002 31.9698 22.6603C31.4321 20.1723 31.332 19.5906 31.4422 19.5906C31.5358 19.5906 31.7175 19.8097 31.7785 19.997C31.8401 20.1849 32.0307 21.0503 32.1081 21.4939C32.1356 21.6513 32.2067 21.9718 32.266 22.2066C32.3252 22.4412 32.4026 22.7812 32.4378 22.9621C32.4733 23.1429 32.5396 23.4514 32.5859 23.6474C32.6697 24.0042 32.7945 24.5484 32.8751 24.9081C32.8988 25.0137 32.9362 25.143 32.9582 25.196C32.9926 25.278 32.9667 25.2918 32.777 25.2918C32.6141 25.2916 32.548 25.2664 32.5264 25.1958ZM26.2105 25.1829C26.0531 25.1193 25.8745 24.8819 25.8026 24.641C25.77 24.5313 25.7294 23.9359 25.7123 23.3179C25.6797 22.1302 25.7451 21.1287 25.8869 20.6519C26.0277 20.1776 26.3692 19.9855 26.7299 20.1774C26.9273 20.2823 27.1167 20.5448 27.0462 20.6155C27.0226 20.6391 26.9794 20.6154 26.9497 20.5629C26.8775 20.4337 26.6003 20.4402 26.4663 20.5742C26.2181 20.8222 26.1092 21.7945 26.1484 23.4055C26.1794 24.6793 26.204 24.8103 26.4577 25.0398C26.5211 25.0972 26.5729 25.1648 26.5729 25.1903C26.573 25.2489 26.363 25.2446 26.2105 25.1829ZM30.5192 23.4759C30.517 23.3239 30.8764 21.6186 30.9105 21.6186C30.9297 21.6186 30.9867 21.8961 31.037 22.2353C31.1577 23.0493 31.1553 22.9993 31.077 23.1411C30.9991 23.2824 31.0416 23.3949 31.1562 23.3509C31.2005 23.334 31.2329 23.3556 31.2329 23.4022C31.2329 23.4532 31.1779 23.4827 31.0821 23.4832C30.9991 23.4836 30.8389 23.4992 30.7259 23.5178C30.5711 23.5433 30.5197 23.5329 30.5192 23.4759ZM18.9511 23.4414C18.9457 23.331 19.3135 21.6186 19.3424 21.6186C19.3608 21.6186 19.4071 21.837 19.4454 22.1042C19.4982 22.4729 19.5002 22.6351 19.4526 22.7787C19.4182 22.8826 19.3852 23.0835 19.3789 23.2251L19.3678 23.4824H19.1604C19.0463 23.4826 18.9524 23.4641 18.9511 23.4414ZM23.1824 21.3088C22.9003 20.6205 22.6563 19.9734 22.6395 19.8708L22.6092 19.6844L22.7735 19.8059C22.8937 19.8947 23.0239 20.123 23.2553 20.6497C23.4298 21.0472 23.5983 21.3885 23.6296 21.4086C23.6862 21.4449 23.7535 22.272 23.7151 22.4616C23.704 22.5159 23.4645 21.9971 23.1824 21.3088ZM27.5324 21.7077C27.4722 21.6637 27.4352 21.6194 27.4503 21.6094C27.4652 21.5995 27.527 21.5639 27.5871 21.5307C27.6875 21.4751 27.6993 21.3978 27.7242 20.6168C27.7393 20.1475 27.77 19.7453 27.7926 19.7225C27.8153 19.7001 27.8339 19.7549 27.8339 19.8444C27.8339 20.0496 27.9217 20.1384 28.1251 20.1384C28.276 20.1384 28.283 20.1484 28.2496 20.3165C28.23 20.4145 28.1947 20.7113 28.1706 20.9761C28.1392 21.3229 28.0959 21.499 28.0159 21.6066C27.8874 21.7799 27.6883 21.8216 27.5324 21.7077ZM21.3214 20.292C21.2319 20.2025 21.2386 20.1384 21.3378 20.1384C21.3833 20.1384 21.42 20.187 21.42 20.2481C21.4198 20.376 21.4099 20.3804 21.3214 20.292ZM23.5689 20.292C23.4724 20.1953 23.4885 20.1384 23.6129 20.1384C23.6859 20.1384 23.7226 20.1749 23.7226 20.2481C23.7224 20.3725 23.6657 20.3887 23.5689 20.292ZM27.0131 19.6699C26.8028 19.5213 26.8285 19.5019 27.1038 19.6013C27.2037 19.6375 27.2857 19.6991 27.2857 19.7385C27.2857 19.8379 27.2321 19.8246 27.0131 19.6699ZM24.1645 18.2233C24.1006 18.1829 24.0988 18.1577 24.1549 18.0903C24.1956 18.0413 24.2557 17.6444 24.301 17.1278C24.4703 15.1954 24.8795 13.1396 25.1128 13.05C25.1531 13.0345 25.3932 13.0576 25.6467 13.1016C28.1465 13.5349 30.2147 14.7599 31.7897 16.7398C31.8972 16.8754 32.0146 17.0481 32.05 17.1234L32.1146 17.2606L32.0161 17.1326C31.9622 17.0623 31.8069 16.8772 31.6711 16.7214C31.5358 16.5655 31.3753 16.3762 31.3149 16.3008C31.0572 15.9793 30.131 15.2223 29.4534 14.7795C28.1025 13.8966 25.6508 13.0809 25.3691 13.4205C25.239 13.5771 25.0505 14.3542 24.9295 15.232C24.7906 16.2409 24.7635 16.4705 24.7069 17.1233C24.6334 17.9752 24.6192 18.0317 24.4489 18.1658C24.2927 18.2888 24.2741 18.2925 24.1645 18.2233Z" fill="#101A4B"/>
<path d="M24.2024 22.9238L24.2167 20.0902L24.4216 20.0733C24.6077 20.0579 24.6282 20.0401 24.6435 19.8816L24.6606 19.7071L24.0882 19.6897C23.3385 19.6671 23.3284 19.6696 23.3491 19.8826C23.3639 20.035 23.3893 20.0594 23.5578 20.0836L23.7497 20.111L23.7643 21.3895C23.7723 22.0927 23.7585 22.6553 23.7336 22.6397C23.7085 22.6244 23.4207 21.9557 23.0938 21.1542L22.4996 19.6968L21.7813 19.7119L21.0633 19.7272V19.8917C21.0633 20.0421 21.0805 20.0575 21.2695 20.0731L21.4757 20.0902L21.4614 22.6772L21.4471 25.2642H21.2004H20.9537L20.3861 22.6329C19.6985 19.4463 19.7385 19.6091 19.6336 19.5688C19.4061 19.4816 19.3751 19.5749 18.8794 21.8468C18.3793 24.138 18.2377 24.5929 17.9217 24.9265C17.6984 25.1624 17.4042 25.2916 17.0906 25.2916H16.8137L16.828 22.7015L16.8422 20.111L17.0341 20.0836C17.2046 20.0592 17.2259 20.0378 17.2259 19.8917V19.7272H16.3762H15.5264L15.5083 19.8857C15.4877 20.0657 15.5661 20.1364 15.7869 20.1377L15.9376 20.1384V22.7149V25.2914H15.805C15.579 25.2914 15.499 25.3495 15.499 25.5136C15.499 25.5989 15.5176 25.6799 15.5402 25.6939C15.5628 25.7076 16.2462 25.7028 17.0587 25.6834L18.5359 25.6479L18.7032 24.8256L18.8706 24.0033L19.3211 23.9874C19.7524 23.9721 19.7732 23.9768 19.7986 24.0971C19.8962 24.5542 19.9943 25.0994 19.9943 25.1844C19.9943 25.2574 19.9458 25.2891 19.8162 25.3017C19.6586 25.317 19.6381 25.3381 19.6381 25.4835V25.6479L20.9537 25.6626C22.0955 25.6753 22.2777 25.666 22.3323 25.5916C22.4448 25.4372 22.3597 25.2989 22.1405 25.2808L21.9407 25.2642L21.9262 23.2392C21.9184 22.1256 21.9314 21.1946 21.9556 21.1705C21.9797 21.1463 22.3783 22.0698 22.8416 23.2227C23.9836 26.0644 23.8576 25.7953 24.0369 25.7749L24.1881 25.7574L24.2024 22.9238ZM18.8973 23.4963C18.8948 23.3644 19.3062 21.509 19.3379 21.509C19.3821 21.509 19.7661 23.4339 19.7345 23.4963C19.7231 23.5187 19.5301 23.5375 19.3059 23.5375C19.0816 23.5375 18.8978 23.5187 18.8973 23.4963ZM26.7547 25.7262C27.2249 25.5956 27.5838 25.0912 27.7561 24.3181C27.8612 23.8475 27.8391 23.7566 27.6193 23.7566C27.4201 23.7566 27.4176 23.7603 27.2838 24.2837C27.1377 24.8548 26.9559 25.1555 26.7071 25.2376C26.3438 25.3577 26.0204 25.1965 25.8426 24.8072C25.7347 24.5713 25.7241 24.4413 25.7065 23.1261C25.6791 21.1072 25.7995 20.3675 26.1871 20.1669C26.6963 19.9037 27.1281 20.2715 27.281 21.0984C27.3475 21.4595 27.392 21.5281 27.5401 21.4999C27.6324 21.4824 27.645 21.4009 27.6734 20.6315C27.6907 20.1643 27.6943 19.7516 27.6812 19.7137C27.6391 19.5912 27.3977 19.6345 27.3331 19.7762L27.2735 19.9073L27.008 19.7423C26.7683 19.5932 26.7082 19.5794 26.3848 19.6C26.0991 19.6183 25.9808 19.6555 25.7978 19.7848C25.1563 20.2378 24.7089 21.4172 24.7089 22.6551C24.7089 24.0862 25.273 25.3686 26.0521 25.7091C26.254 25.7971 26.4793 25.8026 26.7547 25.7262ZM32.9296 25.6505C33.0526 25.5023 32.9744 25.3759 32.7415 25.3464L32.525 25.319L31.9071 22.4684C31.5671 20.9007 31.2887 19.6116 31.288 19.6042C31.2874 19.5965 31.214 19.5904 31.1247 19.5904C30.9336 19.5904 30.9696 19.4797 30.6052 21.1801C30.4659 21.8284 30.2111 23.0126 30.0384 23.8116L29.7248 25.2644L29.4639 25.281L29.2029 25.2977L29.2172 22.7046L29.2315 20.1113L29.4232 20.0839C29.5939 20.0595 29.6151 20.0381 29.6151 19.892V19.7275H28.7655H27.9158V19.892C27.9158 20.0381 27.937 20.0595 28.1074 20.0839L28.2993 20.1113V22.688V25.2647L28.1074 25.2919C27.9377 25.3163 27.9136 25.3401 27.8985 25.4985L27.8811 25.6776L29.1868 25.663L30.4923 25.6482L30.5096 25.4968C30.5245 25.3663 30.5039 25.3409 30.3587 25.3119C30.2662 25.2934 30.1918 25.2629 30.193 25.2441C30.1947 25.2252 30.2511 24.9383 30.3188 24.6066L30.4417 24.0037L30.8903 23.9877C31.3191 23.9725 31.3398 23.9773 31.3654 24.0975C31.4643 24.5603 31.5611 25.1004 31.5611 25.188C31.5611 25.2619 31.5219 25.2918 31.4258 25.2918C31.3484 25.2918 31.2668 25.3368 31.2342 25.3978C31.1609 25.5351 31.1615 25.5423 31.2636 25.6442C31.3855 25.7657 32.8295 25.7712 32.9296 25.6505ZM30.4782 23.414C30.4925 23.3463 30.5851 22.8899 30.6841 22.4C30.7833 21.9101 30.8821 21.509 30.9039 21.509C30.9259 21.509 31.0246 21.9347 31.1232 22.4548C31.2216 22.9749 31.3139 23.4313 31.328 23.4688C31.3471 23.5201 31.2407 23.5373 30.9027 23.5373C30.4644 23.5373 30.4528 23.534 30.4782 23.414Z" fill="white"/>
<path d="M32.9286 16.3833C33.1325 16.7283 33.1861 16.8365 33.4844 17.5074C33.6386 17.854 33.8242 18.2679 33.8966 18.4271C33.969 18.5861 34.0283 18.7282 34.0283 18.7427C34.0283 18.7573 34.1294 19.0058 34.2531 19.2952C34.5393 19.9647 34.6701 20.6032 34.7426 21.6853C34.8399 23.1286 34.6756 24.6385 34.2911 25.8397C34.1209 26.3706 33.7173 27.3013 33.6752 27.2593C33.6624 27.2465 33.7617 26.9336 33.896 26.564C34.3872 25.2095 34.5766 24.17 34.5766 22.8231C34.5766 21.4098 34.4226 20.3517 34.0528 19.2203C33.7884 18.4115 33.3662 17.6015 32.6854 16.5966C31.5475 14.8015 31.6018 14.5406 32.9286 16.3833Z" fill="#8D9093"/>
</g>
<defs>
<clipPath id="clip0_1_75881">
<rect width="32" height="31.9997" fill="white" transform="translate(8 8)"/>
</clipPath>
</defs>
</svg>
