<svg width="48" height="48" viewBox="0 0 48 48" fill="none" xmlns="http://www.w3.org/2000/svg">
<g clip-path="url(#clip0_1_75952)">
<path fill-rule="evenodd" clip-rule="evenodd" d="M23.8611 27.4289C23.6723 27.1896 23.3595 27.0551 23.0518 27.0551C22.299 27.0551 21.8015 27.6415 21.8015 28.3848C21.8015 29.0719 22.2707 29.6589 23.0518 29.6589C23.4356 29.6589 23.7289 29.4928 23.928 29.2197L24.3113 29.5012C24.2115 29.6364 23.8092 30.0742 23.0425 30.0742C21.9764 30.0742 21.3188 29.2056 21.3188 28.3848C21.3188 27.3698 22.033 26.6398 23.0657 26.6398C23.5061 26.6398 23.9707 26.8017 24.2398 27.1474L23.8611 27.4289Z" fill="black"/>
<path fill-rule="evenodd" clip-rule="evenodd" d="M28.2964 29.6589C27.5813 29.6589 27.1182 29.0719 27.1182 28.3567C27.1182 27.6415 27.5813 27.0551 28.2964 27.0551C29.0116 27.0551 29.4747 27.6415 29.4747 28.3567C29.4747 29.0719 29.0116 29.6589 28.2964 29.6589ZM28.2964 30.0742C29.2499 30.0742 29.9249 29.3267 29.9249 28.3567C29.9249 27.3881 29.2499 26.6398 28.2964 26.6398C27.3425 26.6398 26.668 27.3881 26.668 28.3567C26.668 29.3267 27.3425 30.0742 28.2964 30.0742Z" fill="black"/>
<path fill-rule="evenodd" clip-rule="evenodd" d="M8 26.8066H8.43181V29.6589H9.8943V30.0742H8V26.8066Z" fill="black"/>
<path fill-rule="evenodd" clip-rule="evenodd" d="M12.4722 26.8066H12.904V30.0742H12.4722V26.8066Z" fill="black"/>
<path fill-rule="evenodd" clip-rule="evenodd" d="M15.8037 26.8066H16.3826L18.1741 29.4935H18.1839V26.8066H18.6249V30.0742H18.064L16.2539 27.3888H16.2447V30.0742H15.8037V26.8066" fill="black"/>
<path fill-rule="evenodd" clip-rule="evenodd" d="M32.7646 26.8066H33.1965V29.6589H34.6589V30.0742H32.7646V26.8066Z" fill="black"/>
<path fill-rule="evenodd" clip-rule="evenodd" d="M37.2378 26.8066H37.8039L39.5594 29.4935H39.5684V26.8066H40.0002V30.0742H39.4508L37.6792 27.3888H37.6683V30.0742H37.2378V26.8066" fill="black"/>
<path fill-rule="evenodd" clip-rule="evenodd" d="M25.0501 21.5793C25.0458 20.6478 24.9927 19.5963 24.8438 18.6284C24.8438 18.6284 24.5342 18.5921 24.1311 18.5863C24.1034 18.2074 24.0811 18 24.0811 18H23.9811C23.9811 18 23.9588 18.2074 23.9311 18.5863C23.528 18.5921 23.2185 18.6284 23.2185 18.6284C23.0685 19.5963 23.0153 20.6478 23.0116 21.5793C22.6803 21.6172 22.4165 21.6546 22.4165 21.6546V21.7504C22.4165 21.7504 22.6803 21.7872 23.0116 21.8257C23.0153 22.7572 23.0685 23.8082 23.2185 24.7761C23.2185 24.7761 23.528 24.8129 23.9311 24.8187C23.9588 25.1976 23.9811 25.4045 23.9811 25.4045H24.0811C24.0811 25.4045 24.1034 25.1976 24.1311 24.8187C24.5342 24.8129 24.8438 24.7761 24.8438 24.7761C24.9927 23.8082 25.0458 22.7572 25.0501 21.8257C25.3814 21.7872 25.6457 21.7504 25.6457 21.7504V21.6546C25.6457 21.6546 25.3814 21.6172 25.0501 21.5793ZM24.6209 18.9142C24.7512 19.821 24.7847 20.9594 24.7884 21.5509C24.5991 21.5315 24.405 21.5151 24.2369 21.5072C24.2327 20.412 24.1923 19.5231 24.1534 18.9142H24.6209ZM23.4408 18.9142H23.9083C23.8705 19.5231 23.829 20.412 23.8253 21.5072C23.6572 21.5151 23.4621 21.5315 23.2738 21.5509C23.2775 20.9594 23.31 19.821 23.4408 18.9142ZM23.4408 24.4908C23.31 23.5835 23.2775 22.4456 23.2738 21.8541C23.4621 21.873 23.6572 21.8893 23.8253 21.8978C23.829 22.993 23.8705 23.8814 23.9083 24.4908H23.4408H24.6209H24.1534C24.1923 23.8814 24.2327 22.993 24.2369 21.8978C24.405 21.8893 24.5991 21.873 24.7884 21.8541C24.7847 22.4456 24.7512 23.5835 24.6209 24.4908H23.4408Z" fill="black"/>
</g>
<defs>
<clipPath id="clip0_1_75952">
<rect width="32" height="12.0742" fill="white" transform="translate(8 18)"/>
</clipPath>
</defs>
</svg>
