<svg width="48" height="48" viewBox="0 0 48 48" fill="none" xmlns="http://www.w3.org/2000/svg">
<path d="M16.2744 22.4568H17.9164L18.522 24.7627H18.5629C18.592 24.5706 18.6212 24.3667 18.6736 24.1808L19.1683 22.4568H20.7933L21.5151 26.8474H19.9721L19.7564 24.4425H19.7275C19.6985 24.588 19.6692 24.7393 19.6227 24.8791L18.988 26.8475H18.0564L17.4857 24.9897C17.4391 24.8034 17.3982 24.6287 17.3865 24.4425H17.334C17.3226 24.6172 17.311 24.7976 17.2935 24.972L17.1069 26.8474H15.564L16.2744 22.4568Z" fill="#ACACAC"/>
<path d="M23.8764 25.2578L23.6902 24.4832C23.6436 24.2967 23.6144 24.1047 23.5851 23.9184H23.5272L23.2358 25.2578H23.8764ZM22.8223 26.8474H21.1338L22.6592 22.4568H24.4238L25.9903 26.8474H24.3014L24.1561 26.2998H22.9504L22.8223 26.8474Z" fill="#ACACAC"/>
<path d="M30.3282 24.2619C30.3162 24.9782 30.3162 25.5778 29.798 26.1367C29.3321 26.6435 28.6162 26.9172 27.9348 26.9172C26.5957 26.9172 25.5127 26.0903 25.5127 24.6811C25.5127 23.2488 26.5664 22.3868 27.9465 22.3868C28.7093 22.3868 29.7577 22.7654 30.1009 23.5166L28.6102 24.0641C28.488 23.8428 28.261 23.7263 28.0047 23.7263C27.4344 23.7263 27.1196 24.2154 27.1196 24.7451C27.1196 25.2282 27.4224 25.6826 27.9406 25.6826C28.1912 25.6826 28.5114 25.5661 28.5869 25.2984H27.865V24.2619H30.3282Z" fill="#ACACAC"/>
<path d="M30.4473 22.4568H31.979L33.4113 24.8909H33.4577C33.3939 24.524 33.3238 24.1455 33.3238 23.7729V22.4568H34.8493V26.8474H33.3238L31.9206 24.5416H31.8741C31.9263 24.8441 31.973 25.1296 31.973 25.421V26.8474H30.4473V22.4568H30.4473Z" fill="#ACACAC"/>
<path d="M37.4321 25.2578L37.2456 24.4832C37.1991 24.2967 37.17 24.1047 37.1407 23.9184H37.0825L36.7914 25.2578H37.4321ZM36.3781 26.8474H34.6895L36.2148 22.4568H37.9793L39.5456 26.8474H37.857L37.7115 26.2998H36.5062L36.3781 26.8474Z" fill="#ACACAC"/>
<path d="M13.1303 26.8517L14.7847 26.8519L13.1915 22.4687L11.9804 22.4684L11.7578 23.0785L13.1303 26.8517Z" fill="black"/>
<path d="M12.0083 20.6035C11.5644 20.6035 11.2046 20.9631 11.2046 21.4073C11.2046 21.8509 11.5644 22.2108 12.0083 22.2108C12.4521 22.2108 12.8118 21.8509 12.8118 21.4072C12.8118 20.9631 12.4521 20.6035 12.0083 20.6035Z" fill="#E22E2F"/>
<path d="M8.45459 26.8517L10.9208 26.8515L9.68738 23.4657L8.45459 26.8517Z" fill="black"/>
<path d="M11.2006 26.8517L12.855 26.8519L11.2614 22.4687L10.0504 22.4684L9.82812 23.0785L11.2006 26.8517Z" fill="black"/>
</svg>
