<svg width="48" height="48" viewBox="0 0 48 48" fill="none" xmlns="http://www.w3.org/2000/svg">
<path d="M23.7441 17.0666C19.6005 17.0674 15.8693 18.4808 15.4432 20.3749C15.1597 21.6349 16.4733 22.9276 18.4814 23.6838C20.8302 21.5498 23.4868 19.2923 26.9524 17.7416C23.7931 19.7745 21.4628 22.0079 19.5645 24.0505C20.2028 24.2172 20.9002 24.37 21.6395 24.4548C22.7064 22.8077 23.8939 20.7581 27.4024 17.7749C24.8537 20.8396 23.6649 22.6599 22.6357 24.5834C26.4288 24.923 30.8428 24.4473 31.8941 21.1166C32.3486 19.0962 29.0689 17.2961 24.5774 17.0916C24.2967 17.0788 24.0203 17.0665 23.7441 17.0666ZM23.5941 17.3749C25.2755 17.3554 26.5941 17.5416 26.5941 17.5416C23.3337 18.7085 21.0367 19.9028 18.0107 21.6166C18.04 21.6459 15.6232 21.2653 17.3607 19.2666C18.6722 17.758 21.4322 17.4 23.5941 17.3749ZM27.8524 17.9333C27.8524 17.9333 30.0591 18.2128 30.6024 20.1666C31.2007 22.318 25.5335 23.1807 25.1524 22.8583C26.2009 20.3237 26.5106 20.302 27.8524 17.9333Z" fill="#FF0000"/>
<path d="M12.9825 27.7095C12.7011 27.7095 12.4636 27.7562 12.2644 27.8514C12.0653 27.9467 11.8668 28.1127 11.6712 28.3381V27.7906H10.3182C9.95684 27.7903 9.7377 28.0481 9.6001 28.4293C9.89762 28.4676 10.2838 28.3347 10.3182 28.8856V31.4912H11.7753V29.6054C11.7753 29.3243 11.824 29.1202 11.9314 28.9971C12.0387 28.8739 12.1807 28.8146 12.3477 28.8146C12.4502 28.8146 12.5419 28.8489 12.6183 28.9058C12.6946 28.9628 12.7434 29.036 12.7744 29.1289C12.7935 29.187 12.8056 29.2907 12.8056 29.4533V31.4912H14.2626V29.5851C14.2626 29.3179 14.3138 29.128 14.4188 29.0072C14.5237 28.8864 14.6633 28.8247 14.8351 28.8247C14.9805 28.8247 15.1015 28.8896 15.1993 29.0174C15.2661 29.0987 15.3034 29.2151 15.3034 29.3824V31.4912H16.7604V29.1694C16.7604 28.6676 16.6459 28.3002 16.417 28.0643C16.188 27.8285 15.8673 27.7095 15.4595 27.7095C15.1828 27.7095 14.9506 27.7541 14.7622 27.8413C14.5738 27.9284 14.3667 28.0964 14.1378 28.3381C14.0257 28.1313 13.8771 27.9763 13.7006 27.8717C13.5241 27.7671 13.2854 27.7095 12.9825 27.7095ZM25.2529 27.75C24.9508 27.7291 24.6799 27.8778 24.6493 28.0846C24.6187 28.2914 24.8363 28.4794 25.1385 28.5003C25.4406 28.5212 25.7115 28.3624 25.7421 28.1556C25.7727 27.9488 25.5551 27.771 25.2529 27.75ZM21.0691 27.7805C20.7658 27.8487 20.7966 27.9978 20.6945 28.115C20.8605 28.161 21.0625 28.1123 21.0691 28.5206V31.4912H22.1307V30.2036C22.1307 29.9586 22.1654 29.7913 22.2452 29.6967C22.325 29.602 22.429 29.5547 22.5574 29.5547C22.6736 29.5547 22.7638 29.586 22.828 29.6561C22.8922 29.7262 22.9321 29.842 22.9321 30.011V31.4912H23.9936V29.7879C23.9936 29.4347 23.9095 29.1678 23.7439 28.9971C23.5782 28.8264 23.3553 28.7436 23.0674 28.7436C22.8731 28.7436 22.6996 28.7723 22.5574 28.8349C22.4152 28.8974 22.2747 29.0039 22.1307 29.1492V27.7805H21.0691ZM31.8096 27.7805C31.5578 27.7858 31.5286 27.9393 31.4454 28.0542C31.6379 28.0542 31.7455 28.1809 31.8096 28.3685V29.0681C31.7056 28.9599 31.5798 28.8788 31.4454 28.8247C31.311 28.7707 31.1626 28.7436 30.9979 28.7436C30.6596 28.7436 30.3847 28.8619 30.1653 29.0985C29.9458 29.335 29.8322 29.6764 29.8322 30.1225C29.8322 30.5213 29.9354 30.8575 30.134 31.1363C30.3326 31.4152 30.6215 31.552 30.9979 31.552C31.1852 31.552 31.3552 31.5182 31.5078 31.4405C31.6223 31.3814 31.7437 31.2648 31.8825 31.0958V31.4912H32.8816V27.7805H31.8096ZM18.894 28.7436C18.6962 28.7436 18.5124 28.7555 18.3424 28.7842C18.1724 28.8129 18.0336 28.8535 17.9365 28.9058C17.8012 28.9785 17.6962 29.0706 17.6243 29.1694C17.5523 29.2683 17.5063 29.4026 17.4681 29.575L18.4777 29.6764C18.5193 29.5598 18.5765 29.4753 18.6442 29.4331C18.7309 29.379 18.8558 29.3519 19.0293 29.3519C19.1646 29.3519 19.2565 29.3824 19.3103 29.4331C19.364 29.4838 19.3935 29.5699 19.3935 29.6967C19.2617 29.7474 19.1368 29.7871 19.0189 29.8183C18.9009 29.8496 18.6459 29.9028 18.2487 29.9805C17.9174 30.0447 17.685 30.1428 17.5618 30.2746C17.4387 30.4064 17.3849 30.577 17.3849 30.7815C17.3849 30.9995 17.4638 31.1803 17.6347 31.329C17.8055 31.4777 18.0544 31.552 18.384 31.552C18.632 31.552 18.8523 31.5149 19.0397 31.4405C19.1767 31.3847 19.3172 31.2969 19.456 31.1668C19.4681 31.2445 19.475 31.3028 19.4872 31.3391C19.4993 31.3755 19.5306 31.4219 19.5705 31.4912H20.5592C20.5037 31.3797 20.4716 31.2893 20.4551 31.2175C20.4386 31.1456 20.4343 31.0502 20.4343 30.9234V29.7372C20.4343 29.6105 20.403 29.4711 20.351 29.3317C20.299 29.1923 20.2331 29.0833 20.1429 29.0072C20.0145 28.8974 19.8463 28.829 19.6537 28.7943C19.4612 28.7597 19.2114 28.7436 18.894 28.7436ZM28.396 28.7436C28.1792 28.7436 27.9953 28.7783 27.8444 28.8551C27.6935 28.932 27.5443 29.0613 27.3969 29.2404V28.8044H26.4082C26.2016 28.8099 26.1684 28.9619 26.1168 29.0579C26.2634 29.0745 26.389 29.1281 26.4082 29.3621V31.4912H27.4697V30.2036C27.4697 29.9586 27.5044 29.7913 27.5842 29.6967C27.664 29.602 27.7681 29.5547 27.8964 29.5547C28.0126 29.5547 28.1028 29.586 28.167 29.6561C28.2312 29.7262 28.2711 29.842 28.2711 30.011V31.4912H29.3327V29.7879C29.3327 29.4331 29.2485 29.1669 29.0829 28.9971C28.9172 28.8273 28.6891 28.7436 28.396 28.7436ZM35.2025 28.7436C35.0533 28.7436 34.9293 28.7833 34.8278 28.8551C34.7263 28.927 34.6214 29.0495 34.526 29.2404V28.8044H33.5373C33.2972 28.805 33.324 28.9484 33.2979 29.0681C33.3996 29.1141 33.5265 29.0993 33.5373 29.3519V31.4912H34.5988V30.5889C34.5988 30.158 34.6561 29.864 34.7654 29.7068C34.8417 29.5953 34.9492 29.5446 35.088 29.5446C35.1609 29.5446 35.2649 29.5649 35.3898 29.6155L35.7125 28.8856C35.5268 28.7909 35.3586 28.7436 35.2025 28.7436ZM37.2736 28.7436C37.0758 28.7436 36.892 28.7555 36.722 28.7842C36.552 28.8129 36.4132 28.8535 36.3161 28.9058C36.1808 28.9785 36.0758 29.0706 36.0039 29.1694C35.9319 29.2683 35.8859 29.4026 35.8477 29.575L36.8573 29.6764C36.8989 29.5598 36.9561 29.4753 37.0238 29.4331C37.1105 29.379 37.2354 29.3519 37.4089 29.3519C37.5442 29.3519 37.6361 29.3824 37.6899 29.4331C37.7436 29.4838 37.7731 29.5699 37.7731 29.6967C37.6413 29.7474 37.5164 29.7871 37.3985 29.8183C37.2805 29.8496 37.0255 29.9028 36.6283 29.9805C36.297 30.0447 36.0646 30.1428 35.9414 30.2746C35.8183 30.4064 35.7645 30.577 35.7645 30.7815C35.7645 30.9995 35.8434 31.1803 36.0143 31.329C36.1851 31.4777 36.434 31.552 36.7636 31.552C37.0117 31.552 37.2319 31.5149 37.4193 31.4405C37.5563 31.3847 37.6968 31.2969 37.8356 31.1668C37.8477 31.2445 37.8547 31.3028 37.8668 31.3391C37.8789 31.3755 37.9102 31.4219 37.9501 31.4912H38.9388C38.8833 31.3797 38.8512 31.2893 38.8347 31.2175C38.8182 31.1456 38.8139 31.0502 38.8139 30.9234V29.7372C38.8139 29.6105 38.7827 29.4711 38.7306 29.3317C38.6786 29.1923 38.6127 29.0833 38.5225 29.0072C38.3941 28.8974 38.2258 28.829 38.0333 28.7943C37.8408 28.7597 37.591 28.7436 37.2736 28.7436ZM24.6701 28.8044V31.4912H25.7317V28.8044H24.6701ZM31.3309 29.5142C31.4714 29.5142 31.5824 29.5623 31.6744 29.6662C31.7663 29.7702 31.8201 29.9315 31.8201 30.1428C31.8201 30.3759 31.775 30.5466 31.6848 30.6497C31.5946 30.7528 31.4766 30.8018 31.3413 30.8018C31.2147 30.8018 31.1045 30.7519 31.0187 30.6497C30.9328 30.5475 30.8938 30.3827 30.8938 30.163C30.8938 29.9282 30.9354 29.7659 31.0187 29.6662C31.1019 29.5666 31.2077 29.5142 31.3309 29.5142ZM19.3935 30.2137V30.3861C19.3935 30.5145 19.3736 30.6201 19.3311 30.7004C19.2886 30.7807 19.214 30.8474 19.1125 30.9032C19.0111 30.9589 18.9078 30.9843 18.7899 30.9843C18.6772 30.9843 18.5878 30.9547 18.5297 30.9032C18.4716 30.8516 18.4465 30.7916 18.4465 30.7105C18.4465 30.6396 18.4707 30.5737 18.5297 30.5179C18.587 30.4638 18.7205 30.4114 18.9356 30.3557C19.0934 30.3168 19.2478 30.2644 19.3935 30.2137ZM37.7731 30.2137V30.3861C37.7731 30.5145 37.7532 30.6201 37.7107 30.7004C37.6682 30.7807 37.5936 30.8474 37.4921 30.9032C37.3907 30.9589 37.2874 30.9843 37.1695 30.9843C37.0567 30.9843 36.9674 30.9547 36.9093 30.9032C36.8512 30.8516 36.826 30.7916 36.826 30.7105C36.826 30.6396 36.8503 30.5737 36.9093 30.5179C36.9666 30.4638 37.1001 30.4114 37.3152 30.3557C37.473 30.3168 37.6274 30.2644 37.7731 30.2137Z" fill="#666666"/>
</svg>
