<svg width="48" height="48" viewBox="0 0 48 48" fill="none" xmlns="http://www.w3.org/2000/svg">
<g clip-path="url(#clip0_1_99243)">
<path fill-rule="evenodd" clip-rule="evenodd" d="M42.8172 30.4788C42.519 30.4788 42.2167 30.4788 41.9185 30.4788C41.9392 30.4333 41.9599 30.392 41.9806 30.3507C42.1297 30.0573 42.2829 29.9623 42.6142 29.9623C42.7675 29.9623 42.9207 29.9623 43.074 29.9623C42.9911 30.1317 42.9042 30.3052 42.8172 30.4788Z" fill="black"/>
<path fill-rule="evenodd" clip-rule="evenodd" d="M41.8482 32.4745C42.1216 31.9208 42.3991 31.3671 42.6724 30.8135C42.3742 30.8135 42.0719 30.8135 41.7737 30.8135C41.5376 31.2928 41.2974 31.7679 41.0613 32.2472C40.9785 32.4084 40.8708 32.4745 40.6803 32.4745C39.9514 32.4745 39.2225 32.4745 38.4935 32.4745C38.7917 31.8836 39.0858 31.2928 39.3798 30.6978C39.5041 30.4499 39.5496 30.4333 39.8437 30.4333C39.9307 30.4333 40.0177 30.4333 40.1046 30.4333C40.3573 30.4333 40.4774 30.3631 40.5809 30.1606C40.6223 30.078 40.6596 29.9954 40.701 29.9169C40.3904 29.9169 40.0798 29.9169 39.7692 29.9169C39.9017 29.6483 40.0384 29.3797 40.1709 29.1111C39.9762 29.1111 39.7774 29.1111 39.5828 29.1111C39.326 29.1111 39.2059 29.1773 39.1065 29.3797C39.0195 29.5574 38.9284 29.7392 38.8414 29.9169C38.6758 29.9169 38.5142 29.9169 38.3486 29.9169C38.2658 30.0904 38.1788 30.2598 38.0918 30.4333C38.2575 30.4333 38.419 30.4333 38.5847 30.4333C38.4811 30.6358 37.777 32.0448 37.6776 32.2472C37.599 32.4084 37.4871 32.4745 37.3008 32.4745C36.6505 32.4745 36.0044 32.4745 35.3583 32.4745C35.7021 31.8464 36.0459 31.2184 36.3896 30.5903C36.1535 30.5903 35.9133 30.5903 35.6772 30.5903C35.5116 30.5903 35.4412 30.6441 35.3335 30.7721C35.3335 30.6358 35.2838 30.5903 35.1554 30.5903C34.9897 30.5903 34.8241 30.5903 34.6626 30.5903C33.8508 30.5903 33.3952 30.8424 33.0432 31.4828C32.9024 31.739 32.7616 31.9952 32.6249 32.2513C32.5338 32.4125 32.4261 32.4745 32.2439 32.4745C31.8297 32.4745 31.4114 32.4745 30.9931 32.4786C30.5417 32.4786 30.3636 32.4125 30.3139 32.1728C30.26 31.9208 30.3719 31.7101 30.9807 31.3093C31.0966 31.2349 31.2085 31.1605 31.3244 31.082C31.4818 30.9787 31.5481 30.9209 31.5274 30.8093C31.5067 30.706 31.4445 30.5903 30.9517 30.5903C30.1648 30.5945 29.382 30.5945 28.5951 30.5945C28.3466 30.5945 28.2306 30.6565 28.1188 30.863C27.8662 31.3258 27.6094 31.7886 27.3568 32.2513C27.2698 32.4125 27.1621 32.4786 26.9799 32.4786C25.7208 32.4786 24.4618 32.4786 23.2027 32.4786C23.2566 32.3216 23.3104 32.1604 23.3643 32.0034C23.9938 32.0034 24.6192 32.0034 25.2487 32.0034C25.6214 32.0034 25.7747 31.9084 25.9113 31.5944C25.9693 31.4539 26.0315 31.3093 26.0894 31.1688C26.135 31.0655 26.1723 30.9126 26.0977 30.7969C26.0066 30.6647 25.7788 30.5945 25.4392 30.5945C24.8345 30.5945 24.2299 30.5945 23.6252 30.5945C23.0454 30.5945 22.7844 30.7556 22.5815 31.2308C22.4531 31.5241 22.3289 31.8216 22.2046 32.115C22.0762 32.4166 21.8733 32.4786 21.5834 32.4786C21.1526 32.4786 20.7219 32.4786 20.2871 32.4786C20.316 32.4373 20.345 32.396 20.3699 32.3546C20.6267 31.9704 20.577 31.5448 20.2374 31.1812C19.8977 30.8259 19.4546 30.7019 19.057 30.5945C18.7215 30.5945 18.3861 30.5945 18.0506 30.5903C17.8187 31.0118 17.5909 31.4332 17.3589 31.8547C17.069 32.3836 16.7543 32.4745 16.1993 32.4745C15.7934 32.4745 15.3875 32.4745 14.9817 32.4745C15.3254 31.8464 15.6692 31.2184 16.0129 30.5903C15.7768 30.5903 15.5366 30.5903 15.3006 30.5903C15.1308 30.5903 15.0603 30.6441 14.9568 30.7721C14.9568 30.6358 14.9071 30.5903 14.7746 30.5903C14.6131 30.5903 14.4474 30.5903 14.2859 30.5903C13.4741 30.5903 13.0185 30.8424 12.6665 31.4828C12.5257 31.739 12.3849 31.9952 12.2482 32.2513C12.1571 32.4125 12.0535 32.4745 11.8672 32.4745C11.2501 32.4745 10.6288 32.4745 10.0117 32.4745C10.5377 31.5159 11.0596 30.5573 11.5855 29.5987C11.6767 29.4334 11.5566 29.2268 11.366 29.2268C8.90593 29.2268 6.44581 29.2268 3.9857 29.2268C3.48457 29.2268 3.23607 29.3549 3 29.7557C4.06439 29.7557 5.12464 29.7557 6.18903 29.7557C5.59679 30.8383 5.00454 31.9208 4.41229 32.9992C4.71877 32.9992 5.02524 32.9992 5.33172 32.9992C5.92397 31.9208 6.51622 30.8383 7.10847 29.7598C7.53506 29.7598 7.96164 29.7598 8.38408 29.7598C7.79183 30.8383 7.19959 31.9208 6.60734 32.9992C6.91382 32.9992 7.22029 32.9992 7.52677 32.9992C8.11902 31.9208 8.71127 30.8383 9.30352 29.7598C9.7301 29.7598 10.1567 29.7598 10.5791 29.7598C10.0904 30.6523 9.60172 31.5448 9.11301 32.4373C9.04674 32.5571 8.98047 32.7265 9.05088 32.8463C9.11301 32.9455 9.2621 32.9992 9.48575 32.9992C10.2892 32.9992 11.0968 32.9992 11.9044 32.9992C12.0246 32.9992 12.0743 32.962 12.1488 32.8753C12.1488 32.9703 12.2275 32.9992 12.3227 32.9992C13.7102 32.9992 15.0976 32.9992 16.4851 32.9992C17.3092 32.9992 17.7482 32.7596 18.1044 32.1109C18.2867 31.7803 18.4689 31.4456 18.6511 31.111C18.6594 31.1151 18.7008 31.1234 18.7091 31.1234C19.3635 31.2473 19.6948 31.4911 19.7238 31.863C19.7362 32.0158 19.6865 32.1563 19.5871 32.2679C19.4629 32.4001 19.2765 32.4745 19.0694 32.4786C18.6511 32.4786 18.4813 32.6397 18.3198 32.9992C19.4919 32.9992 20.6681 32.9992 21.8443 32.9992C21.9603 32.9992 22.0141 32.962 22.0845 32.8753C22.0886 32.9703 22.1673 32.9992 22.2626 32.9992C23.9979 32.9992 25.7333 32.9992 27.4727 32.9992C27.8248 32.9992 27.978 32.9083 28.152 32.586C28.3549 32.2183 28.5578 31.8464 28.7608 31.4746C28.9016 31.2225 29.0755 31.1234 29.3779 31.1234C29.6843 31.1234 29.9908 31.1234 30.2973 31.1234C30.1399 31.2308 29.9701 31.3671 29.8376 31.4993C29.6636 31.6811 29.4938 31.9249 29.4648 32.2431C29.44 32.4662 29.498 32.6563 29.6222 32.7967C29.7423 32.929 29.9246 32.9992 30.1399 32.9992C30.8564 32.9992 31.5688 32.9992 32.2853 32.9992C32.4012 32.9992 32.4551 32.962 32.5255 32.8753C32.5255 32.9703 32.6083 32.9992 32.7036 32.9992C34.2028 32.9992 35.7062 32.9992 37.2096 32.9992C37.3298 32.9992 37.3794 32.962 37.454 32.8753C37.454 32.9703 37.5327 32.9992 37.6279 32.9992C39.8478 32.9992 42.0719 32.9992 44.2959 32.9992C44.6977 32.9992 44.9006 32.8711 44.9751 32.5654C44.9834 32.5323 44.9917 32.5034 45 32.4703C43.948 32.4703 42.8961 32.4703 41.8482 32.4745ZM23.5838 31.3589C23.6749 31.0986 23.8861 31.0738 24.0766 31.0738C24.4204 31.0738 24.76 31.0738 25.1037 31.0738C25.0789 31.144 25.0582 31.2143 25.0333 31.2845C24.9505 31.5283 24.76 31.5489 24.5902 31.5489C24.234 31.5489 23.8737 31.5489 23.5175 31.5489C23.5424 31.487 23.5631 31.4208 23.5838 31.3589ZM14.2445 32.1191C14.0995 32.3794 13.9338 32.4745 13.6274 32.4745C13.4575 32.4745 13.2877 32.4745 13.1179 32.4745C13.3002 32.1398 13.4865 31.8092 13.6688 31.4746C13.8096 31.2184 13.9794 31.1192 14.2817 31.1192C14.4515 31.1192 14.6213 31.1192 14.7911 31.1192C14.6089 31.4539 14.4267 31.7886 14.2445 32.1191ZM34.617 32.1191C34.4762 32.3794 34.3105 32.4745 34.004 32.4745C33.8342 32.4745 33.6644 32.4745 33.4946 32.4745C33.6769 32.1398 33.8632 31.8092 34.0455 31.4746C34.1821 31.2184 34.3561 31.1192 34.6584 31.1192C34.8282 31.1192 34.998 31.1192 35.1678 31.1192C34.9856 31.4539 34.8034 31.7886 34.617 32.1191Z" fill="black"/>
<path fill-rule="evenodd" clip-rule="evenodd" d="M23.1694 27.2146C23.1694 27.0617 23.1694 26.9089 23.1694 26.756C23.567 26.756 23.9605 26.756 24.3539 26.756C24.7474 26.756 25.1408 26.756 25.5343 26.756C25.5343 26.9089 25.5343 27.0617 25.5343 27.2146C25.1408 27.2146 24.7474 27.2146 24.3539 27.2146C23.9605 27.2146 23.567 27.2146 23.1694 27.2146Z" fill="black"/>
<path fill-rule="evenodd" clip-rule="evenodd" d="M24.3539 28.1691C24.6024 28.1691 24.8509 28.1691 25.0994 28.1691C25.0994 27.9294 25.0994 27.6939 25.0994 27.4543C24.8509 27.4543 24.6024 27.4543 24.3539 27.4543C24.1054 27.4543 23.8569 27.4543 23.6084 27.4543C23.6084 27.6939 23.6084 27.9294 23.6084 28.1691C23.8569 28.1691 24.1054 28.1691 24.3539 28.1691Z" fill="black"/>
<path fill-rule="evenodd" clip-rule="evenodd" d="M23.6085 26.5164C23.6043 26.1239 23.5049 25.7355 23.186 25.4752C23.5753 25.4752 23.9647 25.4752 24.354 25.4752C24.7433 25.4752 25.1326 25.4752 25.5219 25.4752C25.203 25.7355 25.0995 26.1239 25.0995 26.5164C24.851 26.5164 24.6025 26.5164 24.354 26.5164C24.1055 26.5164 23.857 26.5164 23.6085 26.5164Z" fill="black"/>
<path fill-rule="evenodd" clip-rule="evenodd" d="M21.6333 24.7148C21.6333 24.6033 21.6333 24.4876 21.6333 24.376C22.5403 24.376 23.4473 24.376 24.3543 24.376C25.2613 24.376 26.1684 24.376 27.0712 24.376C27.0712 24.4876 27.0712 24.6033 27.0712 24.7148C26.1684 24.7148 25.2613 24.7148 24.3543 24.7148C23.4473 24.7148 22.5403 24.7148 21.6333 24.7148Z" fill="black"/>
<path fill-rule="evenodd" clip-rule="evenodd" d="M21.8773 25.9421C22.1962 25.8718 22.5358 25.6941 22.7636 25.4752C22.4489 25.4752 22.1341 25.4752 21.8193 25.4752C21.84 25.628 21.8566 25.785 21.8773 25.9421Z" fill="black"/>
<path fill-rule="evenodd" clip-rule="evenodd" d="M26.8309 25.9421C26.512 25.8718 26.1682 25.6941 25.9404 25.4752C26.2593 25.4752 26.5741 25.4752 26.8889 25.4752C26.8681 25.628 26.8474 25.785 26.8309 25.9421Z" fill="black"/>
<path fill-rule="evenodd" clip-rule="evenodd" d="M21.5417 23.6282C21.2435 21.8681 20.6678 20.0335 20.0342 18.827C20.7175 19.1948 21.4465 19.7815 22.2292 20.5789C21.902 20.4922 21.579 20.426 21.256 20.3765C21.7074 21.4425 22.0801 22.5292 22.4197 23.6282C22.1257 23.6282 21.8358 23.6282 21.5417 23.6282Z" fill="black"/>
<path fill-rule="evenodd" clip-rule="evenodd" d="M27.1661 23.6282C27.4602 21.8681 28.0358 20.0335 28.6695 18.827C27.9903 19.1948 27.2614 19.7815 26.4786 20.5789C26.8016 20.4922 27.1288 20.426 27.4519 20.3765C27.0004 21.4425 26.6277 22.5292 26.2881 23.6282C26.578 23.6282 26.8721 23.6282 27.1661 23.6282Z" fill="black"/>
<path fill-rule="evenodd" clip-rule="evenodd" d="M21.3472 24.1984C21.3472 24.0827 21.3472 23.967 21.3472 23.8555C22.3494 23.8555 23.3517 23.8555 24.354 23.8555C25.3562 23.8555 26.3585 23.8555 27.3608 23.8555C27.3608 23.967 27.3608 24.0827 27.3608 24.1984C26.3585 24.1984 25.3562 24.1984 24.354 24.1984C23.3517 24.1984 22.3494 24.1984 21.3472 24.1984Z" fill="black"/>
<path fill-rule="evenodd" clip-rule="evenodd" d="M23.3394 18.641C23.8033 17.8436 24.2009 16.9387 24.3541 16.0008C24.5032 16.9387 24.9008 17.8436 25.3688 18.641C25.2032 18.5667 25.0251 18.4882 24.8304 18.4055C24.6647 18.327 24.5943 18.3725 24.5985 18.546C24.6565 20.2401 24.905 22.1655 25.7913 23.6282C25.4434 23.6282 25.0955 23.6282 24.7476 23.6282C24.5819 23.2398 24.4535 22.8555 24.3541 22.4754C24.2547 22.8555 24.1222 23.2398 23.9607 23.6282C23.6128 23.6282 23.2649 23.6282 22.917 23.6282C23.8033 22.1655 24.0518 20.2401 24.1098 18.546C24.1139 18.3725 24.0435 18.327 23.8737 18.4055C23.679 18.4882 23.5051 18.5667 23.3394 18.641Z" fill="black"/>
<path fill-rule="evenodd" clip-rule="evenodd" d="M21.3472 25.2355C21.3472 25.1198 21.3472 25.0082 21.3472 24.8925C22.3494 24.8925 23.3517 24.8925 24.354 24.8925C25.3562 24.8925 26.3585 24.8925 27.3608 24.8925C27.3608 25.0082 27.3608 25.1198 27.3608 25.2355C26.3585 25.2355 25.3562 25.2355 24.354 25.2355C23.3517 25.2355 22.3494 25.2355 21.3472 25.2355Z" fill="black"/>
</g>
<defs>
<clipPath id="clip0_1_99243">
<rect width="42" height="17" fill="white" transform="translate(3 16)"/>
</clipPath>
</defs>
</svg>
