<svg width="48" height="48" viewBox="0 0 48 48" fill="none" xmlns="http://www.w3.org/2000/svg">
<g clip-path="url(#clip0_1_99486)">
<path fill-rule="evenodd" clip-rule="evenodd" d="M31.0542 10.5236C35.8938 13.0688 39.1998 18.1432 39.1998 23.9924C39.1998 29.8416 35.8938 34.932 31.0542 37.4616V35.7224C32.905 34.6152 34.4706 33.066 35.6098 31.2324L31.0542 29.3832V26.5692L36.0522 30.474C37.0962 28.5452 37.6814 26.3476 37.6814 23.992C37.6814 19.028 35.0238 14.6652 31.0542 12.262V10.5236ZM24.0158 8.80042C26.5466 8.80042 28.9346 9.41722 31.0542 10.5236V12.2628C29.1086 11.0924 26.831 10.3972 24.427 10.318L26.1666 22.7596L31.0542 26.5696V29.3836L23.9838 26.522L16.961 29.3992V26.6008L21.8802 22.7592L23.6042 10.3176C21.1682 10.3968 18.9066 11.0924 16.961 12.262V10.5236C19.065 9.41722 21.469 8.80042 24.0158 8.80042ZM31.0542 37.4616C28.9346 38.568 26.5462 39.2 24.0158 39.2C21.4694 39.2 19.0654 38.568 16.9614 37.4772V35.7224C19.0178 36.9708 21.4374 37.6824 24.0158 37.6824C26.5782 37.6824 28.9826 36.9708 31.0542 35.7224V37.4616ZM16.9614 37.4772C12.1054 34.932 8.7998 29.8416 8.7998 23.9924C8.7998 18.1432 12.1054 13.0688 16.9614 10.5236V12.2628C12.9754 14.6656 10.3182 19.0128 10.3182 23.9924C10.3182 26.3476 10.9194 28.5772 11.9634 30.5056L16.9614 26.6008V29.3992L12.4218 31.264C13.5606 33.0828 15.1106 34.6156 16.9614 35.7224V37.4772Z" fill="#4D4D4D"/>
</g>
<defs>
<clipPath id="clip0_1_99486">
<rect width="32" height="32" fill="white" transform="translate(8 8)"/>
</clipPath>
</defs>
</svg>
