<svg width="48" height="48" viewBox="0 0 48 48" fill="none" xmlns="http://www.w3.org/2000/svg">
<g clip-path="url(#clip0_1_99274)">
<path d="M39.1941 27.3854H9.44824L9.72912 26.6849H39.4762L39.1941 27.3854Z" fill="#D6001C"/>
<path d="M30.3222 25.4611C30.2748 25.6258 30.1193 25.7263 29.9749 25.6853C29.8302 25.6444 29.7514 25.4776 29.7986 25.3129C29.8459 25.1482 30.0015 25.0478 30.146 25.0888C30.2905 25.1297 30.3694 25.2964 30.3222 25.4611ZM30.7553 23.1874C30.7553 23.1874 30.7247 24.0678 30.1441 24.5687L30.7553 23.1874ZM18.3263 25.3695C18.2385 25.5702 18.0197 25.6763 17.856 25.6056C17.6922 25.5349 17.6451 25.3165 17.7329 25.1158C17.8208 24.9151 18.0291 24.8123 18.1928 24.883C18.3567 24.9537 18.414 25.1688 18.3263 25.3695ZM14.1169 22.1856C14.1169 22.1856 14.3308 22.9901 13.4293 23.9464L14.1169 22.1856ZM38.6402 25.5317C38.5026 25.5317 38.5496 25.3753 38.5496 25.3753L39.0004 24.3252L37.683 24.3271L37.4435 24.8844H38.116L37.8371 25.5317H34.9318C34.7841 25.5376 34.8194 25.4187 34.8194 25.4187L35.2212 24.3261L34.5972 24.3271L34.1547 25.5097C34.1385 25.5474 34.0816 25.6119 33.9771 25.5884C33.8629 25.5533 33.9255 25.3959 33.9255 25.3959L34.2843 24.3271L33.6586 24.3267L33.2528 25.5317L30.7171 25.5325C30.8775 24.9633 30.4192 24.7356 30.4192 24.7356C31.9775 23.233 30.6979 22.0589 30.6979 22.0589L29.2078 25.5317C29.2078 25.5317 26.6253 25.5337 26.3596 25.5317C26.0938 25.5298 26.1804 25.3968 26.2297 25.3538C26.4522 25.1526 27.371 24.3259 27.371 24.3259H26.569L25.7336 25.0291L26.7294 22.7094H25.9502L24.8793 25.5298C24.8793 25.5298 22.2318 25.5308 21.7531 25.531C21.7018 25.531 21.6549 25.5002 21.6371 25.4523C21.6001 25.3522 21.6062 25.2264 21.6635 25.1094C21.7617 24.9086 21.9729 24.8094 22.1354 24.8878C22.2291 24.933 22.2858 25.0275 22.2985 25.1379H22.8136C22.8202 24.7929 22.6681 24.4845 22.3863 24.3486C21.9663 24.146 21.4201 24.4024 21.1664 24.9213C21.0673 25.124 21.0283 25.3365 21.0415 25.5325H18.8474C19.0285 25.0308 18.8725 24.5147 18.4653 24.339C18.0357 24.1534 17.4888 24.4231 17.2585 24.9494C17.1732 25.1445 17.1366 25.3459 17.1461 25.5317H17.1456H15.06C14.6934 25.509 14.8122 25.1455 14.8122 25.1455L16.1184 22.1174H15.1559L14.1932 24.4851C13.8866 25.1095 13.6056 25.2796 13.5473 25.303C13.0735 25.493 13.162 24.9178 13.162 24.9178C15.66 22.4361 14.0328 20.0456 14.0328 20.0456L12.3141 24.7812C9.88476 25.8284 8.71595 24.4397 8.71595 24.4397L8.07422 25.7146C10.2515 26.9897 12.1995 25.6008 12.1995 25.6008C12.3553 26.0653 12.5713 26.2671 12.7983 26.3209C13.4652 26.4438 13.9412 25.7374 13.9412 25.7374C14.0866 26.1868 14.4671 26.2271 14.5199 26.2278C14.5727 26.2286 16.5137 26.2278 16.5137 26.2278C17.0179 26.2278 17.2407 25.9164 17.2463 25.9165C17.3196 26.0571 17.4314 26.1698 17.5811 26.2345C17.9173 26.3797 18.3411 26.2399 18.6202 25.9206C18.7245 26.2112 18.9814 26.2278 18.9814 26.2278C18.9814 26.2278 20.2591 26.2296 20.5626 26.2278C20.8583 26.2263 21.1375 25.9383 21.152 25.9232C21.2246 26.0549 21.3398 26.2191 21.5429 26.2278C21.5428 26.2278 23.9655 26.2273 24.1413 26.2278C24.3905 26.2286 24.7396 25.9188 24.7396 25.9188L24.6117 26.2278H25.2199L25.4344 25.7292C25.582 26.1653 25.9301 26.2271 25.9737 26.2278C26.0173 26.2286 28.6349 26.2278 28.6349 26.2278C29.0168 26.2337 29.2747 25.915 29.2747 25.915C29.4179 26.1782 29.5752 26.2689 29.7421 26.2868C30.178 26.3332 30.465 26.0107 30.465 26.0107C30.5109 26.1928 30.6777 26.228 30.7176 26.2278C30.7574 26.2276 32.6171 26.2278 32.6171 26.2278C33.0206 26.1887 33.241 25.9248 33.241 25.9248C33.3321 26.2054 33.5453 26.274 33.6919 26.2897C34.1044 26.3172 34.3153 25.9195 34.3153 25.9195C34.4594 26.1908 34.6932 26.228 34.7507 26.2278C34.8083 26.2276 37.292 26.2278 37.292 26.2278C37.6357 26.2052 37.7958 25.9169 37.7958 25.9169C37.8756 26.1738 38.0283 26.228 38.103 26.2278C38.1774 26.2276 39.6755 26.2278 39.6755 26.2278L39.9753 25.5312L38.6402 25.5317Z" fill="#D6001C"/>
</g>
<defs>
<clipPath id="clip0_1_99274">
<rect width="32" height="7.39066" fill="white" transform="translate(8 20)"/>
</clipPath>
</defs>
</svg>
