<svg width="48" height="48" viewBox="0 0 48 48" fill="none" xmlns="http://www.w3.org/2000/svg">
<g clip-path="url(#clip0_1_99291)">
<path d="M26.6479 25.4572C26.6225 25.4636 26.5209 25.4636 26.4764 25.4636H23.2002V26.2255H26.5336C26.559 26.2255 26.7558 26.2255 26.7939 26.2191C27.4733 26.1556 27.7844 25.5905 27.7844 25.0953C27.7844 24.5874 27.4606 24.0413 26.8447 23.9842C26.724 23.9715 26.6225 23.9715 26.578 23.9715H24.4002C24.305 23.9715 24.197 23.9651 24.159 23.9524C23.9875 23.908 23.924 23.7556 23.924 23.6286C23.924 23.5143 23.9875 23.362 24.1653 23.3112C24.2161 23.2985 24.2732 23.2921 24.3939 23.2921H27.5367V22.5429H24.3431C24.2097 22.5429 24.1082 22.5493 24.0256 22.562C23.4796 22.6381 23.0986 23.0762 23.0986 23.635C23.0986 24.0921 23.3843 24.6255 24.0129 24.7143C24.1272 24.727 24.2859 24.727 24.3558 24.727H26.4764C26.5145 24.727 26.6098 24.727 26.6288 24.7334C26.8701 24.7651 26.9526 24.9429 26.9526 25.1016C26.9526 25.254 26.8574 25.4191 26.6479 25.4572Z" fill="black"/>
<path d="M20.4384 25.4572C20.413 25.4636 20.3114 25.4636 20.2733 25.4636H16.9907V26.2255H20.3241C20.3495 26.2255 20.5463 26.2255 20.5844 26.2191C21.2638 26.1556 21.5749 25.5905 21.5749 25.0953C21.5749 24.5874 21.2511 24.0413 20.6352 23.9842C20.5146 23.9715 20.413 23.9715 20.3685 23.9715H18.1908C18.0955 23.9715 17.9876 23.9651 17.9495 23.9524C17.7781 23.908 17.7146 23.7556 17.7146 23.6286C17.7146 23.5143 17.7781 23.362 17.9558 23.3112C18.0066 23.2985 18.0638 23.2921 18.1844 23.2921H21.3273V22.5429H18.1336C18.0003 22.5429 17.8987 22.5493 17.8161 22.562C17.2701 22.6381 16.8892 23.0762 16.8892 23.635C16.8892 24.0921 17.1749 24.6255 17.8034 24.7143C17.9177 24.727 18.0765 24.727 18.1463 24.727H20.2669C20.305 24.727 20.4003 24.727 20.4193 24.7334C20.6606 24.7651 20.7431 24.9429 20.7431 25.1016C20.7431 25.254 20.6543 25.4191 20.4384 25.4572Z" fill="black"/>
<path d="M15.2824 22.5175H14.457V26.2445H15.2824V22.5175Z" fill="black"/>
<path d="M12.6349 26.2445V22.5175H11.8095V25.2985L9.06032 22.5175H8V26.2445H8.8254V23.4509L11.5937 26.2445H12.6349Z" fill="black"/>
<path d="M39.1811 22.5175V25.2985L36.4319 22.5175H35.3716V26.2445H36.197V23.4509L38.9589 26.2445H40.0002V22.5175H39.1811Z" fill="black"/>
<path d="M31.0733 22.5175L28.7495 26.2445H29.7527L30.1654 25.5778H32.8765L33.2892 26.2445H34.286L31.9622 22.5175H31.0733ZM32.4511 24.8731H30.5908L31.5241 23.3747L32.4511 24.8731Z" fill="black"/>
<path d="M12.5903 20.4032C14.2538 15.546 18.8379 12.2825 24.0062 12.2825C29.1744 12.2825 33.7649 15.546 35.4221 20.4032L35.4348 20.4413H39.0729V20.0032L37.5618 19.8254C36.6284 19.7175 36.4316 19.3048 36.1776 18.7842L36.1142 18.6572C33.93 14.0095 29.1744 11 24.0062 11C18.8316 11 14.0823 14.0095 11.8982 18.6699L11.8347 18.7969C11.5807 19.3175 11.3839 19.7302 10.4506 19.8381L8.93945 20.0159V20.454H12.5712L12.5903 20.4032Z" fill="black"/>
<path d="M35.4348 28.327L35.4221 28.3651C33.7586 33.2223 29.1744 36.4794 24.0062 36.4794C18.8379 36.4794 14.2474 33.2159 12.5903 28.3588L12.5776 28.3207H8.9458V28.7588L10.4569 28.9366C11.3903 29.0445 11.5871 29.4572 11.841 29.9778L11.9045 30.1048C14.0887 34.7651 18.8442 37.7747 24.0125 37.7747C29.1808 37.7747 33.9364 34.7651 36.1205 30.1112L36.184 29.9842C36.438 29.4635 36.6348 29.0508 37.5681 28.9429L39.0792 28.7651V28.327H35.4348Z" fill="black"/>
</g>
<defs>
<clipPath id="clip0_1_99291">
<rect width="32" height="26.7747" fill="white" transform="translate(8 11)"/>
</clipPath>
</defs>
</svg>
