<svg width="48" height="48" viewBox="0 0 48 48" fill="none" xmlns="http://www.w3.org/2000/svg">
<g clip-path="url(#clip0_1_99490)">
<mask id="mask0_1_99490" style="mask-type:alpha" maskUnits="userSpaceOnUse" x="8" y="6" width="32" height="36">
<path d="M40 41.2052H8V6.00519H40V41.2052Z" fill="black"/>
</mask>
<g mask="url(#mask0_1_99490)">
<path fill-rule="evenodd" clip-rule="evenodd" d="M23.2832 40.788C18.8091 38.7069 14.9231 35.2963 12.3406 31.1857C9.76437 27.0871 8.41045 22.3401 8.0792 16.2454C7.9737 14.301 7.9737 11.8757 8.07863 8.83201L8.12627 7.44292L9.49722 7.2132C14.3213 6.40833 19.201 5.99994 24.0002 5.99994C28.7993 5.99994 33.6785 6.40833 38.502 7.2132L39.8729 7.44292L39.9212 8.83201C40.0267 11.8762 40.0267 14.3016 39.9206 16.2454C39.5888 22.3401 38.2354 27.0871 35.6592 31.1857C33.0772 35.2963 29.1901 38.7069 24.7166 40.788L24.0002 41.1209L23.2832 40.788Z" fill="black"/>
</g>
<path fill-rule="evenodd" clip-rule="evenodd" d="M24.0004 7.00137C19.1623 7.00137 14.1403 7.41303 9.04323 8.28962C8.96714 10.3257 8.8804 13.4729 9.02611 16.1435C9.35063 22.0979 10.6661 26.7195 13.166 30.6881C15.6584 34.6452 19.5182 38.0477 24.0004 40.0685C28.4825 38.0477 32.342 34.6452 34.8344 30.6881C37.3346 26.7195 38.6496 22.0979 38.9745 16.1435C39.1195 13.4729 39.0332 10.3257 38.9571 8.28962C33.86 7.41303 28.8384 7.00137 24.0004 7.00137ZM24.0004 7.575C28.7695 7.575 33.612 7.97913 38.3996 8.77675C38.5047 11.7973 38.5047 14.2007 38.4002 16.1125C38.0812 21.9654 36.7937 26.5002 34.3477 30.3831C31.9021 34.2657 28.2344 37.4728 24.0004 39.4377C19.7659 37.4728 16.0986 34.2657 13.653 30.3831C11.207 26.5002 9.9192 21.9654 9.60048 16.1125C9.49607 14.2007 9.49601 11.7973 9.60111 8.77675C14.3887 7.97913 19.2309 7.575 24.0004 7.575Z" fill="white"/>
<path fill-rule="evenodd" clip-rule="evenodd" d="M13.9941 10.3071C13.9471 10.306 13.8971 10.3082 13.8442 10.3136C13.1358 10.3875 12.4284 10.4688 11.7217 10.558V12.6451C11.8442 12.6295 11.9671 12.6145 12.0896 12.5995V11.9537C12.6738 11.8823 13.259 11.8162 13.8442 11.7552C14.2673 11.7113 14.5038 11.5347 14.5038 11.0976V10.8614C14.5038 10.4875 14.3228 10.3152 13.9941 10.3071ZM13.9534 10.639C14.0486 10.6291 14.1442 10.7013 14.1442 10.797V11.2197C14.1442 11.3106 14.0486 11.3975 13.9534 11.4077C13.3317 11.4714 12.7103 11.5415 12.0896 11.6171V10.8487C12.7103 10.7728 13.3317 10.703 13.9534 10.639Z" fill="white"/>
<path fill-rule="evenodd" clip-rule="evenodd" d="M23.3215 9.78952C23.9838 9.78475 24.6462 9.78713 25.3082 9.79599V10.1323C24.6004 10.1231 23.8924 10.1211 23.1843 10.1269C23.0884 10.1279 22.9925 10.2106 22.9925 10.3063V11.3521C22.9925 11.4477 23.0884 11.5424 23.1843 11.5413C23.8193 11.5359 24.454 11.5369 25.0891 11.5441V10.98C24.7206 10.9759 24.352 10.9739 23.9838 10.9742V10.6375C24.4725 10.6375 24.9611 10.6413 25.4498 10.6484V11.8852C24.7632 11.875 24.0766 11.8722 23.3901 11.8763C22.8874 11.8797 22.6318 11.7933 22.6318 11.3065V10.3968C22.6318 9.94237 22.8601 9.79293 23.3215 9.78952V9.78952Z" fill="white"/>
<path fill-rule="evenodd" clip-rule="evenodd" d="M30.4944 10.0078C30.0985 10.0089 29.9204 10.1338 29.9204 10.5434V11.4754C29.9204 11.9714 30.1759 12.0682 30.6775 12.1019C31.1382 12.1332 31.5982 12.1678 32.0585 12.2056C32.555 12.2465 32.8148 12.162 32.8148 11.6933V10.7613C32.8148 10.2836 32.5141 10.156 32.0585 10.1185C31.5982 10.0804 31.1382 10.046 30.6775 10.0144C30.612 10.01 30.551 10.0076 30.4944 10.0078ZM30.4725 10.3374C31.07 10.3765 31.6668 10.4215 32.2637 10.4719C32.3592 10.4801 32.4548 10.5702 32.4548 10.6791V11.7118C32.4548 11.8071 32.3592 11.8946 32.2637 11.8864C31.6668 11.836 31.07 11.791 30.4725 11.7515C30.363 11.744 30.2807 11.6437 30.2807 11.548V10.5158C30.2807 10.4065 30.363 10.3299 30.4725 10.3374Z" fill="white"/>
<path fill-rule="evenodd" clip-rule="evenodd" d="M21.7276 9.81348V11.3233C21.7276 11.8009 21.4761 11.9057 20.9694 11.9214C20.5282 11.935 20.087 11.9513 19.6457 11.9711C19.1755 11.9922 18.8882 11.903 18.8882 11.4302V9.92037L19.2485 9.90199V11.4754C19.2485 11.5711 19.3308 11.649 19.44 11.6439C20.0184 11.617 20.5964 11.5953 21.1748 11.5786C21.2847 11.5755 21.3577 11.4918 21.3577 11.3961V9.82267C21.4809 9.81926 21.6041 9.8162 21.7276 9.81348V9.81348Z" fill="white"/>
<path fill-rule="evenodd" clip-rule="evenodd" d="M26.3516 9.81531C27.2401 9.83641 28.1284 9.86978 29.0166 9.91539V10.2517C28.2488 10.2126 27.4807 10.1823 26.7123 10.1612V10.6749C27.3958 10.6939 28.0789 10.7198 28.7617 10.7528V11.0895C28.0789 11.0565 27.3958 11.0303 26.7123 11.0116V11.5753C27.4807 11.5964 28.2488 11.6267 29.0166 11.6662V12.0025C28.1284 11.9573 27.2401 11.9239 26.3516 11.9025V9.81531Z" fill="white"/>
<path fill-rule="evenodd" clip-rule="evenodd" d="M17.9842 9.97162V10.308C17.2168 10.3553 16.4497 10.4114 15.6832 10.4765V10.9905C16.365 10.9323 17.0472 10.8816 17.7297 10.838V11.1747C17.0472 11.2183 16.365 11.269 15.6832 11.3268V11.8909C16.4497 11.8256 17.2168 11.7694 17.9842 11.7224V12.0588C17.0967 12.1132 16.2098 12.18 15.3232 12.2586V10.1711C16.2098 10.0925 17.0967 10.0261 17.9842 9.97162Z" fill="white"/>
<path fill-rule="evenodd" clip-rule="evenodd" d="M33.4829 10.2459C34.4159 10.3365 35.3481 10.4406 36.2787 10.5577V10.8944C35.8764 10.8437 35.4734 10.7954 35.07 10.7497V12.5005C34.9475 12.4866 34.825 12.473 34.7018 12.4593V10.7085C34.2961 10.664 33.8893 10.6221 33.4829 10.5826V10.2459Z" fill="white"/>
<path fill-rule="evenodd" clip-rule="evenodd" d="M21.139 14.24C22.852 14.0899 25.17 14.049 27.3843 14.2162C27.5102 14.2257 27.6327 14.2553 27.7491 14.3044C28.4746 14.6087 29.7617 15.2746 31.1929 16.0913C31.256 16.1273 31.3154 16.1696 31.37 16.2176C31.7491 16.5508 32.7097 17.5313 32.7097 17.5313L32.4101 17.472C32.3681 17.4638 32.3289 17.4475 32.2934 17.4237C31.6873 17.0176 30.8025 16.4889 30.061 16.1161C29.973 16.0722 29.8777 16.0439 29.7798 16.0337C29.4191 15.9953 28.9315 15.9616 28.6124 15.9486C28.4551 15.9422 28.348 15.9159 28.1941 15.838C27.8999 15.6892 27.1874 15.3668 26.8325 15.2317C26.6807 15.1738 26.6032 15.1602 26.4544 15.1626C25.8447 15.1714 24.4555 15.2157 23.746 15.2596C23.7215 15.261 23.6979 15.2599 23.674 15.2562L23.3359 15.2034C24.2948 15.0387 26.665 14.8279 27.6461 14.7765L27.2468 14.6434C27.1697 14.6179 27.0895 14.6043 27.0079 14.6022C26.795 14.5972 26.3214 14.5877 25.7066 14.5869L25.4966 14.587C24.5654 14.5888 23.3673 14.6116 22.2623 14.6945C22.1658 14.7016 22.0716 14.7248 21.9829 14.7639C21.5365 14.9595 20.4481 15.5482 19.3566 16.1529L19.1142 16.2874C18.832 16.4442 18.5527 16.6003 18.2876 16.7489C18.2876 16.7489 18.4238 16.5743 18.45 16.5403C18.4732 16.5107 18.4804 16.5052 18.5118 16.4848C18.5557 16.4561 18.7054 16.3577 18.8564 16.2578L18.9682 16.1837C19.0589 16.1235 19.1398 16.0695 19.1854 16.0381C19.2079 16.0228 19.2222 16.0119 19.2506 15.9908C19.5792 15.7437 20.0979 15.3079 20.407 15.038C20.477 14.977 20.5364 14.9062 20.5852 14.8273C20.6851 14.6659 20.7943 14.4909 20.8616 14.3939C20.9189 14.3098 21.0168 14.2509 21.139 14.24V14.24Z" fill="white"/>
<path fill-rule="evenodd" clip-rule="evenodd" d="M21.9687 15.8913C22.008 15.891 22.0325 15.9332 22.0131 15.9669L21.1852 17.3888C21.1392 17.4726 21.062 17.5349 20.9706 17.5624L19.4183 18.0469C19.2381 18.1013 19.0859 18.1306 18.8982 18.1449C18.5539 18.1708 17.5312 18.2028 17.5312 18.2028L17.5538 18.1544C17.5643 18.1316 17.5831 18.1136 17.6063 18.1037L18.0902 17.8988C18.1264 17.8835 18.1581 17.86 18.1823 17.8297L18.9296 16.9119C18.9696 16.8629 19.0218 16.8159 19.0774 16.7866C19.5712 16.5276 20.4492 16.1384 21.0641 15.9335C21.1221 15.9141 21.2002 15.9019 21.2613 15.9012L21.9687 15.8913Z" fill="white"/>
<path fill-rule="evenodd" clip-rule="evenodd" d="M18.1056 18.4461C18.138 18.4434 18.1687 18.4615 18.1813 18.4911C18.224 18.5901 18.2124 18.7008 18.1711 18.7954C18.1551 18.8339 18.1056 18.8713 18.065 18.8802L17.7254 18.9554C17.705 18.9598 17.6862 18.9435 17.6876 18.9227L17.7193 18.5251C17.7217 18.4982 17.7428 18.4768 17.7698 18.4747L18.1056 18.4461Z" fill="white"/>
<path fill-rule="evenodd" clip-rule="evenodd" d="M25.6349 16.7671C25.6857 16.7582 25.7379 16.7654 25.7847 16.7875L26.1392 16.9567C26.174 16.9734 26.1996 17.005 26.2088 17.0432C26.2569 17.2454 26.316 17.5133 26.3556 17.741C26.3716 17.8357 26.3538 17.9324 26.3057 18.0158C26.159 18.2701 25.8577 18.7276 25.6891 18.9734C25.6516 19.0285 25.6471 19.0953 25.6587 19.161C25.7352 19.5824 26.0539 21.0541 26.0539 21.0541L25.8533 20.8719C25.8133 20.8352 25.7871 20.7964 25.77 20.7456C25.6274 20.3293 25.3605 19.4595 25.2377 19.0364C25.2179 18.9666 25.2329 18.892 25.2789 18.8365C25.4881 18.5833 25.7929 18.1782 25.971 17.9215C26.0208 17.8493 26.0372 17.7696 26.0078 17.7101C25.9669 17.6263 25.898 17.499 25.8318 17.3836C25.814 17.3516 25.7843 17.3278 25.7492 17.3162L25.5086 17.2393C25.4666 17.226 25.4216 17.2267 25.38 17.2416C24.8558 17.4313 24.1508 17.7046 23.7195 17.883C23.6564 17.9092 23.6304 17.9113 23.554 17.8997C23.4291 17.8813 23.0653 17.8163 22.8869 17.7829C22.8548 17.7768 22.8388 17.7407 22.8551 17.7125L23.0667 17.3468C23.0954 17.2975 23.1428 17.2624 23.1988 17.2498C23.8792 17.0953 24.779 16.9176 25.6349 16.7671V16.7671Z" fill="white"/>
<path fill-rule="evenodd" clip-rule="evenodd" d="M18.2365 17.1502L18.0973 17.3211C18.0895 17.3286 18.082 17.3358 18.0741 17.3436C17.9516 17.4338 17.436 17.8277 17.2964 17.938C17.2568 17.9693 17.2411 17.9965 17.2319 18.0459C17.2005 18.2202 17.1483 18.5514 17.133 18.7349C17.1285 18.7887 17.1053 18.8153 17.0504 18.8374C16.8112 18.9344 16.5276 19.0365 16.2983 19.1281C16.2492 19.1475 16.2355 19.155 16.2065 19.1771C16.1837 19.1948 15.8789 19.4661 15.8789 19.4661C15.8789 19.4661 16.5413 19.3034 16.7842 19.2486C16.8422 19.2357 16.8672 19.2391 16.9207 19.2643C16.9709 19.2874 17.0545 19.3204 17.0985 19.3364C17.1661 19.3613 17.2019 19.3603 17.2766 19.3439C17.5503 19.283 18.0106 19.1741 18.2557 19.1104C18.3829 19.0774 18.4525 19.043 18.5604 18.9678C18.6778 18.8864 18.975 18.6641 18.975 18.6641C18.975 18.6641 18.9695 18.7033 18.9654 18.725C18.9623 18.7438 18.9555 18.7543 18.9432 18.769C18.8828 18.8415 18.7771 18.9596 18.7245 19.0137C18.6041 19.138 18.5321 19.1822 18.3809 19.2452C17.6848 19.5346 16.4952 19.9839 15.6029 20.292C15.5445 20.3124 15.5193 20.3291 15.4759 20.3734C15.4288 20.421 15.366 20.4905 15.366 20.4905C15.366 20.4905 16.0936 20.5433 16.3157 20.5688C16.3877 20.577 16.4392 20.6004 16.4942 20.6478C16.6767 20.8044 17.2811 21.425 17.4619 21.6404C17.4619 21.6404 15.7438 21.9254 14.9477 22.1225C14.8494 22.1467 14.8003 22.209 14.7781 22.2876C14.7122 22.5184 14.557 23.2605 14.557 23.2605C14.557 23.2605 14.5017 23.2428 14.4246 23.1986C14.3717 23.1683 14.3447 23.1431 14.2867 23.0818C14.0983 22.8833 13.7888 22.5034 13.6401 22.2832C13.5964 22.2181 13.578 22.1354 13.6326 22.069C13.794 21.8709 14.1181 21.5094 14.297 21.3235C14.3161 21.3034 14.3403 21.2684 14.3659 21.218C14.426 21.0988 14.5054 20.7968 14.533 20.6878L14.5418 20.6526L14.543 20.6478C14.543 20.6478 14.5413 20.6488 14.5382 20.6508L14.5055 20.6712C14.4613 20.699 14.3898 20.7439 14.359 20.7632C14.313 20.7924 14.3004 20.805 14.2812 20.8452C14.2522 20.9058 14.2014 21.0015 14.1628 21.0678C14.1502 21.0896 14.1164 21.1233 14.0983 21.1373C13.8701 21.3112 13.6179 21.4981 13.4384 21.6241C13.4261 21.6326 13.4104 21.6289 13.3998 21.6186C13.377 21.5958 13.2811 21.4872 13.264 21.4617C13.2497 21.4403 13.2432 21.4202 13.2432 21.3943C13.2429 21.349 13.2473 21.2694 13.2517 21.2101C13.2572 21.14 13.2773 21.1067 13.363 21.0181C13.4589 20.9191 13.5633 20.8149 13.6732 20.708C13.9424 20.482 14.6221 19.9318 15.8359 19.0678C15.8588 19.0515 15.8796 19.0324 15.8963 19.0096C16.0239 18.8381 16.386 18.3696 16.4754 18.2583C16.488 18.2427 16.502 18.228 16.5181 18.2154C16.661 18.1027 16.7317 18.0541 16.8767 17.9628C17.2149 17.7504 17.8697 17.363 18.2365 17.1502L18.2365 17.1502Z" fill="white"/>
<path fill-rule="evenodd" clip-rule="evenodd" d="M15.4923 22.9881L15.3425 24.0193L14.833 23.4229C14.9258 23.2223 15.1971 23.0331 15.4923 22.9881Z" fill="white"/>
<path fill-rule="evenodd" clip-rule="evenodd" d="M18.8478 23.5352C18.5939 23.9519 18.2905 24.3944 18.0612 24.6708C18.0312 24.7069 17.9912 24.7348 17.9459 24.7519C17.6951 24.8455 17.277 24.9864 16.9692 25.08L18.8478 23.5352Z" fill="white"/>
<path fill-rule="evenodd" clip-rule="evenodd" d="M29.6791 16.8405C29.8135 16.7912 29.9609 16.7946 30.093 16.8501C31.1174 17.279 32.84 18.288 33.7975 18.9988C33.89 19.0676 33.9268 19.1149 33.951 19.2259C34.1759 20.2458 34.2612 21.8223 34.1196 23.1496C34.1094 23.2449 34.0903 23.3021 34.0404 23.4039C33.4337 24.6413 32.7509 25.8059 32.0323 26.7043L32.0337 26.6896C32.043 26.594 32.0946 26.0545 32.0974 25.7627C32.0977 25.7297 32.1131 25.6994 32.1394 25.6793C32.2728 25.5758 32.4561 25.4287 32.5598 25.3392C32.6103 25.2956 32.6383 25.263 32.6646 25.2207C32.9573 24.7489 33.4808 23.761 33.6917 23.1666C33.7432 23.0216 33.7637 22.8681 33.7511 22.7145C33.6835 21.8863 33.5531 20.7387 33.359 19.9898C33.3259 19.8621 33.2412 19.7542 33.1235 19.694C32.956 19.6082 32.6274 19.4587 31.879 19.1595C31.7753 19.118 31.6784 19.0604 31.5931 18.9889C31.1024 18.5777 30.3353 17.9612 29.8579 17.6065C29.7183 17.5026 29.5402 17.4649 29.3702 17.5033C29.0225 17.582 28.5799 17.6916 28.3308 17.759C28.2462 17.7818 28.2128 17.7838 28.1254 17.7736C28.0799 17.7684 28.0211 17.7626 27.9593 17.757L27.8658 17.7488C27.757 17.7395 27.6549 17.7317 27.615 17.7287L27.5972 17.7273C28.409 17.3471 29.1901 17.0189 29.6791 16.8405L29.6791 16.8405Z" fill="white"/>
<path fill-rule="evenodd" clip-rule="evenodd" d="M17.592 22.0728C17.6725 22.0469 17.7582 22.0438 17.8401 22.0636C18.2093 22.1521 18.9907 22.3431 19.5814 22.4939C19.6643 22.515 19.7677 22.5922 19.8117 22.6654L19.9404 22.8789C19.9854 22.9538 19.9885 23.0457 19.9486 23.1233C19.8412 23.3309 19.6881 23.6121 19.5262 23.902L19.4037 24.12C19.1782 24.5191 18.9537 24.9041 18.8262 25.1066C18.7423 25.2404 18.6955 25.2996 18.5461 25.3524C17.965 25.5563 17.2432 25.8001 16.8143 25.9386C16.7266 25.9669 16.6969 26.02 16.714 26.117C16.7447 26.2937 16.8437 26.8935 16.8815 27.0685C16.8955 27.1332 16.9474 27.1846 17.0436 27.1662C17.2972 27.1182 17.9721 26.9534 17.9721 26.9534C17.9721 26.9534 17.7732 27.1369 17.6541 27.2452C17.6323 27.2656 17.607 27.2806 17.5787 27.2898C17.3948 27.351 16.9457 27.4767 16.8058 27.5073C16.6966 27.5308 16.627 27.4879 16.599 27.3647C16.599 27.3647 16.4075 26.5517 16.3383 26.2753C16.3274 26.2331 16.3164 26.1967 16.3031 26.1551C16.2513 25.9951 16.1267 25.6806 16.0564 25.5158C16.0482 25.4968 16.0441 25.4763 16.0445 25.4552C16.0465 25.267 16.0813 24.8469 16.0813 24.8469C16.0813 24.8469 16.4946 25.2333 16.6945 25.3728C16.7396 25.4045 16.7665 25.411 16.8218 25.397C17.0965 25.3265 17.7281 25.1182 18.0748 24.9888C18.154 24.9592 18.2233 24.9095 18.2772 24.8445C18.6358 24.4125 19.0856 23.7405 19.3453 23.2336C19.3811 23.1638 19.3879 23.0838 19.3654 23.0089L19.3094 22.8251C19.2931 22.7713 19.2361 22.7107 19.1835 22.6906C18.5724 22.4588 18.0905 22.2865 17.5244 22.0942L17.592 22.0728Z" fill="white"/>
<path fill-rule="evenodd" clip-rule="evenodd" d="M28.5432 19.9934L28.7544 20.085C28.8168 20.1119 28.8738 20.1514 28.9209 20.2004C30.2159 21.5485 31.2516 22.9463 31.459 23.3146C31.499 23.3854 31.5263 23.4562 31.5362 23.5373C31.7689 25.5032 31.5689 27.5859 31.0936 29.3977C31.0506 29.5611 31.0025 29.6448 30.8448 29.7629C30.3373 30.1437 29.5798 30.7508 28.8264 31.3697L28.5889 31.5653C27.6814 32.3148 26.8193 33.0485 26.4534 33.3861C26.3616 33.4712 26.2814 33.5672 26.2159 33.6737C26.0443 33.9519 25.7824 34.4305 25.6538 34.6681L25.6179 34.7346C25.5921 34.7825 25.5771 34.8104 25.5771 34.8104C25.4065 34.439 25.0345 33.5328 24.9069 33.1665C24.8653 33.047 24.8578 32.9844 24.9018 32.8244C25.11 32.0649 26.0937 29.8569 26.2852 29.4576L26.2855 29.621C26.2855 29.6448 26.2818 29.6683 26.2742 29.6908C26.1879 29.9519 25.659 31.6921 25.5515 32.4468C25.5276 32.6147 25.5297 32.66 25.5515 32.8247C25.5986 33.1771 25.8098 33.8232 25.8098 33.8232C25.8098 33.8232 25.935 33.5624 26.0518 33.3861C26.1091 33.2996 26.1435 33.2581 26.237 33.1655C26.71 32.6989 27.5169 31.9777 28.3573 31.2524L28.6548 30.9967C29.3004 30.444 29.9449 29.9062 30.4541 29.4954C30.5865 29.3885 30.6359 29.317 30.6653 29.1141C30.8113 28.1146 30.8537 26.3206 30.7656 25.015C30.7489 24.7686 30.6687 24.5303 30.5295 24.3257C30.2101 23.8549 29.8282 23.4093 29.2492 22.837C29.1666 22.755 29.1103 22.6501 29.0891 22.5357C28.9202 21.637 28.5431 19.9934 28.5431 19.9934H28.5432Z" fill="white"/>
<path fill-rule="evenodd" clip-rule="evenodd" d="M21.7249 20.6477C21.7249 20.6477 21.8426 21.0279 21.9561 21.4408L21.9957 21.5873C22.0674 21.8563 22.1314 22.1219 22.1545 22.2899C22.1767 22.4516 22.1729 22.4952 22.1153 22.6501C21.9754 23.0211 21.7181 23.6179 21.4436 24.228L21.3252 24.4897C20.9884 25.2299 20.6474 25.945 20.4818 26.2545C20.4002 26.407 20.3234 26.5064 20.1699 26.662C19.8194 27.0177 19.1486 27.6901 18.7333 28.0662C18.5824 28.2031 18.5418 28.3199 18.5111 28.4969C18.4616 28.7811 18.4125 29.2662 18.3989 29.5168C18.3869 29.737 18.4227 29.8402 18.5459 30.0584C19.2779 31.3605 21.7215 34.3563 22.4176 34.9854C22.4681 35.031 22.505 35.0616 22.6114 35.1321C22.7138 35.2002 23.0475 35.416 23.0475 35.416C23.0608 35.4252 23.0721 35.4374 23.0806 35.4514L23.2014 35.6635C23.2014 35.6635 23.1902 35.6579 23.1698 35.6478L23.1176 35.622C23.0757 35.6011 23.0202 35.5736 22.9565 35.5418L22.8013 35.4644C22.5635 35.3454 22.28 35.2022 22.131 35.1222C22.0696 35.0892 22.0119 35.0504 21.9583 35.0058C21.1431 34.3304 18.6449 31.4147 17.9102 30.1973C17.727 29.8933 17.7082 29.7949 17.7328 29.5073C17.7788 28.9718 17.8501 28.2984 17.9126 28.0033C17.9505 27.8252 17.9897 27.7207 18.1265 27.5634C18.5864 27.0355 19.1473 26.3386 19.6938 25.6234L19.8859 25.3705C20.7142 24.2735 21.4772 23.1754 21.7621 22.616C21.8273 22.4887 21.8327 22.4445 21.8341 22.3243C21.8378 21.9757 21.7263 21.2969 21.6969 21.1253C21.6925 21.0984 21.6911 21.0712 21.6935 21.044L21.7249 20.6477Z" fill="white"/>
<path fill-rule="evenodd" clip-rule="evenodd" d="M23.9586 24.9626C23.9586 24.9626 24.0528 25.5199 24.0815 25.6816C24.0975 25.7731 24.1009 25.7976 24.0777 25.8875C24.0024 26.1765 23.6547 27.6997 23.3764 29.259L23.3331 29.5054C23.2193 30.1621 23.1211 30.814 23.0639 31.3718C23.0315 31.6887 23.042 31.7646 23.126 32.0458C23.3638 32.8403 24.2435 34.9163 24.4125 35.2948C24.4312 35.3367 24.4425 35.3806 24.4479 35.4259L24.5114 35.9154C24.2296 35.4909 22.6981 32.6834 22.0965 31.1287C22.0255 30.9455 22.0118 30.8553 22.0903 30.5187C22.5087 28.7324 23.6406 25.6972 23.9586 24.9626H23.9586Z" fill="white"/>
</g>
<defs>
<clipPath id="clip0_1_99490">
<rect width="32" height="35.1209" fill="white" transform="translate(8 6)"/>
</clipPath>
</defs>
</svg>
