<svg width="48" height="48" viewBox="0 0 48 48" fill="none" xmlns="http://www.w3.org/2000/svg">
<g clip-path="url(#clip0_1_99137)">
<path fill-rule="evenodd" clip-rule="evenodd" d="M12.4641 35.408V10.072C12.4641 10.072 12.5521 8.656 11.8001 8.176V8H21.5601C22.4104 7.99965 23.259 8.07461 24.0961 8.224C25.3315 8.44297 26.4818 9.00108 27.4184 9.83598C28.355 10.6709 29.0411 11.7497 29.4001 12.952C29.7779 14.1839 29.8632 15.487 29.6494 16.7576C29.4355 18.0283 28.9283 19.2316 28.1681 20.272C27.4323 21.2217 26.568 22.0645 25.6001 22.776C25.3841 22.928 25.2561 23.008 25.0321 23.152C26.3237 25.1033 27.374 27.2039 28.1601 29.408C28.8305 31.3323 29.3363 33.3101 29.6721 35.32C29.8801 36.984 30.3761 37.152 30.4721 37.184V37.368H24.6321V37.184C24.8081 37.088 26.3921 36.384 26.4001 33.928C26.3338 31.8502 25.9116 29.7991 25.1521 27.864C24.6731 26.5386 24.1037 25.2475 23.4481 24C22.3231 24.4526 21.1579 24.7981 19.9681 25.032C19.2081 25.176 18.4401 25.296 17.4881 25.4C16.5361 25.504 15.8881 25.552 15.3681 25.584V35.424C15.3681 35.64 15.4241 36.8 16.1681 37.2V37.384H11.6641V37.2C12.3921 36.816 12.4641 35.64 12.4641 35.424M21.6881 9.664H15.3441V23.76C16.718 23.6858 18.0816 23.4795 19.4161 23.144C24.0401 21.776 26.2481 18.552 26.2801 14.752C26.2801 12.544 25.4801 11.192 24.6801 10.472C24.1613 10.0727 23.5455 9.81864 22.8961 9.736C22.5065 9.68183 22.1133 9.65776 21.7201 9.664M21.0801 25.216V26.704C22.0893 26.6426 23.0938 26.5197 24.0881 26.336C24.3601 26.96 24.6001 27.552 24.7681 28.008V28.072C24.2641 28.16 23.7281 28.232 23.1681 28.296C22.3681 28.392 21.5681 28.44 21.0961 28.472V38.072C21.0961 38.28 21.1441 39.416 21.8961 39.808V40H17.4721V39.824C18.1841 39.448 18.2721 38.296 18.2721 38.088V25.728C19.2216 25.6064 20.1642 25.4355 21.0961 25.216M26.9121 25.408C28.3753 24.7709 29.619 23.7176 30.4881 22.379C31.3572 21.0405 31.8135 19.4759 31.8001 17.88C31.8001 15.712 31.0561 14.4 30.2001 13.68L30.0481 13.6C29.9841 13.344 29.9201 13.096 29.8401 12.856C29.6774 12.3704 29.474 11.8994 29.2321 11.448C29.3841 11.448 29.5281 11.496 29.6641 11.52C30.8748 11.737 32.0019 12.2845 32.921 13.1019C33.8401 13.9193 34.5153 14.9749 34.8721 16.152C35.2455 17.3633 35.3307 18.645 35.121 19.8951C34.9113 21.1452 34.4124 22.3289 33.6641 23.352C32.9416 24.2808 32.0935 25.1047 31.1441 25.8C30.9361 25.952 30.8081 26.032 30.5921 26.176C31.8567 28.0865 32.883 30.1444 33.6481 32.304C34.3042 34.1905 34.8045 36.1277 35.1441 38.096C35.3361 39.696 35.8241 39.856 35.9441 39.888V40H30.2001V39.824C30.3761 39.736 31.9281 39.096 31.9361 36.672C31.8779 34.6352 31.4664 32.624 30.7201 30.728C30.2339 29.434 29.6647 28.1727 29.0161 26.952C28.7281 27.08 28.3121 27.224 27.8561 27.376C27.5601 26.688 27.2561 26.064 26.9121 25.432M25.6161 12.888H21.0801V22.04C20.5008 22.3116 19.9017 22.5389 19.2881 22.72C18.9486 22.8203 18.6041 22.9031 18.2561 22.968V13.288C18.2561 13.288 18.3361 11.904 17.5601 11.432V11.256H24.8161C25.1901 11.7286 25.4624 12.2733 25.6161 12.856" fill="black"/>
</g>
<defs>
<clipPath id="clip0_1_99137">
<rect width="25.6" height="32" fill="white" transform="translate(11 8)"/>
</clipPath>
</defs>
</svg>
