<svg width="48" height="48" viewBox="0 0 48 48" fill="none" xmlns="http://www.w3.org/2000/svg">
<g clip-path="url(#clip0_1_99140)">
<path d="M14.9854 10.8083C14.9854 9.80477 15.803 8.98669 16.807 8.98669H30.8392C31.8578 8.98669 32.6754 9.80477 32.6754 10.8083V37.2355C32.6754 38.2393 31.8578 39.0569 30.8392 39.0569H16.807C15.8031 39.0569 14.9854 38.2393 14.9854 37.2355V10.8083Z" fill="white"/>
<path d="M15.7417 13.9263V10.8082C15.7417 10.222 16.2211 9.74365 16.8074 9.74365H30.8396C31.4414 9.74365 31.9199 10.222 31.9199 10.8082V13.9263H15.7417Z" fill="#004990"/>
<path d="M31.9189 14.6832H15.7417V33.362H31.9189V14.6832Z" fill="#004990"/>
<path d="M28.5083 12.3989C28.5701 12.4911 28.7094 12.5994 28.8014 12.6455C29.0642 12.7848 29.2966 12.8308 29.5426 12.8308C29.9288 12.8308 30.1602 12.6606 30.1602 12.4142C30.1602 12.12 29.8661 12.0739 29.4191 12.0132C28.8485 11.9358 28.5397 11.6729 28.5397 11.2102C28.5543 10.747 28.9878 10.391 29.62 10.391C30.0513 10.391 30.3455 10.4842 30.5308 10.5764V11.1789C30.469 11.0709 30.3297 10.9935 30.1916 10.9323C30.0052 10.8699 29.82 10.8391 29.62 10.8391C29.3112 10.8391 29.1258 10.9627 29.1258 11.118C29.1258 11.3793 29.3729 11.4107 29.9132 11.519C30.4533 11.6268 30.7778 11.8588 30.7621 12.3367C30.7465 12.8921 30.314 13.263 29.5426 13.263C29.2023 13.263 28.771 13.2008 28.5083 13.0625V12.3989Z" fill="white"/>
<path d="M18.922 11.2872C18.922 11.5651 18.6907 11.6729 18.3358 11.6729H17.6877V10.8852H18.3358C18.6907 10.8852 18.922 10.9935 18.922 11.2872ZM19.3229 12.522C19.1847 12.2598 19.0769 12.0593 18.8759 11.9661C19.3083 11.8739 19.524 11.6269 19.524 11.2563C19.524 10.9014 19.369 10.6239 19.0769 10.5156C18.8917 10.4382 18.6591 10.4382 18.3043 10.4382H16.8848C17.024 10.5304 17.1004 10.8083 17.1004 11.0558V12.6146C17.1004 12.8459 17.0239 13.1395 16.8848 13.2171H17.9023C17.7641 13.1395 17.6877 12.8459 17.6877 12.6146V12.1199H18.119C18.3358 12.1199 18.4592 12.1974 18.5514 12.368C18.7052 12.6146 18.8143 12.9542 18.9995 13.2171H19.817C19.571 13.0474 19.4465 12.7847 19.3229 12.522Z" fill="white"/>
<path d="M21.4847 13.294C21.8699 13.294 22.1955 13.1855 22.4416 12.9689C22.7357 12.7229 22.9356 12.3517 22.9356 11.8272C22.9356 11.3185 22.7357 10.9322 22.4416 10.6846C22.1955 10.4841 21.8699 10.3759 21.4847 10.3759C21.0984 10.3759 20.7748 10.4841 20.5268 10.6846C20.2347 10.9322 20.0337 11.3185 20.0337 11.8272C20.0337 12.3517 20.2347 12.7229 20.5268 12.9689C20.7748 13.1855 21.1141 13.294 21.4847 13.294ZM20.8984 12.5685C20.7289 12.4141 20.6515 12.1675 20.6515 11.8272C20.6515 11.5027 20.7289 11.2563 20.8984 11.0866C21.0366 10.9473 21.2377 10.8553 21.4847 10.8553C21.7317 10.8553 21.9327 10.9473 22.0709 11.0866C22.2416 11.2562 22.3336 11.5027 22.3336 11.8272C22.3336 12.1676 22.2415 12.4141 22.0709 12.5685C21.9326 12.7077 21.7317 12.7998 21.4847 12.7998C21.2377 12.7998 21.0366 12.7077 20.8984 12.5685Z" fill="white"/>
<path d="M25.4982 12.5061C25.3432 12.7076 25.0198 12.769 24.6649 12.769H24.1246V11.0558C24.1246 10.824 24.2011 10.5303 24.3246 10.4382H23.3218C23.4598 10.5304 23.5384 10.8241 23.5384 11.0558V12.6146C23.5384 12.8621 23.4598 13.1239 23.3218 13.2171H25.4049L25.4982 12.5061Z" fill="white"/>
<path d="M28.0138 12.5061C27.8589 12.7076 27.5354 12.7847 27.1805 12.769H26.6247V11.0558C26.6247 10.824 26.7011 10.5303 26.8412 10.4382H25.8374C25.9755 10.5304 26.054 10.8241 26.054 11.0558V12.6146C26.054 12.8621 25.9755 13.1395 25.8374 13.2317H27.905L28.0138 12.5061Z" fill="white"/>
<path d="M33.6021 10.8082C33.6021 9.28027 32.3668 8.04547 30.8395 8.04547H16.8072C15.2788 8.04547 14.0435 9.28027 14.0435 10.8082V37.2354C14.0435 38.7649 15.2788 39.9992 16.8072 39.9992H30.8394C32.3667 39.9992 33.6021 38.7649 33.6021 37.2354V10.8082ZM14.9856 10.8082C14.9856 9.80475 15.8032 8.98667 16.8072 8.98667H30.8394C31.8581 8.98667 32.6756 9.80475 32.6756 10.8082V37.2354C32.6756 38.2393 31.8581 39.0569 30.8394 39.0569H16.8072C15.8033 39.0569 14.9856 38.2393 14.9856 37.2354V10.8082Z" fill="#004990"/>
<path d="M15.7417 34.1178V37.2354C15.7417 37.8237 16.2211 38.301 16.8074 38.301H30.8396C31.4414 38.301 31.9199 37.8237 31.9199 37.2354V34.1178H15.7417Z" fill="#004990"/>
<path d="M22.6729 30.3825V26.2297C23.0739 26.215 23.4602 26.1993 23.8465 26.1678C23.7072 25.8433 23.568 25.5199 23.3984 25.2111C23.167 25.2413 22.9211 25.2413 22.6729 25.2572V24.3934C22.1326 24.5168 21.5465 24.609 20.9445 24.6709V30.3825C20.9445 31.6471 20.3572 31.9874 20.0024 32.2188H23.6141C23.276 31.9874 22.6729 31.6471 22.6729 30.3825Z" fill="white"/>
<path d="M31.0708 32.2041C30.7778 31.9256 30.4061 31.4933 30.2219 30.6453C29.8826 29.0855 29.1718 26.8472 27.6748 25.1796C29.1415 24.3777 30.0365 23.111 30.0365 21.5533C30.0512 20.4409 29.4806 19.2684 28.462 18.5738C28.0297 18.2948 27.5208 18.0943 26.918 17.9707C27.1346 18.4341 27.2729 18.9282 27.3041 19.4228C27.9365 19.9159 28.2768 20.6728 28.2768 21.5834C28.2768 22.7413 27.6905 24.0992 25.6377 24.7942C25.8061 25.1177 25.9757 25.458 26.115 25.7815C26.2238 25.7512 26.3316 25.7207 26.4405 25.6893C27.3973 26.8011 28.1679 28.5453 28.3992 30.1658C28.5699 31.3393 28.1532 31.9256 27.8759 32.2041H31.0708Z" fill="white"/>
<path d="M19.5397 23.3896V16.9067H21.9936C22.8896 16.9218 23.5534 17.1072 24.078 17.4767C24.772 17.9707 25.1437 18.7581 25.1437 19.7002C25.1437 21.2894 24.0465 23.312 19.5397 23.3896ZM27.474 30.3354C27.165 30.058 26.7956 29.6255 26.6249 28.7767C26.2856 27.2179 25.6061 25.0257 24.2485 23.4658C24.3092 23.4356 24.3563 23.4197 24.417 23.3895C25.9612 22.602 26.9033 21.2894 26.9033 19.6841C26.918 18.5576 26.3465 17.3998 25.3288 16.7051C24.5258 16.165 23.4456 15.9493 22.071 15.9493H16.8691C17.224 16.1806 17.8103 16.5199 17.8103 17.7855V28.4992C17.8103 29.7795 17.224 30.1041 16.8691 30.3354H20.4809C20.1416 30.104 19.5397 29.7795 19.5397 28.4992V24.3463C20.8054 24.3463 21.9936 24.1914 22.9965 23.9297C23.9083 25.0258 24.5877 26.7238 24.8034 28.2826C24.9573 29.4572 24.5564 30.0581 24.2789 30.3355H27.474V30.3354Z" fill="white"/>
<path d="M22.673 22.464V18.8053H24.6181C24.4801 18.4033 24.2319 18.0792 23.8937 17.8316H20.0024C20.3573 18.0634 20.9445 18.388 20.9445 19.6688V22.8953C21.5927 22.8032 22.1788 22.6651 22.673 22.464Z" fill="white"/>
<path d="M26.208 36.2178C26.208 36.7412 26.5169 37.1432 27.0571 37.1432C27.4432 37.1432 27.7981 37.0354 27.9522 36.8502L27.859 37.4531C27.7208 37.5139 27.4737 37.5913 27.0728 37.5913C26.2081 37.5913 25.606 37.0814 25.606 36.2178C25.606 35.7551 25.7914 35.3991 26.0688 35.1678C26.3158 34.9511 26.655 34.8276 27.0727 34.8276C27.4737 34.8276 27.7207 34.905 27.8589 34.9824V35.5541C27.6903 35.3689 27.4432 35.2757 27.057 35.2757C26.5169 35.2757 26.208 35.6777 26.208 36.2178Z" fill="white"/>
<path d="M18.8287 35.6923C18.8287 35.955 18.6131 36.0628 18.2739 36.0628H17.6563V35.3227H18.2739C18.6131 35.3227 18.8287 35.4148 18.8287 35.6923ZM19.2151 36.8658C19.0915 36.6187 18.9836 36.4177 18.7984 36.3413C19.2003 36.2638 19.4003 36.0167 19.416 35.6776C19.416 35.3227 19.262 35.0599 18.9836 34.951C18.8141 34.8893 18.5826 34.8893 18.2424 34.8893H16.8994C17.0239 34.9668 17.1005 35.2295 17.1005 35.4754V36.9589C17.1005 37.1745 17.0239 37.453 16.8994 37.5451H17.8563C17.7338 37.4529 17.6563 37.1744 17.6563 36.9589V36.4794H18.0573C18.2739 36.4794 18.3964 36.5716 18.4906 36.7264C18.6288 36.9588 18.7367 37.2813 18.9062 37.5293L19.6944 37.5451C19.4464 37.361 19.3395 37.1275 19.2151 36.8658Z" fill="white"/>
<path d="M21.2692 37.6071C21.6387 37.6071 21.9475 37.4992 22.1788 37.2981C22.4562 37.0668 22.6584 36.7109 22.6584 36.2178C22.6584 35.7238 22.4563 35.3689 22.1788 35.1206C21.9475 34.9363 21.6387 34.8276 21.2692 34.8276C20.9132 34.8276 20.6044 34.9363 20.3731 35.1206C20.0956 35.3689 19.8945 35.7238 19.8945 36.2178C19.8945 36.7109 20.0956 37.0669 20.3731 37.2981C20.6045 37.4992 20.9133 37.6071 21.2692 37.6071ZM20.7122 36.9129C20.5584 36.7725 20.4809 36.5412 20.4809 36.2178C20.4809 35.8932 20.5584 35.6629 20.7122 35.507C20.8515 35.369 21.0368 35.2914 21.2839 35.2914C21.5152 35.2914 21.7005 35.3689 21.8398 35.507C21.9936 35.663 22.0712 35.8932 22.0712 36.2178C22.0712 36.5412 21.9937 36.7726 21.8398 36.9129C21.7005 37.051 21.5152 37.1432 21.2839 37.1432C21.0368 37.1432 20.8515 37.0511 20.7122 36.9129Z" fill="white"/>
<path d="M24.7257 34.8893C24.7886 34.9363 24.8188 34.9823 24.8032 35.0432C24.8032 35.1059 24.7717 35.1981 24.711 35.2913L24.1854 36.0471L23.661 35.2756C23.5992 35.1834 23.5386 35.0913 23.5532 35.0129C23.5679 34.9668 23.5847 34.9207 23.6454 34.8893H22.5806C22.7649 34.9668 22.858 35.1059 22.9963 35.3069L23.862 36.5256V36.9589C23.862 37.1745 23.7845 37.453 23.661 37.5294H24.6178C24.4942 37.453 24.4168 37.1745 24.4168 36.9589V36.5256L25.205 35.4147C25.3286 35.2608 25.4983 34.9823 25.6835 34.8892H24.7257" fill="white"/>
<path d="M29.8514 37.1129H29.1719V36.3874H30.1917L30.2523 35.9854H29.1719V35.3229H29.7739C30.1141 35.3229 30.3916 35.3373 30.5308 35.4755V34.8894H28.416C28.5396 34.9824 28.6161 35.2609 28.6161 35.4755V36.959C28.6161 37.1893 28.5396 37.4531 28.416 37.5452H30.5465L30.6385 36.896C30.4837 37.0971 30.1917 37.1129 29.8514 37.1129Z" fill="white"/>
</g>
<defs>
<clipPath id="clip0_1_99140">
<rect width="19.6158" height="32" fill="white" transform="translate(14 8)"/>
</clipPath>
</defs>
</svg>
