<svg width="48" height="48" viewBox="0 0 48 48" fill="none" xmlns="http://www.w3.org/2000/svg">
<g clip-path="url(#clip0_1_99237)">
<path d="M39.963 25.1315C39.9372 24.5343 39.6641 23.5343 38.3499 23.4081C39.5198 23.2323 39.7517 22.4559 39.7568 21.845C39.7671 21.2238 39.3858 20.1573 37.8397 20.1556C37.6181 20.1572 31.7688 20.1572 31.7636 20.1556V25.1367L29.6661 20.1556H25.868L24.0487 24.6674L22.1213 20.1539H18.2922L16.6431 24.3364C16.473 23.164 15.365 22.589 12.8552 22.6333C11.5925 22.6572 11.1648 22.4815 11.1648 21.9593C11.1648 21.4559 11.6235 21.2648 12.2677 21.287C12.8964 21.3143 13.4221 21.415 13.4272 22.2528H16.4111C16.4163 20.4065 14.2157 20.0566 12.4223 20.0413C10.6391 20.0328 8.39733 20.4065 8.34064 22.2272C8.28911 24.0394 9.71665 24.3637 11.7368 24.3364C13.5973 24.3142 13.5664 24.8636 13.5767 25.0616C13.5715 25.0735 13.5767 25.0838 13.5767 25.0991C13.5818 25.3141 13.4633 25.78 12.2677 25.7595C11.4019 25.7595 11.1339 25.367 11.0617 25.0991C11.0153 24.9506 11.0257 24.8397 11.0257 24.8448C10.4227 24.8397 8.04177 24.8397 8.03662 24.8448C8.04178 24.9233 8.04694 25.0087 8.05206 25.0991C8.17574 26.1042 9.06731 27.2099 12.4584 27.1571C15.1743 27.1297 15.5144 26.5888 15.7876 26.396L15.5866 26.9796H18.0655L18.5138 25.8994H21.8997L22.3532 26.9796H25.7082L26.1566 25.8994H29.5425L29.9908 26.9796H38.1335C39.4579 26.9812 39.9578 25.8482 39.963 25.1315C39.9578 25.111 39.9578 25.1503 39.963 25.1315L39.963 25.1315ZM19.1786 24.3108L20.2042 21.8262L21.24 24.3108H19.1786ZM26.8214 24.3092L27.8469 21.828L28.8776 24.3092H26.8214ZM34.2837 22.7614V21.7819H36.4225C36.7008 21.7803 36.9121 22.0021 36.9121 22.2734C36.9121 22.5447 36.675 22.7614 36.407 22.7614H34.2837ZM34.2837 25.1999V24.2341H36.5668C36.8348 24.2341 37.0718 24.4474 37.0718 24.717C37.0718 24.9849 36.8348 25.2016 36.5668 25.2016" fill="#0D254D"/>
</g>
<defs>
<clipPath id="clip0_1_99237">
<rect width="32" height="7.2" fill="white" transform="translate(8 20)"/>
</clipPath>
</defs>
</svg>
