<svg width="48" height="48" viewBox="0 0 48 48" fill="none" xmlns="http://www.w3.org/2000/svg">
<g clip-path="url(#clip0_1_75984)">
<path d="M20.8441 11.0491C24.3518 10.9255 27.8631 11.0482 31.3647 11.2731C31.7333 11.3051 32.1068 11.3025 32.4698 11.3801C32.6661 11.4274 32.8783 11.5024 32.9932 11.6808C33.0979 11.875 33.1001 12.1016 33.1273 12.3155C33.2106 13.3662 33.2351 14.4214 33.3136 15.4721C33.1619 15.4905 33.0103 15.4673 32.8586 15.4625C30.1579 15.3226 27.455 15.2065 24.7499 15.203C23.3489 15.2069 21.9461 15.1933 20.5465 15.2613C20.2072 15.3112 19.8232 15.4248 19.6272 15.7272C20.6863 15.9153 21.7432 16.1182 22.8018 16.3098C26.3104 16.9665 29.8217 17.6087 33.3303 18.2644C33.3272 18.9299 33.3285 19.5953 33.3298 20.2607C31.3568 19.9341 29.3872 19.5817 27.4155 19.2446C23.1735 18.5134 18.9329 17.7722 14.6896 17.048C14.6979 16.3094 14.7295 15.5712 14.7448 14.8321C14.7716 14.2469 14.7549 13.6538 14.8873 13.0791C14.9763 12.6736 15.1411 12.266 15.4484 11.9762C15.9788 11.4511 16.7459 11.3033 17.46 11.2293C18.5853 11.1249 19.7154 11.0907 20.8441 11.0491ZM14.6694 18.0198C20.7468 19.1411 26.822 20.2813 32.8985 21.4092C33.0313 21.4416 33.1733 21.4443 33.3009 21.4929L33.3162 21.528C33.2829 22.5248 33.2636 23.5225 33.2277 24.5193C33.2044 25.1344 33.1396 25.7779 32.8231 26.3197C32.4838 26.8799 31.8517 27.1898 31.2261 27.3069C30.3043 27.48 29.3627 27.4914 28.429 27.5427C24.4115 27.725 20.3856 27.6242 16.3746 27.3481C16.0542 27.3257 15.7281 27.32 15.4168 27.231C15.2555 27.1802 15.0889 27.0982 14.9978 26.9492C14.9 26.7536 14.8939 26.5305 14.8698 26.3175C14.7838 25.1545 14.7383 23.9894 14.6773 22.8251C16.7464 22.9566 18.8189 23.0302 20.8919 23.0763C22.8934 23.1087 24.895 23.1083 26.8965 23.128C27.3283 23.146 27.7951 23.0636 28.1226 22.7602C28.1704 22.7054 28.248 22.6546 28.2401 22.5726C27.3379 22.4372 26.4411 22.2688 25.5407 22.1207C21.9181 21.5013 18.2938 20.8876 14.6716 20.2647C14.6672 19.5164 14.6725 18.7681 14.6694 18.0198Z" fill="#19191B"/>
<path d="M30.7911 32.8825V34.2681H26.3838V33.8778C26.3838 33.2728 26.4811 32.8727 27.1913 32.8727H30.7911V32.8825ZM26.9189 32.0237C25.7611 32.0237 25.226 32.6385 25.226 33.6338V36.4247H26.3838V35.1366H30.7911V36.4149H31.9489V32.0237H26.9189ZM33.3791 32.0237V32.8825H36.1033V36.4149H37.261V32.8825H39.9852V32.0237H33.3791ZM17.793 34.7267C17.793 35.3415 17.9194 35.5659 18.6005 35.5659H23.4359V36.4247H18.3281C17.1703 36.4247 16.6255 35.8977 16.6255 34.9121V32.0237H23.4261V32.8825H17.7832V33.7412H23.1926V34.5853H17.7832V34.7316L17.793 34.7267ZM9.5037 33.5558C9.14372 33.5265 9.08535 33.3996 9.08535 33.185C9.08535 32.9898 9.19237 32.8727 9.46478 32.8727H14.8061V32.0237H9.32857C8.55024 32.0237 8.01514 32.3262 8.01514 33.1947C8.01514 34.0632 8.41403 34.3657 9.30912 34.4438L13.6386 34.8048C13.9694 34.8341 14.0667 34.9414 14.0667 35.1854C14.0667 35.4098 13.9694 35.5562 13.6678 35.5562H8.22918V36.4149H13.7553C14.7088 36.4149 15.1272 36.0343 15.1272 35.1366C15.1272 34.3169 14.7477 33.9851 13.8235 33.9071L9.5037 33.5558Z" fill="#19191B"/>
</g>
<defs>
<clipPath id="clip0_1_75984">
<rect width="32" height="25.4247" fill="white" transform="translate(8 11)"/>
</clipPath>
</defs>
</svg>
