<svg width="48" height="48" viewBox="0 0 48 48" fill="none" xmlns="http://www.w3.org/2000/svg">
<g clip-path="url(#clip0_1_76012)">
<path d="M31.0285 22.9308C31.0285 22.9308 29.7098 23.3119 27.159 24.8794C24.8722 26.287 23.9754 27.2328 23.9754 27.2328L16.9204 22.3571C16.9204 22.3571 19.8885 20.1744 22.3684 21.8461L25.6952 24.1282L26.101 23.8613L16.9218 17.4305C16.9218 17.4305 18.241 17.0489 20.7904 15.4824C23.0787 14.0742 23.9754 13.128 23.9754 13.128L31.03 18.0037C31.03 18.0037 28.0624 20.1863 25.582 18.5146L22.2552 16.2321L21.8494 16.4985L31.0285 22.9308Z" fill="#E20A17"/>
<path d="M25.5649 29.5821H20.1953V30.7762H22.789L20.104 33.2828V34.2833H25.5549V33.0844H22.8428L25.5649 30.584V29.5821Z" fill="#003399"/>
<path d="M17.0338 34.4035C19.1812 34.4035 19.7312 33.855 19.7312 32.6457V29.582H18.03V32.4625C18.03 32.9464 17.6161 33.2346 17.0338 33.2346C16.4282 33.2346 16.0386 32.9449 16.0386 32.4549V29.582H14.3374V32.6457C14.3374 33.855 14.8873 34.4035 17.0338 34.4035Z" fill="#003399"/>
<path d="M28.6822 34.4035C30.8297 34.4035 31.3796 33.855 31.3796 32.6457V29.582H29.6779V32.4625C29.6779 32.9464 29.2636 33.2346 28.6822 33.2346C28.0766 33.2346 27.6856 32.9449 27.6856 32.4549V29.582H25.9849V32.6457C25.9849 33.855 26.5348 34.4035 28.6822 34.4035Z" fill="#003399"/>
<path d="M39.8721 29.5821H38.0981V34.2832H39.8721V29.5821Z" fill="#003399"/>
<path d="M37.8276 29.5821H35.4937L33.605 31.2044V29.5821H31.8306V34.2833H33.605V32.6158L35.359 34.2833H37.7424L35.1483 31.8713L37.8276 29.5821Z" fill="#003399"/>
<path d="M10.1441 30.8811C10.1441 30.5177 10.6826 30.5058 10.8643 30.5058C11.0465 30.5058 11.4571 30.5785 11.7363 31.0367H13.7424C13.7424 30.1509 12.9028 29.4463 10.8705 29.4463C8.61317 29.4463 8.22878 30.4368 8.22878 31.0058C8.22878 32.0547 9.04132 32.362 10.8082 32.5504C10.9595 32.5661 11.8786 32.5228 11.8786 32.9648C11.8786 33.2921 11.3619 33.314 11.1716 33.314C10.9828 33.314 10.6293 33.2831 10.3372 32.7631H8.12793C8.12793 33.7954 8.82392 34.392 11.1683 34.392C13.3276 34.392 13.9009 33.5104 13.9009 32.8401C13.9009 32.1894 13.4542 31.5271 11.6131 31.2917C10.8453 31.1922 10.1441 31.1504 10.1441 30.8811Z" fill="#003399"/>
</g>
<defs>
<clipPath id="clip0_1_76012">
<rect width="32" height="21.5315" fill="white" transform="translate(8 13)"/>
</clipPath>
</defs>
</svg>
