<svg width="48" height="48" viewBox="0 0 48 48" fill="none" xmlns="http://www.w3.org/2000/svg">
<g clip-path="url(#clip0_1_76028)">
<path fill-rule="evenodd" clip-rule="evenodd" d="M24.0004 39.0943C32.3105 39.0943 39.0944 32.3122 39.0944 24.0047C39.0944 15.6877 32.3105 8.90564 24.0004 8.90564C15.681 8.90564 8.90576 15.6877 8.90576 24.0047C8.90576 32.3122 15.681 39.0943 24.0004 39.0943Z" fill="#972930"/>
<path fill-rule="evenodd" clip-rule="evenodd" d="M23.9734 37.8683C31.6132 37.8683 37.8596 31.6244 37.8596 23.9871C37.8596 16.3317 31.6132 10.0878 23.9734 10.0878C16.3162 10.0878 10.0703 16.3317 10.0703 23.9871C10.0703 31.6244 16.3162 37.8683 23.9734 37.8683Z" fill="white"/>
<path fill-rule="evenodd" clip-rule="evenodd" d="M24.0006 36.9073C31.1373 36.9073 36.9684 31.0774 36.9684 23.9339C36.9684 16.7903 31.1373 10.9517 24.0006 10.9517C16.8546 10.9517 11.0234 16.7903 11.0234 23.9339C11.0234 31.0774 16.8546 36.9073 24.0006 36.9073Z" fill="#972930"/>
<path fill-rule="evenodd" clip-rule="evenodd" d="M24.5362 12.3825L24.7085 35.5773C25.0261 35.5686 25.3237 35.5191 25.6325 35.4834L25.5386 24.7865H26.5566C26.7332 24.8216 26.774 24.898 26.7915 25.0214L26.8541 35.2328C27.1893 35.162 27.4631 35.0743 27.7625 34.9509L27.6529 24.8178C27.5827 24.6148 27.4487 24.5102 27.2457 24.4576C27.4217 24.4044 27.6554 24.2747 27.6999 24.0191V13.4162C27.6115 13.0898 27.4393 12.9332 26.9011 12.774C26.0986 12.5892 25.6206 12.4796 24.5362 12.3825ZM24.0194 12.3982C22.7489 12.3982 21.9383 12.5736 21.0124 12.7584V13.7137C21.4177 13.5816 21.6539 13.5427 22.0774 13.4632C22.13 20.8185 22.0962 28.1105 22.14 35.4834C22.4138 35.5279 22.893 35.5842 23.158 35.593C23.1492 28.1675 23.158 20.7308 23.158 13.3222C23.4756 13.3134 23.6748 13.2821 24.0194 13.2909C24.0194 12.982 24.0194 12.6982 24.0194 12.3982ZM20.245 12.9933C19.6799 13.1787 19.3096 13.361 18.8511 13.5728L17.9897 33.9955L18.8511 34.4497L18.992 29.9705L20.2763 30.456C20.3377 31.999 20.3934 33.5395 20.4642 35.0918C20.7724 35.1889 21.0412 35.2647 21.3413 35.3268C20.9792 27.9445 20.6064 20.3756 20.245 12.9933ZM25.5542 13.4005L26.5879 13.5885C26.6856 13.606 26.7408 13.648 26.7758 13.7451L26.8385 23.6745C26.8122 23.7892 26.7896 23.8405 26.6662 23.8938H25.5856L25.5542 13.4005ZM29.2974 13.6668L28.7805 34.5437C29.0981 34.4027 29.3869 34.2411 29.7046 34.0738L29.7515 29.9705L30.8479 29.4537L31.1298 33.1185C31.4029 32.8716 31.671 32.6361 31.9442 32.398L30.7226 14.5751C30.2465 14.2137 29.7822 13.9405 29.2974 13.6668ZM17.9584 14.1053C16.7762 14.9078 16.0802 15.34 15.0923 16.5485V18.005L15.9224 16.9557L16.032 32.539C16.297 32.8128 16.5519 33.0226 16.9404 33.3221C16.8871 27.6601 16.8439 21.7494 16.7994 16.0786C17.3112 15.6288 17.5261 15.4171 17.9584 15.1703V14.1053ZM19.5872 17.3003L20.2293 29.4693L19.0233 28.9368L19.5872 17.3003ZM30.0021 18.8038L30.7382 28.4826L29.7202 28.9995L30.0021 18.8038Z" fill="white"/>
</g>
<defs>
<clipPath id="clip0_1_76028">
<rect width="32" height="32" fill="white" transform="translate(8 8)"/>
</clipPath>
</defs>
</svg>
