<svg width="48" height="48" viewBox="0 0 48 48" fill="none" xmlns="http://www.w3.org/2000/svg">
<path d="M24.2581 35.4173L27.4077 17.7038C30.4098 17.7038 31.3568 18.033 31.4935 19.3767C31.4935 19.3767 33.5074 18.6258 34.5231 17.1008C30.5594 15.2641 26.5768 15.1812 26.5768 15.1812L24.2529 18.0117L24.2581 18.0114L21.9342 15.1808C21.9342 15.1808 17.9515 15.2637 13.9883 17.1004C15.0031 18.6255 17.0178 19.3764 17.0178 19.3764C17.1554 18.0326 18.1011 17.7034 21.0831 17.7013L24.2581 35.4173Z" fill="#E82127"/>
<path d="M24.2567 14.3637C27.4608 14.3392 31.1283 14.8593 34.8826 16.4957C35.3844 15.5925 35.5134 15.1933 35.5134 15.1933C31.4093 13.5696 27.5659 13.0139 24.2563 13C20.9468 13.0139 17.1035 13.5697 13 15.1933C13 15.1933 13.1831 15.685 13.6303 16.4957C17.384 14.8593 21.0521 14.3392 24.2563 14.3637H24.2567Z" fill="#E82127"/>
</svg>
