<svg width="48" height="48" viewBox="0 0 48 48" fill="none" xmlns="http://www.w3.org/2000/svg">
<g clip-path="url(#clip0_1_76055)">
<path fill-rule="evenodd" clip-rule="evenodd" d="M8 8H40V40H8V8Z" fill="white"/>
<path fill-rule="evenodd" clip-rule="evenodd" d="M24.1044 38.5882C15.4603 38.651 9.51617 32.4557 9.41158 23.8954C9.34866 15.5652 15.879 9.47451 24.1044 9.41176C32.5394 9.36993 38.5251 15.8582 38.588 24.1466C38.6299 32.3302 32.1836 38.5464 24.1044 38.5882ZM24.1044 37.5417C31.7858 37.6046 37.416 31.7022 37.5417 24.1047C37.6461 16.3606 31.8275 10.5211 24.1044 10.4583C16.4022 10.4165 10.4581 16.1931 10.4581 23.8954C10.4581 31.9533 16.0883 37.4998 24.1044 37.5417ZM18.0766 35.2812C22.9325 32.2256 27.1604 29.5674 30.802 27.3279C32.6441 26.1977 34.2138 23.6651 31.5137 22.4303C30.0907 21.7605 28.5418 21.8861 27.0556 22.1582C26.3857 22.2837 23.7905 22.849 23.7277 21.6768C23.6859 21.0908 24.3347 20.3372 25.6533 19.3745C26.6578 18.6628 28.9814 17.0932 32.6439 14.6862C35.1763 17.4908 36.4531 20.5466 36.4949 23.8536C36.5368 30.7396 30.8019 36.5371 23.9369 36.5371C22.0533 36.537 20.1068 36.1184 18.0766 35.2812ZM29.7556 12.6351C25.2559 15.5234 21.0068 18.1605 17.0301 20.5884C15.1673 21.7396 13.6185 24.2719 16.3186 25.486C17.7418 26.1558 19.2905 26.0511 20.7974 25.7582C21.4462 25.6535 24.0626 25.0885 24.1461 26.2395C24.1672 27.0767 21.195 29.4208 15.23 33.2301C12.6766 30.509 11.3998 27.4534 11.3788 24.0627C11.2532 17.1349 16.9672 11.4001 23.8951 11.3372C25.6951 11.3373 27.6626 11.7768 29.7556 12.6351Z" fill="black"/>
</g>
<defs>
<clipPath id="clip0_1_76055">
<rect width="32" height="32" fill="white" transform="translate(8 8)"/>
</clipPath>
</defs>
</svg>
