<svg width="48" height="48" viewBox="0 0 48 48" fill="none" xmlns="http://www.w3.org/2000/svg">
<path d="M24 14.3394C26.6889 14.3394 29.0792 15.4348 30.8223 17.1778C32.6152 18.9207 33.6607 21.3606 33.6607 24.05C33.6607 26.6891 32.6152 29.1291 30.8223 30.8721C29.0793 32.615 26.6889 33.7106 24 33.7106C21.3108 33.7106 18.9206 32.6152 17.128 30.8721C15.385 29.1291 14.2896 26.6892 14.2896 24.05C14.2896 21.3608 15.385 18.9208 17.128 17.1778C18.9206 15.4348 21.3108 14.3394 24 14.3394ZM24 14.4885C21.3608 14.4885 18.9705 15.584 17.2771 17.2774C15.5342 19.0202 14.4387 21.4106 14.4387 24.0498C14.4387 26.6889 15.5342 29.0793 17.2771 30.7723C18.9704 32.5152 21.3608 33.5611 24 33.5611C26.6391 33.5611 29.0297 32.5154 30.7225 30.7723C32.4654 29.0793 33.5113 26.6889 33.5113 24.0498C33.5113 21.4106 32.4654 19.0202 30.7225 17.2774C29.0297 15.5842 26.6391 14.4885 24 14.4885Z" fill="#C5C5C1"/>
<path d="M24.0002 9.21005C27.3864 9.21005 30.5239 10.3552 33.0134 12.2478L34.6565 10.6045L37.545 13.4926L35.9018 15.1858C37.7444 17.6759 38.7898 20.7131 38.7898 23.9998C38.7898 32.1667 32.1669 38.8396 24.0001 38.8396C15.8332 38.8396 9.20996 32.1667 9.20996 23.9998C9.21011 15.8333 15.8334 9.21005 24.0002 9.21005ZM24.0002 12.6959C17.7754 12.6959 12.696 17.7751 12.696 23.9998C12.696 30.2746 17.7754 35.3041 24.0002 35.3041C30.225 35.3041 35.3041 30.2746 35.3041 23.9998C35.3041 17.7751 30.225 12.6959 24.0002 12.6959Z" fill="url(#paint0_radial_1_76312)"/>
<path d="M23.9999 12.6459C27.1373 12.6459 29.9757 13.891 32.0671 15.9825C34.1086 18.0242 35.4035 20.8626 35.4035 24.0497C35.4035 27.187 34.1087 30.0251 32.0671 32.1169C29.9755 34.1583 27.1371 35.4533 23.9999 35.4533C20.8626 35.4533 17.9745 34.1585 15.9327 32.1169C13.891 30.025 12.5962 27.1869 12.5962 24.0497C12.5962 20.8626 13.891 18.0242 15.9327 15.9825C17.9745 13.891 20.8626 12.6459 23.9999 12.6459ZM23.9999 12.7956C20.9125 12.7956 18.074 14.0404 16.0322 16.0821C13.9905 18.1236 12.7455 20.9125 12.7455 24.0498C12.7455 27.1372 13.9903 29.9756 16.0322 32.0174C18.074 34.0091 20.9125 35.3039 23.9999 35.3039C27.0873 35.3039 29.9257 34.0091 31.9676 32.0174C34.0089 29.9756 35.2542 27.1372 35.2542 24.0498C35.2542 20.9125 34.0089 18.1236 31.9676 16.0821C29.9257 14.0404 27.0873 12.7956 23.9999 12.7956Z" fill="url(#paint1_linear_1_76312)"/>
<path d="M24 9.11041C27.3862 9.11041 30.5732 10.2557 33.0633 12.1978L33.0133 12.2478C30.5237 10.3552 27.3862 9.21007 24.0001 9.21007C15.8332 9.21007 9.21001 15.8333 9.21001 23.9999C9.21001 32.1667 15.8332 38.8396 24.0001 38.8396C32.167 38.8396 38.7899 32.1667 38.7899 23.9999C38.7899 20.7133 37.7444 17.6759 35.9018 15.1858L35.9515 15.1359C37.7941 17.6259 38.8896 20.6635 38.8896 23.9999C38.8896 28.133 37.1966 31.8679 34.5074 34.557C31.8182 37.2462 28.1333 38.8896 24.0001 38.8896C19.9164 38.8896 16.1817 37.2463 13.4928 34.557C10.8036 31.8181 9.11035 28.133 9.11035 23.9999C9.11035 19.9165 10.8036 16.1818 13.4928 13.4926C16.1816 10.8034 19.8666 9.11041 24 9.11041Z" fill="url(#paint2_radial_1_76312)"/>
<path d="M24 12.7456C30.2248 12.7456 35.304 17.7752 35.304 24.05C35.304 30.2747 30.2248 35.3539 24 35.3539C17.7753 35.3539 12.6958 30.2747 12.6958 24.05C12.6958 17.7751 17.7753 12.7456 24 12.7456ZM24 14.3394C18.6716 14.3394 14.3391 18.6719 14.3391 24.05C14.3391 29.3784 18.6716 33.7105 24 33.7105C29.3285 33.7105 33.6605 29.3783 33.6605 24.05C33.6605 18.6717 29.3285 14.3394 24 14.3394Z" fill="url(#paint3_radial_1_76312)"/>
<path opacity="0.67" d="M14.827 27.0638H9.53174C9.66233 27.686 9.84336 28.2883 10.0497 28.8794H15.6453C15.3137 28.3078 15.0371 27.7015 14.827 27.0638Z" fill="url(#paint4_linear_1_76312)"/>
<path opacity="0.86" d="M33.1806 27.0638H38.476C38.3452 27.686 38.1642 28.2883 37.9579 28.8794H32.3623C32.694 28.3078 32.9706 27.7015 33.1806 27.0638Z" fill="url(#paint5_linear_1_76312)"/>
<path d="M38.7401 20.265C39.0886 21.4603 39.238 22.7051 39.238 23.9998C39.238 25.3446 39.0389 26.6394 38.7401 27.8842H9.30957V27.8342H38.6903C39.0391 26.5894 39.1884 25.2946 39.1884 23.9502C39.1883 22.6554 39.0389 21.4106 38.7401 20.265Z" fill="#1A171B"/>
<path d="M9.25985 20.2155H38.7402C39.0391 21.4106 39.1882 22.6554 39.1882 23.9502C39.1882 25.2946 39.0391 26.5894 38.6901 27.8342H9.30953C8.96088 26.5894 8.76172 25.2946 8.76172 23.9502C8.76172 22.6554 8.96088 21.4106 9.25985 20.2155Z" fill="url(#paint6_radial_1_76312)"/>
<path d="M35.2543 9.60852L38.541 12.8952L36.1009 15.3351L36.2503 15.5343L34.5073 16.9289L33.9594 17.1281L37.545 13.4926L34.6565 10.6045L31.0713 14.19L31.2208 13.6919L35.2543 9.60852Z" fill="url(#paint7_linear_1_76312)"/>
<path d="M31.9678 9.25974C34.8558 10.8035 37.1964 13.1938 38.7899 16.0322V9.25974H31.9678Z" fill="url(#paint8_radial_1_76312)"/>
<path d="M31.9678 9.25974C34.8558 10.8035 37.1964 13.1938 38.7899 16.0322" stroke="#B1B0A8" stroke-width="0.3402" stroke-linecap="round"/>
<path d="M31.9678 9.25974C34.8062 10.8035 37.1964 13.1938 38.7402 16.0322" stroke="#CBCAC4" stroke-width="0.2361" stroke-linecap="round"/>
<path d="M31.918 9.25974C34.8063 10.8035 37.1466 13.1938 38.7404 16.0821" stroke="#E6E6E1" stroke-width="0.1324" stroke-linecap="round"/>
<path d="M31.918 9.25974C34.7564 10.8535 37.1466 13.1938 38.6904 16.0821" stroke="white" stroke-width="0.0283" stroke-linecap="round"/>
<path d="M38.7899 9.11041C38.8399 9.11041 38.8896 9.16009 38.8896 9.25959H31.9678H31.8682C31.8682 9.16009 31.9178 9.11041 31.9678 9.11041H38.7899Z" fill="url(#paint9_linear_1_76312)"/>
<path d="M38.8894 16.0322C38.8894 16.1318 38.8397 16.1818 38.7898 16.1818L38.7402 16.0821V9.11041C38.7402 9.11041 38.7402 9.11041 38.7898 9.11041C38.8397 9.11041 38.8894 9.16009 38.8894 9.25959V16.0322Z" fill="url(#paint10_linear_1_76312)"/>
<path d="M9.31356 20.2728C9.01474 21.468 8.81543 22.7128 8.81543 24.0076C8.81543 24.1147 8.85231 24.7493 8.8549 24.8556L8.9413 25.8175C8.93992 25.7397 8.90213 24.172 8.90213 24.094C8.90213 22.7992 9.11791 21.5983 9.41672 20.4031L19.849 20.3592L24.3517 20.2728H9.31356Z" fill="url(#paint11_linear_1_76312)"/>
<path d="M34.6563 25.847C33.3361 25.847 32.2618 25.0408 32.2618 24.0498C32.2618 23.0586 33.3361 22.2523 34.6563 22.2523C36.0046 22.2523 37.1014 23.0588 37.1014 24.0498C37.1013 25.0408 36.0044 25.847 34.6563 25.847ZM34.6563 22.7596C34.1687 22.7596 33.8149 23.3023 33.8149 24.0498C33.8149 24.7569 34.1766 25.2901 34.6563 25.2901C35.1128 25.2901 35.4984 24.7221 35.4984 24.0498C35.4984 23.3384 35.1206 22.7596 34.6563 22.7596ZM19.518 25.847C18.1975 25.847 17.1232 25.0408 17.1232 24.0498C17.1232 23.1025 18.2199 22.3023 19.518 22.3023C20.866 22.3023 21.9625 23.0863 21.9625 24.0498C21.9625 25.0408 20.866 25.847 19.518 25.847ZM19.518 22.8091C19.038 22.8091 18.676 23.3425 18.676 24.0498C18.676 24.7569 19.038 25.2901 19.518 25.2901C19.9746 25.2901 20.3601 24.7221 20.3601 24.0498C20.3602 23.3774 19.9746 22.8091 19.518 22.8091ZM28.382 25.7474L26.8344 22.8568L26.0418 22.8593L26.0372 22.4067L29.4281 22.4021L29.4327 22.8547L28.5813 22.8593L29.7806 24.8942L30.8181 22.8527L30.2246 22.8593L30.22 22.4067L32.565 22.4021L32.5696 22.8547L31.7682 22.8593L30.2274 25.7475H28.382V25.7474ZM22.1573 25.7474L22.1527 25.195L22.9539 25.1904L22.9493 22.8547L22.1573 22.8593L22.1527 22.4067L25.2946 22.4021L25.2992 22.8547L24.4975 22.8593L24.5021 25.1951L25.3442 25.1906C25.6165 25.1906 26.3343 25.0124 26.3854 24.199L26.8878 24.1947L26.8923 25.7475H22.1573V25.7474ZM13.2434 25.7474L11.6957 22.8568L10.903 22.8593L10.8984 22.4067L14.2892 22.4021L14.2938 22.8547L13.4426 22.8593L14.6417 24.8942L15.7292 22.8526L15.0859 22.8593L15.0813 22.4067L17.4266 22.4021L17.4312 22.8547L16.6296 22.8593L15.0888 25.7475H13.2434V25.7474Z" fill="white"/>
<path d="M34.6565 22.2569C36.0014 22.2569 37.097 23.0539 37.097 24.05C37.097 25.0458 36.0016 25.8426 34.6565 25.8426C33.3622 25.8426 32.2665 25.0458 32.2665 24.05C32.2665 23.0539 33.362 22.2569 34.6565 22.2569ZM34.6565 25.2946C35.1046 25.2946 35.5033 24.7468 35.5033 24.0498C35.5033 23.3029 35.1048 22.755 34.6565 22.755C34.1588 22.755 33.8103 23.3029 33.8103 24.0498C33.8103 24.7468 34.1588 25.2946 34.6565 25.2946ZM19.5182 22.3069C20.8627 22.3069 21.9581 23.1037 21.9581 24.0498C21.9581 25.0456 20.8627 25.8424 19.5182 25.8424C18.2234 25.8424 17.1278 25.0456 17.1278 24.0498C17.1279 23.1035 18.2234 22.3069 19.5182 22.3069ZM19.5182 25.2946C19.9663 25.2946 20.3648 24.7468 20.3648 24.0498C20.3648 23.3528 19.9663 22.8046 19.5182 22.8046C19.0201 22.8046 18.6716 23.3528 18.6716 24.0498C18.6716 24.7468 19.0201 25.2946 19.5182 25.2946ZM32.5651 22.4066V22.8546H31.7683L30.2246 25.7426H28.382L26.8384 22.8546H26.0418V22.4066H29.4281V22.8546H28.5814L29.7766 24.8963L30.8221 22.8546H30.2246V22.4066H32.5651ZM25.2948 22.4066V22.8546H24.4979V25.1948C24.4979 25.1948 25.0457 25.1948 25.3446 25.1948C25.6435 25.1948 26.3404 24.996 26.3904 24.199C26.7886 24.199 26.8883 24.199 26.8883 24.199V25.7426H22.9541H22.1574V25.1948H22.9541V22.8546H22.1574V22.4066H25.2948ZM17.4268 22.4066V22.8546H16.6298L15.0862 25.7426H13.2436L11.7 22.8546H10.9032V22.4066H14.2895V22.8546H13.4429L14.638 24.8963L15.7335 22.8546H15.086V22.4066H17.4268ZM34.6565 22.2476C33.3337 22.2476 32.2575 23.0562 32.2575 24.0498C32.2575 25.0434 33.3338 25.8514 34.6565 25.8514C36.0072 25.8514 37.106 25.0432 37.106 24.0498C37.106 23.0562 36.0072 22.2476 34.6565 22.2476ZM34.6565 25.2856C34.1792 25.2856 33.8195 24.7544 33.8195 24.05C33.8195 23.305 34.1716 22.7643 34.6565 22.7643C35.1184 22.7643 35.4941 23.3411 35.4941 24.05C35.4941 24.7197 35.1104 25.2856 34.6565 25.2856ZM19.5182 22.2978C18.2175 22.2978 17.1187 23.1002 17.1187 24.05C17.1187 25.0435 18.1951 25.8516 19.5182 25.8516C20.8686 25.8516 21.9673 25.0434 21.9673 24.05C21.9674 23.0837 20.8687 22.2978 19.5182 22.2978ZM19.5182 25.2856C19.0408 25.2856 18.6807 24.7544 18.6807 24.05C18.6807 23.3452 19.0408 22.8139 19.5182 22.8139C19.9721 22.8139 20.3557 23.38 20.3557 24.05C20.3557 24.7197 19.9721 25.2856 19.5182 25.2856ZM32.5742 22.3974H32.5651H30.2248H30.2156V22.4066V22.8546V22.8637H30.2248H30.8073L29.776 24.8773L28.5974 22.8637H29.4281H29.4373V22.8546V22.4066V22.3974H29.4281H26.0418H26.0326V22.4066V22.8546V22.8637H26.0418H26.8329L28.374 25.7469L28.3766 25.7516H28.382H30.2246H30.2301L30.2327 25.7469L31.7737 22.8637H32.5649H32.574V22.8546V22.4066V22.3974H32.5742ZM25.3039 22.3974H25.2948H22.1574H22.1483V22.4066V22.8546V22.8637H22.1574H22.9449V25.1858H22.1574H22.1483V25.195V25.7428V25.7519H22.1574H22.9541H26.8881H26.8972V25.7428V24.1992V24.19H26.8881H26.3903H26.3816L26.3811 24.1986C26.3302 25.0085 25.6156 25.1858 25.3443 25.1858H24.5067V22.8637H25.2947H25.3038V22.8546V22.4066V22.3974H25.3039ZM17.4359 22.3974H17.4268H15.086H15.0769V22.4066V22.8546V22.8637H15.086H15.7181L14.6376 24.8777L13.4588 22.8638H14.2895H14.2987V22.8547V22.4067V22.3976H14.2895H10.9032H10.894V22.4067V22.8547V22.8638H10.9032H11.6943L13.2355 25.747L13.2381 25.7518H13.2436H15.0862H15.0917L15.0943 25.747L16.6353 22.8637H17.4268H17.4359V22.8546V22.4066V22.3974Z" fill="#1D2D28"/>
<defs>
<radialGradient id="paint0_radial_1_76312" cx="0" cy="0" r="1" gradientUnits="userSpaceOnUse" gradientTransform="translate(13.4253 21.0827) scale(30.8921)">
<stop stop-color="white"/>
<stop offset="0.0469" stop-color="#FCFCFB"/>
<stop offset="0.2247" stop-color="#FAFAF9"/>
<stop offset="0.3719" stop-color="#B9B9B8"/>
<stop offset="0.4972" stop-color="#888887"/>
<stop offset="0.5923" stop-color="#6A6A69"/>
<stop offset="0.6461" stop-color="#5F5F5E"/>
<stop offset="0.7275" stop-color="#555554"/>
<stop offset="0.8673" stop-color="#3A3939"/>
<stop offset="1" stop-color="#1B1919"/>
</radialGradient>
<linearGradient id="paint1_linear_1_76312" x1="18.1625" y1="22.0348" x2="29.2383" y2="25.8485" gradientUnits="userSpaceOnUse">
<stop stop-color="#E2E2DC"/>
<stop offset="1" stop-color="white"/>
</linearGradient>
<radialGradient id="paint2_radial_1_76312" cx="0" cy="0" r="1" gradientUnits="userSpaceOnUse" gradientTransform="translate(32.7906 33.5323) scale(33.903 33.9029)">
<stop stop-color="#C5C6C2"/>
<stop offset="1" stop-color="#868680"/>
</radialGradient>
<radialGradient id="paint3_radial_1_76312" cx="0" cy="0" r="1" gradientUnits="userSpaceOnUse" gradientTransform="translate(29.3331 29.3829) scale(23.8081 23.8081)">
<stop stop-color="white"/>
<stop offset="0.1986" stop-color="#F2F2F3"/>
<stop offset="0.2978" stop-color="#EAEAEB"/>
<stop offset="0.2992" stop-color="#E9E9EA"/>
<stop offset="0.3715" stop-color="#C3C3C3"/>
<stop offset="0.443" stop-color="#A5A5A5"/>
<stop offset="0.5126" stop-color="#8F8F8F"/>
<stop offset="0.5794" stop-color="#828281"/>
<stop offset="0.6404" stop-color="#7E7E7D"/>
<stop offset="0.7534" stop-color="#545352"/>
<stop offset="0.8551" stop-color="#353333"/>
<stop offset="0.9408" stop-color="#222020"/>
<stop offset="1" stop-color="#1B1919"/>
</radialGradient>
<linearGradient id="paint4_linear_1_76312" x1="12.5885" y1="28.9659" x2="12.5885" y2="27.8997" gradientUnits="userSpaceOnUse">
<stop stop-color="white" stop-opacity="0"/>
<stop offset="0.17" stop-color="#FAFAF9" stop-opacity="0"/>
<stop offset="0.427" stop-color="#BBBBB8" stop-opacity="0.1"/>
<stop offset="0.5232" stop-color="#8F8F8C" stop-opacity="0.2"/>
<stop offset="0.6238" stop-color="#686866" stop-opacity="0.3"/>
<stop offset="0.7234" stop-color="#4A4948" stop-opacity="0.6"/>
<stop offset="0.8206" stop-color="#343432" stop-opacity="0.8"/>
<stop offset="0.9141" stop-color="#272625" stop-opacity="0.9"/>
<stop offset="1" stop-color="#232221"/>
</linearGradient>
<linearGradient id="paint5_linear_1_76312" x1="35.4191" y1="28.9659" x2="35.4191" y2="27.8997" gradientUnits="userSpaceOnUse">
<stop stop-color="white" stop-opacity="0"/>
<stop offset="0.17" stop-color="#FAFAF9" stop-opacity="0"/>
<stop offset="0.427" stop-color="#BBBBB8" stop-opacity="0"/>
<stop offset="0.5232" stop-color="#8F8F8C" stop-opacity="0"/>
<stop offset="0.6238" stop-color="#686866" stop-opacity="0"/>
<stop offset="0.7234" stop-color="#4A4948" stop-opacity="0.25"/>
<stop offset="0.8206" stop-color="#343432" stop-opacity="0.5"/>
<stop offset="0.9141" stop-color="#272625" stop-opacity="0.75"/>
<stop offset="1" stop-color="#232221"/>
</linearGradient>
<radialGradient id="paint6_radial_1_76312" cx="0" cy="0" r="1" gradientUnits="userSpaceOnUse" gradientTransform="translate(10.1409 21.0841) scale(19.2195 19.2195)">
<stop stop-color="#006AB1"/>
<stop offset="0.0016" stop-color="#006AB1"/>
<stop offset="0.1275" stop-color="#0061A4"/>
<stop offset="0.2416" stop-color="#005E9F"/>
<stop offset="0.5062" stop-color="#00548E"/>
<stop offset="0.8371" stop-color="#004374"/>
<stop offset="0.9588" stop-color="#004173"/>
<stop offset="1" stop-color="#003B6F"/>
</radialGradient>
<linearGradient id="paint7_linear_1_76312" x1="38.2495" y1="17.0109" x2="30.7593" y2="9.5207" gradientUnits="userSpaceOnUse">
<stop offset="0.0056" stop-color="#212111"/>
<stop offset="0.6461" stop-color="#41403F"/>
<stop offset="0.6508" stop-color="#454443"/>
<stop offset="0.6558" stop-color="#52514F"/>
<stop offset="0.6608" stop-color="#666564"/>
<stop offset="0.6659" stop-color="#838281"/>
<stop offset="0.6711" stop-color="#A9A8A6"/>
<stop offset="0.6762" stop-color="#D6D5D2"/>
<stop offset="0.68" stop-color="#FDFCF9"/>
<stop offset="0.6826" stop-color="#FAF9F6"/>
<stop offset="0.6842" stop-color="#F2F1EE"/>
<stop offset="0.6856" stop-color="#E3E2DF"/>
<stop offset="0.6869" stop-color="#CECECA"/>
<stop offset="0.688" stop-color="#B3B3AF"/>
<stop offset="0.6891" stop-color="#93938E"/>
<stop offset="0.69" stop-color="#70706B"/>
<stop offset="0.6924" stop-color="#6D6D68"/>
<stop offset="0.7145" stop-color="#535250"/>
<stop offset="0.7396" stop-color="#3E3C3D"/>
<stop offset="0.7692" stop-color="#2E2B2D"/>
<stop offset="0.8059" stop-color="#222023"/>
<stop offset="0.8573" stop-color="#1C191D"/>
<stop offset="1" stop-color="#1A171B"/>
</linearGradient>
<radialGradient id="paint8_radial_1_76312" cx="0" cy="0" r="1" gradientUnits="userSpaceOnUse" gradientTransform="translate(37.6334 10.0175) scale(8.03209)">
<stop stop-color="#555552"/>
<stop offset="1" stop-color="#50504D"/>
</radialGradient>
<linearGradient id="paint9_linear_1_76312" x1="31.8681" y1="9.18506" x2="38.8896" y2="9.18506" gradientUnits="userSpaceOnUse">
<stop stop-color="#5D5D5F"/>
<stop offset="0.0852" stop-color="#505051"/>
<stop offset="0.2581" stop-color="#3C3C3C"/>
<stop offset="0.4497" stop-color="#2E2D2D"/>
<stop offset="0.6724" stop-color="#262524"/>
<stop offset="1" stop-color="#232221"/>
</linearGradient>
<linearGradient id="paint10_linear_1_76312" x1="38.8147" y1="16.1819" x2="38.8147" y2="9.11043" gradientUnits="userSpaceOnUse">
<stop stop-color="#5D5D5F"/>
<stop offset="0.096" stop-color="#555456"/>
<stop offset="0.4584" stop-color="#393939"/>
<stop offset="0.7723" stop-color="#292827"/>
<stop offset="1" stop-color="#232221"/>
</linearGradient>
<linearGradient id="paint11_linear_1_76312" x1="12.8328" y1="17.8868" x2="17.3288" y2="23.9676" gradientUnits="userSpaceOnUse">
<stop stop-color="white"/>
<stop offset="0.1091" stop-color="#D8E8F3"/>
<stop offset="0.3376" stop-color="#8CBCDC"/>
<stop offset="0.5419" stop-color="#5099C9"/>
<stop offset="0.7143" stop-color="#257FBC"/>
<stop offset="0.8481" stop-color="#0A70B4"/>
<stop offset="0.927" stop-color="#006AB1"/>
<stop offset="0.9288" stop-color="#046BB2"/>
<stop offset="0.9489" stop-color="#2678B8"/>
<stop offset="0.968" stop-color="#3E81BD"/>
<stop offset="0.9856" stop-color="#4D86C0"/>
<stop offset="1" stop-color="#5288C1"/>
</linearGradient>
</defs>
</svg>
